<?xml version="1.0" encoding="UTF-8" standalone="no"?>
<!DOCTYPE svg PUBLIC "-//W3C//DTD SVG 1.1//EN" "http://www.w3.org/Graphics/SVG/1.1/DTD/svg11.dtd">
<svg width="100%" height="100%" viewBox="0 0 1866 406" version="1.1" xmlns="http://www.w3.org/2000/svg" xmlns:xlink="http://www.w3.org/1999/xlink" xml:space="preserve" xmlns:serif="http://www.serif.com/" style="fill-rule:evenodd;clip-rule:evenodd;stroke-linejoin:round;stroke-miterlimit:2;">
    <g transform="matrix(1,0,0,1,-133.52,-821.147)">
        <g transform="matrix(11.9756,0,0,11.9756,-5483.08,-8137.28)">
            <path d="M491.619,781.431L469.004,781.431L469.346,780.528C470.648,780.495 471.518,780.389 471.958,780.21C472.642,779.917 473.146,779.535 473.472,779.063C473.976,778.314 474.513,776.963 475.083,775.01L480.918,754.869C481.406,753.208 481.65,751.988 481.65,751.207C481.65,750.588 481.427,750.108 480.979,749.766C480.531,749.424 479.689,749.253 478.452,749.253C478.175,749.253 477.956,749.245 477.793,749.229L478.086,748.326L491.587,748.326L491.392,749.229C489.878,749.229 488.804,749.375 488.169,749.668C487.534,749.961 487.005,750.442 486.582,751.109C486.289,751.548 485.809,752.916 485.142,755.21L479.404,775.01C478.965,776.508 478.745,777.549 478.745,778.135C478.745,778.526 478.965,778.9 479.404,779.258C479.681,779.502 480.308,779.624 481.284,779.624L482.562,779.624C484.889,779.624 486.737,779.332 488.104,778.746C489.113,778.306 489.906,777.6 490.753,776.721C491.208,776.233 491.914,774.979 493.069,773.042L493.692,771.964L494.842,772.032L491.619,781.431Z" style="fill-rule:nonzero;"/>
        </g>
        <g transform="matrix(12.8998,0,0,11.9756,-5505.6,-8140.5)">
            <path d="M484.946,748.326L495.176,774.278L500.718,754.893C501.173,753.298 501.401,752.061 501.401,751.182C501.401,750.58 501.19,750.108 500.767,749.766C500.343,749.424 499.554,749.253 498.398,749.253C498.203,749.253 498,749.245 497.788,749.229L498.057,748.326L508.701,748.326L508.408,749.229C507.301,749.213 506.479,749.327 505.942,749.571C505.177,749.913 504.608,750.352 504.233,750.889C503.713,751.654 503.184,752.989 502.646,754.893L494.858,782.188L493.979,782.188L482.969,754.258L477.085,774.888C476.645,776.451 476.426,777.647 476.426,778.477C476.426,779.096 476.625,779.563 477.024,779.881C477.423,780.198 478.371,780.414 479.868,780.528L479.624,781.431L469.224,781.431L469.565,780.528C470.867,780.495 471.738,780.381 472.178,780.186C472.845,779.893 473.341,779.511 473.667,779.039C474.139,778.322 474.668,776.939 475.254,774.888L481.821,751.866C481.186,750.889 480.507,750.218 479.783,749.852C479.058,749.485 477.931,749.278 476.401,749.229L476.67,748.326L484.946,748.326Z" style="fill-rule:nonzero;"/>
        </g>
        <g transform="matrix(11.9756,0,0,11.9756,-4550.9,-8137.28)">
            <path d="M477.939,749.229L478.232,748.326L488.804,748.326C493.28,748.326 496.596,748.838 498.752,749.864C500.909,750.889 502.63,752.505 503.916,754.71C505.202,756.915 505.845,759.279 505.845,761.802C505.845,763.967 505.474,766.071 504.734,768.113C503.993,770.156 503.155,771.792 502.219,773.02C501.283,774.249 499.847,775.604 497.91,777.085C495.973,778.567 493.874,779.661 491.611,780.369C489.349,781.077 486.525,781.431 483.14,781.431L469.126,781.431L469.443,780.528C470.729,780.495 471.592,780.381 472.031,780.186C472.682,779.909 473.162,779.535 473.472,779.063C473.944,778.379 474.473,777.004 475.059,774.937L480.918,754.917C481.374,753.339 481.602,752.102 481.602,751.207C481.602,750.572 481.39,750.083 480.967,749.742C480.544,749.4 479.713,749.229 478.477,749.229L477.939,749.229ZM486.606,750.157L479.429,774.937C478.892,776.792 478.623,777.94 478.623,778.379C478.623,778.64 478.708,778.892 478.879,779.136C479.05,779.38 479.282,779.543 479.575,779.624C479.998,779.771 480.682,779.844 481.626,779.844C484.181,779.844 486.553,779.58 488.743,779.051C490.932,778.522 492.726,777.736 494.126,776.695C496.112,775.181 497.699,773.098 498.887,770.445C500.075,767.792 500.669,764.773 500.669,761.387C500.669,757.562 499.757,754.718 497.935,752.854C496.112,750.991 493.45,750.059 489.951,750.059C489.088,750.059 487.974,750.092 486.606,750.157Z" style="fill-rule:nonzero;"/>
        </g>
        <g transform="matrix(11.9756,0,0,11.9756,-4037.63,-8137.28)">
            <path d="M486.875,750.083L482.969,763.194L487.314,763.194C489.268,763.194 490.728,762.893 491.697,762.291C492.665,761.688 493.662,760.402 494.687,758.433L495.615,758.433L492.173,770.494L491.196,770.494C491.44,769.517 491.562,768.711 491.562,768.077C491.562,767.084 491.233,766.315 490.574,765.77C489.914,765.224 488.682,764.952 486.875,764.952L482.48,764.952L479.6,774.937C479.079,776.711 478.818,777.891 478.818,778.477C478.818,779.079 479.042,779.543 479.49,779.869C479.937,780.194 481.032,780.414 482.773,780.528L482.48,781.431L469.394,781.431L469.712,780.528C470.981,780.495 471.828,780.381 472.251,780.186C472.902,779.909 473.382,779.535 473.691,779.063C474.131,778.396 474.652,777.02 475.254,774.937L481.089,754.991C481.561,753.379 481.797,752.118 481.797,751.207C481.797,750.783 481.691,750.421 481.479,750.12C481.268,749.819 480.955,749.595 480.539,749.449C480.124,749.302 479.298,749.229 478.061,749.229L478.354,748.326L504.038,748.326L501.597,756.7L500.669,756.7C500.848,755.691 500.937,754.86 500.937,754.209C500.937,753.135 500.64,752.285 500.046,751.658C499.452,751.032 498.691,750.588 497.764,750.328C497.113,750.165 495.656,750.083 493.393,750.083L486.875,750.083Z" style="fill-rule:nonzero;"/>
        </g>
        <g transform="matrix(8.88412,1.75209,-2.15947,10.9498,-2112.46,-8161.89)">
            <path d="M496.055,764.952L497.153,764.952C497.088,767.068 496.486,768.724 495.347,769.92C494.207,771.116 492.816,771.714 491.172,771.714C490.423,771.714 489.617,771.588 488.755,771.336C487.892,771.084 487.811,770.939 484.214,769.475C481.707,768.433 480.019,767.891 478.867,767.912C477.81,767.932 476.642,768.511 476.135,768.953C475.322,769.663 474.957,770.651 474.659,772.21L472.83,772.334C473.55,770.213 474.663,767.977 476.255,766.95C477.926,765.873 479.062,765.724 479.828,765.78C480.694,765.843 481.666,766.167 482.414,766.395C484.107,766.883 482.932,766.543 485.691,767.723C488.45,768.903 490.391,769.493 491.514,769.493C492.734,769.493 493.76,769.102 494.59,768.321C495.42,767.54 495.908,766.416 496.055,764.952Z" style="fill-rule:nonzero;"/>
        </g>
        <g transform="matrix(8.88412,1.75209,-2.15947,10.9498,-1618.46,-8156.89)">
            <path d="M497.882,765.983L498.981,765.983C498.915,768.099 498.313,769.755 497.174,770.951C496.035,772.147 494.643,772.746 492.999,772.746C492.25,772.746 491.445,772.619 490.582,772.367C489.719,772.115 485.662,770.225 482.065,768.76C479.559,767.719 477.777,767.198 476.719,767.198C475.579,767.198 474.48,767.487 473.931,768.03C473.193,768.759 472.499,769.977 472.229,771.635L470.682,771.62C471.402,769.499 472.802,767.257 474.107,766.236C475.642,765.034 476.914,765.01 477.68,765.066C478.546,765.128 479.517,765.453 480.266,765.68C481.959,766.169 484.759,767.574 487.518,768.754C490.277,769.934 492.218,770.524 493.341,770.524C494.562,770.524 495.518,770.499 496.348,769.718C497.178,768.937 497.735,767.448 497.882,765.983Z" style="fill-rule:nonzero;"/>
        </g>
        <g transform="matrix(8.88412,1.75209,-2.15947,10.9498,-1082.46,-8161.89)">
            <path d="M496.055,764.952L497.153,764.952C497.088,767.068 496.486,768.724 495.347,769.92C494.207,771.116 492.816,771.714 491.172,771.714C490.423,771.714 489.617,771.588 488.755,771.336C487.892,771.084 487.578,770.908 483.981,769.444C481.474,768.402 479.692,767.881 478.634,767.881C477.495,767.881 476.476,768.143 475.728,768.867C475.582,769.009 475.148,769.79 475.065,770.031C474.731,770.998 473.9,771.675 473.599,772.271L472.597,772.303C473.317,770.182 474.718,767.94 476.022,766.919C477.558,765.717 478.829,765.694 479.595,765.749C480.461,765.812 481.441,766.118 482.182,766.364C483.254,766.719 482.932,766.543 485.691,767.723C488.45,768.903 490.391,769.493 491.514,769.493C492.734,769.493 493.76,769.102 494.59,768.321C495.42,767.54 495.908,766.416 496.055,764.952Z" style="fill-rule:nonzero;"/>
        </g>
    </g>
</svg>
