<?xml version="1.0" encoding="UTF-8" standalone="no"?>
<!DOCTYPE svg PUBLIC "-//W3C//DTD SVG 1.1//EN" "http://www.w3.org/Graphics/SVG/1.1/DTD/svg11.dtd">
<svg width="100%" height="100%" viewBox="0 0 4362 1442" version="1.1" xmlns="http://www.w3.org/2000/svg" xmlns:xlink="http://www.w3.org/1999/xlink" xml:space="preserve" xmlns:serif="http://www.serif.com/" style="fill-rule:evenodd;clip-rule:evenodd;stroke-linecap:round;stroke-linejoin:round;stroke-miterlimit:1.5;">
    <g transform="matrix(1,0,0,1,-595.532,-5065.45)">
        <g transform="matrix(3.79695,0,0,1,1896.81,594.893)">
            <g transform="matrix(0.26337,7.39557e-32,1.2326e-32,1,-510.094,3631.9)">
                <path d="M782.464,2279.25L1622.96,2279.25C1614.95,2274.29 1102.98,2124.2 1170.14,1657.94C1221.9,1298.57 1507.37,1162.64 1349.12,1620.7C1132.78,2246.95 1767.66,923.553 1689.94,1259.78C1552.62,1853.97 1720.02,2279.25 1720.02,2279.25L2156.66,2279.25C1940.82,1750.81 1579.02,839.152 1579.02,839.152C1725.5,1194.1 1403.8,1579.48 1412.23,1559.2C1716.13,827.488 869.26,746.253 636.025,913.816C787.141,1293.46 1131.74,1587.78 782.464,2279.25Z" style="stroke:black;stroke-width:1px;"/>
            </g>
        </g>
        <g transform="matrix(3.79695,0,0,1,1896.81,594.893)">
            <g transform="matrix(0.265068,7.47194e-32,1.24054e-32,1.01033,-400.991,4197.7)">
                <path d="M1175.04,270.558C1377.32,695.403 2160.97,1683.3 2556.92,1358.27C2556.92,1358.27 2416.08,1623.53 2510.12,1695.94C2510.12,1695.94 1791.67,1280.32 1714.92,1350.53C1638.17,1420.73 2087.66,1695.94 2087.66,1695.94L1754.89,1695.94L1175.04,270.558ZM1462.92,784.851C1507.28,947.527 1605.16,1245.71 1642.21,1310C1661.61,1343.67 1648.67,1235.65 1676.99,1184.8C1704.67,1135.11 1981.2,1385.5 1937.31,1325.68C1895,1268.02 1571.95,882.931 1462.92,784.851Z" style="stroke:black;stroke-width:0.99px;"/>
            </g>
        </g>
        <g transform="matrix(3.79695,0,0,1,1896.81,594.893)">
            <g transform="matrix(0.26337,7.39557e-32,1.2326e-32,1,-412.188,4215.21)">
                <path d="M2794.06,257C2893.84,413.039 2801.86,966.67 2634.31,1363.86C2566.97,1523.5 2532.26,1640.38 2594.4,1695.94L3998.1,1695.94C3822.11,1597.79 3694.77,1451.91 3816.14,1269.97C2573.04,1908.52 2273.16,1717.21 3139.17,500.117C3109.32,331.344 3000.36,253.983 2794.06,257Z" style="stroke:black;stroke-width:1px;"/>
            </g>
        </g>
        <g transform="matrix(3.79695,0,0,1,1896.81,594.893)">
            <g transform="matrix(-0.26337,0.00027682,-7.29059e-05,-1,1438.36,6167.29)">
                <path d="M2989.02,256.966C2810.24,259.365 2545.39,259.777 2545.39,259.777C2620.23,276.759 3040.84,534.746 2949.13,976.494C2852.1,1443.93 2718.35,1211.37 2787.94,1024.84C2848.08,863.649 2359.85,1393.29 2404.25,1696.9C2701.5,1601.9 3266.47,1572.32 4109.92,1697.38C3985.73,1677.45 3909.93,1629.79 3871.53,1469.12C3556.95,1929.29 2865.76,1277.38 3183.1,690.368C3287.43,543.382 3237.44,384.745 2989.02,256.966Z" style="stroke:black;stroke-width:1px;"/>
            </g>
        </g>
    </g>
</svg>
