<?xml version="1.0" encoding="UTF-8" standalone="no"?>
<svg
   version="1.1"
   viewBox="0.0 0.0 379.0 234.0"
   fill="none"
   stroke="none"
   stroke-linecap="square"
   stroke-miterlimit="10"
   width="379"
   height="234"
   id="svg32"
   sodipodi:docname="Amusement.svg"
   inkscape:version="1.3 (0e150ed, 2023-07-21)"
   xmlns:inkscape="http://www.inkscape.org/namespaces/inkscape"
   xmlns:sodipodi="http://sodipodi.sourceforge.net/DTD/sodipodi-0.dtd"
   xmlns="http://www.w3.org/2000/svg"
   xmlns:svg="http://www.w3.org/2000/svg">
  <defs
     id="defs32" />
  <sodipodi:namedview
     id="namedview32"
     pagecolor="#ffffff"
     bordercolor="#000000"
     borderopacity="0.25"
     inkscape:showpageshadow="2"
     inkscape:pageopacity="0.0"
     inkscape:pagecheckerboard="0"
     inkscape:deskcolor="#d1d1d1"
     inkscape:zoom="0.62269129"
     inkscape:cx="188.69703"
     inkscape:cy="117.23305"
     inkscape:window-width="1312"
     inkscape:window-height="449"
     inkscape:window-x="0"
     inkscape:window-y="32"
     inkscape:window-maximized="0"
     inkscape:current-layer="svg32" />
  <path
     stroke="#333333"
     stroke-width="1.0"
     stroke-linecap="butt"
     d="M38.5 202.5L367.5 202.5"
     fill-rule="nonzero"
     id="path2" />
  <path
     stroke="#cccccc"
     stroke-width="1.0"
     stroke-linecap="butt"
     d="M38.5 156.5L367.5 156.5"
     fill-rule="nonzero"
     id="path3" />
  <path
     stroke="#cccccc"
     stroke-width="1.0"
     stroke-linecap="butt"
     d="M38.5 110.5L367.5 110.5"
     fill-rule="nonzero"
     id="path4" />
  <path
     stroke="#cccccc"
     stroke-width="1.0"
     stroke-linecap="butt"
     d="M38.5 64.5L367.5 64.5"
     fill-rule="nonzero"
     id="path5" />
  <path
     stroke="#cccccc"
     stroke-width="1.0"
     stroke-linecap="butt"
     d="M38.5 18.5L367.5 18.5"
     fill-rule="nonzero"
     id="path6" />
  <clipPath
     id="id_0">
    <path
       d="M38.7 18.7L367.3 18.7L367.3 202.3L38.7 202.3L38.7 18.7Z"
       clip-rule="nonzero"
       id="path7" />
  </clipPath>
  <path
     stroke="#000000"
     stroke-width="2.0"
     stroke-linecap="butt"
     stroke-opacity="0.0"
     clip-path="url(#id_0)"
     d="M115.0 202.0L66.0 202.0L66.0 131.0C66.0 129.89543 66.89543 129.0 68.0 129.0L113.0 129.0C114.10457 129.0 115.0 129.89543 115.0 131.0Z"
     fill-rule="nonzero"
     id="path8" />
  <path
     fill="#ea4335"
     clip-path="url(#id_0)"
     d="M115.0 202.0L66.0 202.0L66.0 131.0C66.0 129.89543 66.89543 129.0 68.0 129.0L113.0 129.0C114.10457 129.0 115.0 129.89543 115.0 131.0Z"
     fill-rule="nonzero"
     id="path9" />
  <path
     stroke="#000000"
     stroke-width="2.0"
     stroke-linecap="butt"
     stroke-opacity="0.0"
     clip-path="url(#id_0)"
     d="M190.0 202.0L141.0 202.0L141.0 76.0C141.0 74.89543 141.89543 74.0 143.0 74.0L188.0 74.0C189.10457 74.0 190.0 74.89543 190.0 76.0Z"
     fill-rule="nonzero"
     id="path10" />
  <path
     fill="#34a853"
     clip-path="url(#id_0)"
     d="M190.0 202.0L141.0 202.0L141.0 76.0C141.0 74.89543 141.89543 74.0 143.0 74.0L188.0 74.0C189.10457 74.0 190.0 74.89543 190.0 76.0Z"
     fill-rule="nonzero"
     id="path11" />
  <path
     stroke="#000000"
     stroke-width="2.0"
     stroke-linecap="butt"
     stroke-opacity="0.0"
     clip-path="url(#id_0)"
     d="M266.0 202.0L217.0 202.0L217.0 48.0C217.0 46.89543 217.89543 46.0 219.0 46.0L264.0 46.0C265.10458 46.0 266.0 46.89543 266.0 48.0Z"
     fill-rule="nonzero"
     id="path12" />
  <path
     fill="#fbbc04"
     clip-path="url(#id_0)"
     d="M266.0 202.0L217.0 202.0L217.0 48.0C217.0 46.89543 217.89543 46.0 219.0 46.0L264.0 46.0C265.10458 46.0 266.0 46.89543 266.0 48.0Z"
     fill-rule="nonzero"
     id="path13" />
  <path
     stroke="#000000"
     stroke-width="2.0"
     stroke-linecap="butt"
     stroke-opacity="0.0"
     clip-path="url(#id_0)"
     d="M341.0 202.0L292.0 202.0L292.0 39.0C292.0 37.89543 292.89542 37.0 294.0 37.0L339.0 37.0C340.10458 37.0 341.0 37.89543 341.0 39.0Z"
     fill-rule="nonzero"
     id="path14" />
  <path
     fill="#4285f4"
     clip-path="url(#id_0)"
     d="M341.0 202.0L292.0 202.0L292.0 39.0C292.0 37.89543 292.89542 37.0 294.0 37.0L339.0 37.0C340.10458 37.0 341.0 37.89543 341.0 39.0Z"
     fill-rule="nonzero"
     id="path15" />
  <path
     stroke="#ea4335"
     stroke-width="3.0"
     stroke-linejoin="round"
     stroke-linecap="round"
     d="M92.390625 139.3475Q92.390625 139.98813 92.046875 140.48813Q91.703125 140.98813 91.140625 141.26938Q91.796875 141.55063 92.1875 142.11313Q92.578125 142.66 92.578125 143.36313Q92.578125 144.45688 91.828125 145.12875Q91.09375 145.785 89.875 145.785Q88.640625 145.785 87.890625 145.12875Q87.15625 144.45688 87.15625 143.36313Q87.15625 142.66 87.53125 142.11313Q87.90625 141.55063 88.578125 141.26938Q88.015625 140.98813 87.6875 140.48813Q87.359375 139.98813 87.359375 139.3475Q87.359375 138.26938 88.046875 137.64438Q88.734375 137.00375 89.875 137.00375Q91.0 137.00375 91.6875 137.64438Q92.390625 138.26938 92.390625 139.3475ZM91.5 143.33188Q91.5 142.61313 91.046875 142.17563Q90.59375 141.7225 89.859375 141.7225Q89.125 141.7225 88.671875 142.17563Q88.234375 142.61313 88.234375 143.3475Q88.234375 144.06625 88.671875 144.48813Q89.109375 144.89438 89.875 144.89438Q90.625 144.89438 91.0625 144.4725Q91.5 144.05063 91.5 143.33188ZM89.875 137.89438Q89.234375 137.89438 88.828125 138.30063Q88.4375 138.69125 88.4375 139.37875Q88.4375 140.01938 88.828125 140.42563Q89.21875 140.83188 89.859375 140.83188Q90.515625 140.83188 90.90625 140.42563Q91.296875 140.01938 91.296875 139.37875Q91.296875 138.7225 90.890625 138.31625Q90.484375 137.89438 89.875 137.89438Z"
     fill-rule="nonzero"
     id="path16" />
  <path
     fill="#ffffff"
     d="M92.390625 139.3475Q92.390625 139.98813 92.046875 140.48813Q91.703125 140.98813 91.140625 141.26938Q91.796875 141.55063 92.1875 142.11313Q92.578125 142.66 92.578125 143.36313Q92.578125 144.45688 91.828125 145.12875Q91.09375 145.785 89.875 145.785Q88.640625 145.785 87.890625 145.12875Q87.15625 144.45688 87.15625 143.36313Q87.15625 142.66 87.53125 142.11313Q87.90625 141.55063 88.578125 141.26938Q88.015625 140.98813 87.6875 140.48813Q87.359375 139.98813 87.359375 139.3475Q87.359375 138.26938 88.046875 137.64438Q88.734375 137.00375 89.875 137.00375Q91.0 137.00375 91.6875 137.64438Q92.390625 138.26938 92.390625 139.3475ZM91.5 143.33188Q91.5 142.61313 91.046875 142.17563Q90.59375 141.7225 89.859375 141.7225Q89.125 141.7225 88.671875 142.17563Q88.234375 142.61313 88.234375 143.3475Q88.234375 144.06625 88.671875 144.48813Q89.109375 144.89438 89.875 144.89438Q90.625 144.89438 91.0625 144.4725Q91.5 144.05063 91.5 143.33188ZM89.875 137.89438Q89.234375 137.89438 88.828125 138.30063Q88.4375 138.69125 88.4375 139.37875Q88.4375 140.01938 88.828125 140.42563Q89.21875 140.83188 89.859375 140.83188Q90.515625 140.83188 90.90625 140.42563Q91.296875 140.01938 91.296875 139.37875Q91.296875 138.7225 90.890625 138.31625Q90.484375 137.89438 89.875 137.89438Z"
     fill-rule="nonzero"
     id="path17" />
  <path
     stroke="#34a853"
     stroke-width="3.0"
     stroke-linejoin="round"
     stroke-linecap="round"
     d="M162.26562 90.58L161.1875 90.58L161.1875 83.36125L159.0 84.15813L159.0 83.17375L162.10938 82.00188L162.26562 82.00188L162.26562 90.58ZM170.28125 87.72063L171.46875 87.72063L171.46875 88.59563L170.28125 88.59563L170.28125 90.58L169.20312 90.58L169.20312 88.59563L165.3125 88.59563L165.3125 87.955L169.125 82.04875L170.28125 82.04875L170.28125 87.72063ZM166.54688 87.72063L169.20312 87.72063L169.20312 83.53313L169.0625 83.7675L166.54688 87.72063Z"
     fill-rule="nonzero"
     id="path18" />
  <path
     fill="#ffffff"
     d="M162.26562 90.58L161.1875 90.58L161.1875 83.36125L159.0 84.15813L159.0 83.17375L162.10938 82.00188L162.26562 82.00188L162.26562 90.58ZM170.28125 87.72063L171.46875 87.72063L171.46875 88.59563L170.28125 88.59563L170.28125 90.58L169.20312 90.58L169.20312 88.59563L165.3125 88.59563L165.3125 87.955L169.125 82.04875L170.28125 82.04875L170.28125 87.72063ZM166.54688 87.72063L169.20312 87.72063L169.20312 83.53313L169.0625 83.7675L166.54688 87.72063Z"
     fill-rule="nonzero"
     id="path19" />
  <path
     stroke="#fbbc04"
     stroke-width="3.0"
     stroke-linejoin="round"
     stroke-linecap="round"
     d="M238.26562 63.04L237.1875 63.04L237.1875 55.82125L235.0 56.618126L235.0 55.63375L238.10938 54.461876L238.26562 54.461876L238.26562 63.04ZM247.21875 55.118126L243.6875 63.04L242.54688 63.04L246.0625 55.399376L241.45312 55.399376L241.45312 54.50875L247.21875 54.50875L247.21875 55.118126Z"
     fill-rule="nonzero"
     id="path20" />
  <path
     fill="#000000"
     d="M238.26562 63.04L237.1875 63.04L237.1875 55.82125L235.0 56.618126L235.0 55.63375L238.10938 54.461876L238.26562 54.461876L238.26562 63.04ZM247.21875 55.118126L243.6875 63.04L242.54688 63.04L246.0625 55.399376L241.45312 55.399376L241.45312 54.50875L247.21875 54.50875L247.21875 55.118126Z"
     fill-rule="nonzero"
     id="path21" />
  <path
     stroke="#4285f4"
     stroke-width="3.0"
     stroke-linejoin="round"
     stroke-linecap="round"
     d="M313.26562 53.86L312.1875 53.86L312.1875 46.64125L310.0 47.438126L310.0 46.45375L313.10938 45.281876L313.26562 45.281876L313.26562 53.86ZM321.89062 47.5475Q321.89062 48.188126 321.54688 48.688126Q321.20312 49.188126 320.64062 49.469376Q321.29688 49.750626 321.6875 50.313126Q322.07812 50.86 322.07812 51.563126Q322.07812 52.656876 321.32812 53.32875Q320.59375 53.985 319.375 53.985Q318.14062 53.985 317.39062 53.32875Q316.65625 52.656876 316.65625 51.563126Q316.65625 50.86 317.03125 50.313126Q317.40625 49.750626 318.07812 49.469376Q317.51562 49.188126 317.1875 48.688126Q316.85938 48.188126 316.85938 47.5475Q316.85938 46.469376 317.54688 45.844376Q318.23438 45.20375 319.375 45.20375Q320.5 45.20375 321.1875 45.844376Q321.89062 46.469376 321.89062 47.5475ZM321.0 51.531876Q321.0 50.813126 320.54688 50.375626Q320.09375 49.9225 319.35938 49.9225Q318.625 49.9225 318.17188 50.375626Q317.73438 50.813126 317.73438 51.5475Q317.73438 52.26625 318.17188 52.688126Q318.60938 53.094376 319.375 53.094376Q320.125 53.094376 320.5625 52.6725Q321.0 52.250626 321.0 51.531876ZM319.375 46.094376Q318.73438 46.094376 318.32812 46.500626Q317.9375 46.89125 317.9375 47.57875Q317.9375 48.219376 318.32812 48.625626Q318.71875 49.031876 319.35938 49.031876Q320.01562 49.031876 320.40625 48.625626Q320.79688 48.219376 320.79688 47.57875Q320.79688 46.9225 320.39062 46.51625Q319.98438 46.094376 319.375 46.094376Z"
     fill-rule="nonzero"
     id="path22" />
  <path
     fill="#ffffff"
     d="M313.26562 53.86L312.1875 53.86L312.1875 46.64125L310.0 47.438126L310.0 46.45375L313.10938 45.281876L313.26562 45.281876L313.26562 53.86ZM321.89062 47.5475Q321.89062 48.188126 321.54688 48.688126Q321.20312 49.188126 320.64062 49.469376Q321.29688 49.750626 321.6875 50.313126Q322.07812 50.86 322.07812 51.563126Q322.07812 52.656876 321.32812 53.32875Q320.59375 53.985 319.375 53.985Q318.14062 53.985 317.39062 53.32875Q316.65625 52.656876 316.65625 51.563126Q316.65625 50.86 317.03125 50.313126Q317.40625 49.750626 318.07812 49.469376Q317.51562 49.188126 317.1875 48.688126Q316.85938 48.188126 316.85938 47.5475Q316.85938 46.469376 317.54688 45.844376Q318.23438 45.20375 319.375 45.20375Q320.5 45.20375 321.1875 45.844376Q321.89062 46.469376 321.89062 47.5475ZM321.0 51.531876Q321.0 50.813126 320.54688 50.375626Q320.09375 49.9225 319.35938 49.9225Q318.625 49.9225 318.17188 50.375626Q317.73438 50.813126 317.73438 51.5475Q317.73438 52.26625 318.17188 52.688126Q318.60938 53.094376 319.375 53.094376Q320.125 53.094376 320.5625 52.6725Q321.0 52.250626 321.0 51.531876ZM319.375 46.094376Q318.73438 46.094376 318.32812 46.500626Q317.9375 46.89125 317.9375 47.57875Q317.9375 48.219376 318.32812 48.625626Q318.71875 49.031876 319.35938 49.031876Q320.01562 49.031876 320.40625 48.625626Q320.79688 48.219376 320.79688 47.57875Q320.79688 46.9225 320.39062 46.51625Q319.98438 46.094376 319.375 46.094376Z"
     fill-rule="nonzero"
     id="path23" />
  <path
     fill="#000000"
     d="M26.2 202.06563Q26.2 200.53438 26.5125 199.6125Q26.825 198.675 27.434376 198.175Q28.059376 197.675 28.996876 197.675Q29.684376 197.675 30.2 197.95625Q30.73125 198.2375 31.075 198.76875Q31.41875 199.28438 31.60625 200.03438Q31.79375 200.78438 31.79375 202.06563Q31.79375 203.58125 31.48125 204.50313Q31.184376 205.425 30.559376 205.94063Q29.95 206.44063 28.996876 206.44063Q27.7625 206.44063 27.04375 205.55Q26.2 204.4875 26.2 202.06563ZM27.278126 202.06563Q27.278126 204.175 27.778126 204.87813Q28.278126 205.58125 28.996876 205.58125Q29.73125 205.58125 30.215626 204.87813Q30.715626 204.175 30.715626 202.06563Q30.715626 199.94063 30.215626 199.25313Q29.73125 198.55 28.98125 198.55Q28.2625 198.55 27.825 199.15938Q27.278126 199.94063 27.278126 202.06563Z"
     fill-rule="nonzero"
     id="path24" />
  <path
     fill="#000000"
     d="M26.2 158.15L27.309376 158.05624Q27.434376 158.86874 27.871876 159.275Q28.325 159.68124 28.965626 159.68124Q29.715626 159.68124 30.246876 159.10312Q30.778126 158.525 30.778126 157.5875Q30.778126 156.68124 30.2625 156.16562Q29.7625 155.63437 28.934376 155.63437Q28.434376 155.63437 28.0125 155.86874Q27.60625 156.10312 27.371876 156.4625L26.3875 156.3375L27.215626 151.93124L31.496876 151.93124L31.496876 152.93124L28.059376 152.93124L27.60625 155.24374Q28.371876 154.69687 29.215626 154.69687Q30.340626 154.69687 31.10625 155.47812Q31.8875 156.25937 31.8875 157.49374Q31.8875 158.65 31.215626 159.50937Q30.3875 160.54062 28.965626 160.54062Q27.79375 160.54062 27.04375 159.88437Q26.309376 159.22812 26.2 158.15Z"
     fill-rule="nonzero"
     id="path25" />
  <path
     fill="#000000"
     d="M23.16875 114.5L22.121876 114.5L22.121876 107.78125Q21.73125 108.140625 21.10625 108.515625Q20.496876 108.875 20.0125 109.046875L20.0125 108.03125Q20.8875 107.609375 21.54375 107.03125Q22.215626 106.4375 22.496876 105.875L23.16875 105.875L23.16875 114.5ZM26.2 110.265625Q26.2 108.734375 26.5125 107.8125Q26.825 106.875 27.434376 106.375Q28.059376 105.875 28.996876 105.875Q29.684376 105.875 30.2 106.15625Q30.73125 106.4375 31.075 106.96875Q31.41875 107.484375 31.60625 108.234375Q31.79375 108.984375 31.79375 110.265625Q31.79375 111.78125 31.48125 112.703125Q31.184376 113.625 30.559376 114.140625Q29.95 114.640625 28.996876 114.640625Q27.7625 114.640625 27.04375 113.75Q26.2 112.6875 26.2 110.265625ZM27.278126 110.265625Q27.278126 112.375 27.778126 113.078125Q28.278126 113.78125 28.996876 113.78125Q29.73125 113.78125 30.215626 113.078125Q30.715626 112.375 30.715626 110.265625Q30.715626 108.140625 30.215626 107.453125Q29.73125 106.75 28.98125 106.75Q28.2625 106.75 27.825 107.359375Q27.278126 108.140625 27.278126 110.265625Z"
     fill-rule="nonzero"
     id="path26" />
  <path
     fill="#000000"
     d="M23.16875 68.6L22.121876 68.6L22.121876 61.88125Q21.73125 62.240623 21.10625 62.615623Q20.496876 62.975 20.0125 63.146873L20.0125 62.13125Q20.8875 61.709373 21.54375 61.13125Q22.215626 60.5375 22.496876 59.975L23.16875 59.975L23.16875 68.6ZM26.2 66.35L27.309376 66.25625Q27.434376 67.06875 27.871876 67.475Q28.325 67.88125 28.965626 67.88125Q29.715626 67.88125 30.246876 67.30312Q30.778126 66.725 30.778126 65.7875Q30.778126 64.88125 30.2625 64.36562Q29.7625 63.834373 28.934376 63.834373Q28.434376 63.834373 28.0125 64.06875Q27.60625 64.30312 27.371876 64.6625L26.3875 64.5375L27.215626 60.13125L31.496876 60.13125L31.496876 61.13125L28.059376 61.13125L27.60625 63.44375Q28.371876 62.896873 29.215626 62.896873Q30.340626 62.896873 31.10625 63.678123Q31.8875 64.45937 31.8875 65.69375Q31.8875 66.85 31.215626 67.70937Q30.3875 68.74062 28.965626 68.74062Q27.79375 68.74062 27.04375 68.08437Q26.309376 67.42812 26.2 66.35Z"
     fill-rule="nonzero"
     id="path27" />
  <path
     fill="#000000"
     d="M24.746876 21.684376L24.746876 22.7L19.059376 22.7Q19.059376 22.325 19.184376 21.965626Q19.403126 21.3875 19.871876 20.825Q20.35625 20.2625 21.2625 19.528126Q22.66875 18.371876 23.153126 17.7Q23.653126 17.028126 23.653126 16.434376Q23.653126 15.809376 23.2 15.387501Q22.746876 14.950001 22.028126 14.950001Q21.2625 14.950001 20.809376 15.403126Q20.35625 15.856251 20.340626 16.66875L19.2625 16.559376Q19.371876 15.340626 20.090626 14.715626Q20.825 14.075001 22.059376 14.075001Q23.29375 14.075001 24.0125 14.762501Q24.73125 15.450001 24.73125 16.465626Q24.73125 16.98125 24.5125 17.48125Q24.309376 17.965626 23.809376 18.528126Q23.325 19.075 22.2 20.028126Q21.246876 20.825 20.965626 21.121876Q20.7 21.403126 20.528126 21.684376L24.746876 21.684376ZM26.2 18.465626Q26.2 16.934376 26.5125 16.0125Q26.825 15.075001 27.434376 14.575001Q28.059376 14.075001 28.996876 14.075001Q29.684376 14.075001 30.2 14.356251Q30.73125 14.637501 31.075 15.168751Q31.41875 15.684376 31.60625 16.434376Q31.79375 17.184376 31.79375 18.465626Q31.79375 19.98125 31.48125 20.903126Q31.184376 21.825 30.559376 22.340626Q29.95 22.840626 28.996876 22.840626Q27.7625 22.840626 27.04375 21.95Q26.2 20.8875 26.2 18.465626ZM27.278126 18.465626Q27.278126 20.575 27.778126 21.278126Q28.278126 21.98125 28.996876 21.98125Q29.73125 21.98125 30.215626 21.278126Q30.715626 20.575 30.715626 18.465626Q30.715626 16.340626 30.215626 15.653126Q29.73125 14.950001 28.98125 14.950001Q28.2625 14.950001 27.825 15.559376Q27.278126 16.340626 27.278126 18.465626Z"
     fill-rule="nonzero"
     id="path28" />
  <path
     fill="#000000"
     d="M60.095905 216.19063Q60.095905 214.45625 61.04903 213.62813Q61.845905 212.94063 63.002155 212.94063Q64.2834 212.94063 65.0959 213.78438Q65.92403 214.6125 65.92403 216.09688Q65.92403 217.3 65.56465 217.9875Q65.20528 218.675 64.50215 219.06563Q63.814655 219.44063 63.002155 219.44063Q61.70528 219.44063 60.89278 218.6125Q60.095905 217.76875 60.095905 216.19063ZM61.17403 216.19063Q61.17403 217.37813 61.689655 217.97188Q62.220905 218.56563 63.002155 218.56563Q63.79903 218.56563 64.31465 217.97188Q64.83028 217.37813 64.83028 216.15938Q64.83028 215.00313 64.29903 214.40938Q63.783405 213.81563 63.002155 213.81563Q62.220905 213.81563 61.689655 214.40938Q61.17403 214.9875 61.17403 216.19063ZM67.48653 219.3L67.48653 213.08125L68.42403 213.08125L68.42403 213.95625Q69.11153 212.94063 70.4084 212.94063Q70.9709 212.94063 71.43965 213.14375Q71.92403 213.34688 72.1584 213.675Q72.39278 214.00313 72.48653 214.44063Q72.5334 214.7375 72.5334 215.47188L72.5334 219.3L71.48653 219.3L71.48653 215.51875Q71.48653 214.8625 71.36153 214.55Q71.23653 214.2375 70.92403 214.05Q70.61153 213.84688 70.18965 213.84688Q69.51778 213.84688 69.01778 214.28438Q68.5334 214.70625 68.5334 215.89375L68.5334 219.3L67.48653 219.3ZM78.73653 217.3L79.83028 217.425Q79.58028 218.37813 78.87715 218.90938Q78.17403 219.44063 77.0959 219.44063Q75.73653 219.44063 74.92403 218.59688Q74.12715 217.75313 74.12715 216.2375Q74.12715 214.675 74.93965 213.81563Q75.75215 212.94063 77.0334 212.94063Q78.2834 212.94063 79.06465 213.78438Q79.86153 214.62813 79.86153 216.175Q79.86153 216.26875 79.86153 216.45625L75.2209 216.45625Q75.2834 217.4875 75.79903 218.03438Q76.31465 218.56563 77.0959 218.56563Q77.67403 218.56563 78.08028 218.26875Q78.50215 217.95625 78.73653 217.3ZM75.2834 215.59688L78.75215 215.59688Q78.68965 214.8 78.36153 214.40938Q77.8459 213.8 77.04903 213.8Q76.31465 213.8 75.81465 214.28438Q75.33028 214.76875 75.2834 215.59688ZM81.06465 216.72188L81.06465 215.65938L84.31465 215.65938L84.31465 216.72188L81.06465 216.72188ZM87.7834 218.3625L87.93965 219.28438Q87.48653 219.37813 87.14278 219.37813Q86.56465 219.37813 86.25215 219.20625Q85.93965 219.01875 85.79903 218.72188Q85.67403 218.425 85.67403 217.47188L85.67403 213.89375L84.9084 213.89375L84.9084 213.08125L85.67403 213.08125L85.67403 211.53438L86.7209 210.90938L86.7209 213.08125L87.7834 213.08125L87.7834 213.89375L86.7209 213.89375L86.7209 217.53438Q86.7209 217.9875 86.76778 218.1125Q86.83028 218.2375 86.95528 218.31563Q87.08028 218.39375 87.31465 218.39375Q87.50215 218.39375 87.7834 218.3625ZM88.0959 216.19063Q88.0959 214.45625 89.04903 213.62813Q89.8459 212.94063 91.00215 212.94063Q92.2834 212.94063 93.0959 213.78438Q93.92403 214.6125 93.92403 216.09688Q93.92403 217.3 93.56465 217.9875Q93.20528 218.675 92.50215 219.06563Q91.81465 219.44063 91.00215 219.44063Q89.70528 219.44063 88.89278 218.6125Q88.0959 217.76875 88.0959 216.19063ZM89.17403 216.19063Q89.17403 217.37813 89.68965 217.97188Q90.2209 218.56563 91.00215 218.56563Q91.79903 218.56563 92.31465 217.97188Q92.83028 217.37813 92.83028 216.15938Q92.83028 215.00313 92.29903 214.40938Q91.7834 213.81563 91.00215 213.81563Q90.2209 213.81563 89.68965 214.40938Q89.17403 214.9875 89.17403 216.19063ZM95.06465 216.72188L95.06465 215.65938L98.31465 215.65938L98.31465 216.72188L95.06465 216.72188ZM99.0959 216.19063Q99.0959 214.45625 100.04903 213.62813Q100.8459 212.94063 102.00215 212.94063Q103.2834 212.94063 104.0959 213.78438Q104.92403 214.6125 104.92403 216.09688Q104.92403 217.3 104.56465 217.9875Q104.20528 218.675 103.50215 219.06563Q102.81465 219.44063 102.00215 219.44063Q100.70528 219.44063 99.89278 218.6125Q99.0959 217.76875 99.0959 216.19063ZM100.17403 216.19063Q100.17403 217.37813 100.68965 217.97188Q101.2209 218.56563 102.00215 218.56563Q102.79903 218.56563 103.31465 217.97188Q103.83028 217.37813 103.83028 216.15938Q103.83028 215.00313 103.29903 214.40938Q102.7834 213.81563 102.00215 213.81563Q101.2209 213.81563 100.68965 214.40938Q100.17403 214.9875 100.17403 216.19063ZM106.48653 219.3L106.48653 213.08125L107.42403 213.08125L107.42403 213.95625Q108.11153 212.94063 109.4084 212.94063Q109.9709 212.94063 110.43965 213.14375Q110.92403 213.34688 111.1584 213.675Q111.39278 214.00313 111.48653 214.44063Q111.5334 214.7375 111.5334 215.47188L111.5334 219.3L110.48653 219.3L110.48653 215.51875Q110.48653 214.8625 110.36153 214.55Q110.23653 214.2375 109.92403 214.05Q109.61153 213.84688 109.18965 213.84688Q108.51778 213.84688 108.01778 214.28438Q107.5334 214.70625 107.5334 215.89375L107.5334 219.3L106.48653 219.3ZM117.73653 217.3L118.83028 217.425Q118.58028 218.37813 117.87715 218.90938Q117.17403 219.44063 116.0959 219.44063Q114.73653 219.44063 113.92403 218.59688Q113.12715 217.75313 113.12715 216.2375Q113.12715 214.675 113.93965 213.81563Q114.75215 212.94063 116.0334 212.94063Q117.2834 212.94063 118.06465 213.78438Q118.86153 214.62813 118.86153 216.175Q118.86153 216.26875 118.86153 216.45625L114.2209 216.45625Q114.2834 217.4875 114.79903 218.03438Q115.31465 218.56563 116.0959 218.56563Q116.67403 218.56563 117.08028 218.26875Q117.50215 217.95625 117.73653 217.3ZM114.2834 215.59688L117.75215 215.59688Q117.68965 214.8 117.36153 214.40938Q116.8459 213.8 116.04903 213.8Q115.31465 213.8 114.81465 214.28438Q114.33028 214.76875 114.2834 215.59688Z"
     fill-rule="nonzero"
     id="path29" />
  <path
     fill="#000000"
     d="M131.13614 216.19063Q131.13614 214.45625 132.08926 213.62813Q132.88614 212.94063 134.04239 212.94063Q135.32364 212.94063 136.13614 213.78438Q136.96426 214.6125 136.96426 216.09688Q136.96426 217.3 136.60489 217.9875Q136.24551 218.675 135.54239 219.06563Q134.85489 219.44063 134.04239 219.44063Q132.74551 219.44063 131.93301 218.6125Q131.13614 217.76875 131.13614 216.19063ZM132.21426 216.19063Q132.21426 217.37813 132.72989 217.97188Q133.26114 218.56563 134.04239 218.56563Q134.83926 218.56563 135.35489 217.97188Q135.87051 217.37813 135.87051 216.15938Q135.87051 215.00313 135.33926 214.40938Q134.82364 213.81563 134.04239 213.81563Q133.26114 213.81563 132.72989 214.40938Q132.21426 214.9875 132.21426 216.19063ZM138.52676 219.3L138.52676 213.08125L139.46426 213.08125L139.46426 213.95625Q140.15176 212.94063 141.44864 212.94063Q142.01114 212.94063 142.47989 213.14375Q142.96426 213.34688 143.19864 213.675Q143.43301 214.00313 143.52676 214.44063Q143.57364 214.7375 143.57364 215.47188L143.57364 219.3L142.52676 219.3L142.52676 215.51875Q142.52676 214.8625 142.40176 214.55Q142.27676 214.2375 141.96426 214.05Q141.65176 213.84688 141.22989 213.84688Q140.55801 213.84688 140.05801 214.28438Q139.57364 214.70625 139.57364 215.89375L139.57364 219.3L138.52676 219.3ZM149.77676 217.3L150.87051 217.425Q150.62051 218.37813 149.91739 218.90938Q149.21426 219.44063 148.13614 219.44063Q146.77676 219.44063 145.96426 218.59688Q145.16739 217.75313 145.16739 216.2375Q145.16739 214.675 145.97989 213.81563Q146.79239 212.94063 148.07364 212.94063Q149.32364 212.94063 150.10489 213.78438Q150.90176 214.62813 150.90176 216.175Q150.90176 216.26875 150.90176 216.45625L146.26114 216.45625Q146.32364 217.4875 146.83926 218.03438Q147.35489 218.56563 148.13614 218.56563Q148.71426 218.56563 149.12051 218.26875Q149.54239 217.95625 149.77676 217.3ZM146.32364 215.59688L149.79239 215.59688Q149.72989 214.8 149.40176 214.40938Q148.88614 213.8 148.08926 213.8Q147.35489 213.8 146.85489 214.28438Q146.37051 214.76875 146.32364 215.59688ZM152.10489 216.72188L152.10489 215.65938L155.35489 215.65938L155.35489 216.72188L152.10489 216.72188ZM158.82364 218.3625L158.97989 219.28438Q158.52676 219.37813 158.18301 219.37813Q157.60489 219.37813 157.29239 219.20625Q156.97989 219.01875 156.83926 218.72188Q156.71426 218.425 156.71426 217.47188L156.71426 213.89375L155.94864 213.89375L155.94864 213.08125L156.71426 213.08125L156.71426 211.53438L157.76114 210.90938L157.76114 213.08125L158.82364 213.08125L158.82364 213.89375L157.76114 213.89375L157.76114 217.53438Q157.76114 217.9875 157.80801 218.1125Q157.87051 218.2375 157.99551 218.31563Q158.12051 218.39375 158.35489 218.39375Q158.54239 218.39375 158.82364 218.3625ZM159.13614 216.19063Q159.13614 214.45625 160.08926 213.62813Q160.88614 212.94063 162.04239 212.94063Q163.32364 212.94063 164.13614 213.78438Q164.96426 214.6125 164.96426 216.09688Q164.96426 217.3 164.60489 217.9875Q164.24551 218.675 163.54239 219.06563Q162.85489 219.44063 162.04239 219.44063Q160.74551 219.44063 159.93301 218.6125Q159.13614 217.76875 159.13614 216.19063ZM160.21426 216.19063Q160.21426 217.37813 160.72989 217.97188Q161.26114 218.56563 162.04239 218.56563Q162.83926 218.56563 163.35489 217.97188Q163.87051 217.37813 163.87051 216.15938Q163.87051 215.00313 163.33926 214.40938Q162.82364 213.81563 162.04239 213.81563Q161.26114 213.81563 160.72989 214.40938Q160.21426 214.9875 160.21426 216.19063ZM166.10489 216.72188L166.10489 215.65938L169.35489 215.65938L169.35489 216.72188L166.10489 216.72188ZM170.52676 219.3L170.52676 213.08125L171.46426 213.08125L171.46426 213.95625Q171.76114 213.4875 172.24551 213.22188Q172.72989 212.94063 173.35489 212.94063Q174.04239 212.94063 174.47989 213.22188Q174.93301 213.50313 175.10489 214.01875Q175.85489 212.94063 177.02676 212.94063Q177.96426 212.94063 178.44864 213.45625Q178.94864 213.95625 178.94864 215.03438L178.94864 219.3L177.90176 219.3L177.90176 215.37813Q177.90176 214.75313 177.79239 214.47188Q177.69864 214.19063 177.43301 214.01875Q177.16739 213.84688 176.79239 213.84688Q176.13614 213.84688 175.69864 214.28438Q175.27676 214.72188 175.27676 215.69063L175.27676 219.3L174.21426 219.3L174.21426 215.25313Q174.21426 214.55 173.94864 214.20625Q173.69864 213.84688 173.12051 213.84688Q172.66739 213.84688 172.29239 214.08125Q171.91739 214.31563 171.74551 214.76875Q171.57364 215.22188 171.57364 216.06563L171.57364 219.3L170.52676 219.3ZM185.58926 218.53438Q184.99551 219.03438 184.44864 219.2375Q183.91739 219.44063 183.29239 219.44063Q182.26114 219.44063 181.71426 218.94063Q181.16739 218.44063 181.16739 217.65938Q181.16739 217.20625 181.37051 216.83125Q181.57364 216.44063 181.91739 216.22188Q182.26114 215.9875 182.68301 215.87813Q182.97989 215.78438 183.62051 215.70625Q184.88614 215.56563 185.49551 215.34688Q185.49551 215.12813 185.49551 215.08125Q185.49551 214.425 185.19864 214.15938Q184.79239 213.81563 183.99551 213.81563Q183.26114 213.81563 182.90176 214.08125Q182.54239 214.33125 182.37051 214.9875L181.33926 214.84688Q181.47989 214.19063 181.80801 213.78438Q182.13614 213.37813 182.74551 213.15938Q183.35489 212.94063 184.15176 212.94063Q184.94864 212.94063 185.44864 213.12813Q185.94864 213.31563 186.18301 213.59688Q186.41739 213.87813 186.51114 214.31563Q186.55801 214.58125 186.55801 215.28438L186.55801 216.69063Q186.55801 218.15938 186.62051 218.55Q186.69864 218.94063 186.90176 219.3L185.79239 219.3Q185.63614 218.97188 185.58926 218.53438ZM185.49551 216.175Q184.91739 216.40938 183.77676 216.58125Q183.12051 216.675 182.85489 216.8Q182.58926 216.90938 182.43301 217.12813Q182.29239 217.34688 182.29239 217.62813Q182.29239 218.05 182.60489 218.33125Q182.93301 218.6125 183.54239 218.6125Q184.15176 218.6125 184.62051 218.34688Q185.10489 218.08125 185.32364 217.6125Q185.49551 217.25313 185.49551 216.56563L185.49551 216.175ZM188.52676 219.3L188.52676 213.08125L189.46426 213.08125L189.46426 213.95625Q190.15176 212.94063 191.44864 212.94063Q192.01114 212.94063 192.47989 213.14375Q192.96426 213.34688 193.19864 213.675Q193.43301 214.00313 193.52676 214.44063Q193.57364 214.7375 193.57364 215.47188L193.57364 219.3L192.52676 219.3L192.52676 215.51875Q192.52676 214.8625 192.40176 214.55Q192.27676 214.2375 191.96426 214.05Q191.65176 213.84688 191.22989 213.84688Q190.55801 213.84688 190.05801 214.28438Q189.57364 214.70625 189.57364 215.89375L189.57364 219.3L188.52676 219.3ZM195.47989 221.69063L195.35489 220.70625Q195.69864 220.8 195.96426 220.8Q196.30801 220.8 196.51114 220.675Q196.72989 220.56563 196.87051 220.3625Q196.96426 220.19063 197.19864 219.56563Q197.21426 219.4875 197.29239 219.31563L194.91739 213.08125L196.05801 213.08125L197.35489 216.675Q197.60489 217.3625 197.80801 218.12813Q197.99551 217.39375 198.24551 216.70625L199.57364 213.08125L200.62051 213.08125L198.26114 219.40938Q197.87051 220.425 197.66739 220.81563Q197.38614 221.34688 197.01114 221.58125Q196.65176 221.83125 196.15176 221.83125Q195.85489 221.83125 195.47989 221.69063Z"
     fill-rule="nonzero"
     id="path30" />
  <path
     fill="#000000"
     d="M207.89511 219.3L207.89511 210.70625L209.02011 210.70625L209.02011 219.3L207.89511 219.3ZM210.56699 219.3L210.56699 213.08125L211.50449 213.08125L211.50449 213.95625Q212.19199 212.94063 213.48886 212.94063Q214.05136 212.94063 214.52011 213.14375Q215.00449 213.34688 215.23886 213.675Q215.47324 214.00313 215.56699 214.44063Q215.61386 214.7375 215.61386 215.47188L215.61386 219.3L214.56699 219.3L214.56699 215.51875Q214.56699 214.8625 214.44199 214.55Q214.31699 214.2375 214.00449 214.05Q213.69199 213.84688 213.27011 213.84688Q212.59824 213.84688 212.09824 214.28438Q211.61386 214.70625 211.61386 215.89375L211.61386 219.3L210.56699 219.3ZM219.86386 218.3625L220.02011 219.28438Q219.56699 219.37813 219.22324 219.37813Q218.64511 219.37813 218.33261 219.20625Q218.02011 219.01875 217.87949 218.72188Q217.75449 218.425 217.75449 217.47188L217.75449 213.89375L216.98886 213.89375L216.98886 213.08125L217.75449 213.08125L217.75449 211.53438L218.80136 210.90938L218.80136 213.08125L219.86386 213.08125L219.86386 213.89375L218.80136 213.89375L218.80136 217.53438Q218.80136 217.9875 218.84824 218.1125Q218.91074 218.2375 219.03574 218.31563Q219.16074 218.39375 219.39511 218.39375Q219.58261 218.39375 219.86386 218.3625ZM224.81699 217.3L225.91074 217.425Q225.66074 218.37813 224.95761 218.90938Q224.25449 219.44063 223.17636 219.44063Q221.81699 219.44063 221.00449 218.59688Q220.20761 217.75313 220.20761 216.2375Q220.20761 214.675 221.02011 213.81563Q221.83261 212.94063 223.11386 212.94063Q224.36386 212.94063 225.14511 213.78438Q225.94199 214.62813 225.94199 216.175Q225.94199 216.26875 225.94199 216.45625L221.30136 216.45625Q221.36386 217.4875 221.87949 218.03438Q222.39511 218.56563 223.17636 218.56563Q223.75449 218.56563 224.16074 218.26875Q224.58261 217.95625 224.81699 217.3ZM221.36386 215.59688L224.83261 215.59688Q224.77011 214.8 224.44199 214.40938Q223.92636 213.8 223.12949 213.8Q222.39511 213.8 221.89511 214.28438Q221.41074 214.76875 221.36386 215.59688ZM227.55136 219.3L227.55136 213.08125L228.50449 213.08125L228.50449 214.01875Q228.86386 213.3625 229.16074 213.15938Q229.47324 212.94063 229.84824 212.94063Q230.37949 212.94063 230.92636 213.26875L230.56699 214.25313Q230.17636 214.01875 229.80136 214.01875Q229.44199 214.01875 229.16074 214.2375Q228.89511 214.44063 228.78574 214.81563Q228.59824 215.37813 228.59824 216.03438L228.59824 219.3L227.55136 219.3ZM231.56699 221.69063L231.56699 213.08125L232.52011 213.08125L232.52011 213.87813Q232.86386 213.40938 233.28574 213.175Q233.72324 212.94063 234.33261 212.94063Q235.12949 212.94063 235.73886 213.34688Q236.34824 213.75313 236.64511 214.50313Q236.95761 215.25313 236.95761 216.14375Q236.95761 217.09688 236.61386 217.8625Q236.28574 218.62813 235.62949 219.03438Q234.97324 219.44063 234.25449 219.44063Q233.72324 219.44063 233.30136 219.22188Q232.87949 218.9875 232.61386 218.65938L232.61386 221.69063L231.56699 221.69063ZM232.52011 216.22188Q232.52011 217.425 233.00449 218.00313Q233.48886 218.56563 234.17636 218.56563Q234.87949 218.56563 235.37949 217.97188Q235.87949 217.37813 235.87949 216.12813Q235.87949 214.94063 235.39511 214.3625Q234.91074 213.76875 234.22324 213.76875Q233.55136 213.76875 233.03574 214.39375Q232.52011 215.01875 232.52011 216.22188ZM238.17636 216.19063Q238.17636 214.45625 239.12949 213.62813Q239.92636 212.94063 241.08261 212.94063Q242.36386 212.94063 243.17636 213.78438Q244.00449 214.6125 244.00449 216.09688Q244.00449 217.3 243.64511 217.9875Q243.28574 218.675 242.58261 219.06563Q241.89511 219.44063 241.08261 219.44063Q239.78574 219.44063 238.97324 218.6125Q238.17636 217.76875 238.17636 216.19063ZM239.25449 216.19063Q239.25449 217.37813 239.77011 217.97188Q240.30136 218.56563 241.08261 218.56563Q241.87949 218.56563 242.39511 217.97188Q242.91074 217.37813 242.91074 216.15938Q242.91074 215.00313 242.37949 214.40938Q241.86386 213.81563 241.08261 213.81563Q240.30136 213.81563 239.77011 214.40938Q239.25449 214.9875 239.25449 216.19063ZM245.53574 219.3L245.53574 210.70625L246.59824 210.70625L246.59824 219.3L245.53574 219.3ZM252.62949 218.53438Q252.03574 219.03438 251.48886 219.2375Q250.95761 219.44063 250.33261 219.44063Q249.30136 219.44063 248.75449 218.94063Q248.20761 218.44063 248.20761 217.65938Q248.20761 217.20625 248.41074 216.83125Q248.61386 216.44063 248.95761 216.22188Q249.30136 215.9875 249.72324 215.87813Q250.02011 215.78438 250.66074 215.70625Q251.92636 215.56563 252.53574 215.34688Q252.53574 215.12813 252.53574 215.08125Q252.53574 214.425 252.23886 214.15938Q251.83261 213.81563 251.03574 213.81563Q250.30136 213.81563 249.94199 214.08125Q249.58261 214.33125 249.41074 214.9875L248.37949 214.84688Q248.52011 214.19063 248.84824 213.78438Q249.17636 213.37813 249.78574 213.15938Q250.39511 212.94063 251.19199 212.94063Q251.98886 212.94063 252.48886 213.12813Q252.98886 213.31563 253.22324 213.59688Q253.45761 213.87813 253.55136 214.31563Q253.59824 214.58125 253.59824 215.28438L253.59824 216.69063Q253.59824 218.15938 253.66074 218.55Q253.73886 218.94063 253.94199 219.3L252.83261 219.3Q252.67636 218.97188 252.62949 218.53438ZM252.53574 216.175Q251.95761 216.40938 250.81699 216.58125Q250.16074 216.675 249.89511 216.8Q249.62949 216.90938 249.47324 217.12813Q249.33261 217.34688 249.33261 217.62813Q249.33261 218.05 249.64511 218.33125Q249.97324 218.6125 250.58261 218.6125Q251.19199 218.6125 251.66074 218.34688Q252.14511 218.08125 252.36386 217.6125Q252.53574 217.25313 252.53574 216.56563L252.53574 216.175ZM257.86386 218.3625L258.0201 219.28438Q257.567 219.37813 257.22324 219.37813Q256.6451 219.37813 256.3326 219.20625Q256.0201 219.01875 255.87949 218.72188Q255.75449 218.425 255.75449 217.47188L255.75449 213.89375L254.98886 213.89375L254.98886 213.08125L255.75449 213.08125L255.75449 211.53438L256.80136 210.90938L256.80136 213.08125L257.86386 213.08125L257.86386 213.89375L256.80136 213.89375L256.80136 217.53438Q256.80136 217.9875 256.84824 218.1125Q256.91074 218.2375 257.03574 218.31563Q257.16074 218.39375 257.3951 218.39375Q257.5826 218.39375 257.86386 218.3625ZM258.567 211.925L258.567 210.70625L259.6295 210.70625L259.6295 211.925L258.567 211.925ZM258.567 219.3L258.567 213.08125L259.6295 213.08125L259.6295 219.3L258.567 219.3ZM261.17636 216.19063Q261.17636 214.45625 262.1295 213.62813Q262.92636 212.94063 264.0826 212.94063Q265.36386 212.94063 266.17636 213.78438Q267.0045 214.6125 267.0045 216.09688Q267.0045 217.3 266.6451 217.9875Q266.28574 218.675 265.5826 219.06563Q264.8951 219.44063 264.0826 219.44063Q262.78574 219.44063 261.97324 218.6125Q261.17636 217.76875 261.17636 216.19063ZM262.2545 216.19063Q262.2545 217.37813 262.7701 217.97188Q263.30136 218.56563 264.0826 218.56563Q264.8795 218.56563 265.3951 217.97188Q265.91074 217.37813 265.91074 216.15938Q265.91074 215.00313 265.3795 214.40938Q264.86386 213.81563 264.0826 213.81563Q263.30136 213.81563 262.7701 214.40938Q262.2545 214.9875 262.2545 216.19063ZM268.567 219.3L268.567 213.08125L269.5045 213.08125L269.5045 213.95625Q270.192 212.94063 271.48886 212.94063Q272.05136 212.94063 272.5201 213.14375Q273.0045 213.34688 273.23886 213.675Q273.47324 214.00313 273.567 214.44063Q273.61386 214.7375 273.61386 215.47188L273.61386 219.3L272.567 219.3L272.567 215.51875Q272.567 214.8625 272.442 214.55Q272.317 214.2375 272.0045 214.05Q271.692 213.84688 271.2701 213.84688Q270.59824 213.84688 270.09824 214.28438Q269.61386 214.70625 269.61386 215.89375L269.61386 219.3L268.567 219.3Z"
     fill-rule="nonzero"
     id="path31" />
  <path
     fill="#000000"
     d="M283.2322 219.3L283.2322 210.70625L284.38846 210.70625L288.90408 217.45625L288.90408 210.70625L289.99783 210.70625L289.99783 219.3L288.82596 219.3L284.31033 212.55L284.31033 219.3L283.2322 219.3ZM291.71658 216.19063Q291.71658 214.45625 292.6697 213.62813Q293.46658 212.94063 294.62283 212.94063Q295.90408 212.94063 296.71658 213.78438Q297.5447 214.6125 297.5447 216.09688Q297.5447 217.3 297.18533 217.9875Q296.82596 218.675 296.12283 219.06563Q295.43533 219.44063 294.62283 219.44063Q293.32596 219.44063 292.51346 218.6125Q291.71658 217.76875 291.71658 216.19063ZM292.7947 216.19063Q292.7947 217.37813 293.31033 217.97188Q293.84158 218.56563 294.62283 218.56563Q295.4197 218.56563 295.93533 217.97188Q296.45096 217.37813 296.45096 216.15938Q296.45096 215.00313 295.9197 214.40938Q295.40408 213.81563 294.62283 213.81563Q293.84158 213.81563 293.31033 214.40938Q292.7947 214.9875 292.7947 216.19063ZM299.1072 219.3L299.1072 213.08125L300.0447 213.08125L300.0447 213.95625Q300.7322 212.94063 302.02908 212.94063Q302.59158 212.94063 303.06033 213.14375Q303.5447 213.34688 303.77908 213.675Q304.01346 214.00313 304.1072 214.44063Q304.15408 214.7375 304.15408 215.47188L304.15408 219.3L303.1072 219.3L303.1072 215.51875Q303.1072 214.8625 302.9822 214.55Q302.8572 214.2375 302.5447 214.05Q302.2322 213.84688 301.81033 213.84688Q301.13846 213.84688 300.63846 214.28438Q300.15408 214.70625 300.15408 215.89375L300.15408 219.3L299.1072 219.3ZM305.68533 216.72188L305.68533 215.65938L308.93533 215.65938L308.93533 216.72188L305.68533 216.72188ZM310.07596 219.3L310.07596 210.70625L311.13846 210.70625L311.13846 219.3L310.07596 219.3ZM313.1072 211.925L313.1072 210.70625L314.1697 210.70625L314.1697 211.925L313.1072 211.925ZM313.1072 219.3L313.1072 213.08125L314.1697 213.08125L314.1697 219.3L313.1072 219.3ZM316.1072 219.3L316.1072 213.08125L317.0447 213.08125L317.0447 213.95625Q317.7322 212.94063 319.02908 212.94063Q319.59158 212.94063 320.06033 213.14375Q320.5447 213.34688 320.77908 213.675Q321.01346 214.00313 321.1072 214.44063Q321.15408 214.7375 321.15408 215.47188L321.15408 219.3L320.1072 219.3L320.1072 215.51875Q320.1072 214.8625 319.9822 214.55Q319.8572 214.2375 319.5447 214.05Q319.2322 213.84688 318.81033 213.84688Q318.13846 213.84688 317.63846 214.28438Q317.15408 214.70625 317.15408 215.89375L317.15408 219.3L316.1072 219.3ZM327.3572 217.3L328.45096 217.425Q328.20096 218.37813 327.49783 218.90938Q326.7947 219.44063 325.71658 219.44063Q324.3572 219.44063 323.5447 218.59688Q322.74783 217.75313 322.74783 216.2375Q322.74783 214.675 323.56033 213.81563Q324.37283 212.94063 325.65408 212.94063Q326.90408 212.94063 327.68533 213.78438Q328.4822 214.62813 328.4822 216.175Q328.4822 216.26875 328.4822 216.45625L323.84158 216.45625Q323.90408 217.4875 324.4197 218.03438Q324.93533 218.56563 325.71658 218.56563Q326.2947 218.56563 326.70096 218.26875Q327.12283 217.95625 327.3572 217.3ZM323.90408 215.59688L327.37283 215.59688Q327.31033 214.8 326.9822 214.40938Q326.46658 213.8 325.6697 213.8Q324.93533 213.8 324.43533 214.28438Q323.95096 214.76875 323.90408 215.59688ZM325.02908 212.3L325.81033 210.65938L327.20096 210.65938L325.90408 212.3L325.02908 212.3ZM334.1697 218.53438Q333.57596 219.03438 333.02908 219.2375Q332.49783 219.44063 331.87283 219.44063Q330.84158 219.44063 330.2947 218.94063Q329.74783 218.44063 329.74783 217.65938Q329.74783 217.20625 329.95096 216.83125Q330.15408 216.44063 330.49783 216.22188Q330.84158 215.9875 331.26346 215.87813Q331.56033 215.78438 332.20096 215.70625Q333.46658 215.56563 334.07596 215.34688Q334.07596 215.12813 334.07596 215.08125Q334.07596 214.425 333.77908 214.15938Q333.37283 213.81563 332.57596 213.81563Q331.84158 213.81563 331.4822 214.08125Q331.12283 214.33125 330.95096 214.9875L329.9197 214.84688Q330.06033 214.19063 330.38846 213.78438Q330.71658 213.37813 331.32596 213.15938Q331.93533 212.94063 332.7322 212.94063Q333.52908 212.94063 334.02908 213.12813Q334.52908 213.31563 334.76346 213.59688Q334.99783 213.87813 335.09158 214.31563Q335.13846 214.58125 335.13846 215.28438L335.13846 216.69063Q335.13846 218.15938 335.20096 218.55Q335.27908 218.94063 335.4822 219.3L334.37283 219.3Q334.21658 218.97188 334.1697 218.53438ZM334.07596 216.175Q333.49783 216.40938 332.3572 216.58125Q331.70096 216.675 331.43533 216.8Q331.1697 216.90938 331.01346 217.12813Q330.87283 217.34688 330.87283 217.62813Q330.87283 218.05 331.18533 218.33125Q331.51346 218.6125 332.12283 218.6125Q332.7322 218.6125 333.20096 218.34688Q333.68533 218.08125 333.90408 217.6125Q334.07596 217.25313 334.07596 216.56563L334.07596 216.175ZM337.1072 211.925L337.1072 210.70625L338.1697 210.70625L338.1697 211.925L337.1072 211.925ZM337.1072 219.3L337.1072 213.08125L338.1697 213.08125L338.1697 219.3L337.1072 219.3ZM340.09158 219.3L340.09158 213.08125L341.0447 213.08125L341.0447 214.01875Q341.40408 213.3625 341.70096 213.15938Q342.01346 212.94063 342.38846 212.94063Q342.9197 212.94063 343.46658 213.26875L343.1072 214.25313Q342.71658 214.01875 342.34158 214.01875Q341.9822 214.01875 341.70096 214.2375Q341.43533 214.44063 341.32596 214.81563Q341.13846 215.37813 341.13846 216.03438L341.13846 219.3L340.09158 219.3ZM348.3572 217.3L349.45096 217.425Q349.20096 218.37813 348.49783 218.90938Q347.7947 219.44063 346.71658 219.44063Q345.3572 219.44063 344.5447 218.59688Q343.74783 217.75313 343.74783 216.2375Q343.74783 214.675 344.56033 213.81563Q345.37283 212.94063 346.65408 212.94063Q347.90408 212.94063 348.68533 213.78438Q349.4822 214.62813 349.4822 216.175Q349.4822 216.26875 349.4822 216.45625L344.84158 216.45625Q344.90408 217.4875 345.4197 218.03438Q345.93533 218.56563 346.71658 218.56563Q347.2947 218.56563 347.70096 218.26875Q348.12283 217.95625 348.3572 217.3ZM344.90408 215.59688L348.37283 215.59688Q348.31033 214.8 347.9822 214.40938Q347.46658 213.8 346.6697 213.8Q345.93533 213.8 345.43533 214.28438Q344.95096 214.76875 344.90408 215.59688Z"
     fill-rule="nonzero"
     id="path32" />
</svg>
