<?xml version="1.0" encoding="UTF-8" standalone="no"?>
<svg
   version="1.1"
   viewBox="0.0 0.0 768.0 475.0"
   fill="none"
   stroke="none"
   stroke-linecap="square"
   stroke-miterlimit="10"
   width="768"
   height="475"
   id="svg35"
   sodipodi:docname="Automatisation.svg"
   inkscape:version="1.3 (0e150ed, 2023-07-21)"
   xmlns:inkscape="http://www.inkscape.org/namespaces/inkscape"
   xmlns:sodipodi="http://sodipodi.sourceforge.net/DTD/sodipodi-0.dtd"
   xmlns="http://www.w3.org/2000/svg"
   xmlns:svg="http://www.w3.org/2000/svg">
  <defs
     id="defs35" />
  <sodipodi:namedview
     id="namedview35"
     pagecolor="#ffffff"
     bordercolor="#000000"
     borderopacity="0.25"
     inkscape:showpageshadow="2"
     inkscape:pageopacity="0.0"
     inkscape:pagecheckerboard="0"
     inkscape:deskcolor="#d1d1d1"
     inkscape:zoom="0.30729167"
     inkscape:cx="382.37288"
     inkscape:cy="237.55932"
     inkscape:window-width="1312"
     inkscape:window-height="449"
     inkscape:window-x="0"
     inkscape:window-y="32"
     inkscape:window-maximized="0"
     inkscape:current-layer="svg35" />
  <path
     stroke="#cccccc"
     stroke-width="1.0"
     stroke-linecap="butt"
     d="M384.0 259.0C384.0 259.0 384.0 259.0 384.0 259.0C384.0 259.0 384.0 259.0 384.0 259.0C384.0 259.0 384.0 259.0 384.0 259.0C384.0 259.0 384.0 259.0 384.0 259.0"
     fill-rule="nonzero"
     id="path3" />
  <path
     fill="#000000"
     d="M355.0625 252.35938Q355.0625 254.26562 354.40625 255.20312Q353.76562 256.125 352.375 256.125Q351.01562 256.125 350.35938 255.21875Q349.70312 254.3125 349.67188 252.5L349.67188 251.0625Q349.67188 249.17188 350.3125 248.26562Q350.96875 247.34375 352.35938 247.34375Q353.73438 247.34375 354.39062 248.23438Q355.04688 249.10938 355.0625 250.95312L355.0625 252.35938ZM353.96875 250.875Q353.96875 249.5 353.57812 248.875Q353.20312 248.23438 352.35938 248.23438Q351.53125 248.23438 351.14062 248.875Q350.76562 249.5 350.76562 250.79688L350.76562 252.53125Q350.76562 253.90625 351.15625 254.57812Q351.5625 255.23438 352.375 255.23438Q353.17188 255.23438 353.5625 254.60938Q353.95312 253.98438 353.96875 252.65625L353.96875 250.875ZM356.84375 255.4375Q356.84375 255.15625 357.0 254.96875Q357.17188 254.78125 357.5 254.78125Q357.84375 254.78125 358.01562 254.96875Q358.1875 255.15625 358.1875 255.4375Q358.1875 255.70312 358.01562 255.89062Q357.84375 256.0625 357.5 256.0625Q357.17188 256.0625 357.0 255.89062Q356.84375 255.70312 356.84375 255.4375ZM365.0625 252.35938Q365.0625 254.26562 364.40625 255.20312Q363.76562 256.125 362.375 256.125Q361.01562 256.125 360.35938 255.21875Q359.70312 254.3125 359.67188 252.5L359.67188 251.0625Q359.67188 249.17188 360.3125 248.26562Q360.96875 247.34375 362.35938 247.34375Q363.73438 247.34375 364.39062 248.23438Q365.04688 249.10938 365.0625 250.95312L365.0625 252.35938ZM363.96875 250.875Q363.96875 249.5 363.57812 248.875Q363.20312 248.23438 362.35938 248.23438Q361.53125 248.23438 361.14062 248.875Q360.76562 249.5 360.76562 250.79688L360.76562 252.53125Q360.76562 253.90625 361.15625 254.57812Q361.5625 255.23438 362.375 255.23438Q363.17188 255.23438 363.5625 254.60938Q363.95312 253.98438 363.96875 252.65625L363.96875 250.875ZM372.0625 252.35938Q372.0625 254.26562 371.40625 255.20312Q370.76562 256.125 369.375 256.125Q368.01562 256.125 367.35938 255.21875Q366.70312 254.3125 366.67188 252.5L366.67188 251.0625Q366.67188 249.17188 367.3125 248.26562Q367.96875 247.34375 369.35938 247.34375Q370.73438 247.34375 371.39062 248.23438Q372.04688 249.10938 372.0625 250.95312L372.0625 252.35938ZM370.96875 250.875Q370.96875 249.5 370.57812 248.875Q370.20312 248.23438 369.35938 248.23438Q368.53125 248.23438 368.14062 248.875Q367.76562 249.5 367.76562 250.79688L367.76562 252.53125Q367.76562 253.90625 368.15625 254.57812Q368.5625 255.23438 369.375 255.23438Q370.17188 255.23438 370.5625 254.60938Q370.95312 253.98438 370.96875 252.65625L370.96875 250.875ZM373.60938 249.10938Q373.60938 248.34375 374.09375 247.84375Q374.59375 247.34375 375.35938 247.34375Q376.14062 247.34375 376.625 247.84375Q377.10938 248.34375 377.10938 249.14062L377.10938 249.5625Q377.10938 250.32812 376.60938 250.82812Q376.125 251.3125 375.375 251.3125Q374.60938 251.3125 374.10938 250.82812Q373.60938 250.32812 373.60938 249.51562L373.60938 249.10938ZM374.42188 249.5625Q374.42188 250.01562 374.67188 250.3125Q374.9375 250.60938 375.375 250.60938Q375.79688 250.60938 376.04688 250.32812Q376.29688 250.03125 376.29688 249.53125L376.29688 249.10938Q376.29688 248.65625 376.04688 248.35938Q375.79688 248.04688 375.35938 248.04688Q374.92188 248.04688 374.67188 248.35938Q374.42188 248.65625 374.42188 249.125L374.42188 249.5625ZM377.76562 253.90625Q377.76562 253.14062 378.25 252.65625Q378.75 252.15625 379.51562 252.15625Q380.28125 252.15625 380.76562 252.65625Q381.26562 253.14062 381.26562 253.95312L381.26562 254.35938Q381.26562 255.125 380.78125 255.625Q380.29688 256.125 379.53125 256.125Q378.76562 256.125 378.26562 255.64062Q377.76562 255.14062 377.76562 254.32812L377.76562 253.90625ZM378.57812 254.35938Q378.57812 254.82812 378.82812 255.125Q379.09375 255.42188 379.53125 255.42188Q379.95312 255.42188 380.20312 255.14062Q380.45312 254.84375 380.45312 254.34375L380.45312 253.90625Q380.45312 253.4375 380.1875 253.15625Q379.9375 252.85938 379.51562 252.85938Q379.09375 252.85938 378.82812 253.15625Q378.57812 253.4375 378.57812 253.9375L378.57812 254.35938ZM375.625 255.35938L375.0 254.96875L379.17188 248.29688L379.78125 248.6875L375.625 255.35938Z"
     fill-rule="nonzero"
     id="path4" />
  <path
     stroke="#cccccc"
     stroke-width="1.0"
     stroke-linecap="butt"
     d="M415.94427 259.0C415.94427 241.35767 401.64233 227.05573 384.0 227.05573C366.35767 227.05573 352.05573 241.35767 352.05573 259.0C352.05573 276.64233 366.35767 290.94427 384.0 290.94427C401.64233 290.94427 415.94427 276.64233 415.94427 259.0"
     fill-rule="nonzero"
     id="path5" />
  <path
     fill="#000000"
     d="M346.26562 224.05573L345.1875 224.05573L345.1875 216.83698L343.0 217.63385L343.0 216.64948L346.10938 215.4776L346.26562 215.4776L346.26562 224.05573ZM355.0625 220.4151Q355.0625 222.32135 354.40625 223.25885Q353.76562 224.18073 352.375 224.18073Q351.01562 224.18073 350.35938 223.27448Q349.70312 222.36823 349.67188 220.55573L349.67188 219.11823Q349.67188 217.2276 350.3125 216.32135Q350.96875 215.39948 352.35938 215.39948Q353.73438 215.39948 354.39062 216.2901Q355.04688 217.1651 355.0625 219.00885L355.0625 220.4151ZM353.96875 218.93073Q353.96875 217.55573 353.57812 216.93073Q353.20312 216.2901 352.35938 216.2901Q351.53125 216.2901 351.14062 216.93073Q350.76562 217.55573 350.76562 218.8526L350.76562 220.58698Q350.76562 221.96198 351.15625 222.63385Q351.5625 223.2901 352.375 223.2901Q353.17188 223.2901 353.5625 222.6651Q353.95312 222.0401 353.96875 220.71198L353.96875 218.93073ZM356.84375 223.49323Q356.84375 223.21198 357.0 223.02448Q357.17188 222.83698 357.5 222.83698Q357.84375 222.83698 358.01562 223.02448Q358.1875 223.21198 358.1875 223.49323Q358.1875 223.75885 358.01562 223.94635Q357.84375 224.11823 357.5 224.11823Q357.17188 224.11823 357.0 223.94635Q356.84375 223.75885 356.84375 223.49323ZM365.0625 220.4151Q365.0625 222.32135 364.40625 223.25885Q363.76562 224.18073 362.375 224.18073Q361.01562 224.18073 360.35938 223.27448Q359.70312 222.36823 359.67188 220.55573L359.67188 219.11823Q359.67188 217.2276 360.3125 216.32135Q360.96875 215.39948 362.35938 215.39948Q363.73438 215.39948 364.39062 216.2901Q365.04688 217.1651 365.0625 219.00885L365.0625 220.4151ZM363.96875 218.93073Q363.96875 217.55573 363.57812 216.93073Q363.20312 216.2901 362.35938 216.2901Q361.53125 216.2901 361.14062 216.93073Q360.76562 217.55573 360.76562 218.8526L360.76562 220.58698Q360.76562 221.96198 361.15625 222.63385Q361.5625 223.2901 362.375 223.2901Q363.17188 223.2901 363.5625 222.6651Q363.95312 222.0401 363.96875 220.71198L363.96875 218.93073ZM372.0625 220.4151Q372.0625 222.32135 371.40625 223.25885Q370.76562 224.18073 369.375 224.18073Q368.01562 224.18073 367.35938 223.27448Q366.70312 222.36823 366.67188 220.55573L366.67188 219.11823Q366.67188 217.2276 367.3125 216.32135Q367.96875 215.39948 369.35938 215.39948Q370.73438 215.39948 371.39062 216.2901Q372.04688 217.1651 372.0625 219.00885L372.0625 220.4151ZM370.96875 218.93073Q370.96875 217.55573 370.57812 216.93073Q370.20312 216.2901 369.35938 216.2901Q368.53125 216.2901 368.14062 216.93073Q367.76562 217.55573 367.76562 218.8526L367.76562 220.58698Q367.76562 221.96198 368.15625 222.63385Q368.5625 223.2901 369.375 223.2901Q370.17188 223.2901 370.5625 222.6651Q370.95312 222.0401 370.96875 220.71198L370.96875 218.93073ZM373.60938 217.1651Q373.60938 216.39948 374.09375 215.89948Q374.59375 215.39948 375.35938 215.39948Q376.14062 215.39948 376.625 215.89948Q377.10938 216.39948 377.10938 217.19635L377.10938 217.61823Q377.10938 218.38385 376.60938 218.88385Q376.125 219.36823 375.375 219.36823Q374.60938 219.36823 374.10938 218.88385Q373.60938 218.38385 373.60938 217.57135L373.60938 217.1651ZM374.42188 217.61823Q374.42188 218.07135 374.67188 218.36823Q374.9375 218.6651 375.375 218.6651Q375.79688 218.6651 376.04688 218.38385Q376.29688 218.08698 376.29688 217.58698L376.29688 217.1651Q376.29688 216.71198 376.04688 216.4151Q375.79688 216.1026 375.35938 216.1026Q374.92188 216.1026 374.67188 216.4151Q374.42188 216.71198 374.42188 217.18073L374.42188 217.61823ZM377.76562 221.96198Q377.76562 221.19635 378.25 220.71198Q378.75 220.21198 379.51562 220.21198Q380.28125 220.21198 380.76562 220.71198Q381.26562 221.19635 381.26562 222.00885L381.26562 222.4151Q381.26562 223.18073 380.78125 223.68073Q380.29688 224.18073 379.53125 224.18073Q378.76562 224.18073 378.26562 223.69635Q377.76562 223.19635 377.76562 222.38385L377.76562 221.96198ZM378.57812 222.4151Q378.57812 222.88385 378.82812 223.18073Q379.09375 223.4776 379.53125 223.4776Q379.95312 223.4776 380.20312 223.19635Q380.45312 222.89948 380.45312 222.39948L380.45312 221.96198Q380.45312 221.49323 380.1875 221.21198Q379.9375 220.9151 379.51562 220.9151Q379.09375 220.9151 378.82812 221.21198Q378.57812 221.49323 378.57812 221.99323L378.57812 222.4151ZM375.625 223.4151L375.0 223.02448L379.17188 216.3526L379.78125 216.74323L375.625 223.4151Z"
     fill-rule="nonzero"
     id="path6" />
  <path
     stroke="#cccccc"
     stroke-width="1.0"
     stroke-linecap="butt"
     d="M447.88855 259.0C447.88855 223.71533 419.28467 195.11145 384.0 195.11145C348.71533 195.11145 320.11145 223.71533 320.11145 259.0C320.11145 294.28467 348.71533 322.88855 384.0 322.88855C419.28467 322.88855 447.88855 294.28467 447.88855 259.0"
     fill-rule="nonzero"
     id="path7" />
  <path
     fill="#000000"
     d="M348.29688 192.11145L342.70312 192.11145L342.70312 191.3302L345.65625 188.04895Q346.3125 187.29895 346.5625 186.84583Q346.8125 186.37708 346.8125 185.87708Q346.8125 185.2052 346.40625 184.78333Q346.01562 184.34583 345.32812 184.34583Q344.53125 184.34583 344.07812 184.81458Q343.625 185.2677 343.625 186.09583L342.54688 186.09583Q342.54688 184.90833 343.29688 184.18958Q344.0625 183.4552 345.32812 183.4552Q346.53125 183.4552 347.21875 184.0802Q347.90625 184.7052 347.90625 185.75208Q347.90625 187.00208 346.29688 188.75208L344.01562 191.22083L348.29688 191.22083L348.29688 192.11145ZM355.0625 188.47083Q355.0625 190.37708 354.40625 191.31458Q353.76562 192.23645 352.375 192.23645Q351.01562 192.23645 350.35938 191.3302Q349.70312 190.42395 349.67188 188.61145L349.67188 187.17395Q349.67188 185.28333 350.3125 184.37708Q350.96875 183.4552 352.35938 183.4552Q353.73438 183.4552 354.39062 184.34583Q355.04688 185.22083 355.0625 187.06458L355.0625 188.47083ZM353.96875 186.98645Q353.96875 185.61145 353.57812 184.98645Q353.20312 184.34583 352.35938 184.34583Q351.53125 184.34583 351.14062 184.98645Q350.76562 185.61145 350.76562 186.90833L350.76562 188.6427Q350.76562 190.0177 351.15625 190.68958Q351.5625 191.34583 352.375 191.34583Q353.17188 191.34583 353.5625 190.72083Q353.95312 190.09583 353.96875 188.7677L353.96875 186.98645ZM356.84375 191.54895Q356.84375 191.2677 357.0 191.0802Q357.17188 190.8927 357.5 190.8927Q357.84375 190.8927 358.01562 191.0802Q358.1875 191.2677 358.1875 191.54895Q358.1875 191.81458 358.01562 192.00208Q357.84375 192.17395 357.5 192.17395Q357.17188 192.17395 357.0 192.00208Q356.84375 191.81458 356.84375 191.54895ZM365.0625 188.47083Q365.0625 190.37708 364.40625 191.31458Q363.76562 192.23645 362.375 192.23645Q361.01562 192.23645 360.35938 191.3302Q359.70312 190.42395 359.67188 188.61145L359.67188 187.17395Q359.67188 185.28333 360.3125 184.37708Q360.96875 183.4552 362.35938 183.4552Q363.73438 183.4552 364.39062 184.34583Q365.04688 185.22083 365.0625 187.06458L365.0625 188.47083ZM363.96875 186.98645Q363.96875 185.61145 363.57812 184.98645Q363.20312 184.34583 362.35938 184.34583Q361.53125 184.34583 361.14062 184.98645Q360.76562 185.61145 360.76562 186.90833L360.76562 188.6427Q360.76562 190.0177 361.15625 190.68958Q361.5625 191.34583 362.375 191.34583Q363.17188 191.34583 363.5625 190.72083Q363.95312 190.09583 363.96875 188.7677L363.96875 186.98645ZM372.0625 188.47083Q372.0625 190.37708 371.40625 191.31458Q370.76562 192.23645 369.375 192.23645Q368.01562 192.23645 367.35938 191.3302Q366.70312 190.42395 366.67188 188.61145L366.67188 187.17395Q366.67188 185.28333 367.3125 184.37708Q367.96875 183.4552 369.35938 183.4552Q370.73438 183.4552 371.39062 184.34583Q372.04688 185.22083 372.0625 187.06458L372.0625 188.47083ZM370.96875 186.98645Q370.96875 185.61145 370.57812 184.98645Q370.20312 184.34583 369.35938 184.34583Q368.53125 184.34583 368.14062 184.98645Q367.76562 185.61145 367.76562 186.90833L367.76562 188.6427Q367.76562 190.0177 368.15625 190.68958Q368.5625 191.34583 369.375 191.34583Q370.17188 191.34583 370.5625 190.72083Q370.95312 190.09583 370.96875 188.7677L370.96875 186.98645ZM373.60938 185.22083Q373.60938 184.4552 374.09375 183.9552Q374.59375 183.4552 375.35938 183.4552Q376.14062 183.4552 376.625 183.9552Q377.10938 184.4552 377.10938 185.25208L377.10938 185.67395Q377.10938 186.43958 376.60938 186.93958Q376.125 187.42395 375.375 187.42395Q374.60938 187.42395 374.10938 186.93958Q373.60938 186.43958 373.60938 185.62708L373.60938 185.22083ZM374.42188 185.67395Q374.42188 186.12708 374.67188 186.42395Q374.9375 186.72083 375.375 186.72083Q375.79688 186.72083 376.04688 186.43958Q376.29688 186.1427 376.29688 185.6427L376.29688 185.22083Q376.29688 184.7677 376.04688 184.47083Q375.79688 184.15833 375.35938 184.15833Q374.92188 184.15833 374.67188 184.47083Q374.42188 184.7677 374.42188 185.23645L374.42188 185.67395ZM377.76562 190.0177Q377.76562 189.25208 378.25 188.7677Q378.75 188.2677 379.51562 188.2677Q380.28125 188.2677 380.76562 188.7677Q381.26562 189.25208 381.26562 190.06458L381.26562 190.47083Q381.26562 191.23645 380.78125 191.73645Q380.29688 192.23645 379.53125 192.23645Q378.76562 192.23645 378.26562 191.75208Q377.76562 191.25208 377.76562 190.43958L377.76562 190.0177ZM378.57812 190.47083Q378.57812 190.93958 378.82812 191.23645Q379.09375 191.53333 379.53125 191.53333Q379.95312 191.53333 380.20312 191.25208Q380.45312 190.9552 380.45312 190.4552L380.45312 190.0177Q380.45312 189.54895 380.1875 189.2677Q379.9375 188.97083 379.51562 188.97083Q379.09375 188.97083 378.82812 189.2677Q378.57812 189.54895 378.57812 190.04895L378.57812 190.47083ZM375.625 191.47083L375.0 191.0802L379.17188 184.40833L379.78125 184.79895L375.625 191.47083Z"
     fill-rule="nonzero"
     id="path8" />
  <path
     stroke="#cccccc"
     stroke-width="1.0"
     stroke-linecap="butt"
     d="M479.83282 259.0C479.83282 206.073 436.927 163.16718 384.0 163.16718C331.073 163.16718 288.16718 206.073 288.16718 259.0C288.16718 311.927 331.073 354.83282 384.0 354.83282C436.927 354.83282 479.83282 311.927 479.83282 259.0"
     fill-rule="nonzero"
     id="path9" />
  <path
     fill="#000000"
     d="M344.28125 155.3703L345.09375 155.3703Q345.875 155.35468 346.3125 154.96405Q346.75 154.57343 346.75 153.90155Q346.75 152.40155 345.25 152.40155Q344.54688 152.40155 344.125 152.8078Q343.71875 153.21405 343.71875 153.8703L342.625 153.8703Q342.625 152.85468 343.35938 152.1828Q344.10938 151.51093 345.25 151.51093Q346.45312 151.51093 347.14062 152.15155Q347.82812 152.79218 347.82812 153.9328Q347.82812 154.4953 347.46875 155.01093Q347.10938 155.52655 346.48438 155.79218Q347.1875 156.01093 347.5625 156.52655Q347.95312 157.04218 347.95312 157.79218Q347.95312 158.9328 347.20312 159.6203Q346.45312 160.29218 345.25 160.29218Q344.0625 160.29218 343.29688 159.63593Q342.54688 158.97968 342.54688 157.91718L343.64062 157.91718Q343.64062 158.58905 344.07812 158.9953Q344.51562 159.40155 345.26562 159.40155Q346.04688 159.40155 346.45312 158.9953Q346.875 158.57343 346.875 157.8078Q346.875 157.07343 346.42188 156.6828Q345.96875 156.27655 345.09375 156.26093L344.28125 156.26093L344.28125 155.3703ZM355.0625 156.52655Q355.0625 158.4328 354.40625 159.3703Q353.76562 160.29218 352.375 160.29218Q351.01562 160.29218 350.35938 159.38593Q349.70312 158.47968 349.67188 156.66718L349.67188 155.22968Q349.67188 153.33905 350.3125 152.4328Q350.96875 151.51093 352.35938 151.51093Q353.73438 151.51093 354.39062 152.40155Q355.04688 153.27655 355.0625 155.1203L355.0625 156.52655ZM353.96875 155.04218Q353.96875 153.66718 353.57812 153.04218Q353.20312 152.40155 352.35938 152.40155Q351.53125 152.40155 351.14062 153.04218Q350.76562 153.66718 350.76562 154.96405L350.76562 156.69843Q350.76562 158.07343 351.15625 158.7453Q351.5625 159.40155 352.375 159.40155Q353.17188 159.40155 353.5625 158.77655Q353.95312 158.15155 353.96875 156.82343L353.96875 155.04218ZM356.84375 159.60468Q356.84375 159.32343 357.0 159.13593Q357.17188 158.94843 357.5 158.94843Q357.84375 158.94843 358.01562 159.13593Q358.1875 159.32343 358.1875 159.60468Q358.1875 159.8703 358.01562 160.0578Q357.84375 160.22968 357.5 160.22968Q357.17188 160.22968 357.0 160.0578Q356.84375 159.8703 356.84375 159.60468ZM365.0625 156.52655Q365.0625 158.4328 364.40625 159.3703Q363.76562 160.29218 362.375 160.29218Q361.01562 160.29218 360.35938 159.38593Q359.70312 158.47968 359.67188 156.66718L359.67188 155.22968Q359.67188 153.33905 360.3125 152.4328Q360.96875 151.51093 362.35938 151.51093Q363.73438 151.51093 364.39062 152.40155Q365.04688 153.27655 365.0625 155.1203L365.0625 156.52655ZM363.96875 155.04218Q363.96875 153.66718 363.57812 153.04218Q363.20312 152.40155 362.35938 152.40155Q361.53125 152.40155 361.14062 153.04218Q360.76562 153.66718 360.76562 154.96405L360.76562 156.69843Q360.76562 158.07343 361.15625 158.7453Q361.5625 159.40155 362.375 159.40155Q363.17188 159.40155 363.5625 158.77655Q363.95312 158.15155 363.96875 156.82343L363.96875 155.04218ZM372.0625 156.52655Q372.0625 158.4328 371.40625 159.3703Q370.76562 160.29218 369.375 160.29218Q368.01562 160.29218 367.35938 159.38593Q366.70312 158.47968 366.67188 156.66718L366.67188 155.22968Q366.67188 153.33905 367.3125 152.4328Q367.96875 151.51093 369.35938 151.51093Q370.73438 151.51093 371.39062 152.40155Q372.04688 153.27655 372.0625 155.1203L372.0625 156.52655ZM370.96875 155.04218Q370.96875 153.66718 370.57812 153.04218Q370.20312 152.40155 369.35938 152.40155Q368.53125 152.40155 368.14062 153.04218Q367.76562 153.66718 367.76562 154.96405L367.76562 156.69843Q367.76562 158.07343 368.15625 158.7453Q368.5625 159.40155 369.375 159.40155Q370.17188 159.40155 370.5625 158.77655Q370.95312 158.15155 370.96875 156.82343L370.96875 155.04218ZM373.60938 153.27655Q373.60938 152.51093 374.09375 152.01093Q374.59375 151.51093 375.35938 151.51093Q376.14062 151.51093 376.625 152.01093Q377.10938 152.51093 377.10938 153.3078L377.10938 153.72968Q377.10938 154.4953 376.60938 154.9953Q376.125 155.47968 375.375 155.47968Q374.60938 155.47968 374.10938 154.9953Q373.60938 154.4953 373.60938 153.6828L373.60938 153.27655ZM374.42188 153.72968Q374.42188 154.1828 374.67188 154.47968Q374.9375 154.77655 375.375 154.77655Q375.79688 154.77655 376.04688 154.4953Q376.29688 154.19843 376.29688 153.69843L376.29688 153.27655Q376.29688 152.82343 376.04688 152.52655Q375.79688 152.21405 375.35938 152.21405Q374.92188 152.21405 374.67188 152.52655Q374.42188 152.82343 374.42188 153.29218L374.42188 153.72968ZM377.76562 158.07343Q377.76562 157.3078 378.25 156.82343Q378.75 156.32343 379.51562 156.32343Q380.28125 156.32343 380.76562 156.82343Q381.26562 157.3078 381.26562 158.1203L381.26562 158.52655Q381.26562 159.29218 380.78125 159.79218Q380.29688 160.29218 379.53125 160.29218Q378.76562 160.29218 378.26562 159.8078Q377.76562 159.3078 377.76562 158.4953L377.76562 158.07343ZM378.57812 158.52655Q378.57812 158.9953 378.82812 159.29218Q379.09375 159.58905 379.53125 159.58905Q379.95312 159.58905 380.20312 159.3078Q380.45312 159.01093 380.45312 158.51093L380.45312 158.07343Q380.45312 157.60468 380.1875 157.32343Q379.9375 157.02655 379.51562 157.02655Q379.09375 157.02655 378.82812 157.32343Q378.57812 157.60468 378.57812 158.10468L378.57812 158.52655ZM375.625 159.52655L375.0 159.13593L379.17188 152.46405L379.78125 152.85468L375.625 159.52655Z"
     fill-rule="nonzero"
     id="path10" />
  <path
     stroke="#cccccc"
     stroke-width="1.0"
     stroke-linecap="butt"
     d="M511.7771 259.0C511.7771 188.43065 454.56934 131.2229 384.0 131.2229C313.43066 131.2229 256.2229 188.43065 256.2229 259.0C256.2229 329.56934 313.43066 386.7771 384.0 386.7771C454.56934 386.7771 511.7771 329.56934 511.7771 259.0"
     fill-rule="nonzero"
     id="path11" />
  <path
     fill="#000000"
     d="M347.28125 125.363525L348.46875 125.363525L348.46875 126.238525L347.28125 126.238525L347.28125 128.2229L346.20312 128.2229L346.20312 126.238525L342.3125 126.238525L342.3125 125.5979L346.125 119.69165L347.28125 119.69165L347.28125 125.363525ZM343.54688 125.363525L346.20312 125.363525L346.20312 121.176025L346.0625 121.4104L343.54688 125.363525ZM355.0625 124.582275Q355.0625 126.488525 354.40625 127.426025Q353.76562 128.3479 352.375 128.3479Q351.01562 128.3479 350.35938 127.44165Q349.70312 126.5354 349.67188 124.7229L349.67188 123.2854Q349.67188 121.394775 350.3125 120.488525Q350.96875 119.56665 352.35938 119.56665Q353.73438 119.56665 354.39062 120.457275Q355.04688 121.332275 355.0625 123.176025L355.0625 124.582275ZM353.96875 123.0979Q353.96875 121.7229 353.57812 121.0979Q353.20312 120.457275 352.35938 120.457275Q351.53125 120.457275 351.14062 121.0979Q350.76562 121.7229 350.76562 123.019775L350.76562 124.75415Q350.76562 126.12915 351.15625 126.801025Q351.5625 127.457275 352.375 127.457275Q353.17188 127.457275 353.5625 126.832275Q353.95312 126.207275 353.96875 124.87915L353.96875 123.0979ZM356.84375 127.6604Q356.84375 127.37915 357.0 127.19165Q357.17188 127.00415 357.5 127.00415Q357.84375 127.00415 358.01562 127.19165Q358.1875 127.37915 358.1875 127.6604Q358.1875 127.926025 358.01562 128.11353Q357.84375 128.2854 357.5 128.2854Q357.17188 128.2854 357.0 128.11353Q356.84375 127.926025 356.84375 127.6604ZM365.0625 124.582275Q365.0625 126.488525 364.40625 127.426025Q363.76562 128.3479 362.375 128.3479Q361.01562 128.3479 360.35938 127.44165Q359.70312 126.5354 359.67188 124.7229L359.67188 123.2854Q359.67188 121.394775 360.3125 120.488525Q360.96875 119.56665 362.35938 119.56665Q363.73438 119.56665 364.39062 120.457275Q365.04688 121.332275 365.0625 123.176025L365.0625 124.582275ZM363.96875 123.0979Q363.96875 121.7229 363.57812 121.0979Q363.20312 120.457275 362.35938 120.457275Q361.53125 120.457275 361.14062 121.0979Q360.76562 121.7229 360.76562 123.019775L360.76562 124.75415Q360.76562 126.12915 361.15625 126.801025Q361.5625 127.457275 362.375 127.457275Q363.17188 127.457275 363.5625 126.832275Q363.95312 126.207275 363.96875 124.87915L363.96875 123.0979ZM372.0625 124.582275Q372.0625 126.488525 371.40625 127.426025Q370.76562 128.3479 369.375 128.3479Q368.01562 128.3479 367.35938 127.44165Q366.70312 126.5354 366.67188 124.7229L366.67188 123.2854Q366.67188 121.394775 367.3125 120.488525Q367.96875 119.56665 369.35938 119.56665Q370.73438 119.56665 371.39062 120.457275Q372.04688 121.332275 372.0625 123.176025L372.0625 124.582275ZM370.96875 123.0979Q370.96875 121.7229 370.57812 121.0979Q370.20312 120.457275 369.35938 120.457275Q368.53125 120.457275 368.14062 121.0979Q367.76562 121.7229 367.76562 123.019775L367.76562 124.75415Q367.76562 126.12915 368.15625 126.801025Q368.5625 127.457275 369.375 127.457275Q370.17188 127.457275 370.5625 126.832275Q370.95312 126.207275 370.96875 124.87915L370.96875 123.0979ZM373.60938 121.332275Q373.60938 120.56665 374.09375 120.06665Q374.59375 119.56665 375.35938 119.56665Q376.14062 119.56665 376.625 120.06665Q377.10938 120.56665 377.10938 121.363525L377.10938 121.7854Q377.10938 122.551025 376.60938 123.051025Q376.125 123.5354 375.375 123.5354Q374.60938 123.5354 374.10938 123.051025Q373.60938 122.551025 373.60938 121.738525L373.60938 121.332275ZM374.42188 121.7854Q374.42188 122.238525 374.67188 122.5354Q374.9375 122.832275 375.375 122.832275Q375.79688 122.832275 376.04688 122.551025Q376.29688 122.25415 376.29688 121.75415L376.29688 121.332275Q376.29688 120.87915 376.04688 120.582275Q375.79688 120.269775 375.35938 120.269775Q374.92188 120.269775 374.67188 120.582275Q374.42188 120.87915 374.42188 121.3479L374.42188 121.7854ZM377.76562 126.12915Q377.76562 125.363525 378.25 124.87915Q378.75 124.37915 379.51562 124.37915Q380.28125 124.37915 380.76562 124.87915Q381.26562 125.363525 381.26562 126.176025L381.26562 126.582275Q381.26562 127.3479 380.78125 127.8479Q380.29688 128.3479 379.53125 128.3479Q378.76562 128.3479 378.26562 127.863525Q377.76562 127.363525 377.76562 126.551025L377.76562 126.12915ZM378.57812 126.582275Q378.57812 127.051025 378.82812 127.3479Q379.09375 127.644775 379.53125 127.644775Q379.95312 127.644775 380.20312 127.363525Q380.45312 127.06665 380.45312 126.56665L380.45312 126.12915Q380.45312 125.6604 380.1875 125.37915Q379.9375 125.082275 379.51562 125.082275Q379.09375 125.082275 378.82812 125.37915Q378.57812 125.6604 378.57812 126.1604L378.57812 126.582275ZM375.625 127.582275L375.0 127.19165L379.17188 120.519775L379.78125 120.9104L375.625 127.582275Z"
     fill-rule="nonzero"
     id="path12" />
  <path
     stroke="#cccccc"
     stroke-width="1.0"
     stroke-linecap="butt"
     d="M543.7214 259.0C543.7214 170.78831 472.21167 99.278625 384.0 99.278625C295.78833 99.278625 224.27863 170.78831 224.27863 259.0C224.27863 347.21167 295.78833 418.72137 384.0 418.72137C472.21167 418.72137 543.7214 347.21167 543.7214 259.0"
     fill-rule="nonzero"
     id="path13" />
  <path
     fill="#000000"
     d="M343.20312 91.997375L343.64062 87.747375L348.01562 87.747375L348.01562 88.747375L344.5625 88.747375L344.29688 91.0755Q344.9375 90.7005 345.73438 90.7005Q346.89062 90.7005 347.57812 91.48175Q348.26562 92.247375 348.26562 93.559875Q348.26562 94.872375 347.54688 95.638Q346.84375 96.403625 345.5625 96.403625Q344.4375 96.403625 343.71875 95.778625Q343.0 95.138 342.90625 94.028625L343.92188 94.028625Q344.03125 94.763 344.45312 95.138Q344.875 95.513 345.5625 95.513Q346.3125 95.513 346.75 94.997375Q347.1875 94.48175 347.1875 93.5755Q347.1875 92.716125 346.71875 92.2005Q346.25 91.684875 345.46875 91.684875Q344.76562 91.684875 344.35938 91.98175L344.07812 92.216125L343.20312 91.997375ZM355.0625 92.638Q355.0625 94.54425 354.40625 95.48175Q353.76562 96.403625 352.375 96.403625Q351.01562 96.403625 350.35938 95.497375Q349.70312 94.591125 349.67188 92.778625L349.67188 91.341125Q349.67188 89.4505 350.3125 88.54425Q350.96875 87.622375 352.35938 87.622375Q353.73438 87.622375 354.39062 88.513Q355.04688 89.388 355.0625 91.23175L355.0625 92.638ZM353.96875 91.153625Q353.96875 89.778625 353.57812 89.153625Q353.20312 88.513 352.35938 88.513Q351.53125 88.513 351.14062 89.153625Q350.76562 89.778625 350.76562 91.0755L350.76562 92.809875Q350.76562 94.184875 351.15625 94.85675Q351.5625 95.513 352.375 95.513Q353.17188 95.513 353.5625 94.888Q353.95312 94.263 353.96875 92.934875L353.96875 91.153625ZM356.84375 95.716125Q356.84375 95.434875 357.0 95.247375Q357.17188 95.059875 357.5 95.059875Q357.84375 95.059875 358.01562 95.247375Q358.1875 95.434875 358.1875 95.716125Q358.1875 95.98175 358.01562 96.16925Q357.84375 96.341125 357.5 96.341125Q357.17188 96.341125 357.0 96.16925Q356.84375 95.98175 356.84375 95.716125ZM365.0625 92.638Q365.0625 94.54425 364.40625 95.48175Q363.76562 96.403625 362.375 96.403625Q361.01562 96.403625 360.35938 95.497375Q359.70312 94.591125 359.67188 92.778625L359.67188 91.341125Q359.67188 89.4505 360.3125 88.54425Q360.96875 87.622375 362.35938 87.622375Q363.73438 87.622375 364.39062 88.513Q365.04688 89.388 365.0625 91.23175L365.0625 92.638ZM363.96875 91.153625Q363.96875 89.778625 363.57812 89.153625Q363.20312 88.513 362.35938 88.513Q361.53125 88.513 361.14062 89.153625Q360.76562 89.778625 360.76562 91.0755L360.76562 92.809875Q360.76562 94.184875 361.15625 94.85675Q361.5625 95.513 362.375 95.513Q363.17188 95.513 363.5625 94.888Q363.95312 94.263 363.96875 92.934875L363.96875 91.153625ZM372.0625 92.638Q372.0625 94.54425 371.40625 95.48175Q370.76562 96.403625 369.375 96.403625Q368.01562 96.403625 367.35938 95.497375Q366.70312 94.591125 366.67188 92.778625L366.67188 91.341125Q366.67188 89.4505 367.3125 88.54425Q367.96875 87.622375 369.35938 87.622375Q370.73438 87.622375 371.39062 88.513Q372.04688 89.388 372.0625 91.23175L372.0625 92.638ZM370.96875 91.153625Q370.96875 89.778625 370.57812 89.153625Q370.20312 88.513 369.35938 88.513Q368.53125 88.513 368.14062 89.153625Q367.76562 89.778625 367.76562 91.0755L367.76562 92.809875Q367.76562 94.184875 368.15625 94.85675Q368.5625 95.513 369.375 95.513Q370.17188 95.513 370.5625 94.888Q370.95312 94.263 370.96875 92.934875L370.96875 91.153625ZM373.60938 89.388Q373.60938 88.622375 374.09375 88.122375Q374.59375 87.622375 375.35938 87.622375Q376.14062 87.622375 376.625 88.122375Q377.10938 88.622375 377.10938 89.41925L377.10938 89.841125Q377.10938 90.60675 376.60938 91.10675Q376.125 91.591125 375.375 91.591125Q374.60938 91.591125 374.10938 91.10675Q373.60938 90.60675 373.60938 89.79425L373.60938 89.388ZM374.42188 89.841125Q374.42188 90.29425 374.67188 90.591125Q374.9375 90.888 375.375 90.888Q375.79688 90.888 376.04688 90.60675Q376.29688 90.309875 376.29688 89.809875L376.29688 89.388Q376.29688 88.934875 376.04688 88.638Q375.79688 88.3255 375.35938 88.3255Q374.92188 88.3255 374.67188 88.638Q374.42188 88.934875 374.42188 89.403625L374.42188 89.841125ZM377.76562 94.184875Q377.76562 93.41925 378.25 92.934875Q378.75 92.434875 379.51562 92.434875Q380.28125 92.434875 380.76562 92.934875Q381.26562 93.41925 381.26562 94.23175L381.26562 94.638Q381.26562 95.403625 380.78125 95.903625Q380.29688 96.403625 379.53125 96.403625Q378.76562 96.403625 378.26562 95.91925Q377.76562 95.41925 377.76562 94.60675L377.76562 94.184875ZM378.57812 94.638Q378.57812 95.10675 378.82812 95.403625Q379.09375 95.7005 379.53125 95.7005Q379.95312 95.7005 380.20312 95.41925Q380.45312 95.122375 380.45312 94.622375L380.45312 94.184875Q380.45312 93.716125 380.1875 93.434875Q379.9375 93.138 379.51562 93.138Q379.09375 93.138 378.82812 93.434875Q378.57812 93.716125 378.57812 94.216125L378.57812 94.638ZM375.625 95.638L375.0 95.247375L379.17188 88.5755L379.78125 88.966125L375.625 95.638Z"
     fill-rule="nonzero"
     id="path14" />
  <path
     stroke="#cccccc"
     stroke-width="1.0"
     stroke-linecap="butt"
     d="M384.0 259.0L384.0 99.0"
     fill-rule="nonzero"
     id="path15" />
  <path
     fill="#000000"
     d="M360.54688 64.515625Q360.54688 65.765625 360.125 66.703125Q359.70312 67.625 358.92188 68.125Q358.15625 68.625 357.125 68.625Q356.125 68.625 355.34375 68.125Q354.5625 67.625 354.125 66.71875Q353.70312 65.796875 353.6875 64.578125L353.6875 63.96875Q353.6875 62.734375 354.10938 61.796875Q354.54688 60.859375 355.32812 60.359375Q356.10938 59.84375 357.125 59.84375Q358.14062 59.84375 358.92188 60.34375Q359.70312 60.84375 360.125 61.78125Q360.54688 62.71875 360.54688 63.96875L360.54688 64.515625ZM359.4375 63.953125Q359.4375 62.4375 358.82812 61.625Q358.21875 60.8125 357.125 60.8125Q356.04688 60.8125 355.4375 61.625Q354.82812 62.4375 354.8125 63.875L354.8125 64.515625Q354.8125 65.984375 355.42188 66.828125Q356.04688 67.65625 357.125 67.65625Q358.21875 67.65625 358.8125 66.875Q359.42188 66.078125 359.4375 64.59375L359.4375 63.953125ZM362.84375 62.15625L362.875 62.953125Q363.60938 62.046875 364.78125 62.046875Q366.79688 62.046875 366.8125 64.3125L366.8125 68.5L365.71875 68.5L365.71875 64.296875Q365.71875 63.625 365.40625 63.296875Q365.10938 62.96875 364.45312 62.96875Q363.92188 62.96875 363.51562 63.25Q363.125 63.53125 362.90625 63.984375L362.90625 68.5L361.82812 68.5L361.82812 62.15625L362.84375 62.15625ZM371.45312 68.625Q370.15625 68.625 369.34375 67.78125Q368.54688 66.921875 368.54688 65.5L368.54688 65.3125Q368.54688 64.359375 368.90625 63.625Q369.26562 62.875 369.90625 62.46875Q370.5625 62.046875 371.3125 62.046875Q372.54688 62.046875 373.23438 62.859375Q373.92188 63.671875 373.92188 65.1875L373.92188 65.640625L369.625 65.640625Q369.65625 66.578125 370.17188 67.15625Q370.70312 67.734375 371.51562 67.734375Q372.07812 67.734375 372.46875 67.5Q372.875 67.265625 373.1875 66.875L373.84375 67.390625Q373.04688 68.625 371.45312 68.625ZM371.3125 62.9375Q370.65625 62.9375 370.20312 63.421875Q369.76562 63.890625 369.67188 64.75L372.84375 64.75L372.84375 64.671875Q372.79688 63.84375 372.39062 63.390625Q372.0 62.9375 371.3125 62.9375ZM377.07812 65.3125L374.21875 65.3125L374.21875 64.4375L377.07812 64.4375L377.07812 65.3125ZM383.89062 60.890625L381.14062 60.890625L381.14062 68.5L380.03125 68.5L380.03125 60.890625L377.28125 60.890625L377.28125 59.96875L383.89062 59.96875L383.89062 60.890625ZM384.53125 65.265625Q384.53125 64.34375 384.89062 63.59375Q385.26562 62.84375 385.92188 62.453125Q386.57812 62.046875 387.40625 62.046875Q388.70312 62.046875 389.5 62.9375Q390.3125 63.828125 390.3125 65.328125L390.3125 65.40625Q390.3125 66.328125 389.95312 67.0625Q389.59375 67.796875 388.9375 68.21875Q388.28125 68.625 387.42188 68.625Q386.14062 68.625 385.32812 67.734375Q384.53125 66.828125 384.53125 65.34375L384.53125 65.265625ZM385.625 65.40625Q385.625 66.453125 386.10938 67.09375Q386.60938 67.734375 387.42188 67.734375Q388.25 67.734375 388.73438 67.09375Q389.21875 66.4375 389.21875 65.265625Q389.21875 64.234375 388.71875 63.59375Q388.23438 62.9375 387.40625 62.9375Q386.60938 62.9375 386.10938 63.578125Q385.625 64.203125 385.625 65.40625ZM394.07812 65.3125L391.21875 65.3125L391.21875 64.4375L394.07812 64.4375L394.07812 65.3125ZM401.54688 64.515625Q401.54688 65.765625 401.125 66.703125Q400.70312 67.625 399.92188 68.125Q399.15625 68.625 398.125 68.625Q397.125 68.625 396.34375 68.125Q395.5625 67.625 395.125 66.71875Q394.70312 65.796875 394.6875 64.578125L394.6875 63.96875Q394.6875 62.734375 395.10938 61.796875Q395.54688 60.859375 396.32812 60.359375Q397.10938 59.84375 398.125 59.84375Q399.14062 59.84375 399.92188 60.34375Q400.70312 60.84375 401.125 61.78125Q401.54688 62.71875 401.54688 63.96875L401.54688 64.515625ZM400.4375 63.953125Q400.4375 62.4375 399.82812 61.625Q399.21875 60.8125 398.125 60.8125Q397.04688 60.8125 396.4375 61.625Q395.82812 62.4375 395.8125 63.875L395.8125 64.515625Q395.8125 65.984375 396.42188 66.828125Q397.04688 67.65625 398.125 67.65625Q399.21875 67.65625 399.8125 66.875Q400.42188 66.078125 400.4375 64.59375L400.4375 63.953125ZM403.84375 62.15625L403.875 62.953125Q404.60938 62.046875 405.78125 62.046875Q407.79688 62.046875 407.8125 64.3125L407.8125 68.5L406.71875 68.5L406.71875 64.296875Q406.71875 63.625 406.40625 63.296875Q406.10938 62.96875 405.45312 62.96875Q404.92188 62.96875 404.51562 63.25Q404.125 63.53125 403.90625 63.984375L403.90625 68.5L402.82812 68.5L402.82812 62.15625L403.84375 62.15625ZM412.45312 68.625Q411.15625 68.625 410.34375 67.78125Q409.54688 66.921875 409.54688 65.5L409.54688 65.3125Q409.54688 64.359375 409.90625 63.625Q410.26562 62.875 410.90625 62.46875Q411.5625 62.046875 412.3125 62.046875Q413.54688 62.046875 414.23438 62.859375Q414.92188 63.671875 414.92188 65.1875L414.92188 65.640625L410.625 65.640625Q410.65625 66.578125 411.17188 67.15625Q411.70312 67.734375 412.51562 67.734375Q413.07812 67.734375 413.46875 67.5Q413.875 67.265625 414.1875 66.875L414.84375 67.390625Q414.04688 68.625 412.45312 68.625ZM412.3125 62.9375Q411.65625 62.9375 411.20312 63.421875Q410.76562 63.890625 410.67188 64.75L413.84375 64.75L413.84375 64.671875Q413.79688 63.84375 413.39062 63.390625Q413.0 62.9375 412.3125 62.9375Z"
     fill-rule="nonzero"
     id="path16" />
  <path
     stroke="#cccccc"
     stroke-width="1.0"
     stroke-linecap="butt"
     d="M384.0 259.0L544.0 259.0"
     fill-rule="nonzero"
     id="path17" />
  <path
     fill="#000000"
     d="M551.0469 259.51562Q551.0469 260.76562 550.625 261.70312Q550.2031 262.625 549.4219 263.125Q548.65625 263.625 547.625 263.625Q546.625 263.625 545.84375 263.125Q545.0625 262.625 544.625 261.71875Q544.2031 260.79688 544.1875 259.57812L544.1875 258.96875Q544.1875 257.73438 544.6094 256.79688Q545.0469 255.85938 545.8281 255.35938Q546.6094 254.84375 547.625 254.84375Q548.6406 254.84375 549.4219 255.34375Q550.2031 255.84375 550.625 256.78125Q551.0469 257.71875 551.0469 258.96875L551.0469 259.51562ZM549.9375 258.95312Q549.9375 257.4375 549.3281 256.625Q548.71875 255.8125 547.625 255.8125Q546.5469 255.8125 545.9375 256.625Q545.3281 257.4375 545.3125 258.875L545.3125 259.51562Q545.3125 260.98438 545.9219 261.82812Q546.5469 262.65625 547.625 262.65625Q548.71875 262.65625 549.3125 261.875Q549.9219 261.07812 549.9375 259.59375L549.9375 258.95312ZM553.34375 257.15625L553.375 257.95312Q554.1094 257.04688 555.28125 257.04688Q557.2969 257.04688 557.3125 259.3125L557.3125 263.5L556.21875 263.5L556.21875 259.29688Q556.21875 258.625 555.90625 258.29688Q555.6094 257.96875 554.9531 257.96875Q554.4219 257.96875 554.0156 258.25Q553.625 258.53125 553.40625 258.98438L553.40625 263.5L552.3281 263.5L552.3281 257.15625L553.34375 257.15625ZM561.9531 263.625Q560.65625 263.625 559.84375 262.78125Q559.0469 261.92188 559.0469 260.5L559.0469 260.3125Q559.0469 259.35938 559.40625 258.625Q559.7656 257.875 560.40625 257.46875Q561.0625 257.04688 561.8125 257.04688Q563.0469 257.04688 563.7344 257.85938Q564.4219 258.67188 564.4219 260.1875L564.4219 260.64062L560.125 260.64062Q560.15625 261.57812 560.6719 262.15625Q561.2031 262.73438 562.0156 262.73438Q562.5781 262.73438 562.96875 262.5Q563.375 262.26562 563.6875 261.875L564.34375 262.39062Q563.5469 263.625 561.9531 263.625ZM561.8125 257.9375Q561.15625 257.9375 560.7031 258.42188Q560.2656 258.89062 560.1719 259.75L563.34375 259.75L563.34375 259.67188Q563.2969 258.84375 562.8906 258.39062Q562.5 257.9375 561.8125 257.9375ZM567.5781 260.3125L564.71875 260.3125L564.71875 259.4375L567.5781 259.4375L567.5781 260.3125ZM574.3906 255.89062L571.6406 255.89062L571.6406 263.5L570.53125 263.5L570.53125 255.89062L567.78125 255.89062L567.78125 254.96875L574.3906 254.96875L574.3906 255.89062ZM575.03125 260.26562Q575.03125 259.34375 575.3906 258.59375Q575.7656 257.84375 576.4219 257.45312Q577.0781 257.04688 577.90625 257.04688Q579.2031 257.04688 580.0 257.9375Q580.8125 258.82812 580.8125 260.32812L580.8125 260.40625Q580.8125 261.32812 580.4531 262.0625Q580.09375 262.79688 579.4375 263.21875Q578.78125 263.625 577.9219 263.625Q576.6406 263.625 575.8281 262.73438Q575.03125 261.82812 575.03125 260.34375L575.03125 260.26562ZM576.125 260.40625Q576.125 261.45312 576.6094 262.09375Q577.1094 262.73438 577.9219 262.73438Q578.75 262.73438 579.2344 262.09375Q579.71875 261.4375 579.71875 260.26562Q579.71875 259.23438 579.21875 258.59375Q578.7344 257.9375 577.90625 257.9375Q577.1094 257.9375 576.6094 258.57812Q576.125 259.20312 576.125 260.40625ZM584.5781 260.3125L581.71875 260.3125L581.71875 259.4375L584.5781 259.4375L584.5781 260.3125ZM586.9375 254.96875L589.7344 261.92188L592.5156 254.96875L593.9844 254.96875L593.9844 263.5L592.8594 263.5L592.8594 260.17188L592.96875 256.59375L590.15625 263.5L589.2969 263.5L586.5 256.60938L586.6094 260.17188L586.6094 263.5L585.4844 263.5L585.4844 254.96875L586.9375 254.96875ZM599.2344 263.5Q599.1406 263.3125 599.0781 262.82812Q598.3281 263.625 597.28125 263.625Q596.34375 263.625 595.7344 263.09375Q595.1406 262.5625 595.1406 261.73438Q595.1406 260.75 595.8906 260.20312Q596.6406 259.65625 598.0156 259.65625L599.0625 259.65625L599.0625 259.15625Q599.0625 258.59375 598.71875 258.26562Q598.3906 257.92188 597.71875 257.92188Q597.1406 257.92188 596.75 258.21875Q596.3594 258.5 596.3594 258.92188L595.2656 258.92188Q595.2656 258.4375 595.59375 258.0Q595.9375 257.5625 596.5156 257.3125Q597.09375 257.04688 597.78125 257.04688Q598.8906 257.04688 599.5 257.59375Q600.125 258.14062 600.15625 259.09375L600.15625 262.01562Q600.15625 262.89062 600.375 263.40625L600.375 263.5L599.2344 263.5ZM597.4375 262.67188Q597.9531 262.67188 598.40625 262.40625Q598.8594 262.14062 599.0625 261.71875L599.0625 260.42188L598.21875 260.42188Q596.21875 260.42188 596.21875 261.59375Q596.21875 262.09375 596.5625 262.39062Q596.90625 262.67188 597.4375 262.67188ZM603.34375 257.15625L603.375 257.95312Q604.1094 257.04688 605.28125 257.04688Q607.2969 257.04688 607.3125 259.3125L607.3125 263.5L606.21875 263.5L606.21875 259.29688Q606.21875 258.625 605.90625 258.29688Q605.6094 257.96875 604.9531 257.96875Q604.4219 257.96875 604.0156 258.25Q603.625 258.53125 603.40625 258.98438L603.40625 263.5L602.3281 263.5L602.3281 257.15625L603.34375 257.15625ZM611.3906 261.90625L612.875 257.15625L614.03125 257.15625L611.4844 264.48438Q610.8906 266.0625 609.6094 266.0625L609.3906 266.04688L609.0 265.96875L609.0 265.09375L609.28125 265.10938Q609.84375 265.10938 610.1406 264.89062Q610.4531 264.67188 610.65625 264.07812L610.8906 263.42188L608.625 257.15625L609.8125 257.15625L611.3906 261.90625Z"
     fill-rule="nonzero"
     id="path18" />
  <path
     stroke="#cccccc"
     stroke-width="1.0"
     stroke-linecap="butt"
     d="M384.0 259.0L384.0 419.0"
     fill-rule="nonzero"
     id="path19" />
  <path
     fill="#000000"
     d="M351.70312 458.5L350.57812 458.5L350.57812 449.96875L351.70312 449.96875L351.70312 458.5ZM354.34375 452.15625L354.375 452.95312Q355.10938 452.04688 356.28125 452.04688Q358.29688 452.04688 358.3125 454.3125L358.3125 458.5L357.21875 458.5L357.21875 454.29688Q357.21875 453.625 356.90625 453.29688Q356.60938 452.96875 355.95312 452.96875Q355.42188 452.96875 355.01562 453.25Q354.625 453.53125 354.40625 453.98438L354.40625 458.5L353.32812 458.5L353.32812 452.15625L354.34375 452.15625ZM361.79688 450.625L361.79688 452.15625L362.96875 452.15625L362.96875 453.0L361.79688 453.0L361.79688 456.92188Q361.79688 457.3125 361.95312 457.5Q362.10938 457.6875 362.48438 457.6875Q362.67188 457.6875 363.0 457.625L363.0 458.5Q362.57812 458.625 362.17188 458.625Q361.45312 458.625 361.07812 458.1875Q360.70312 457.73438 360.70312 456.92188L360.70312 453.0L359.54688 453.0L359.54688 452.15625L360.70312 452.15625L360.70312 450.625L361.79688 450.625ZM366.95312 458.625Q365.65625 458.625 364.84375 457.78125Q364.04688 456.92188 364.04688 455.5L364.04688 455.3125Q364.04688 454.35938 364.40625 453.625Q364.76562 452.875 365.40625 452.46875Q366.0625 452.04688 366.8125 452.04688Q368.04688 452.04688 368.73438 452.85938Q369.42188 453.67188 369.42188 455.1875L369.42188 455.64062L365.125 455.64062Q365.15625 456.57812 365.67188 457.15625Q366.20312 457.73438 367.01562 457.73438Q367.57812 457.73438 367.96875 457.5Q368.375 457.26562 368.6875 456.875L369.34375 457.39062Q368.54688 458.625 366.95312 458.625ZM366.8125 452.9375Q366.15625 452.9375 365.70312 453.42188Q365.26562 453.89062 365.17188 454.75L368.34375 454.75L368.34375 454.67188Q368.29688 453.84375 367.89062 453.39062Q367.5 452.9375 366.8125 452.9375ZM373.39062 453.125Q373.14062 453.09375 372.85938 453.09375Q371.78125 453.09375 371.40625 454.0L371.40625 458.5L370.32812 458.5L370.32812 452.15625L371.375 452.15625L371.39062 452.89062Q371.92188 452.04688 372.90625 452.04688Q373.21875 452.04688 373.39062 452.125L373.39062 453.125ZM379.67188 455.40625Q379.67188 456.84375 379.01562 457.73438Q378.35938 458.625 377.21875 458.625Q376.0625 458.625 375.40625 457.89062L375.40625 460.9375L374.32812 460.9375L374.32812 452.15625L375.3125 452.15625L375.35938 452.85938Q376.03125 452.04688 377.20312 452.04688Q378.34375 452.04688 379.0 452.90625Q379.67188 453.76562 379.67188 455.29688L379.67188 455.40625ZM378.59375 455.28125Q378.59375 454.20312 378.125 453.59375Q377.67188 452.96875 376.875 452.96875Q375.89062 452.96875 375.40625 453.82812L375.40625 456.85938Q375.89062 457.73438 376.89062 457.73438Q377.67188 457.73438 378.125 457.125Q378.59375 456.5 378.59375 455.28125ZM381.03125 455.26562Q381.03125 454.34375 381.39062 453.59375Q381.76562 452.84375 382.42188 452.45312Q383.07812 452.04688 383.90625 452.04688Q385.20312 452.04688 386.0 452.9375Q386.8125 453.82812 386.8125 455.32812L386.8125 455.40625Q386.8125 456.32812 386.45312 457.0625Q386.09375 457.79688 385.4375 458.21875Q384.78125 458.625 383.92188 458.625Q382.64062 458.625 381.82812 457.73438Q381.03125 456.82812 381.03125 455.34375L381.03125 455.26562ZM382.125 455.40625Q382.125 456.45312 382.60938 457.09375Q383.10938 457.73438 383.92188 457.73438Q384.75 457.73438 385.23438 457.09375Q385.71875 456.4375 385.71875 455.26562Q385.71875 454.23438 385.21875 453.59375Q384.73438 452.9375 383.90625 452.9375Q383.10938 452.9375 382.60938 453.57812Q382.125 454.20312 382.125 455.40625ZM389.5 458.5L388.42188 458.5L388.42188 449.5L389.5 449.5L389.5 458.5ZM395.23438 458.5Q395.14062 458.3125 395.07812 457.82812Q394.32812 458.625 393.28125 458.625Q392.34375 458.625 391.73438 458.09375Q391.14062 457.5625 391.14062 456.73438Q391.14062 455.75 391.89062 455.20312Q392.64062 454.65625 394.01562 454.65625L395.0625 454.65625L395.0625 454.15625Q395.0625 453.59375 394.71875 453.26562Q394.39062 452.92188 393.71875 452.92188Q393.14062 452.92188 392.75 453.21875Q392.35938 453.5 392.35938 453.92188L391.26562 453.92188Q391.26562 453.4375 391.59375 453.0Q391.9375 452.5625 392.51562 452.3125Q393.09375 452.04688 393.78125 452.04688Q394.89062 452.04688 395.5 452.59375Q396.125 453.14062 396.15625 454.09375L396.15625 457.01562Q396.15625 457.89062 396.375 458.40625L396.375 458.5L395.23438 458.5ZM393.4375 457.67188Q393.95312 457.67188 394.40625 457.40625Q394.85938 457.14062 395.0625 456.71875L395.0625 455.42188L394.21875 455.42188Q392.21875 455.42188 392.21875 456.59375Q392.21875 457.09375 392.5625 457.39062Q392.90625 457.67188 393.4375 457.67188ZM399.79688 450.625L399.79688 452.15625L400.96875 452.15625L400.96875 453.0L399.79688 453.0L399.79688 456.92188Q399.79688 457.3125 399.95312 457.5Q400.10938 457.6875 400.48438 457.6875Q400.67188 457.6875 401.0 457.625L401.0 458.5Q400.57812 458.625 400.17188 458.625Q399.45312 458.625 399.07812 458.1875Q398.70312 457.73438 398.70312 456.92188L398.70312 453.0L397.54688 453.0L397.54688 452.15625L398.70312 452.15625L398.70312 450.625L399.79688 450.625ZM403.5 458.5L402.42188 458.5L402.42188 452.15625L403.5 452.15625L403.5 458.5ZM402.32812 450.48438Q402.32812 450.21875 402.48438 450.03125Q402.65625 449.84375 402.96875 449.84375Q403.28125 449.84375 403.4375 450.03125Q403.60938 450.21875 403.60938 450.48438Q403.60938 450.73438 403.4375 450.92188Q403.28125 451.09375 402.96875 451.09375Q402.65625 451.09375 402.48438 450.92188Q402.32812 450.73438 402.32812 450.48438ZM405.03125 455.26562Q405.03125 454.34375 405.39062 453.59375Q405.76562 452.84375 406.42188 452.45312Q407.07812 452.04688 407.90625 452.04688Q409.20312 452.04688 410.0 452.9375Q410.8125 453.82812 410.8125 455.32812L410.8125 455.40625Q410.8125 456.32812 410.45312 457.0625Q410.09375 457.79688 409.4375 458.21875Q408.78125 458.625 407.92188 458.625Q406.64062 458.625 405.82812 457.73438Q405.03125 456.82812 405.03125 455.34375L405.03125 455.26562ZM406.125 455.40625Q406.125 456.45312 406.60938 457.09375Q407.10938 457.73438 407.92188 457.73438Q408.75 457.73438 409.23438 457.09375Q409.71875 456.4375 409.71875 455.26562Q409.71875 454.23438 409.21875 453.59375Q408.73438 452.9375 407.90625 452.9375Q407.10938 452.9375 406.60938 453.57812Q406.125 454.20312 406.125 455.40625ZM413.34375 452.15625L413.375 452.95312Q414.10938 452.04688 415.28125 452.04688Q417.29688 452.04688 417.3125 454.3125L417.3125 458.5L416.21875 458.5L416.21875 454.29688Q416.21875 453.625 415.90625 453.29688Q415.60938 452.96875 414.95312 452.96875Q414.42188 452.96875 414.01562 453.25Q413.625 453.53125 413.40625 453.98438L413.40625 458.5L412.32812 458.5L412.32812 452.15625L413.34375 452.15625Z"
     fill-rule="nonzero"
     id="path20" />
  <path
     stroke="#cccccc"
     stroke-width="1.0"
     stroke-linecap="butt"
     d="M384.0 259.0L224.0 259.0"
     fill-rule="nonzero"
     id="path21" />
  <path
     fill="#000000"
     d="M162.54688 263.5L161.42188 263.5L157.125 256.92188L157.125 263.5L155.98438 263.5L155.98438 254.96875L157.125 254.96875L161.42188 261.57812L161.42188 254.96875L162.54688 254.96875L162.54688 263.5ZM164.53125 260.26562Q164.53125 259.34375 164.89062 258.59375Q165.26562 257.84375 165.92188 257.45312Q166.57812 257.04688 167.40625 257.04688Q168.70312 257.04688 169.5 257.9375Q170.3125 258.82812 170.3125 260.32812L170.3125 260.40625Q170.3125 261.32812 169.95312 262.0625Q169.59375 262.79688 168.9375 263.21875Q168.28125 263.625 167.42188 263.625Q166.14062 263.625 165.32812 262.73438Q164.53125 261.82812 164.53125 260.34375L164.53125 260.26562ZM165.625 260.40625Q165.625 261.45312 166.10938 262.09375Q166.60938 262.73438 167.42188 262.73438Q168.25 262.73438 168.73438 262.09375Q169.21875 261.4375 169.21875 260.26562Q169.21875 259.23438 168.71875 258.59375Q168.23438 257.9375 167.40625 257.9375Q166.60938 257.9375 166.10938 258.57812Q165.625 259.20312 165.625 260.40625ZM172.84375 257.15625L172.875 257.95312Q173.60938 257.04688 174.78125 257.04688Q176.79688 257.04688 176.8125 259.3125L176.8125 263.5L175.71875 263.5L175.71875 259.29688Q175.71875 258.625 175.40625 258.29688Q175.10938 257.96875 174.45312 257.96875Q173.92188 257.96875 173.51562 258.25Q173.125 258.53125 172.90625 258.98438L172.90625 263.5L171.82812 263.5L171.82812 257.15625L172.84375 257.15625ZM181.07812 260.3125L178.21875 260.3125L178.21875 259.4375L181.07812 259.4375L181.07812 260.3125ZM183.125 262.57812L187.17188 262.57812L187.17188 263.5L181.98438 263.5L181.98438 254.96875L183.125 254.96875L183.125 262.57812ZM189.0 263.5L187.92188 263.5L187.92188 257.15625L189.0 257.15625L189.0 263.5ZM187.82812 255.48438Q187.82812 255.21875 187.98438 255.03125Q188.15625 254.84375 188.46875 254.84375Q188.78125 254.84375 188.9375 255.03125Q189.10938 255.21875 189.10938 255.48438Q189.10938 255.73438 188.9375 255.92188Q188.78125 256.09375 188.46875 256.09375Q188.15625 256.09375 187.98438 255.92188Q187.82812 255.73438 187.82812 255.48438ZM191.84375 257.15625L191.875 257.95312Q192.60938 257.04688 193.78125 257.04688Q195.79688 257.04688 195.8125 259.3125L195.8125 263.5L194.71875 263.5L194.71875 259.29688Q194.71875 258.625 194.40625 258.29688Q194.10938 257.96875 193.45312 257.96875Q192.92188 257.96875 192.51562 258.25Q192.125 258.53125 191.90625 258.98438L191.90625 263.5L190.82812 263.5L190.82812 257.15625L191.84375 257.15625ZM200.45312 263.625Q199.15625 263.625 198.34375 262.78125Q197.54688 261.92188 197.54688 260.5L197.54688 260.3125Q197.54688 259.35938 197.90625 258.625Q198.26562 257.875 198.90625 257.46875Q199.5625 257.04688 200.3125 257.04688Q201.54688 257.04688 202.23438 257.85938Q202.92188 258.67188 202.92188 260.1875L202.92188 260.64062L198.625 260.64062Q198.65625 261.57812 199.17188 262.15625Q199.70312 262.73438 200.51562 262.73438Q201.07812 262.73438 201.46875 262.5Q201.875 262.26562 202.1875 261.875L202.84375 262.39062Q202.04688 263.625 200.45312 263.625ZM200.3125 257.9375Q199.65625 257.9375 199.20312 258.42188Q198.76562 258.89062 198.67188 259.75L201.84375 259.75L201.84375 259.67188Q201.79688 258.84375 201.39062 258.39062Q201.0 257.9375 200.3125 257.9375ZM200.85938 254.5L202.17188 254.5L200.59375 256.21875L199.71875 256.21875L200.85938 254.5ZM207.73438 263.5Q207.64062 263.3125 207.57812 262.82812Q206.82812 263.625 205.78125 263.625Q204.84375 263.625 204.23438 263.09375Q203.64062 262.5625 203.64062 261.73438Q203.64062 260.75 204.39062 260.20312Q205.14062 259.65625 206.51562 259.65625L207.5625 259.65625L207.5625 259.15625Q207.5625 258.59375 207.21875 258.26562Q206.89062 257.92188 206.21875 257.92188Q205.64062 257.92188 205.25 258.21875Q204.85938 258.5 204.85938 258.92188L203.76562 258.92188Q203.76562 258.4375 204.09375 258.0Q204.4375 257.5625 205.01562 257.3125Q205.59375 257.04688 206.28125 257.04688Q207.39062 257.04688 208.0 257.59375Q208.625 258.14062 208.65625 259.09375L208.65625 262.01562Q208.65625 262.89062 208.875 263.40625L208.875 263.5L207.73438 263.5ZM205.9375 262.67188Q206.45312 262.67188 206.90625 262.40625Q207.35938 262.14062 207.5625 261.71875L207.5625 260.42188L206.71875 260.42188Q204.71875 260.42188 204.71875 261.59375Q204.71875 262.09375 205.0625 262.39062Q205.40625 262.67188 205.9375 262.67188ZM212.0 263.5L210.92188 263.5L210.92188 257.15625L212.0 257.15625L212.0 263.5ZM210.82812 255.48438Q210.82812 255.21875 210.98438 255.03125Q211.15625 254.84375 211.46875 254.84375Q211.78125 254.84375 211.9375 255.03125Q212.10938 255.21875 212.10938 255.48438Q212.10938 255.73438 211.9375 255.92188Q211.78125 256.09375 211.46875 256.09375Q211.15625 256.09375 210.98438 255.92188Q210.82812 255.73438 210.82812 255.48438ZM216.89062 258.125Q216.64062 258.09375 216.35938 258.09375Q215.28125 258.09375 214.90625 259.0L214.90625 263.5L213.82812 263.5L213.82812 257.15625L214.875 257.15625L214.89062 257.89062Q215.42188 257.04688 216.40625 257.04688Q216.71875 257.04688 216.89062 257.125L216.89062 258.125ZM220.45312 263.625Q219.15625 263.625 218.34375 262.78125Q217.54688 261.92188 217.54688 260.5L217.54688 260.3125Q217.54688 259.35938 217.90625 258.625Q218.26562 257.875 218.90625 257.46875Q219.5625 257.04688 220.3125 257.04688Q221.54688 257.04688 222.23438 257.85938Q222.92188 258.67188 222.92188 260.1875L222.92188 260.64062L218.625 260.64062Q218.65625 261.57812 219.17188 262.15625Q219.70312 262.73438 220.51562 262.73438Q221.07812 262.73438 221.46875 262.5Q221.875 262.26562 222.1875 261.875L222.84375 262.39062Q222.04688 263.625 220.45312 263.625ZM220.3125 257.9375Q219.65625 257.9375 219.20312 258.42188Q218.76562 258.89062 218.67188 259.75L221.84375 259.75L221.84375 259.67188Q221.79688 258.84375 221.39062 258.39062Q221.0 257.9375 220.3125 257.9375Z"
     fill-rule="nonzero"
     id="path22" />
  <path
     stroke="#cccccc"
     stroke-width="1.0"
     stroke-linecap="butt"
     d="M384.0 259.0L384.0 99.0"
     fill-rule="nonzero"
     id="path23" />
  <path
     stroke="#4285f4"
     stroke-width="1.0"
     stroke-linecap="butt"
     d="M384.0 153.0L437.0 259.0L384.0 365.0L331.0 259.0Z"
     fill-rule="nonzero"
     id="path24" />
  <path
     stroke="#ea4335"
     stroke-width="1.0"
     stroke-linecap="butt"
     d="M384.0 219.0L464.0 259.0L384.0 379.0L304.0 259.0Z"
     fill-rule="nonzero"
     id="path25" />
  <path
     stroke="#fbbc04"
     stroke-width="1.0"
     stroke-linecap="butt"
     d="M384.0 230.0L442.0 259.0L384.0 317.0L239.0 259.0Z"
     fill-rule="nonzero"
     id="path26" />
  <path
     stroke="#34a853"
     stroke-width="1.0"
     stroke-linecap="butt"
     d="M384.0 131.0L416.0 259.0L384.0 387.0L352.0 259.0Z"
     fill-rule="nonzero"
     id="path27" />
  <path
     stroke="#4285f4"
     stroke-width="4.0"
     stroke-linecap="butt"
     d="M241.5 30.75L253.5 30.75"
     fill-rule="nonzero"
     id="path28" />
  <path
     fill="#1a1a1a"
     d="M262.48438 34.75L262.48438 26.15625L268.28125 26.15625L268.28125 27.171875L263.625 27.171875L263.625 29.828125L267.65625 29.828125L267.65625 30.84375L263.625 30.84375L263.625 34.75L262.48438 34.75ZM269.39062 34.75L269.39062 26.15625L271.10938 26.15625L273.14062 32.234375Q273.42188 33.09375 273.54688 33.515625Q273.6875 33.046875 274.0 32.140625L276.0625 26.15625L277.59375 26.15625L277.59375 34.75L276.5 34.75L276.5 27.5625L274.0 34.75L272.96875 34.75L270.48438 27.4375L270.48438 34.75L269.39062 34.75Z"
     fill-rule="nonzero"
     id="path29" />
  <path
     stroke="#ea4335"
     stroke-width="4.0"
     stroke-linecap="butt"
     d="M293.5 30.75L305.5 30.75"
     fill-rule="nonzero"
     id="path30" />
  <path
     fill="#1a1a1a"
     d="M314.04688 31.984375L315.10938 31.890625Q315.1875 32.546875 315.46875 32.953125Q315.75 33.359375 316.32812 33.625Q316.92188 33.875 317.65625 33.875Q318.29688 33.875 318.79688 33.6875Q319.29688 33.484375 319.53125 33.15625Q319.78125 32.8125 319.78125 32.421875Q319.78125 32.015625 319.54688 31.71875Q319.3125 31.40625 318.78125 31.203125Q318.42188 31.0625 317.23438 30.78125Q316.0625 30.5 315.59375 30.25Q314.96875 29.921875 314.67188 29.453125Q314.375 28.96875 314.375 28.375Q314.375 27.734375 314.73438 27.171875Q315.10938 26.59375 315.8125 26.3125Q316.53125 26.015625 317.39062 26.015625Q318.34375 26.015625 319.07812 26.328125Q319.8125 26.625 320.20312 27.234375Q320.59375 27.828125 320.625 28.578125L319.53125 28.65625Q319.4375 27.84375 318.92188 27.4375Q318.42188 27.015625 317.4375 27.015625Q316.40625 27.015625 315.9375 27.390625Q315.46875 27.765625 315.46875 28.296875Q315.46875 28.765625 315.79688 29.0625Q316.125 29.359375 317.5 29.671875Q318.89062 29.984375 319.40625 30.21875Q320.15625 30.578125 320.51562 31.109375Q320.875 31.625 320.875 32.328125Q320.875 33.015625 320.48438 33.625Q320.09375 34.21875 319.35938 34.5625Q318.625 34.890625 317.70312 34.890625Q316.53125 34.890625 315.73438 34.5625Q314.95312 34.21875 314.5 33.53125Q314.0625 32.84375 314.04688 31.984375ZM321.90625 31.640625Q321.90625 29.90625 322.85938 29.078125Q323.65625 28.390625 324.8125 28.390625Q326.09375 28.390625 326.90625 29.234375Q327.73438 30.0625 327.73438 31.546875Q327.73438 32.75 327.375 33.4375Q327.01562 34.125 326.3125 34.515625Q325.625 34.890625 324.8125 34.890625Q323.51562 34.890625 322.70312 34.0625Q321.90625 33.21875 321.90625 31.640625ZM322.98438 31.640625Q322.98438 32.828125 323.5 33.421875Q324.03125 34.015625 324.8125 34.015625Q325.60938 34.015625 326.125 33.421875Q326.64062 32.828125 326.64062 31.609375Q326.64062 30.453125 326.10938 29.859375Q325.59375 29.265625 324.8125 29.265625Q324.03125 29.265625 323.5 29.859375Q322.98438 30.4375 322.98438 31.640625ZM333.375 34.75L333.375 33.828125Q332.64062 34.890625 331.39062 34.890625Q330.84375 34.890625 330.35938 34.6875Q329.89062 34.46875 329.65625 34.15625Q329.42188 33.828125 329.32812 33.359375Q329.26562 33.0625 329.26562 32.375L329.26562 28.53125L330.32812 28.53125L330.32812 31.984375Q330.32812 32.796875 330.39062 33.09375Q330.48438 33.5 330.79688 33.75Q331.125 33.984375 331.60938 33.984375Q332.07812 33.984375 332.48438 33.75Q332.90625 33.5 333.07812 33.078125Q333.26562 32.65625 333.26562 31.859375L333.26562 28.53125L334.3125 28.53125L334.3125 34.75L333.375 34.75ZM335.875 32.890625L336.90625 32.734375Q337.0 33.359375 337.39062 33.6875Q337.79688 34.015625 338.53125 34.015625Q339.25 34.015625 339.59375 33.734375Q339.95312 33.4375 339.95312 33.03125Q339.95312 32.671875 339.64062 32.46875Q339.42188 32.328125 338.5625 32.109375Q337.40625 31.8125 336.95312 31.609375Q336.51562 31.390625 336.28125 31.015625Q336.04688 30.640625 336.04688 30.171875Q336.04688 29.765625 336.23438 29.40625Q336.42188 29.046875 336.75 28.8125Q337.0 28.640625 337.42188 28.515625Q337.84375 28.390625 338.34375 28.390625Q339.0625 28.390625 339.60938 28.609375Q340.17188 28.8125 340.4375 29.171875Q340.70312 29.53125 340.79688 30.125L339.76562 30.265625Q339.70312 29.796875 339.35938 29.53125Q339.03125 29.25 338.40625 29.25Q337.6875 29.25 337.375 29.5Q337.0625 29.734375 337.0625 30.0625Q337.0625 30.265625 337.1875 30.421875Q337.32812 30.59375 337.59375 30.703125Q337.75 30.765625 338.53125 30.96875Q339.65625 31.28125 340.09375 31.46875Q340.53125 31.65625 340.78125 32.015625Q341.03125 32.375 341.03125 32.921875Q341.03125 33.453125 340.71875 33.921875Q340.42188 34.375 339.84375 34.640625Q339.26562 34.890625 338.53125 34.890625Q337.3125 34.890625 336.67188 34.390625Q336.04688 33.875 335.875 32.890625ZM345.59375 33.8125L345.75 34.734375Q345.29688 34.828125 344.95312 34.828125Q344.375 34.828125 344.0625 34.65625Q343.75 34.46875 343.60938 34.171875Q343.48438 33.875 343.48438 32.921875L343.48438 29.34375L342.71875 29.34375L342.71875 28.53125L343.48438 28.53125L343.48438 26.984375L344.53125 26.359375L344.53125 28.53125L345.59375 28.53125L345.59375 29.34375L344.53125 29.34375L344.53125 32.984375Q344.53125 33.4375 344.57812 33.5625Q344.64062 33.6875 344.76562 33.765625Q344.89062 33.84375 345.125 33.84375Q345.3125 33.84375 345.59375 33.8125ZM346.28125 34.75L346.28125 28.53125L347.23438 28.53125L347.23438 29.46875Q347.59375 28.8125 347.89062 28.609375Q348.20312 28.390625 348.57812 28.390625Q349.10938 28.390625 349.65625 28.71875L349.29688 29.703125Q348.90625 29.46875 348.53125 29.46875Q348.17188 29.46875 347.89062 29.6875Q347.625 29.890625 347.51562 30.265625Q347.32812 30.828125 347.32812 31.484375L347.32812 34.75L346.28125 34.75ZM354.35938 33.984375Q353.76562 34.484375 353.21875 34.6875Q352.6875 34.890625 352.0625 34.890625Q351.03125 34.890625 350.48438 34.390625Q349.9375 33.890625 349.9375 33.109375Q349.9375 32.65625 350.14062 32.28125Q350.34375 31.890625 350.6875 31.671875Q351.03125 31.4375 351.45312 31.328125Q351.75 31.234375 352.39062 31.15625Q353.65625 31.015625 354.26562 30.796875Q354.26562 30.578125 354.26562 30.53125Q354.26562 29.875 353.96875 29.609375Q353.5625 29.265625 352.76562 29.265625Q352.03125 29.265625 351.67188 29.53125Q351.3125 29.78125 351.14062 30.4375L350.10938 30.296875Q350.25 29.640625 350.57812 29.234375Q350.90625 28.828125 351.51562 28.609375Q352.125 28.390625 352.92188 28.390625Q353.71875 28.390625 354.21875 28.578125Q354.71875 28.765625 354.95312 29.046875Q355.1875 29.328125 355.28125 29.765625Q355.32812 30.03125 355.32812 30.734375L355.32812 32.140625Q355.32812 33.609375 355.39062 34.0Q355.46875 34.390625 355.67188 34.75L354.5625 34.75Q354.40625 34.421875 354.35938 33.984375ZM354.26562 31.625Q353.6875 31.859375 352.54688 32.03125Q351.89062 32.125 351.625 32.25Q351.35938 32.359375 351.20312 32.578125Q351.0625 32.796875 351.0625 33.078125Q351.0625 33.5 351.375 33.78125Q351.70312 34.0625 352.3125 34.0625Q352.92188 34.0625 353.39062 33.796875Q353.875 33.53125 354.09375 33.0625Q354.26562 32.703125 354.26562 32.015625L354.26562 31.625ZM361.35938 32.46875L362.39062 32.609375Q362.21875 33.671875 361.51562 34.28125Q360.8125 34.890625 359.79688 34.890625Q358.51562 34.890625 357.73438 34.0625Q356.96875 33.21875 356.96875 31.65625Q356.96875 30.65625 357.29688 29.90625Q357.64062 29.140625 358.3125 28.765625Q359.0 28.390625 359.8125 28.390625Q360.8125 28.390625 361.45312 28.90625Q362.10938 29.40625 362.29688 30.359375L361.26562 30.515625Q361.125 29.890625 360.75 29.578125Q360.375 29.25 359.84375 29.25Q359.04688 29.25 358.54688 29.828125Q358.04688 30.390625 358.04688 31.625Q358.04688 32.890625 358.53125 33.453125Q359.01562 34.015625 359.78125 34.015625Q360.40625 34.015625 360.8125 33.640625Q361.23438 33.265625 361.35938 32.46875ZM365.59375 33.8125L365.75 34.734375Q365.29688 34.828125 364.95312 34.828125Q364.375 34.828125 364.0625 34.65625Q363.75 34.46875 363.60938 34.171875Q363.48438 33.875 363.48438 32.921875L363.48438 29.34375L362.71875 29.34375L362.71875 28.53125L363.48438 28.53125L363.48438 26.984375L364.53125 26.359375L364.53125 28.53125L365.59375 28.53125L365.59375 29.34375L364.53125 29.34375L364.53125 32.984375Q364.53125 33.4375 364.57812 33.5625Q364.64062 33.6875 364.76562 33.765625Q364.89062 33.84375 365.125 33.84375Q365.3125 33.84375 365.59375 33.8125ZM366.29688 27.375L366.29688 26.15625L367.35938 26.15625L367.35938 27.375L366.29688 27.375ZM366.29688 34.75L366.29688 28.53125L367.35938 28.53125L367.35938 34.75L366.29688 34.75ZM369.54688 34.75L369.54688 29.34375L368.60938 29.34375L368.60938 28.53125L369.54688 28.53125L369.54688 27.859375Q369.54688 27.234375 369.65625 26.9375Q369.8125 26.515625 370.1875 26.265625Q370.57812 26.015625 371.26562 26.015625Q371.71875 26.015625 372.25 26.125L372.09375 27.03125Q371.76562 26.984375 371.46875 26.984375Q370.98438 26.984375 370.78125 27.1875Q370.59375 27.390625 370.59375 27.953125L370.59375 28.53125L371.8125 28.53125L371.8125 29.34375L370.59375 29.34375L370.59375 34.75L369.54688 34.75Z"
     fill-rule="nonzero"
     id="path31" />
  <path
     stroke="#fbbc04"
     stroke-width="4.0"
     stroke-linecap="butt"
     d="M387.5 30.75L399.5 30.75"
     fill-rule="nonzero"
     id="path32" />
  <path
     fill="#1a1a1a"
     d="M408.39062 34.75L408.39062 26.15625L410.10938 26.15625L412.14062 32.234375Q412.42188 33.09375 412.54688 33.515625Q412.6875 33.046875 413.0 32.140625L415.0625 26.15625L416.59375 26.15625L416.59375 34.75L415.5 34.75L415.5 27.5625L413.0 34.75L411.96875 34.75L409.48438 27.4375L409.48438 34.75L408.39062 34.75ZM421.54688 32.75L422.64062 32.875Q422.39062 33.828125 421.6875 34.359375Q420.98438 34.890625 419.90625 34.890625Q418.54688 34.890625 417.73438 34.046875Q416.9375 33.203125 416.9375 31.6875Q416.9375 30.125 417.75 29.265625Q418.5625 28.390625 419.84375 28.390625Q421.09375 28.390625 421.875 29.234375Q422.67188 30.078125 422.67188 31.625Q422.67188 31.71875 422.67188 31.90625L418.03125 31.90625Q418.09375 32.9375 418.60938 33.484375Q419.125 34.015625 419.90625 34.015625Q420.48438 34.015625 420.89062 33.71875Q421.3125 33.40625 421.54688 32.75ZM418.09375 31.046875L421.5625 31.046875Q421.5 30.25 421.17188 29.859375Q420.65625 29.25 419.85938 29.25Q419.125 29.25 418.625 29.734375Q418.14062 30.21875 418.09375 31.046875ZM424.26562 34.75L424.26562 26.15625L425.32812 26.15625L425.32812 34.75L424.26562 34.75ZM431.32812 34.75L431.32812 33.96875Q430.73438 34.890625 429.59375 34.890625Q428.84375 34.890625 428.21875 34.484375Q427.59375 34.0625 427.25 33.328125Q426.90625 32.59375 426.90625 31.640625Q426.90625 30.71875 427.21875 29.953125Q427.53125 29.1875 428.15625 28.796875Q428.78125 28.390625 429.54688 28.390625Q430.10938 28.390625 430.54688 28.625Q430.98438 28.859375 431.26562 29.234375L431.26562 26.15625L432.3125 26.15625L432.3125 34.75L431.32812 34.75ZM428.0 31.640625Q428.0 32.84375 428.5 33.4375Q429.0 34.015625 429.6875 34.015625Q430.375 34.015625 430.85938 33.453125Q431.34375 32.890625 431.34375 31.734375Q431.34375 30.453125 430.84375 29.859375Q430.35938 29.265625 429.64062 29.265625Q428.9375 29.265625 428.46875 29.84375Q428.0 30.40625 428.0 31.640625Z"
     fill-rule="nonzero"
     id="path33" />
  <path
     stroke="#34a853"
     stroke-width="4.0"
     stroke-linecap="butt"
     d="M449.5 30.75L461.5 30.75"
     fill-rule="nonzero"
     id="path34" />
  <path
     fill="#1a1a1a"
     d="M471.92188 34.75L469.64062 26.15625L470.8125 26.15625L472.125 31.796875Q472.32812 32.671875 472.48438 33.546875Q472.8125 32.171875 472.875 31.953125L474.5 26.15625L475.875 26.15625L477.10938 30.5Q477.5625 32.125 477.78125 33.546875Q477.9375 32.734375 478.20312 31.671875L479.54688 26.15625L480.6875 26.15625L478.34375 34.75L477.23438 34.75L475.4375 28.203125Q475.20312 27.390625 475.15625 27.203125Q475.03125 27.78125 474.90625 28.203125L473.09375 34.75L471.92188 34.75ZM485.35938 33.984375Q484.76562 34.484375 484.21875 34.6875Q483.6875 34.890625 483.0625 34.890625Q482.03125 34.890625 481.48438 34.390625Q480.9375 33.890625 480.9375 33.109375Q480.9375 32.65625 481.14062 32.28125Q481.34375 31.890625 481.6875 31.671875Q482.03125 31.4375 482.45312 31.328125Q482.75 31.234375 483.39062 31.15625Q484.65625 31.015625 485.26562 30.796875Q485.26562 30.578125 485.26562 30.53125Q485.26562 29.875 484.96875 29.609375Q484.5625 29.265625 483.76562 29.265625Q483.03125 29.265625 482.67188 29.53125Q482.3125 29.78125 482.14062 30.4375L481.10938 30.296875Q481.25 29.640625 481.57812 29.234375Q481.90625 28.828125 482.51562 28.609375Q483.125 28.390625 483.92188 28.390625Q484.71875 28.390625 485.21875 28.578125Q485.71875 28.765625 485.95312 29.046875Q486.1875 29.328125 486.28125 29.765625Q486.32812 30.03125 486.32812 30.734375L486.32812 32.140625Q486.32812 33.609375 486.39062 34.0Q486.46875 34.390625 486.67188 34.75L485.5625 34.75Q485.40625 34.421875 485.35938 33.984375ZM485.26562 31.625Q484.6875 31.859375 483.54688 32.03125Q482.89062 32.125 482.625 32.25Q482.35938 32.359375 482.20312 32.578125Q482.0625 32.796875 482.0625 33.078125Q482.0625 33.5 482.375 33.78125Q482.70312 34.0625 483.3125 34.0625Q483.92188 34.0625 484.39062 33.796875Q484.875 33.53125 485.09375 33.0625Q485.26562 32.703125 485.26562 32.015625L485.26562 31.625ZM490.01562 34.75L487.65625 28.53125L488.76562 28.53125L490.10938 32.25Q490.3125 32.859375 490.5 33.5Q490.64062 33.015625 490.89062 32.328125L492.28125 28.53125L493.35938 28.53125L491.0 34.75L490.01562 34.75ZM497.54688 32.75L498.64062 32.875Q498.39062 33.828125 497.6875 34.359375Q496.98438 34.890625 495.90625 34.890625Q494.54688 34.890625 493.73438 34.046875Q492.9375 33.203125 492.9375 31.6875Q492.9375 30.125 493.75 29.265625Q494.5625 28.390625 495.84375 28.390625Q497.09375 28.390625 497.875 29.234375Q498.67188 30.078125 498.67188 31.625Q498.67188 31.71875 498.67188 31.90625L494.03125 31.90625Q494.09375 32.9375 494.60938 33.484375Q495.125 34.015625 495.90625 34.015625Q496.48438 34.015625 496.89062 33.71875Q497.3125 33.40625 497.54688 32.75ZM494.09375 31.046875L497.5625 31.046875Q497.5 30.25 497.17188 29.859375Q496.65625 29.25 495.85938 29.25Q495.125 29.25 494.625 29.734375Q494.14062 30.21875 494.09375 31.046875ZM502.59375 33.8125L502.75 34.734375Q502.29688 34.828125 501.95312 34.828125Q501.375 34.828125 501.0625 34.65625Q500.75 34.46875 500.60938 34.171875Q500.48438 33.875 500.48438 32.921875L500.48438 29.34375L499.71875 29.34375L499.71875 28.53125L500.48438 28.53125L500.48438 26.984375L501.53125 26.359375L501.53125 28.53125L502.59375 28.53125L502.59375 29.34375L501.53125 29.34375L501.53125 32.984375Q501.53125 33.4375 501.57812 33.5625Q501.64062 33.6875 501.76562 33.765625Q501.89062 33.84375 502.125 33.84375Q502.3125 33.84375 502.59375 33.8125ZM507.35938 33.984375Q506.76562 34.484375 506.21875 34.6875Q505.6875 34.890625 505.0625 34.890625Q504.03125 34.890625 503.48438 34.390625Q502.9375 33.890625 502.9375 33.109375Q502.9375 32.65625 503.14062 32.28125Q503.34375 31.890625 503.6875 31.671875Q504.03125 31.4375 504.45312 31.328125Q504.75 31.234375 505.39062 31.15625Q506.65625 31.015625 507.26562 30.796875Q507.26562 30.578125 507.26562 30.53125Q507.26562 29.875 506.96875 29.609375Q506.5625 29.265625 505.76562 29.265625Q505.03125 29.265625 504.67188 29.53125Q504.3125 29.78125 504.14062 30.4375L503.10938 30.296875Q503.25 29.640625 503.57812 29.234375Q503.90625 28.828125 504.51562 28.609375Q505.125 28.390625 505.92188 28.390625Q506.71875 28.390625 507.21875 28.578125Q507.71875 28.765625 507.95312 29.046875Q508.1875 29.328125 508.28125 29.765625Q508.32812 30.03125 508.32812 30.734375L508.32812 32.140625Q508.32812 33.609375 508.39062 34.0Q508.46875 34.390625 508.67188 34.75L507.5625 34.75Q507.40625 34.421875 507.35938 33.984375ZM507.26562 31.625Q506.6875 31.859375 505.54688 32.03125Q504.89062 32.125 504.625 32.25Q504.35938 32.359375 504.20312 32.578125Q504.0625 32.796875 504.0625 33.078125Q504.0625 33.5 504.375 33.78125Q504.70312 34.0625 505.3125 34.0625Q505.92188 34.0625 506.39062 33.796875Q506.875 33.53125 507.09375 33.0625Q507.26562 32.703125 507.26562 32.015625L507.26562 31.625ZM511.26562 34.75L510.28125 34.75L510.28125 26.15625L511.34375 26.15625L511.34375 29.21875Q512.0156 28.390625 513.0469 28.390625Q513.625 28.390625 514.125 28.625Q514.6406 28.84375 514.96875 29.265625Q515.3125 29.6875 515.5 30.28125Q515.6875 30.875 515.6875 31.546875Q515.6875 33.140625 514.8906 34.015625Q514.09375 34.890625 513.0 34.890625Q511.89062 34.890625 511.26562 33.96875L511.26562 34.75ZM511.25 31.59375Q511.25 32.703125 511.5625 33.203125Q512.0625 34.015625 512.90625 34.015625Q513.59375 34.015625 514.09375 33.421875Q514.6094 32.828125 514.6094 31.625Q514.6094 30.40625 514.125 29.828125Q513.6406 29.25 512.9531 29.25Q512.2656 29.25 511.75 29.859375Q511.25 30.453125 511.25 31.59375ZM517.2656 34.75L517.2656 26.15625L518.3281 26.15625L518.3281 34.75L517.2656 34.75ZM524.5469 32.75L525.6406 32.875Q525.3906 33.828125 524.6875 34.359375Q523.9844 34.890625 522.90625 34.890625Q521.5469 34.890625 520.7344 34.046875Q519.9375 33.203125 519.9375 31.6875Q519.9375 30.125 520.75 29.265625Q521.5625 28.390625 522.84375 28.390625Q524.09375 28.390625 524.875 29.234375Q525.6719 30.078125 525.6719 31.625Q525.6719 31.71875 525.6719 31.90625L521.03125 31.90625Q521.09375 32.9375 521.6094 33.484375Q522.125 34.015625 522.90625 34.015625Q523.4844 34.015625 523.8906 33.71875Q524.3125 33.40625 524.5469 32.75ZM521.09375 31.046875L524.5625 31.046875Q524.5 30.25 524.1719 29.859375Q523.65625 29.25 522.8594 29.25Q522.125 29.25 521.625 29.734375Q521.1406 30.21875 521.09375 31.046875Z"
     fill-rule="nonzero"
     id="path35" />
</svg>
