<?xml version="1.0" encoding="UTF-8" standalone="no"?>
<svg
   version="1.1"
   viewBox="0 0 1200 371"
   fill="none"
   stroke="none"
   stroke-linecap="square"
   stroke-miterlimit="10"
   width="1200"
   height="371"
   id="svg51"
   sodipodi:docname="autom arr.svg"
   inkscape:version="1.3 (0e150ed, 2023-07-21)"
   xmlns:inkscape="http://www.inkscape.org/namespaces/inkscape"
   xmlns:sodipodi="http://sodipodi.sourceforge.net/DTD/sodipodi-0.dtd"
   xmlns="http://www.w3.org/2000/svg"
   xmlns:svg="http://www.w3.org/2000/svg">
  <defs
     id="defs51">
    <clipPath
       id="id_0-9">
      <path
         d="m 45.55,25.55 h 535.9 v 306.9 H 45.55 Z"
         clip-rule="nonzero"
         id="path6-3" />
    </clipPath>
    <clipPath
       id="clipPath1">
      <path
         d="m 45.55,25.55 h 535.9 v 306.9 H 45.55 Z"
         clip-rule="nonzero"
         id="path1-8" />
    </clipPath>
    <clipPath
       id="clipPath2">
      <path
         d="m 45.55,25.55 h 535.9 v 306.9 H 45.55 Z"
         clip-rule="nonzero"
         id="path2-0" />
    </clipPath>
    <clipPath
       id="clipPath3">
      <path
         d="m 45.55,25.55 h 535.9 v 306.9 H 45.55 Z"
         clip-rule="nonzero"
         id="path3-2" />
    </clipPath>
    <clipPath
       id="clipPath4">
      <path
         d="m 45.55,25.55 h 535.9 v 306.9 H 45.55 Z"
         clip-rule="nonzero"
         id="path4-4" />
    </clipPath>
    <clipPath
       id="clipPath5">
      <path
         d="m 45.55,25.55 h 535.9 v 306.9 H 45.55 Z"
         clip-rule="nonzero"
         id="path5-8" />
    </clipPath>
    <clipPath
       id="clipPath7">
      <path
         d="m 45.55,25.55 h 535.9 v 306.9 H 45.55 Z"
         clip-rule="nonzero"
         id="path7-3" />
    </clipPath>
    <clipPath
       id="clipPath8">
      <path
         d="m 45.55,25.55 h 535.9 v 306.9 H 45.55 Z"
         clip-rule="nonzero"
         id="path8-9" />
    </clipPath>
    <clipPath
       id="clipPath9">
      <path
         d="m 45.55,25.55 h 535.9 v 306.9 H 45.55 Z"
         clip-rule="nonzero"
         id="path9-0" />
    </clipPath>
    <clipPath
       id="clipPath10">
      <path
         d="m 45.55,25.55 h 535.9 v 306.9 H 45.55 Z"
         clip-rule="nonzero"
         id="path10-5" />
    </clipPath>
    <clipPath
       id="clipPath11">
      <path
         d="m 45.55,25.55 h 535.9 v 306.9 H 45.55 Z"
         clip-rule="nonzero"
         id="path11-2" />
    </clipPath>
    <clipPath
       id="clipPath12">
      <path
         d="m 45.55,25.55 h 535.9 v 306.9 H 45.55 Z"
         clip-rule="nonzero"
         id="path12-2" />
    </clipPath>
    <clipPath
       id="clipPath13">
      <path
         d="m 45.55,25.55 h 535.9 v 306.9 H 45.55 Z"
         clip-rule="nonzero"
         id="path13-7" />
    </clipPath>
    <clipPath
       id="clipPath14">
      <path
         d="m 45.55,25.55 h 535.9 v 306.9 H 45.55 Z"
         clip-rule="nonzero"
         id="path14-3" />
    </clipPath>
  </defs>
  <sodipodi:namedview
     id="namedview51"
     pagecolor="#ffffff"
     bordercolor="#000000"
     borderopacity="0.25"
     inkscape:showpageshadow="2"
     inkscape:pageopacity="0.0"
     inkscape:pagecheckerboard="0"
     inkscape:deskcolor="#d1d1d1"
     inkscape:zoom="0.52168227"
     inkscape:cx="407.33606"
     inkscape:cy="246.31851"
     inkscape:window-width="1568"
     inkscape:window-height="732"
     inkscape:window-x="0"
     inkscape:window-y="32"
     inkscape:window-maximized="0"
     inkscape:current-layer="svg51" />
  <path
     fill="#ffffff"
     d="M 615.04552,0 H 1215.0455 V 371 H 615.04552 Z"
     fill-rule="nonzero"
     id="path1" />
  <path
     stroke="#333333"
     stroke-width="1"
     stroke-linecap="butt"
     d="M 660.54552,332.5 H 1196.5455"
     fill-rule="nonzero"
     id="path2" />
  <path
     stroke="#cccccc"
     stroke-width="1"
     stroke-linecap="butt"
     d="M 660.54552,281.5 H 1196.5455"
     fill-rule="nonzero"
     id="path3" />
  <path
     stroke="#cccccc"
     stroke-width="1"
     stroke-linecap="butt"
     d="M 660.54552,230.5 H 1196.5455"
     fill-rule="nonzero"
     id="path4" />
  <path
     stroke="#cccccc"
     stroke-width="1"
     stroke-linecap="butt"
     d="M 660.54552,179.5 H 1196.5455"
     fill-rule="nonzero"
     id="path5" />
  <path
     stroke="#cccccc"
     stroke-width="1"
     stroke-linecap="butt"
     d="M 660.54552,127.5 H 1196.5455"
     fill-rule="nonzero"
     id="path6" />
  <path
     stroke="#cccccc"
     stroke-width="1"
     stroke-linecap="butt"
     d="M 660.54552,76.5 H 1196.5455"
     fill-rule="nonzero"
     id="path7" />
  <path
     stroke="#cccccc"
     stroke-width="1"
     stroke-linecap="butt"
     d="M 660.54552,25.5 H 1196.5455"
     fill-rule="nonzero"
     id="path8" />
  <clipPath
     id="id_0">
    <path
       d="m 45.55,25.55 h 535.9 v 306.9 H 45.55 Z"
       clip-rule="nonzero"
       id="path9" />
  </clipPath>
  <path
     stroke="#000000"
     stroke-width="2"
     stroke-linecap="butt"
     stroke-opacity="0"
     clip-path="url(#id_0)"
     d="M 119,332 H 72 v 0 z"
     fill-rule="nonzero"
     id="path10"
     transform="translate(615.04552)" />
  <path
     fill="#4285f4"
     clip-path="url(#id_0)"
     d="M 119,332 H 72 v 0 z"
     fill-rule="nonzero"
     id="path11"
     transform="translate(615.04552)" />
  <path
     stroke="#000000"
     stroke-width="2"
     stroke-linecap="butt"
     stroke-opacity="0"
     clip-path="url(#id_0)"
     d="m 192,332 h -47 v 0 z"
     fill-rule="nonzero"
     id="path12"
     transform="translate(615.04552)" />
  <path
     fill="#4285f4"
     clip-path="url(#id_0)"
     d="m 192,332 h -47 v 0 z"
     fill-rule="nonzero"
     id="path13"
     transform="translate(615.04552)" />
  <path
     stroke="#000000"
     stroke-width="2"
     stroke-linecap="butt"
     stroke-opacity="0"
     clip-path="url(#id_0)"
     d="m 265,332 h -47 v 0 z"
     fill-rule="nonzero"
     id="path14"
     transform="translate(615.04552)" />
  <path
     fill="#4285f4"
     clip-path="url(#id_0)"
     d="m 265,332 h -47 v 0 z"
     fill-rule="nonzero"
     id="path15"
     transform="translate(615.04552)" />
  <path
     stroke="#000000"
     stroke-width="2"
     stroke-linecap="butt"
     stroke-opacity="0"
     clip-path="url(#id_0)"
     d="m 338,332 h -47 v -23 c 0,-1.10458 0.89542,-2 2,-2 h 43 c 1.10458,0 2,0.89542 2,2 z"
     fill-rule="nonzero"
     id="path16"
     transform="translate(615.04552)" />
  <path
     fill="#4285f4"
     clip-path="url(#id_0)"
     d="m 338,332 h -47 v -23 c 0,-1.10458 0.89542,-2 2,-2 h 43 c 1.10458,0 2,0.89542 2,2 z"
     fill-rule="nonzero"
     id="path17"
     transform="translate(615.04552)" />
  <path
     stroke="#000000"
     stroke-width="2"
     stroke-linecap="butt"
     stroke-opacity="0"
     clip-path="url(#id_0)"
     d="m 410,332 h -47 v -74 c 0,-1.10458 0.89542,-2 2,-2 h 43 c 1.10458,0 2,0.89542 2,2 z"
     fill-rule="nonzero"
     id="path18"
     transform="translate(615.04552)" />
  <path
     fill="#4285f4"
     clip-path="url(#id_0)"
     d="m 410,332 h -47 v -74 c 0,-1.10458 0.89542,-2 2,-2 h 43 c 1.10458,0 2,0.89542 2,2 z"
     fill-rule="nonzero"
     id="path19"
     transform="translate(615.04552)" />
  <path
     stroke="#000000"
     stroke-width="2"
     stroke-linecap="butt"
     stroke-opacity="0"
     clip-path="url(#id_0)"
     d="M 483,332 H 436 V 155 c 0,-1.10457 0.89542,-2 2,-2 h 43 c 1.10458,0 2,0.89543 2,2 z"
     fill-rule="nonzero"
     id="path20"
     transform="translate(615.04552)" />
  <path
     fill="#4285f4"
     clip-path="url(#id_0)"
     d="M 483,332 H 436 V 155 c 0,-1.10457 0.89542,-2 2,-2 h 43 c 1.10458,0 2,0.89543 2,2 z"
     fill-rule="nonzero"
     id="path21"
     transform="translate(615.04552)" />
  <path
     stroke="#000000"
     stroke-width="2"
     stroke-linecap="butt"
     stroke-opacity="0"
     clip-path="url(#id_0)"
     d="M 556,332 H 509 V 28 c 0,-1.10457 0.89542,-2 2,-2 h 43 c 1.10455,0 2,0.89543 2,2 z"
     fill-rule="nonzero"
     id="path22"
     transform="translate(615.04552)" />
  <path
     fill="#4285f4"
     clip-path="url(#id_0)"
     d="M 556,332 H 509 V 28 c 0,-1.10457 0.89542,-2 2,-2 h 43 c 1.10455,0 2,0.89543 2,2 z"
     fill-rule="nonzero"
     id="path23"
     transform="translate(615.04552)" />
  <path
     stroke="#ffffff"
     stroke-width="3"
     stroke-linejoin="round"
     stroke-linecap="round"
     d="m 712.60802,313.8094 q 0,1.90624 -0.65625,2.84374 -0.64063,0.92186 -2.03125,0.92186 -1.35938,0 -2.01563,-0.90624 -0.65625,-0.90626 -0.6875,-2.71876 v -1.4375 q 0,-1.8906 0.64063,-2.79686 0.65625,-0.92188 2.04687,-0.92188 1.375,0 2.03125,0.89064 0.65625,0.875 0.67188,2.71874 z m -1.09375,-1.4844 q 0,-1.375 -0.39063,-2 -0.375,-0.6406 -1.21875,-0.6406 -0.82812,0 -1.21875,0.6406 -0.375,0.625 -0.375,1.9219 v 1.73436 q 0,1.375 0.39063,2.04688 0.40625,0.65626 1.21875,0.65626 0.79687,0 1.1875,-0.625 0.39062,-0.625 0.40625,-1.95314 z"
     fill-rule="nonzero"
     id="path24" />
  <path
     fill="#4285f4"
     d="m 712.60802,313.8094 q 0,1.90624 -0.65625,2.84374 -0.64063,0.92186 -2.03125,0.92186 -1.35938,0 -2.01563,-0.90624 -0.65625,-0.90626 -0.6875,-2.71876 v -1.4375 q 0,-1.8906 0.64063,-2.79686 0.65625,-0.92188 2.04687,-0.92188 1.375,0 2.03125,0.89064 0.65625,0.875 0.67188,2.71874 z m -1.09375,-1.4844 q 0,-1.375 -0.39063,-2 -0.375,-0.6406 -1.21875,-0.6406 -0.82812,0 -1.21875,0.6406 -0.375,0.625 -0.375,1.9219 v 1.73436 q 0,1.375 0.39063,2.04688 0.40625,0.65626 1.21875,0.65626 0.79687,0 1.1875,-0.625 0.39062,-0.625 0.40625,-1.95314 z"
     fill-rule="nonzero"
     id="path25" />
  <path
     stroke="#ffffff"
     stroke-width="3"
     stroke-linejoin="round"
     stroke-linecap="round"
     d="m 785.60802,313.8094 q 0,1.90624 -0.65625,2.84374 -0.64063,0.92186 -2.03125,0.92186 -1.35938,0 -2.01562,-0.90624 -0.65626,-0.90626 -0.6875,-2.71876 v -1.4375 q 0,-1.8906 0.64062,-2.79686 0.65625,-0.92188 2.04688,-0.92188 1.375,0 2.03124,0.89064 0.65626,0.875 0.67188,2.71874 z m -1.09375,-1.4844 q 0,-1.375 -0.39063,-2 -0.375,-0.6406 -1.21874,-0.6406 -0.82813,0 -1.21876,0.6406 -0.375,0.625 -0.375,1.9219 v 1.73436 q 0,1.375 0.39063,2.04688 0.40625,0.65626 1.21875,0.65626 0.79688,0 1.1875,-0.625 0.39062,-0.625 0.40625,-1.95314 z"
     fill-rule="nonzero"
     id="path26" />
  <path
     fill="#4285f4"
     d="m 785.60802,313.8094 q 0,1.90624 -0.65625,2.84374 -0.64063,0.92186 -2.03125,0.92186 -1.35938,0 -2.01562,-0.90624 -0.65626,-0.90626 -0.6875,-2.71876 v -1.4375 q 0,-1.8906 0.64062,-2.79686 0.65625,-0.92188 2.04688,-0.92188 1.375,0 2.03124,0.89064 0.65626,0.875 0.67188,2.71874 z m -1.09375,-1.4844 q 0,-1.375 -0.39063,-2 -0.375,-0.6406 -1.21874,-0.6406 -0.82813,0 -1.21876,0.6406 -0.375,0.625 -0.375,1.9219 v 1.73436 q 0,1.375 0.39063,2.04688 0.40625,0.65626 1.21875,0.65626 0.79688,0 1.1875,-0.625 0.39062,-0.625 0.40625,-1.95314 z"
     fill-rule="nonzero"
     id="path27" />
  <path
     stroke="#ffffff"
     stroke-width="3"
     stroke-linejoin="round"
     stroke-linecap="round"
     d="m 858.60802,313.8094 q 0,1.90624 -0.65625,2.84374 -0.64063,0.92186 -2.03125,0.92186 -1.35938,0 -2.01562,-0.90624 -0.65626,-0.90626 -0.6875,-2.71876 v -1.4375 q 0,-1.8906 0.64062,-2.79686 0.65625,-0.92188 2.04688,-0.92188 1.375,0 2.03124,0.89064 0.65626,0.875 0.67188,2.71874 z m -1.09375,-1.4844 q 0,-1.375 -0.39063,-2 -0.375,-0.6406 -1.21874,-0.6406 -0.82813,0 -1.21876,0.6406 -0.375,0.625 -0.375,1.9219 v 1.73436 q 0,1.375 0.39063,2.04688 0.40625,0.65626 1.21875,0.65626 0.79688,0 1.1875,-0.625 0.39062,-0.625 0.40625,-1.95314 z"
     fill-rule="nonzero"
     id="path28" />
  <path
     fill="#4285f4"
     d="m 858.60802,313.8094 q 0,1.90624 -0.65625,2.84374 -0.64063,0.92186 -2.03125,0.92186 -1.35938,0 -2.01562,-0.90624 -0.65626,-0.90626 -0.6875,-2.71876 v -1.4375 q 0,-1.8906 0.64062,-2.79686 0.65625,-0.92188 2.04688,-0.92188 1.375,0 2.03124,0.89064 0.65626,0.875 0.67188,2.71874 z m -1.09375,-1.4844 q 0,-1.375 -0.39063,-2 -0.375,-0.6406 -1.21874,-0.6406 -0.82813,0 -1.21876,0.6406 -0.375,0.625 -0.375,1.9219 v 1.73436 q 0,1.375 0.39063,2.04688 0.40625,0.65626 1.21875,0.65626 0.79688,0 1.1875,-0.625 0.39062,-0.625 0.40625,-1.95314 z"
     fill-rule="nonzero"
     id="path29" />
  <path
     stroke="#4285f4"
     stroke-width="3"
     stroke-linejoin="round"
     stroke-linecap="round"
     d="m 929.81114,323.675 h -1.07812 v -7.21876 l -2.1875,0.79686 v -0.98436 l 3.10938,-1.17188 h 0.15624 z"
     fill-rule="nonzero"
     id="path30" />
  <path
     fill="#ffffff"
     d="m 929.81114,323.675 h -1.07812 v -7.21876 l -2.1875,0.79686 v -0.98436 l 3.10938,-1.17188 h 0.15624 z"
     fill-rule="nonzero"
     id="path31" />
  <path
     stroke="#4285f4"
     stroke-width="3"
     stroke-linejoin="round"
     stroke-linecap="round"
     d="m 999.82677,267.72812 h 0.81253 q 0.7812,-0.0156 1.2187,-0.40625 0.4375,-0.39063 0.4375,-1.0625 0,-1.5 -1.5,-1.5 -0.7031,0 -1.12498,0.40625 -0.40625,0.40625 -0.40625,1.0625 h -1.09375 q 0,-1.01562 0.73438,-1.6875 0.75,-0.67188 1.8906,-0.67188 1.2031,0 1.8906,0.64063 0.6875,0.64063 0.6875,1.78125 0,0.5625 -0.3593,1.07812 -0.3594,0.51563 -0.9844,0.78126 0.7031,0.21874 1.0781,0.73437 0.3906,0.51563 0.3906,1.26563 0,1.14062 -0.75,1.82812 -0.75,0.67188 -1.9531,0.67188 -1.18748,0 -1.9531,-0.65626 -0.75,-0.65624 -0.75,-1.71874 h 1.09374 q 0,0.67187 0.4375,1.07812 0.43746,0.40625 1.18746,0.40625 0.7813,0 1.1875,-0.40625 0.4219,-0.42188 0.4219,-1.1875 0,-0.73438 -0.4531,-1.125 -0.4531,-0.40625 -1.3281,-0.42188 h -0.81253 z"
     fill-rule="nonzero"
     id="path32" />
  <path
     fill="#ffffff"
     d="m 999.82677,267.72812 h 0.81253 q 0.7812,-0.0156 1.2187,-0.40625 0.4375,-0.39063 0.4375,-1.0625 0,-1.5 -1.5,-1.5 -0.7031,0 -1.12498,0.40625 -0.40625,0.40625 -0.40625,1.0625 h -1.09375 q 0,-1.01562 0.73438,-1.6875 0.75,-0.67188 1.8906,-0.67188 1.2031,0 1.8906,0.64063 0.6875,0.64063 0.6875,1.78125 0,0.5625 -0.3593,1.07812 -0.3594,0.51563 -0.9844,0.78126 0.7031,0.21874 1.0781,0.73437 0.3906,0.51563 0.3906,1.26563 0,1.14062 -0.75,1.82812 -0.75,0.67188 -1.9531,0.67188 -1.18748,0 -1.9531,-0.65626 -0.75,-0.65624 -0.75,-1.71874 h 1.09374 q 0,0.67187 0.4375,1.07812 0.43746,0.40625 1.18746,0.40625 0.7813,0 1.1875,-0.40625 0.4219,-0.42188 0.4219,-1.1875 0,-0.73438 -0.4531,-1.125 -0.4531,-0.40625 -1.3281,-0.42188 h -0.81253 z"
     fill-rule="nonzero"
     id="path33" />
  <path
     stroke="#4285f4"
     stroke-width="3"
     stroke-linejoin="round"
     stroke-linecap="round"
     d="m 1076.7643,162.30313 -3.5313,7.92187 h -1.1406 l 3.5156,-7.64062 h -4.6094 v -0.89062 h 5.7657 z"
     fill-rule="nonzero"
     id="path34" />
  <path
     fill="#ffffff"
     d="m 1076.7643,162.30313 -3.5313,7.92187 h -1.1406 l 3.5156,-7.64062 h -4.6094 v -0.89062 h 5.7657 z"
     fill-rule="nonzero"
     id="path35" />
  <path
     stroke="#4285f4"
     stroke-width="3"
     stroke-linejoin="round"
     stroke-linecap="round"
     d="m 1144.3111,42.35 h -1.0781 v -7.21875 l -2.1875,0.796873 V 34.94375 l 3.1094,-1.171877 h 0.1562 z m 9.0313,0 h -5.5938 v -0.78125 l 2.9532,-3.28125 q 0.6562,-0.75 0.9062,-1.203127 0.25,-0.46875 0.25,-0.96875 0,-0.671873 -0.4062,-1.09375 -0.3907,-0.4375 -1.0782,-0.4375 -0.7968,0 -1.25,0.46875 -0.4531,0.453127 -0.4531,1.28125 h -1.0781 q 0,-1.1875 0.75,-1.90625 0.7656,-0.734373 2.0312,-0.734373 1.2032,0 1.8907,0.625 0.6875,0.625 0.6875,1.671873 0,1.25 -1.6094,3 l -2.2813,2.46875 h 4.2813 z"
     fill-rule="nonzero"
     id="path36" />
  <path
     fill="#ffffff"
     d="m 1144.3111,42.35 h -1.0781 v -7.21875 l -2.1875,0.796873 V 34.94375 l 3.1094,-1.171877 h 0.1562 z m 9.0313,0 h -5.5938 v -0.78125 l 2.9532,-3.28125 q 0.6562,-0.75 0.9062,-1.203127 0.25,-0.46875 0.25,-0.96875 0,-0.671873 -0.4062,-1.09375 -0.3907,-0.4375 -1.0782,-0.4375 -0.7968,0 -1.25,0.46875 -0.4531,0.453127 -0.4531,1.28125 h -1.0781 q 0,-1.1875 0.75,-1.90625 0.7656,-0.734373 2.0312,-0.734373 1.2032,0 1.8907,0.625 0.6875,0.625 0.6875,1.671873 0,1.25 -1.6094,3 l -2.2813,2.46875 h 4.2813 z"
     fill-rule="nonzero"
     id="path37" />
  <path
     fill="#000000"
     d="m 648.09552,332.21564 q 0,-1.53124 0.3125,-2.45314 0.3125,-0.9375 0.92187,-1.4375 0.625,-0.5 1.5625,-0.5 0.6875,0 1.20313,0.28126 0.53125,0.28124 0.875,0.8125 0.34375,0.51564 0.53125,1.26564 0.1875,0.75 0.1875,2.03124 0,1.51562 -0.3125,2.4375 -0.29688,0.92186 -0.92188,1.4375 -0.60937,0.5 -1.5625,0.5 -1.23437,0 -1.95312,-0.89064 -0.84375,-1.0625 -0.84375,-3.48436 z m 1.07812,0 q 0,2.10936 0.5,2.8125 0.5,0.70312 1.21875,0.70312 0.73438,0 1.21875,-0.70312 0.5,-0.70314 0.5,-2.8125 0,-2.125 -0.5,-2.8125 -0.48437,-0.70314 -1.23437,-0.70314 -0.71875,0 -1.15625,0.6094 -0.54688,0.78124 -0.54688,2.90624 z"
     fill-rule="nonzero"
     id="path38" />
  <path
     fill="#000000"
     d="M 653.64239,284.28436 V 285.3 h -5.6875 q 0,-0.375 0.125,-0.7344 0.21875,-0.5781 0.6875,-1.1406 0.48438,-0.5625 1.39063,-1.2969 1.40625,-1.15624 1.89062,-1.8281 0.5,-0.6719 0.5,-1.26564 0,-0.625 -0.45312,-1.04686 -0.45313,-0.4375 -1.17188,-0.4375 -0.76562,0 -1.21875,0.4531 -0.45312,0.45314 -0.46875,1.26564 l -1.07812,-0.10938 q 0.10937,-1.21876 0.82812,-1.84376 0.73438,-0.6406 1.96875,-0.6406 1.23438,0 1.95313,0.6875 0.71875,0.6875 0.71875,1.7031 0,0.51564 -0.21875,1.01564 -0.20313,0.48436 -0.70313,1.04686 -0.48437,0.5469 -1.60937,1.5 -0.95313,0.7969 -1.23438,1.09376 -0.26562,0.28124 -0.4375,0.5625 z"
     fill-rule="nonzero"
     id="path39" />
  <path
     fill="#000000"
     d="m 651.47052,234.15 v -2.0625 h -3.71875 v -0.96876 l 3.92187,-5.5625 h 0.85938 v 5.5625 h 1.15625 v 0.96876 h -1.15625 v 2.0625 z m 0,-3.03126 v -3.85937 l -2.6875,3.85937 z"
     fill-rule="nonzero"
     id="path40" />
  <path
     fill="#000000"
     d="m 653.56427,176.51562 -1.04688,0.0781 q -0.14062,-0.625 -0.39062,-0.90625 -0.4375,-0.45312 -1.0625,-0.45312 -0.5,0 -0.89063,0.28124 -0.48437,0.375 -0.78125,1.07813 -0.28125,0.6875 -0.29687,1.96875 0.375,-0.57812 0.92187,-0.85938 0.5625,-0.28124 1.17188,-0.28124 1.04687,0 1.78125,0.78124 0.75,0.78126 0.75,2 0,0.8125 -0.35938,1.51563 -0.34375,0.6875 -0.95312,1.0625 -0.60938,0.35937 -1.375,0.35937 -1.32813,0 -2.15625,-0.96874 -0.82813,-0.96876 -0.82813,-3.1875 0,-2.5 0.92188,-3.625 0.79687,-0.98438 2.15625,-0.98438 1.01562,0 1.65625,0.57812 0.65625,0.5625 0.78125,1.5625 z m -4.29688,3.70313 q 0,0.54687 0.21875,1.04687 0.23438,0.48438 0.64063,0.75 0.42187,0.26563 0.89062,0.26563 0.65625,0 1.14063,-0.53125 0.48437,-0.54688 0.48437,-1.46875 0,-0.89063 -0.48437,-1.40625 -0.46875,-0.51562 -1.1875,-0.51562 -0.71875,0 -1.21875,0.51562 -0.48438,0.51562 -0.48438,1.34375 z"
     fill-rule="nonzero"
     id="path41" />
  <path
     fill="#000000"
     d="m 649.72052,127.19376 q -0.65625,-0.25 -0.98438,-0.6875 -0.3125,-0.45313 -0.3125,-1.0625 0,-0.9375 0.67188,-1.57813 0.6875,-0.64062 1.79687,-0.64062 1.125,0 1.8125,0.65625 0.6875,0.65625 0.6875,1.59375 0,0.59375 -0.3125,1.03125 -0.3125,0.4375 -0.95312,0.6875 0.79687,0.25 1.20312,0.82812 0.40625,0.57812 0.40625,1.375 0,1.09375 -0.78125,1.84375 -0.76562,0.75 -2.04687,0.75 -1.26563,0 -2.04688,-0.75 -0.78125,-0.75 -0.78125,-1.875 0,-0.84375 0.42188,-1.40625 0.4375,-0.5625 1.21875,-0.76562 z m -0.21875,-1.79688 q 0,0.60938 0.39062,1 0.40625,0.39063 1.03125,0.39063 0.60938,0 1,-0.375 0.39063,-0.39063 0.39063,-0.95313 0,-0.57812 -0.40625,-0.96875 -0.40625,-0.40625 -1,-0.40625 -0.60938,0 -1.01563,0.39063 -0.39062,0.39062 -0.39062,0.92187 z m -0.32813,3.96875 q 0,0.45313 0.20313,0.875 0.21875,0.42187 0.64062,0.65625 0.42188,0.23438 0.90625,0.23438 0.75,0 1.23438,-0.48438 0.5,-0.48438 0.5,-1.23438 0,-0.76562 -0.5,-1.26562 -0.5,-0.5 -1.26563,-0.5 -0.75,0 -1.23437,0.5 -0.48438,0.48438 -0.48438,1.21875 z"
     fill-rule="nonzero"
     id="path42" />
  <path
     fill="#000000"
     d="m 645.06427,80.7 h -1.04688 v -6.71875 q -0.39062,0.35937 -1.01562,0.73437 -0.60938,0.35938 -1.09375,0.53125 v -1.01562 q 0.875,-0.42188 1.53125,-1 0.67187,-0.59375 0.95312,-1.15625 h 0.67188 z m 3.03125,-4.23438 q 0,-1.53125 0.3125,-2.45312 0.3125,-0.9375 0.92187,-1.4375 0.625,-0.5 1.5625,-0.5 0.6875,0 1.20313,0.28125 0.53125,0.28125 0.875,0.8125 0.34375,0.51562 0.53125,1.26562 0.1875,0.75 0.1875,2.03125 0,1.51563 -0.3125,2.4375 -0.29688,0.92188 -0.92188,1.4375 -0.60937,0.5 -1.5625,0.5 -1.23437,0 -1.95312,-0.89062 -0.84375,-1.0625 -0.84375,-3.48438 z m 1.07812,0 q 0,2.10938 0.5,2.8125 0.5,0.70313 1.21875,0.70313 0.73438,0 1.21875,-0.70313 0.5,-0.70312 0.5,-2.8125 0,-2.125 -0.5,-2.8125 -0.48437,-0.70312 -1.23437,-0.70312 -0.71875,0 -1.15625,0.60937 -0.54688,0.78125 -0.54688,2.90625 z"
     fill-rule="nonzero"
     id="path43" />
  <path
     fill="#000000"
     d="m 645.06427,29.55 h -1.04688 v -6.71875 q -0.39062,0.359374 -1.01562,0.734374 -0.60938,0.359376 -1.09375,0.53125 V 23.08125 q 0.875,-0.421876 1.53125,-1 0.67187,-0.59375 0.95312,-1.15625 h 0.67188 z m 8.57812,-1.015626 V 29.55 h -5.6875 q 0,-0.375 0.125,-0.734376 0.21875,-0.578124 0.6875,-1.140624 0.48438,-0.5625 1.39063,-1.296876 1.40625,-1.15625 1.89062,-1.828124 0.5,-0.671876 0.5,-1.265626 0,-0.625 -0.45312,-1.046874 -0.45313,-0.4375 -1.17188,-0.4375 -0.76562,0 -1.21875,0.453124 -0.45312,0.453126 -0.46875,1.265626 l -1.07812,-0.109376 q 0.10937,-1.21875 0.82812,-1.84375 0.73438,-0.640624 1.96875,-0.640624 1.23438,0 1.95313,0.6875 0.71875,0.6875 0.71875,1.703124 0,0.515626 -0.21875,1.015626 -0.20313,0.484374 -0.70313,1.046874 -0.48437,0.546876 -1.60937,1.5 -0.95313,0.796876 -1.23438,1.09375 -0.26562,0.28125 -0.4375,0.5625 z"
     fill-rule="nonzero"
     id="path44" />
  <path
     fill="#000000"
     d="m 710.77958,349.45 h -1.04688 v -6.71874 q -0.39062,0.35938 -1.01562,0.73438 -0.60938,0.35936 -1.09375,0.53126 v -1.01564 q 0.875,-0.42186 1.53125,-1 0.67187,-0.59376 0.95312,-1.15626 h 0.67188 z"
     fill-rule="nonzero"
     id="path45" />
  <path
     fill="#000000"
     d="m 785.26926,348.4344 v 1.0156 h -5.6875 q 0,-0.375 0.125,-0.73436 0.21875,-0.57814 0.6875,-1.14064 0.48437,-0.5625 1.39062,-1.29686 1.40625,-1.15624 1.89063,-1.82814 0.5,-0.67186 0.5,-1.2656 0,-0.625 -0.45313,-1.0469 -0.45312,-0.4375 -1.17187,-0.4375 -0.76563,0 -1.21875,0.45314 -0.45313,0.45312 -0.46875,1.26562 l -1.07813,-0.10936 q 0.10938,-1.21876 0.82813,-1.84376 0.73437,-0.64064 1.96875,-0.64064 1.23437,0 1.95312,0.6875 0.71875,0.6875 0.71875,1.70314 0,0.51562 -0.21875,1.01562 -0.20312,0.48438 -0.70312,1.04688 -0.48438,0.54686 -1.60938,1.5 -0.95312,0.79686 -1.23437,1.09376 -0.26563,0.28124 -0.4375,0.5625 z"
     fill-rule="nonzero"
     id="path46" />
  <path
     fill="#000000"
     d="m 852.63396,347.1844 1.0625,-0.14064 q 0.17187,0.89064 0.60937,1.29688 0.4375,0.39062 1.0625,0.39062 0.75,0 1.26563,-0.51562 0.51562,-0.51564 0.51562,-1.28124 0,-0.71876 -0.48437,-1.1875 -0.46875,-0.4844 -1.20313,-0.4844 -0.29687,0 -0.75,0.125 l 0.125,-0.9375 q 0.10938,0.0156 0.17188,0.0156 0.67187,0 1.20312,-0.34374 0.54688,-0.3594 0.54688,-1.09376 0,-0.57814 -0.39063,-0.95314 -0.39062,-0.3906 -1.01562,-0.3906 -0.60938,0 -1.03125,0.3906 -0.40625,0.39064 -0.51563,1.15626 l -1.0625,-0.1875 q 0.1875,-1.04686 0.875,-1.625 0.6875,-0.59376 1.70313,-0.59376 0.70312,0 1.29687,0.3125 0.59375,0.2969 0.90625,0.8125 0.3125,0.51564 0.3125,1.1094 0,0.54686 -0.29687,1.0156 -0.29688,0.45314 -0.875,0.71876 0.75,0.17188 1.17187,0.73438 0.42188,0.54686 0.42188,1.39062 0,1.125 -0.82813,1.90624 -0.8125,0.78126 -2.0625,0.78126 -1.125,0 -1.875,-0.67186 -0.75,-0.6875 -0.85937,-1.75 z"
     fill-rule="nonzero"
     id="path47" />
  <path
     fill="#000000"
     d="m 928.92052,349.45 v -2.0625 h -3.71875 v -0.96874 l 3.92187,-5.5625 h 0.85938 v 5.5625 h 1.15625 v 0.96874 h -1.15625 v 2.0625 z m 0,-3.03124 v -3.85936 l -2.6875,3.85936 z"
     fill-rule="nonzero"
     id="path48" />
  <path
     fill="#000000"
     d="m 998.45708,347.2 1.10938,-0.0937 q 0.125,0.8125 0.56254,1.21874 0.4531,0.40626 1.0937,0.40626 0.75,0 1.2813,-0.57812 0.5312,-0.57814 0.5312,-1.51564 0,-0.90624 -0.5156,-1.42186 -0.5,-0.53124 -1.3281,-0.53124 -0.5,0 -0.9219,0.23436 -0.40628,0.23438 -0.64064,0.59374 l -0.98438,-0.125 0.82814,-4.40624 h 4.28128 v 1 h -3.4375 l -0.45318,2.3125 q 0.76568,-0.54686 1.60938,-0.54686 1.125,0 1.8906,0.78124 0.7813,0.78126 0.7813,2.01562 0,1.15624 -0.6719,2.01564 -0.8281,1.03124 -2.25,1.03124 -1.1719,0 -1.92188,-0.65624 -0.73436,-0.65626 -0.84374,-1.7344 z"
     fill-rule="nonzero"
     id="path49" />
  <path
     fill="#000000"
     d="m 1076.8374,342.96564 -1.0469,0.0781 q -0.1406,-0.625 -0.3906,-0.90626 -0.4375,-0.4531 -1.0625,-0.4531 -0.5,0 -0.8906,0.28124 -0.4844,0.375 -0.7813,1.07812 -0.2812,0.6875 -0.2969,1.96874 0.375,-0.5781 0.9219,-0.85936 0.5625,-0.28124 1.1719,-0.28124 1.0469,0 1.7812,0.78124 0.75,0.78126 0.75,2 0,0.8125 -0.3593,1.51562 -0.3438,0.6875 -0.9532,1.0625 -0.6093,0.35938 -1.375,0.35938 -1.3281,0 -2.1562,-0.96874 -0.8281,-0.96876 -0.8281,-3.1875 0,-2.5 0.9218,-3.625 0.7969,-0.9844 2.1563,-0.9844 1.0156,0 1.6562,0.57814 0.6563,0.5625 0.7813,1.5625 z m -4.2969,3.70312 q 0,0.54688 0.2188,1.04688 0.2343,0.48436 0.6406,0.75 0.4219,0.26562 0.8906,0.26562 0.6563,0 1.1406,-0.53126 0.4844,-0.54686 0.4844,-1.46874 0,-0.89062 -0.4844,-1.40626 -0.4687,-0.5156 -1.1875,-0.5156 -0.7187,0 -1.2187,0.5156 -0.4844,0.51564 -0.4844,1.34376 z"
     fill-rule="nonzero"
     id="path50" />
  <path
     fill="#000000"
     d="m 1144.3427,341.98126 v -1.01562 h 5.5625 v 0.82812 q -0.8125,0.875 -1.625,2.32814 -0.7969,1.4375 -1.2344,2.96874 -0.3281,1.07812 -0.4062,2.35936 h -1.0938 q 0.016,-1.0156 0.3906,-2.4531 0.3907,-1.4375 1.0938,-2.76564 0.7187,-1.32812 1.5312,-2.25 z"
     fill-rule="nonzero"
     id="path51" />
  <path
     fill="#ffffff"
     d="M 0,2.5e-6 H 599.99996 V 371 H 0 Z"
     fill-rule="nonzero"
     id="path15-7" />
  <path
     stroke="#333333"
     stroke-width="1"
     stroke-linecap="butt"
     d="M 45.5,332.5 H 581.49996"
     fill-rule="nonzero"
     id="path16-9" />
  <path
     stroke="#cccccc"
     stroke-width="1"
     stroke-linecap="butt"
     d="M 45.5,230.5 H 581.49996"
     fill-rule="nonzero"
     id="path17-0" />
  <path
     stroke="#cccccc"
     stroke-width="1"
     stroke-linecap="butt"
     d="M 45.5,127.5 H 581.49996"
     fill-rule="nonzero"
     id="path18-2" />
  <path
     stroke="#cccccc"
     stroke-width="1"
     stroke-linecap="butt"
     d="M 45.5,25.500002 H 581.49996"
     fill-rule="nonzero"
     id="path19-3" />
  <path
     stroke="#000000"
     stroke-width="2"
     stroke-linecap="butt"
     stroke-opacity="0"
     clip-path="url(#id_0-9)"
     d="M 119,332 H 72 V 232 c 0,-1.10457 0.89543,-2 2,-2 h 43 c 1.10457,0 2,0.89543 2,2 z"
     fill-rule="nonzero"
     id="path20-9" />
  <path
     fill="#4285f4"
     clip-path="url(#id_0-9)"
     d="M 119,332 H 72 V 232 c 0,-1.10457 0.89543,-2 2,-2 h 43 c 1.10457,0 2,0.89543 2,2 z"
     fill-rule="nonzero"
     id="path21-9" />
  <path
     stroke="#000000"
     stroke-width="2"
     stroke-linecap="butt"
     stroke-opacity="0"
     clip-path="url(#id_0-9)"
     d="M 192,332 H 145 V 181 c 0,-1.10457 0.89543,-2 2,-2 h 43 c 1.10457,0 2,0.89543 2,2 z"
     fill-rule="nonzero"
     id="path22-7" />
  <path
     fill="#4285f4"
     clip-path="url(#id_0-9)"
     d="M 192,332 H 145 V 181 c 0,-1.10457 0.89543,-2 2,-2 h 43 c 1.10457,0 2,0.89543 2,2 z"
     fill-rule="nonzero"
     id="path23-0" />
  <path
     stroke="#000000"
     stroke-width="2"
     stroke-linecap="butt"
     stroke-opacity="0"
     clip-path="url(#id_0-9)"
     d="M 265,332 H 218 V 181 c 0,-1.10457 0.89543,-2 2,-2 h 43 c 1.10458,0 2,0.89543 2,2 z"
     fill-rule="nonzero"
     id="path24-3" />
  <path
     fill="#4285f4"
     clip-path="url(#id_0-9)"
     d="M 265,332 H 218 V 181 c 0,-1.10457 0.89543,-2 2,-2 h 43 c 1.10458,0 2,0.89543 2,2 z"
     fill-rule="nonzero"
     id="path25-9" />
  <path
     stroke="#000000"
     stroke-width="2"
     stroke-linecap="butt"
     stroke-opacity="0"
     clip-path="url(#id_0-9)"
     d="M 338,332 H 291 V 232 c 0,-1.10457 0.89542,-2 2,-2 h 43 c 1.10458,0 2,0.89543 2,2 z"
     fill-rule="nonzero"
     id="path26-8" />
  <path
     fill="#4285f4"
     clip-path="url(#id_0-9)"
     d="M 338,332 H 291 V 232 c 0,-1.10457 0.89542,-2 2,-2 h 43 c 1.10458,0 2,0.89543 2,2 z"
     fill-rule="nonzero"
     id="path27-6" />
  <path
     stroke="#000000"
     stroke-width="2"
     stroke-linecap="butt"
     stroke-opacity="0"
     clip-path="url(#id_0-9)"
     d="M 410,332 H 363 V 28 c 0,-1.10457 0.89542,-2 2,-2 h 43 c 1.10458,0 2,0.89543 2,2 z"
     fill-rule="nonzero"
     id="path28-5" />
  <path
     fill="#4285f4"
     clip-path="url(#id_0-9)"
     d="M 410,332 H 363 V 28 c 0,-1.10457 0.89542,-2 2,-2 h 43 c 1.10458,0 2,0.89543 2,2 z"
     fill-rule="nonzero"
     id="path29-7" />
  <path
     stroke="#000000"
     stroke-width="2"
     stroke-linecap="butt"
     stroke-opacity="0"
     clip-path="url(#id_0-9)"
     d="M 483,332 H 436 V 181 c 0,-1.10457 0.89542,-2 2,-2 h 43 c 1.10458,0 2,0.89543 2,2 z"
     fill-rule="nonzero"
     id="path30-6" />
  <path
     fill="#4285f4"
     clip-path="url(#id_0-9)"
     d="M 483,332 H 436 V 181 c 0,-1.10457 0.89542,-2 2,-2 h 43 c 1.10458,0 2,0.89543 2,2 z"
     fill-rule="nonzero"
     id="path31-2" />
  <path
     stroke="#000000"
     stroke-width="2"
     stroke-linecap="butt"
     stroke-opacity="0"
     clip-path="url(#id_0-9)"
     d="M 556,332 H 509 V 79 c 0,-1.10457 0.89542,-2 2,-2 h 43 c 1.10455,0 2,0.89543 2,2 z"
     fill-rule="nonzero"
     id="path32-7" />
  <path
     fill="#4285f4"
     clip-path="url(#id_0-9)"
     d="M 556,332 H 509 V 79 c 0,-1.10457 0.89542,-2 2,-2 h 43 c 1.10455,0 2,0.89543 2,2 z"
     fill-rule="nonzero"
     id="path33-0" />
  <path
     stroke="#4285f4"
     stroke-width="3"
     stroke-linejoin="round"
     stroke-linecap="round"
     d="m 97.79687,246.95 h -5.59375 v -0.78125 l 2.95313,-3.28125 q 0.65625,-0.75 0.90625,-1.20313 0.25,-0.46875 0.25,-0.96875 0,-0.67187 -0.40625,-1.09375 -0.39063,-0.4375 -1.07813,-0.4375 -0.79687,0 -1.25,0.46875 -0.45312,0.45313 -0.45312,1.28125 h -1.07813 q 0,-1.1875 0.75,-1.90625 0.76563,-0.73437 2.03125,-0.73437 1.20313,0 1.89063,0.625 0.6875,0.625 0.6875,1.67187 0,1.25 -1.60938,3 l -2.28125,2.46875 h 4.28125 z"
     fill-rule="nonzero"
     id="path34-3" />
  <path
     fill="#ffffff"
     d="m 97.79687,246.95 h -5.59375 v -0.78125 l 2.95313,-3.28125 q 0.65625,-0.75 0.90625,-1.20313 0.25,-0.46875 0.25,-0.96875 0,-0.67187 -0.40625,-1.09375 -0.39063,-0.4375 -1.07813,-0.4375 -0.79687,0 -1.25,0.46875 -0.45312,0.45313 -0.45312,1.28125 h -1.07813 q 0,-1.1875 0.75,-1.90625 0.76563,-0.73437 2.03125,-0.73437 1.20313,0 1.89063,0.625 0.6875,0.625 0.6875,1.67187 0,1.25 -1.60938,3 l -2.28125,2.46875 h 4.28125 z"
     fill-rule="nonzero"
     id="path35-9" />
  <path
     stroke="#4285f4"
     stroke-width="3"
     stroke-linejoin="round"
     stroke-linecap="round"
     d="m 166.78125,191.00313 h 0.8125 q 0.78125,-0.0156 1.21875,-0.40625 0.4375,-0.39063 0.4375,-1.0625 0,-1.5 -1.5,-1.5 -0.70312,0 -1.125,0.40625 -0.40625,0.40625 -0.40625,1.0625 H 165.125 q 0,-1.01563 0.73438,-1.6875 0.75,-0.67188 1.89062,-0.67188 1.20312,0 1.89062,0.64063 0.6875,0.64062 0.6875,1.78125 0,0.5625 -0.35937,1.07812 -0.35937,0.51563 -0.98437,0.78125 0.70312,0.21875 1.07812,0.73438 0.39062,0.51562 0.39062,1.26562 0,1.14063 -0.75,1.82813 -0.75,0.67187 -1.95312,0.67187 -1.1875,0 -1.95312,-0.65625 -0.75,-0.65625 -0.75,-1.71875 h 1.09374 q 0,0.67188 0.4375,1.07813 0.4375,0.40625 1.1875,0.40625 0.78126,0 1.1875,-0.40625 0.42188,-0.42188 0.42188,-1.1875 0,-0.73438 -0.45312,-1.125 -0.45313,-0.40625 -1.32813,-0.42188 h -0.8125 z"
     fill-rule="nonzero"
     id="path36-9" />
  <path
     fill="#ffffff"
     d="m 166.78125,191.00313 h 0.8125 q 0.78125,-0.0156 1.21875,-0.40625 0.4375,-0.39063 0.4375,-1.0625 0,-1.5 -1.5,-1.5 -0.70312,0 -1.125,0.40625 -0.40625,0.40625 -0.40625,1.0625 H 165.125 q 0,-1.01563 0.73438,-1.6875 0.75,-0.67188 1.89062,-0.67188 1.20312,0 1.89062,0.64063 0.6875,0.64062 0.6875,1.78125 0,0.5625 -0.35937,1.07812 -0.35937,0.51563 -0.98437,0.78125 0.70312,0.21875 1.07812,0.73438 0.39062,0.51562 0.39062,1.26562 0,1.14063 -0.75,1.82813 -0.75,0.67187 -1.95312,0.67187 -1.1875,0 -1.95312,-0.65625 -0.75,-0.65625 -0.75,-1.71875 h 1.09374 q 0,0.67188 0.4375,1.07813 0.4375,0.40625 1.1875,0.40625 0.78126,0 1.1875,-0.40625 0.42188,-0.42188 0.42188,-1.1875 0,-0.73438 -0.45312,-1.125 -0.45313,-0.40625 -1.32813,-0.42188 h -0.8125 z"
     fill-rule="nonzero"
     id="path37-9" />
  <path
     stroke="#4285f4"
     stroke-width="3"
     stroke-linejoin="round"
     stroke-linecap="round"
     d="m 239.78125,191.00313 h 0.8125 q 0.78125,-0.0156 1.21875,-0.40625 0.4375,-0.39063 0.4375,-1.0625 0,-1.5 -1.5,-1.5 -0.70312,0 -1.125,0.40625 -0.40625,0.40625 -0.40625,1.0625 H 238.125 q 0,-1.01563 0.73438,-1.6875 0.75,-0.67188 1.89062,-0.67188 1.20312,0 1.89062,0.64063 0.6875,0.64062 0.6875,1.78125 0,0.5625 -0.35937,1.07812 -0.35937,0.51563 -0.98437,0.78125 0.70312,0.21875 1.07812,0.73438 0.39062,0.51562 0.39062,1.26562 0,1.14063 -0.75,1.82813 -0.75,0.67187 -1.95312,0.67187 -1.1875,0 -1.95312,-0.65625 -0.75,-0.65625 -0.75,-1.71875 h 1.09374 q 0,0.67188 0.4375,1.07813 0.4375,0.40625 1.1875,0.40625 0.78126,0 1.1875,-0.40625 0.42188,-0.42188 0.42188,-1.1875 0,-0.73438 -0.45312,-1.125 -0.45313,-0.40625 -1.32813,-0.42188 h -0.8125 z"
     fill-rule="nonzero"
     id="path38-1" />
  <path
     fill="#ffffff"
     d="m 239.78125,191.00313 h 0.8125 q 0.78125,-0.0156 1.21875,-0.40625 0.4375,-0.39063 0.4375,-1.0625 0,-1.5 -1.5,-1.5 -0.70312,0 -1.125,0.40625 -0.40625,0.40625 -0.40625,1.0625 H 238.125 q 0,-1.01563 0.73438,-1.6875 0.75,-0.67188 1.89062,-0.67188 1.20312,0 1.89062,0.64063 0.6875,0.64062 0.6875,1.78125 0,0.5625 -0.35937,1.07812 -0.35937,0.51563 -0.98437,0.78125 0.70312,0.21875 1.07812,0.73438 0.39062,0.51562 0.39062,1.26562 0,1.14063 -0.75,1.82813 -0.75,0.67187 -1.95312,0.67187 -1.1875,0 -1.95312,-0.65625 -0.75,-0.65625 -0.75,-1.71875 h 1.09374 q 0,0.67188 0.4375,1.07813 0.4375,0.40625 1.1875,0.40625 0.78126,0 1.1875,-0.40625 0.42188,-0.42188 0.42188,-1.1875 0,-0.73438 -0.45312,-1.125 -0.45313,-0.40625 -1.32813,-0.42188 h -0.8125 z"
     fill-rule="nonzero"
     id="path39-7" />
  <path
     stroke="#4285f4"
     stroke-width="3"
     stroke-linejoin="round"
     stroke-linecap="round"
     d="m 316.79688,246.95 h -5.59376 v -0.78125 l 2.95313,-3.28125 q 0.65625,-0.75 0.90625,-1.20313 0.25,-0.46875 0.25,-0.96875 0,-0.67187 -0.40625,-1.09375 -0.39063,-0.4375 -1.07813,-0.4375 -0.79687,0 -1.25,0.46875 -0.45312,0.45313 -0.45312,1.28125 h -1.07812 q 0,-1.1875 0.75,-1.90625 0.76562,-0.73437 2.03124,-0.73437 1.20313,0 1.89063,0.625 0.6875,0.625 0.6875,1.67187 0,1.25 -1.60937,3 l -2.28126,2.46875 h 4.28126 z"
     fill-rule="nonzero"
     id="path40-2" />
  <path
     fill="#ffffff"
     d="m 316.79688,246.95 h -5.59376 v -0.78125 l 2.95313,-3.28125 q 0.65625,-0.75 0.90625,-1.20313 0.25,-0.46875 0.25,-0.96875 0,-0.67187 -0.40625,-1.09375 -0.39063,-0.4375 -1.07813,-0.4375 -0.79687,0 -1.25,0.46875 -0.45312,0.45313 -0.45312,1.28125 h -1.07812 q 0,-1.1875 0.75,-1.90625 0.76562,-0.73437 2.03124,-0.73437 1.20313,0 1.89063,0.625 0.6875,0.625 0.6875,1.67187 0,1.25 -1.60937,3 l -2.28126,2.46875 h 4.28126 z"
     fill-rule="nonzero"
     id="path41-3" />
  <path
     stroke="#4285f4"
     stroke-width="3"
     stroke-linejoin="round"
     stroke-linecap="round"
     d="m 387.46876,33.818752 v 0.90625 h -0.2031 q -1.2657,0.03125 -2.0157,0.765623 -0.75,0.71875 -0.875,2.03125 0.6875,-0.765623 1.8438,-0.765623 1.1094,0 1.7812,0.78125 0.6719,0.78125 0.6719,2.03125 0,1.3125 -0.7187,2.109373 -0.7188,0.796877 -1.9375,0.796877 -1.2188,0 -1.9844,-0.9375 -0.75,-0.953127 -0.75,-2.4375 v -0.40625 q 0,-2.359377 1,-3.609377 1,-1.25 2.9844,-1.265623 z m -1.4219,3.84375 q -0.5625,0 -1.0312,0.328123 -0.4688,0.328127 -0.6563,0.84375 v 0.390627 q 0,1.0625 0.4688,1.703123 0.4843,0.640627 1.1875,0.640627 0.7343,0 1.1562,-0.53125 0.4219,-0.546877 0.4219,-1.421877 0,-0.875 -0.4219,-1.40625 -0.4219,-0.546873 -1.125,-0.546873 z"
     fill-rule="nonzero"
     id="path42-6" />
  <path
     fill="#ffffff"
     d="m 387.46876,33.818752 v 0.90625 h -0.2031 q -1.2657,0.03125 -2.0157,0.765623 -0.75,0.71875 -0.875,2.03125 0.6875,-0.765623 1.8438,-0.765623 1.1094,0 1.7812,0.78125 0.6719,0.78125 0.6719,2.03125 0,1.3125 -0.7187,2.109373 -0.7188,0.796877 -1.9375,0.796877 -1.2188,0 -1.9844,-0.9375 -0.75,-0.953127 -0.75,-2.4375 v -0.40625 q 0,-2.359377 1,-3.609377 1,-1.25 2.9844,-1.265623 z m -1.4219,3.84375 q -0.5625,0 -1.0312,0.328123 -0.4688,0.328127 -0.6563,0.84375 v 0.390627 q 0,1.0625 0.4688,1.703123 0.4843,0.640627 1.1875,0.640627 0.7343,0 1.1562,-0.53125 0.4219,-0.546877 0.4219,-1.421877 0,-0.875 -0.4219,-1.40625 -0.4219,-0.546873 -1.125,-0.546873 z"
     fill-rule="nonzero"
     id="path43-5" />
  <path
     stroke="#4285f4"
     stroke-width="3"
     stroke-linejoin="round"
     stroke-linecap="round"
     d="m 457.78126,191.00313 h 0.8125 q 0.7812,-0.0156 1.2187,-0.40625 0.4375,-0.39063 0.4375,-1.0625 0,-1.5 -1.5,-1.5 -0.7031,0 -1.125,0.40625 -0.4062,0.40625 -0.4062,1.0625 h -1.0938 q 0,-1.01563 0.7344,-1.6875 0.75,-0.67188 1.8906,-0.67188 1.2032,0 1.8907,0.64063 0.6875,0.64062 0.6875,1.78125 0,0.5625 -0.3594,1.07812 -0.3594,0.51563 -0.9844,0.78125 0.7031,0.21875 1.0781,0.73438 0.3907,0.51562 0.3907,1.26562 0,1.14063 -0.75,1.82813 -0.75,0.67187 -1.9532,0.67187 -1.1875,0 -1.9531,-0.65625 -0.75,-0.65625 -0.75,-1.71875 h 1.0938 q 0,0.67188 0.4375,1.07813 0.4375,0.40625 1.1875,0.40625 0.7812,0 1.1875,-0.40625 0.4218,-0.42188 0.4218,-1.1875 0,-0.73438 -0.4531,-1.125 -0.4531,-0.40625 -1.3281,-0.42188 h -0.8125 z"
     fill-rule="nonzero"
     id="path44-5" />
  <path
     fill="#ffffff"
     d="m 457.78126,191.00313 h 0.8125 q 0.7812,-0.0156 1.2187,-0.40625 0.4375,-0.39063 0.4375,-1.0625 0,-1.5 -1.5,-1.5 -0.7031,0 -1.125,0.40625 -0.4062,0.40625 -0.4062,1.0625 h -1.0938 q 0,-1.01563 0.7344,-1.6875 0.75,-0.67188 1.8906,-0.67188 1.2032,0 1.8907,0.64063 0.6875,0.64062 0.6875,1.78125 0,0.5625 -0.3594,1.07812 -0.3594,0.51563 -0.9844,0.78125 0.7031,0.21875 1.0781,0.73438 0.3907,0.51562 0.3907,1.26562 0,1.14063 -0.75,1.82813 -0.75,0.67187 -1.9532,0.67187 -1.1875,0 -1.9531,-0.65625 -0.75,-0.65625 -0.75,-1.71875 h 1.0938 q 0,0.67188 0.4375,1.07813 0.4375,0.40625 1.1875,0.40625 0.7812,0 1.1875,-0.40625 0.4218,-0.42188 0.4218,-1.1875 0,-0.73438 -0.4531,-1.125 -0.4531,-0.40625 -1.3281,-0.42188 h -0.8125 z"
     fill-rule="nonzero"
     id="path45-8" />
  <path
     stroke="#4285f4"
     stroke-width="3"
     stroke-linejoin="round"
     stroke-linecap="round"
     d="m 529.70306,89.218752 0.4375,-4.25 h 4.375 v 1 h -3.4531 l -0.2656,2.328125 q 0.6406,-0.375 1.4375,-0.375 1.1562,0 1.8437,0.78125 0.6875,0.765625 0.6875,2.078125 0,1.3125 -0.7187,2.07813 -0.7031,0.76562 -1.9844,0.76562 -1.125,0 -1.8437,-0.625 -0.7188,-0.64062 -0.8125,-1.75 h 1.0156 q 0.1094,0.73438 0.5312,1.10938 0.4219,0.375 1.1094,0.375 0.75,0 1.1875,-0.51563 0.4375,-0.51562 0.4375,-1.421875 0,-0.859375 -0.4687,-1.375 -0.4688,-0.515625 -1.25,-0.515625 -0.7032,0 -1.1094,0.296875 l -0.2813,0.234375 z"
     fill-rule="nonzero"
     id="path46-1" />
  <path
     fill="#ffffff"
     d="m 529.70306,89.218752 0.4375,-4.25 h 4.375 v 1 h -3.4531 l -0.2656,2.328125 q 0.6406,-0.375 1.4375,-0.375 1.1562,0 1.8437,0.78125 0.6875,0.765625 0.6875,2.078125 0,1.3125 -0.7187,2.07813 -0.7031,0.76562 -1.9844,0.76562 -1.125,0 -1.8437,-0.625 -0.7188,-0.64062 -0.8125,-1.75 h 1.0156 q 0.1094,0.73438 0.5312,1.10938 0.4219,0.375 1.1094,0.375 0.75,0 1.1875,-0.51563 0.4375,-0.51562 0.4375,-1.421875 0,-0.859375 -0.4687,-1.375 -0.4688,-0.515625 -1.25,-0.515625 -0.7032,0 -1.1094,0.296875 l -0.2813,0.234375 z"
     fill-rule="nonzero"
     id="path47-4" />
  <path
     fill="#000000"
     d="m 33.05,332.21564 q 0,-1.53124 0.3125,-2.45314 0.3125,-0.9375 0.92187,-1.4375 0.625,-0.5 1.5625,-0.5 0.6875,0 1.20313,0.28126 0.53125,0.28124 0.875,0.8125 0.34375,0.51564 0.53125,1.26564 0.1875,0.75 0.1875,2.03124 0,1.51562 -0.3125,2.4375 -0.29688,0.92186 -0.92188,1.4375 -0.60937,0.5 -1.5625,0.5 -1.23437,0 -1.95312,-0.89064 Q 33.05,334.6375 33.05,332.21564 Z m 1.07812,0 q 0,2.10936 0.5,2.8125 0.5,0.70312 1.21875,0.70312 0.73438,0 1.21875,-0.70312 0.5,-0.70314 0.5,-2.8125 0,-2.125 -0.5,-2.8125 Q 36.58125,328.7 35.83125,328.7 q -0.71875,0 -1.15625,0.6094 -0.54688,0.78124 -0.54688,2.90624 z"
     fill-rule="nonzero"
     id="path48-7" />
  <path
     fill="#000000"
     d="M 38.59687,233.13437 V 234.15 h -5.6875 q 0,-0.375 0.125,-0.73438 0.21875,-0.57812 0.6875,-1.14062 0.48438,-0.5625 1.39063,-1.29688 1.40625,-1.15625 1.89062,-1.82812 0.5,-0.67188 0.5,-1.26563 0,-0.625 -0.45312,-1.04687 -0.45313,-0.4375 -1.17188,-0.4375 -0.76562,0 -1.21875,0.45312 -0.45312,0.45312 -0.46875,1.26562 l -1.07812,-0.10937 q 0.10937,-1.21875 0.82812,-1.84375 0.73438,-0.64062 1.96875,-0.64062 1.23438,0 1.95313,0.6875 0.71875,0.6875 0.71875,1.70312 0,0.51562 -0.21875,1.01562 -0.20313,0.48438 -0.70313,1.04688 -0.48437,0.54688 -1.60937,1.5 -0.95313,0.79688 -1.23438,1.09375 -0.26562,0.28125 -0.4375,0.5625 z"
     fill-rule="nonzero"
     id="path49-1" />
  <path
     fill="#000000"
     d="m 36.425,131.85 v -2.0625 h -3.71875 v -0.96874 l 3.92187,-5.5625 h 0.85938 v 5.5625 h 1.15625 v 0.96874 H 37.4875 v 2.0625 z m 0,-3.03124 v -3.85938 l -2.6875,3.85938 z"
     fill-rule="nonzero"
     id="path50-3" />
  <path
     fill="#000000"
     d="m 38.51875,23.065626 -1.04688,0.07813 q -0.14062,-0.625 -0.39062,-0.90625 -0.4375,-0.453126 -1.0625,-0.453126 -0.5,0 -0.89063,0.28125 -0.48437,0.375 -0.78125,1.078126 -0.28125,0.6875 -0.29687,1.96875 0.375,-0.578126 0.92187,-0.859376 0.5625,-0.28125 1.17188,-0.28125 1.04687,0 1.78125,0.78125 0.75,0.78125 0.75,2 0,0.8125 -0.35938,1.515626 -0.34375,0.6875 -0.95312,1.0625 -0.60938,0.359374 -1.375,0.359374 -1.32813,0 -2.15625,-0.96875 -0.82813,-0.96875 -0.82813,-3.1875 0,-2.5 0.92188,-3.625 0.79687,-0.984374 2.15625,-0.984374 1.01562,0 1.65625,0.578124 0.65625,0.5625 0.78125,1.5625 z m -4.29688,3.703126 q 0,0.546874 0.21875,1.046874 0.23438,0.484376 0.64063,0.75 0.42187,0.265626 0.89062,0.265626 0.65625,0 1.14063,-0.53125 0.48437,-0.546876 0.48437,-1.46875 0,-0.890626 -0.48437,-1.40625 -0.46875,-0.515626 -1.1875,-0.515626 -0.71875,0 -1.21875,0.515626 -0.48438,0.515624 -0.48438,1.34375 z"
     fill-rule="nonzero"
     id="path51-8" />
  <path
     fill="#000000"
     d="m 95.73405,349.45 h -1.04687 v -6.71874 q -0.39063,0.35938 -1.01563,0.73438 -0.60937,0.35936 -1.09375,0.53126 v -1.01564 q 0.875,-0.42186 1.53125,-1 0.67188,-0.59376 0.95313,-1.15626 h 0.67187 z"
     fill-rule="nonzero"
     id="path52" />
  <path
     fill="#000000"
     d="m 170.22374,348.4344 v 1.0156 h -5.6875 q 0,-0.375 0.125,-0.73436 0.21875,-0.57814 0.6875,-1.14064 0.48437,-0.5625 1.39062,-1.29686 1.40625,-1.15624 1.89063,-1.82814 0.5,-0.67186 0.5,-1.2656 0,-0.625 -0.45313,-1.0469 -0.45312,-0.4375 -1.17187,-0.4375 -0.76563,0 -1.21875,0.45314 -0.45313,0.45312 -0.46875,1.26562 l -1.07813,-0.10936 q 0.10938,-1.21876 0.82813,-1.84376 0.73437,-0.64064 1.96875,-0.64064 1.23437,0 1.95312,0.6875 0.71875,0.6875 0.71875,1.70314 0,0.51562 -0.21875,1.01562 -0.20312,0.48438 -0.70312,1.04688 -0.48438,0.54686 -1.60938,1.5 -0.95312,0.79686 -1.23437,1.09376 -0.26563,0.28124 -0.4375,0.5625 z"
     fill-rule="nonzero"
     id="path53" />
  <path
     fill="#000000"
     d="m 237.58844,347.1844 1.0625,-0.14064 q 0.17187,0.89064 0.60937,1.29688 0.4375,0.39062 1.0625,0.39062 0.75,0 1.26563,-0.51562 0.51562,-0.51564 0.51562,-1.28124 0,-0.71876 -0.48437,-1.1875 -0.46875,-0.4844 -1.20313,-0.4844 -0.29687,0 -0.75,0.125 l 0.125,-0.9375 q 0.10938,0.0156 0.17188,0.0156 0.67187,0 1.20312,-0.34374 0.54688,-0.3594 0.54688,-1.09376 0,-0.57814 -0.39063,-0.95314 -0.39062,-0.3906 -1.01562,-0.3906 -0.60938,0 -1.03125,0.3906 -0.40625,0.39064 -0.51563,1.15626 l -1.0625,-0.1875 q 0.1875,-1.04686 0.875,-1.625 0.6875,-0.59376 1.70313,-0.59376 0.70312,0 1.29687,0.3125 0.59375,0.2969 0.90625,0.8125 0.3125,0.51564 0.3125,1.1094 0,0.54686 -0.29687,1.0156 -0.29688,0.45314 -0.875,0.71876 0.75,0.17188 1.17187,0.73438 0.42188,0.54686 0.42188,1.39062 0,1.125 -0.82813,1.90624 -0.8125,0.78126 -2.0625,0.78126 -1.125,0 -1.875,-0.67186 -0.75,-0.6875 -0.85937,-1.75 z"
     fill-rule="nonzero"
     id="path54" />
  <path
     fill="#000000"
     d="m 313.875,349.45 v -2.0625 h -3.71875 v -0.96874 l 3.92187,-5.5625 h 0.85938 v 5.5625 h 1.15625 v 0.96874 h -1.15625 v 2.0625 z m 0,-3.03124 v -3.85936 l -2.6875,3.85936 z"
     fill-rule="nonzero"
     id="path55" />
  <path
     fill="#000000"
     d="m 383.41156,347.2 1.1094,-0.0937 q 0.125,0.8125 0.5625,1.21874 0.4531,0.40626 1.0937,0.40626 0.75,0 1.2813,-0.57812 0.5312,-0.57814 0.5312,-1.51564 0,-0.90624 -0.5156,-1.42186 -0.5,-0.53124 -1.3281,-0.53124 -0.5,0 -0.9219,0.23436 -0.4063,0.23438 -0.6406,0.59374 l -0.9844,-0.125 0.8281,-4.40624 h 4.2813 v 1 h -3.4375 l -0.4532,2.3125 q 0.7657,-0.54686 1.6094,-0.54686 1.125,0 1.8906,0.78124 0.7813,0.78126 0.7813,2.01562 0,1.15624 -0.6719,2.01564 -0.8281,1.03124 -2.25,1.03124 -1.1719,0 -1.9219,-0.65624 -0.7343,-0.65626 -0.8437,-1.7344 z"
     fill-rule="nonzero"
     id="path56" />
  <path
     fill="#000000"
     d="m 461.79186,342.96564 -1.0469,0.0781 q -0.1406,-0.625 -0.3906,-0.90626 -0.4375,-0.4531 -1.0625,-0.4531 -0.5,0 -0.8906,0.28124 -0.4844,0.375 -0.7813,1.07812 -0.2812,0.6875 -0.2968,1.96874 0.375,-0.5781 0.9218,-0.85936 0.5625,-0.28124 1.1719,-0.28124 1.0469,0 1.7813,0.78124 0.75,0.78126 0.75,2 0,0.8125 -0.3594,1.51562 -0.3438,0.6875 -0.9531,1.0625 -0.6094,0.35938 -1.375,0.35938 -1.3282,0 -2.1563,-0.96874 -0.8281,-0.96876 -0.8281,-3.1875 0,-2.5 0.9219,-3.625 0.7968,-0.9844 2.1562,-0.9844 1.0156,0 1.6563,0.57814 0.6562,0.5625 0.7812,1.5625 z m -4.2969,3.70312 q 0,0.54688 0.2188,1.04688 0.2344,0.48436 0.6406,0.75 0.4219,0.26562 0.8906,0.26562 0.6563,0 1.1407,-0.53126 0.4843,-0.54686 0.4843,-1.46874 0,-0.89062 -0.4843,-1.40626 -0.4688,-0.5156 -1.1875,-0.5156 -0.7188,0 -1.2188,0.5156 -0.4844,0.51564 -0.4844,1.34376 z"
     fill-rule="nonzero"
     id="path57" />
  <path
     fill="#000000"
     d="m 529.29716,341.98126 v -1.01562 h 5.5625 v 0.82812 q -0.8125,0.875 -1.625,2.32814 -0.7969,1.4375 -1.2344,2.96874 -0.3281,1.07812 -0.4062,2.35936 h -1.0938 q 0.016,-1.0156 0.3906,-2.4531 0.3907,-1.4375 1.0938,-2.76564 0.7187,-1.32812 1.5312,-2.25 z"
     fill-rule="nonzero"
     id="path58" />
  <text
     xml:space="preserve"
     style="font-style:normal;font-variant:normal;font-weight:normal;font-stretch:normal;font-size:14.6667px;font-family:Arial;-inkscape-font-specification:Arial;text-align:center;text-anchor:middle;fill:#000000;fill-opacity:1;stroke-width:1.32332;stroke-linecap:round;stroke-opacity:0.626316"
     x="709.08032"
     y="363.03226"
     id="text51"><tspan
       sodipodi:role="line"
       id="tspan51"
       x="709.08032"
       y="363.03226"
       style="font-size:14.6667px;stroke-width:1.32332">Jamais</tspan></text>
  <text
     xml:space="preserve"
     style="font-style:normal;font-variant:normal;font-weight:normal;font-stretch:normal;font-size:14.6667px;font-family:Arial;-inkscape-font-specification:Arial;text-align:center;text-anchor:middle;fill:#000000;fill-opacity:1;stroke-width:1.32332;stroke-linecap:round;stroke-opacity:0.626316"
     x="1145.5791"
     y="363.90359"
     id="text51-9"><tspan
       sodipodi:role="line"
       id="tspan51-5"
       x="1145.5791"
       y="363.90359"
       style="font-size:14.6667px;stroke-width:1.32332">Toujours</tspan></text>
  <text
     xml:space="preserve"
     style="font-style:normal;font-variant:normal;font-weight:normal;font-stretch:normal;font-size:14.6667px;font-family:Arial;-inkscape-font-specification:Arial;text-align:center;text-anchor:middle;fill:#000000;fill-opacity:1;stroke-width:1.32332;stroke-linecap:round;stroke-opacity:0.626316"
     x="96.1978"
     y="364.07568"
     id="text51-5"><tspan
       sodipodi:role="line"
       id="tspan51-55"
       x="96.1978"
       y="364.07568"
       style="font-size:14.6667px;stroke-width:1.32332">Jamais</tspan></text>
  <text
     xml:space="preserve"
     style="font-style:normal;font-variant:normal;font-weight:normal;font-stretch:normal;font-size:14.6667px;font-family:Arial;-inkscape-font-specification:Arial;text-align:center;text-anchor:middle;fill:#000000;fill-opacity:1;stroke-width:1.32332;stroke-linecap:round;stroke-opacity:0.626316"
     x="532.69666"
     y="364.94702"
     id="text51-9-8"><tspan
       sodipodi:role="line"
       id="tspan51-5-2"
       x="532.69666"
       y="364.94702"
       style="font-size:14.6667px;stroke-width:1.32332">Toujours</tspan></text>
</svg>
