<?xml version="1.0" encoding="UTF-8" standalone="no"?>
<svg
   version="1.1"
   viewBox="0.0 0.0 600.0 371.0"
   fill="none"
   stroke="none"
   stroke-linecap="square"
   stroke-miterlimit="10"
   width="600"
   height="371"
   id="svg57"
   sodipodi:docname="Composition musicale personnelle.svg"
   inkscape:version="1.3 (0e150ed, 2023-07-21)"
   xmlns:inkscape="http://www.inkscape.org/namespaces/inkscape"
   xmlns:sodipodi="http://sodipodi.sourceforge.net/DTD/sodipodi-0.dtd"
   xmlns="http://www.w3.org/2000/svg"
   xmlns:svg="http://www.w3.org/2000/svg">
  <defs
     id="defs57" />
  <sodipodi:namedview
     id="namedview57"
     pagecolor="#ffffff"
     bordercolor="#000000"
     borderopacity="0.25"
     inkscape:showpageshadow="2"
     inkscape:pageopacity="0.0"
     inkscape:pagecheckerboard="0"
     inkscape:deskcolor="#d1d1d1"
     inkscape:zoom="0.72071183"
     inkscape:cx="210.20884"
     inkscape:cy="199.80247"
     inkscape:window-width="1312"
     inkscape:window-height="933"
     inkscape:window-x="0"
     inkscape:window-y="32"
     inkscape:window-maximized="0"
     inkscape:current-layer="svg57" />
  <path
     stroke="#333333"
     stroke-width="1.0"
     stroke-linecap="butt"
     d="M56.5 332.5L581.5 332.5"
     fill-rule="nonzero"
     id="path2" />
  <path
     stroke="#cccccc"
     stroke-width="1.0"
     stroke-linecap="butt"
     d="M56.5 271.5L581.5 271.5"
     fill-rule="nonzero"
     id="path3" />
  <path
     stroke="#cccccc"
     stroke-width="1.0"
     stroke-linecap="butt"
     d="M56.5 210.5L581.5 210.5"
     fill-rule="nonzero"
     id="path4" />
  <path
     stroke="#cccccc"
     stroke-width="1.0"
     stroke-linecap="butt"
     d="M56.5 149.5L581.5 149.5"
     fill-rule="nonzero"
     id="path5" />
  <path
     stroke="#cccccc"
     stroke-width="1.0"
     stroke-linecap="butt"
     d="M56.5 88.5L581.5 88.5"
     fill-rule="nonzero"
     id="path6" />
  <clipPath
     id="id_0">
    <path
       d="M56.55 88.28333L581.45 88.28333L581.45 332.45L56.55 332.45L56.55 88.28333Z"
       clip-rule="nonzero"
       id="path7" />
  </clipPath>
  <path
     stroke="#000000"
     stroke-width="2.0"
     stroke-linecap="butt"
     stroke-opacity="0.0"
     clip-path="url(#id_0)"
     d="M177.0 332.0L99.0 332.0L99.0 271.0L177.0 271.0Z"
     fill-rule="nonzero"
     id="path8" />
  <path
     fill="#ea4335"
     clip-path="url(#id_0)"
     d="M177.0 332.0L99.0 332.0L99.0 271.0L177.0 271.0Z"
     fill-rule="nonzero"
     id="path9" />
  <path
     stroke="#000000"
     stroke-width="2.0"
     stroke-linecap="butt"
     stroke-opacity="0.0"
     clip-path="url(#id_0)"
     d="M298.0 332.0L220.0 332.0L220.0 295.0L298.0 295.0Z"
     fill-rule="nonzero"
     id="path10" />
  <path
     fill="#ea4335"
     clip-path="url(#id_0)"
     d="M298.0 332.0L220.0 332.0L220.0 295.0L298.0 295.0Z"
     fill-rule="nonzero"
     id="path11" />
  <path
     stroke="#000000"
     stroke-width="2.0"
     stroke-linecap="butt"
     stroke-opacity="0.0"
     clip-path="url(#id_0)"
     d="M418.0 332.0L340.0 332.0L340.0 256.0L418.0 256.0Z"
     fill-rule="nonzero"
     id="path12" />
  <path
     fill="#ea4335"
     clip-path="url(#id_0)"
     d="M418.0 332.0L340.0 332.0L340.0 256.0L418.0 256.0Z"
     fill-rule="nonzero"
     id="path13" />
  <path
     stroke="#000000"
     stroke-width="2.0"
     stroke-linecap="butt"
     stroke-opacity="0.0"
     clip-path="url(#id_0)"
     d="M539.0 332.0L461.0 332.0L461.0 263.0L539.0 263.0Z"
     fill-rule="nonzero"
     id="path14" />
  <path
     fill="#ea4335"
     clip-path="url(#id_0)"
     d="M539.0 332.0L461.0 332.0L461.0 263.0L539.0 263.0Z"
     fill-rule="nonzero"
     id="path15" />
  <path
     stroke="#000000"
     stroke-width="2.0"
     stroke-linecap="butt"
     stroke-opacity="0.0"
     clip-path="url(#id_0)"
     d="M177.0 271.0L99.0 271.0L99.0 210.0L177.0 210.0Z"
     fill-rule="nonzero"
     id="path16" />
  <path
     fill="#34a853"
     clip-path="url(#id_0)"
     d="M177.0 271.0L99.0 271.0L99.0 210.0L177.0 210.0Z"
     fill-rule="nonzero"
     id="path17" />
  <path
     stroke="#000000"
     stroke-width="2.0"
     stroke-linecap="butt"
     stroke-opacity="0.0"
     clip-path="url(#id_0)"
     d="M298.0 295.0L220.0 295.0L220.0 239.0L298.0 239.0Z"
     fill-rule="nonzero"
     id="path18" />
  <path
     fill="#34a853"
     clip-path="url(#id_0)"
     d="M298.0 295.0L220.0 295.0L220.0 239.0L298.0 239.0Z"
     fill-rule="nonzero"
     id="path19" />
  <path
     stroke="#000000"
     stroke-width="2.0"
     stroke-linecap="butt"
     stroke-opacity="0.0"
     clip-path="url(#id_0)"
     d="M418.0 256.0L340.0 256.0L340.0 210.0L418.0 210.0Z"
     fill-rule="nonzero"
     id="path20" />
  <path
     fill="#34a853"
     clip-path="url(#id_0)"
     d="M418.0 256.0L340.0 256.0L340.0 210.0L418.0 210.0Z"
     fill-rule="nonzero"
     id="path21" />
  <path
     stroke="#000000"
     stroke-width="2.0"
     stroke-linecap="butt"
     stroke-opacity="0.0"
     clip-path="url(#id_0)"
     d="M539.0 263.0L461.0 263.0L461.0 175.0L539.0 175.0Z"
     fill-rule="nonzero"
     id="path22" />
  <path
     fill="#34a853"
     clip-path="url(#id_0)"
     d="M539.0 263.0L461.0 263.0L461.0 175.0L539.0 175.0Z"
     fill-rule="nonzero"
     id="path23" />
  <path
     stroke="#000000"
     stroke-width="2.0"
     stroke-linecap="butt"
     stroke-opacity="0.0"
     clip-path="url(#id_0)"
     d="M177.0 210.0L99.0 210.0L99.0 129.0L177.0 129.0Z"
     fill-rule="nonzero"
     id="path24" />
  <path
     fill="#fbbc04"
     clip-path="url(#id_0)"
     d="M177.0 210.0L99.0 210.0L99.0 129.0L177.0 129.0Z"
     fill-rule="nonzero"
     id="path25" />
  <path
     stroke="#000000"
     stroke-width="2.0"
     stroke-linecap="butt"
     stroke-opacity="0.0"
     clip-path="url(#id_0)"
     d="M298.0 239.0L220.0 239.0L220.0 145.0L298.0 145.0Z"
     fill-rule="nonzero"
     id="path26" />
  <path
     fill="#fbbc04"
     clip-path="url(#id_0)"
     d="M298.0 239.0L220.0 239.0L220.0 145.0L298.0 145.0Z"
     fill-rule="nonzero"
     id="path27" />
  <path
     stroke="#000000"
     stroke-width="2.0"
     stroke-linecap="butt"
     stroke-opacity="0.0"
     clip-path="url(#id_0)"
     d="M418.0 210.0L340.0 210.0L340.0 134.0L418.0 134.0Z"
     fill-rule="nonzero"
     id="path28" />
  <path
     fill="#fbbc04"
     clip-path="url(#id_0)"
     d="M418.0 210.0L340.0 210.0L340.0 134.0L418.0 134.0Z"
     fill-rule="nonzero"
     id="path29" />
  <path
     stroke="#000000"
     stroke-width="2.0"
     stroke-linecap="butt"
     stroke-opacity="0.0"
     clip-path="url(#id_0)"
     d="M539.0 175.0L461.0 175.0L461.0 141.0L539.0 141.0Z"
     fill-rule="nonzero"
     id="path30" />
  <path
     fill="#fbbc04"
     clip-path="url(#id_0)"
     d="M539.0 175.0L461.0 175.0L461.0 141.0L539.0 141.0Z"
     fill-rule="nonzero"
     id="path31" />
  <path
     stroke="#000000"
     stroke-width="2.0"
     stroke-linecap="butt"
     stroke-opacity="0.0"
     clip-path="url(#id_0)"
     d="M177.0 129.0L99.0 129.0L99.0 90.0C99.0 88.89543 99.89543 88.0 101.0 88.0L175.0 88.0C176.10457 88.0 177.0 88.89543 177.0 90.0Z"
     fill-rule="nonzero"
     id="path32" />
  <path
     fill="#4285f4"
     clip-path="url(#id_0)"
     d="M177.0 129.0L99.0 129.0L99.0 90.0C99.0 88.89543 99.89543 88.0 101.0 88.0L175.0 88.0C176.10457 88.0 177.0 88.89543 177.0 90.0Z"
     fill-rule="nonzero"
     id="path33" />
  <path
     stroke="#000000"
     stroke-width="2.0"
     stroke-linecap="butt"
     stroke-opacity="0.0"
     clip-path="url(#id_0)"
     d="M298.0 145.0L220.0 145.0L220.0 90.0C220.0 88.89543 220.89543 88.0 222.0 88.0L296.0 88.0C297.10458 88.0 298.0 88.89543 298.0 90.0Z"
     fill-rule="nonzero"
     id="path34" />
  <path
     fill="#4285f4"
     clip-path="url(#id_0)"
     d="M298.0 145.0L220.0 145.0L220.0 90.0C220.0 88.89543 220.89543 88.0 222.0 88.0L296.0 88.0C297.10458 88.0 298.0 88.89543 298.0 90.0Z"
     fill-rule="nonzero"
     id="path35" />
  <path
     stroke="#000000"
     stroke-width="2.0"
     stroke-linecap="butt"
     stroke-opacity="0.0"
     clip-path="url(#id_0)"
     d="M418.0 134.0L340.0 134.0L340.0 90.0C340.0 88.89543 340.89542 88.0 342.0 88.0L416.0 88.0C417.10458 88.0 418.0 88.89543 418.0 90.0Z"
     fill-rule="nonzero"
     id="path36" />
  <path
     fill="#4285f4"
     clip-path="url(#id_0)"
     d="M418.0 134.0L340.0 134.0L340.0 90.0C340.0 88.89543 340.89542 88.0 342.0 88.0L416.0 88.0C417.10458 88.0 418.0 88.89543 418.0 90.0Z"
     fill-rule="nonzero"
     id="path37" />
  <path
     stroke="#000000"
     stroke-width="2.0"
     stroke-linecap="butt"
     stroke-opacity="0.0"
     clip-path="url(#id_0)"
     d="M539.0 141.0L461.0 141.0L461.0 90.0C461.0 88.89543 461.89542 88.0 463.0 88.0L537.0 88.0C538.10455 88.0 539.0 88.89543 539.0 90.0Z"
     fill-rule="nonzero"
     id="path38" />
  <path
     fill="#4285f4"
     clip-path="url(#id_0)"
     d="M539.0 141.0L461.0 141.0L461.0 90.0C461.0 88.89543 461.89542 88.0 463.0 88.0L537.0 88.0C538.10455 88.0 539.0 88.89543 539.0 90.0Z"
     fill-rule="nonzero"
     id="path39" />
  <path
     fill="#000000"
     d="M33.05 332.21564Q33.05 330.6844 33.3625 329.7625Q33.675 328.825 34.284374 328.325Q34.909374 327.825 35.846874 327.825Q36.534374 327.825 37.05 328.10626Q37.58125 328.3875 37.925 328.91876Q38.26875 329.4344 38.45625 330.1844Q38.64375 330.9344 38.64375 332.21564Q38.64375 333.73126 38.33125 334.65314Q38.034374 335.575 37.409374 336.09064Q36.8 336.59064 35.846874 336.59064Q34.6125 336.59064 33.89375 335.7Q33.05 334.6375 33.05 332.21564ZM34.128124 332.21564Q34.128124 334.325 34.628124 335.02814Q35.128124 335.73126 35.846874 335.73126Q36.58125 335.73126 37.065624 335.02814Q37.565624 334.325 37.565624 332.21564Q37.565624 330.09064 37.065624 329.40314Q36.58125 328.7 35.83125 328.7Q35.1125 328.7 34.675 329.3094Q34.128124 330.09064 34.128124 332.21564ZM40.253124 329.91876Q40.253124 328.9969 40.70625 328.35626Q41.175 327.71564 42.05 327.71564Q42.8625 327.71564 43.39375 328.29376Q43.925 328.8719 43.925 329.98126Q43.925 331.075 43.378124 331.66876Q42.846874 332.2469 42.065624 332.2469Q41.284374 332.2469 40.76875 331.66876Q40.253124 331.09064 40.253124 329.91876ZM42.08125 328.4344Q41.690624 328.4344 41.425 328.77814Q41.175 329.1219 41.175 330.02814Q41.175 330.85626 41.425 331.2Q41.690624 331.52814 42.08125 331.52814Q42.4875 331.52814 42.7375 331.1844Q43.003124 330.84064 43.003124 329.95Q43.003124 329.10626 42.7375 328.77814Q42.471874 328.4344 42.08125 328.4344ZM42.08125 336.7625L46.784374 327.71564L47.64375 327.71564L42.95625 336.7625L42.08125 336.7625ZM45.8 334.4344Q45.8 333.5125 46.253124 332.8719Q46.721874 332.23126 47.6125 332.23126Q48.425 332.23126 48.95625 332.8094Q49.4875 333.3719 49.4875 334.4969Q49.4875 335.59064 48.940624 336.1844Q48.409374 336.7625 47.6125 336.7625Q46.846874 336.7625 46.315624 336.1844Q45.8 335.60626 45.8 334.4344ZM47.64375 332.95Q47.2375 332.95 46.971874 333.29376Q46.721874 333.6375 46.721874 334.54376Q46.721874 335.35626 46.9875 335.7Q47.253124 336.04376 47.64375 336.04376Q48.034374 336.04376 48.3 335.7Q48.565624 335.35626 48.565624 334.45Q48.565624 333.6219 48.3 333.29376Q48.034374 332.95 47.64375 332.95Z"
     fill-rule="nonzero"
     id="path40" />
  <path
     fill="#000000"
     d="M31.596874 274.3927L31.596874 275.40833L25.909374 275.40833Q25.909374 275.03333 26.034374 274.67395Q26.253124 274.09583 26.721874 273.53333Q27.20625 272.97083 28.1125 272.23645Q29.51875 271.0802 30.003124 270.40833Q30.503124 269.73645 30.503124 269.1427Q30.503124 268.5177 30.05 268.09583Q29.596874 267.65833 28.878124 267.65833Q28.1125 267.65833 27.659374 268.11145Q27.20625 268.56458 27.190624 269.37708L26.1125 269.2677Q26.221874 268.04895 26.940624 267.42395Q27.675 266.78333 28.909374 266.78333Q30.14375 266.78333 30.8625 267.47083Q31.58125 268.15833 31.58125 269.17395Q31.58125 269.68958 31.3625 270.18958Q31.159374 270.67395 30.659374 271.23645Q30.175 271.78333 29.05 272.73645Q28.096874 273.53333 27.815624 273.8302Q27.55 274.11145 27.378124 274.3927L31.596874 274.3927ZM33.05 273.15833L34.159374 273.06458Q34.284374 273.87708 34.721874 274.28333Q35.175 274.68958 35.815624 274.68958Q36.565624 274.68958 37.096874 274.11145Q37.628124 273.53333 37.628124 272.59583Q37.628124 271.68958 37.1125 271.17395Q36.6125 270.6427 35.784374 270.6427Q35.284374 270.6427 34.8625 270.87708Q34.45625 271.11145 34.221874 271.47083L33.2375 271.34583L34.065624 266.93958L38.346874 266.93958L38.346874 267.93958L34.909374 267.93958L34.45625 270.25208Q35.221874 269.7052 36.065624 269.7052Q37.190624 269.7052 37.95625 270.48645Q38.7375 271.2677 38.7375 272.50208Q38.7375 273.65833 38.065624 274.5177Q37.2375 275.54895 35.815624 275.54895Q34.64375 275.54895 33.89375 274.8927Q33.159374 274.23645 33.05 273.15833ZM40.253124 268.87708Q40.253124 267.9552 40.70625 267.31458Q41.175 266.67395 42.05 266.67395Q42.8625 266.67395 43.39375 267.25208Q43.925 267.8302 43.925 268.93958Q43.925 270.03333 43.378124 270.62708Q42.846874 271.2052 42.065624 271.2052Q41.284374 271.2052 40.76875 270.62708Q40.253124 270.04895 40.253124 268.87708ZM42.08125 267.3927Q41.690624 267.3927 41.425 267.73645Q41.175 268.0802 41.175 268.98645Q41.175 269.81458 41.425 270.15833Q41.690624 270.48645 42.08125 270.48645Q42.4875 270.48645 42.7375 270.1427Q43.003124 269.79895 43.003124 268.90833Q43.003124 268.06458 42.7375 267.73645Q42.471874 267.3927 42.08125 267.3927ZM42.08125 275.72083L46.784374 266.67395L47.64375 266.67395L42.95625 275.72083L42.08125 275.72083ZM45.8 273.3927Q45.8 272.47083 46.253124 271.8302Q46.721874 271.18958 47.6125 271.18958Q48.425 271.18958 48.95625 271.7677Q49.4875 272.3302 49.4875 273.4552Q49.4875 274.54895 48.940624 275.1427Q48.409374 275.72083 47.6125 275.72083Q46.846874 275.72083 46.315624 275.1427Q45.8 274.56458 45.8 273.3927ZM47.64375 271.90833Q47.2375 271.90833 46.971874 272.25208Q46.721874 272.59583 46.721874 273.50208Q46.721874 274.31458 46.9875 274.65833Q47.253124 275.00208 47.64375 275.00208Q48.034374 275.00208 48.3 274.65833Q48.565624 274.31458 48.565624 273.40833Q48.565624 272.5802 48.3 272.25208Q48.034374 271.90833 47.64375 271.90833Z"
     fill-rule="nonzero"
     id="path41" />
  <path
     fill="#000000"
     d="M26.05 212.11667L27.159374 212.02292Q27.284374 212.83542 27.721874 213.24167Q28.175 213.64792 28.815624 213.64792Q29.565624 213.64792 30.096874 213.0698Q30.628124 212.49167 30.628124 211.55417Q30.628124 210.64792 30.1125 210.1323Q29.6125 209.60104 28.784374 209.60104Q28.284374 209.60104 27.8625 209.83542Q27.45625 210.0698 27.221874 210.42917L26.2375 210.30417L27.065624 205.89792L31.346874 205.89792L31.346874 206.89792L27.909374 206.89792L27.45625 209.21042Q28.221874 208.66354 29.065624 208.66354Q30.190624 208.66354 30.95625 209.4448Q31.7375 210.22604 31.7375 211.46042Q31.7375 212.61667 31.065624 213.47604Q30.2375 214.5073 28.815624 214.5073Q27.64375 214.5073 26.89375 213.85104Q26.159374 213.1948 26.05 212.11667ZM33.05 210.1323Q33.05 208.60104 33.3625 207.67917Q33.675 206.74167 34.284374 206.24167Q34.909374 205.74167 35.846874 205.74167Q36.534374 205.74167 37.05 206.02292Q37.58125 206.30417 37.925 206.83542Q38.26875 207.35104 38.45625 208.10104Q38.64375 208.85104 38.64375 210.1323Q38.64375 211.64792 38.33125 212.5698Q38.034374 213.49167 37.409374 214.0073Q36.8 214.5073 35.846874 214.5073Q34.6125 214.5073 33.89375 213.61667Q33.05 212.55417 33.05 210.1323ZM34.128124 210.1323Q34.128124 212.24167 34.628124 212.9448Q35.128124 213.64792 35.846874 213.64792Q36.58125 213.64792 37.065624 212.9448Q37.565624 212.24167 37.565624 210.1323Q37.565624 208.0073 37.065624 207.3198Q36.58125 206.61667 35.83125 206.61667Q35.1125 206.61667 34.675 207.22604Q34.128124 208.0073 34.128124 210.1323ZM40.253124 207.83542Q40.253124 206.91354 40.70625 206.27292Q41.175 205.6323 42.05 205.6323Q42.8625 205.6323 43.39375 206.21042Q43.925 206.78854 43.925 207.89792Q43.925 208.99167 43.378124 209.58542Q42.846874 210.16354 42.065624 210.16354Q41.284374 210.16354 40.76875 209.58542Q40.253124 209.0073 40.253124 207.83542ZM42.08125 206.35104Q41.690624 206.35104 41.425 206.6948Q41.175 207.03854 41.175 207.9448Q41.175 208.77292 41.425 209.11667Q41.690624 209.4448 42.08125 209.4448Q42.4875 209.4448 42.7375 209.10104Q43.003124 208.7573 43.003124 207.86667Q43.003124 207.02292 42.7375 206.6948Q42.471874 206.35104 42.08125 206.35104ZM42.08125 214.67917L46.784374 205.6323L47.64375 205.6323L42.95625 214.67917L42.08125 214.67917ZM45.8 212.35104Q45.8 211.42917 46.253124 210.78854Q46.721874 210.14792 47.6125 210.14792Q48.425 210.14792 48.95625 210.72604Q49.4875 211.28854 49.4875 212.41354Q49.4875 213.5073 48.940624 214.10104Q48.409374 214.67917 47.6125 214.67917Q46.846874 214.67917 46.315624 214.10104Q45.8 213.52292 45.8 212.35104ZM47.64375 210.86667Q47.2375 210.86667 46.971874 211.21042Q46.721874 211.55417 46.721874 212.46042Q46.721874 213.27292 46.9875 213.61667Q47.253124 213.96042 47.64375 213.96042Q48.034374 213.96042 48.3 213.61667Q48.565624 213.27292 48.565624 212.36667Q48.565624 211.53854 48.3 211.21042Q48.034374 210.86667 47.64375 210.86667Z"
     fill-rule="nonzero"
     id="path42" />
  <path
     fill="#000000"
     d="M26.1125 145.85625L26.1125 144.84062L31.675 144.84062L31.675 145.66875Q30.8625 146.54375 30.05 147.99687Q29.253124 149.43437 28.815624 150.96562Q28.4875 152.04375 28.409374 153.325L27.315624 153.325Q27.33125 152.30937 27.70625 150.87187Q28.096874 149.43437 28.8 148.10625Q29.51875 146.77812 30.33125 145.85625L26.1125 145.85625ZM33.05 151.075L34.159374 150.98125Q34.284374 151.79375 34.721874 152.2Q35.175 152.60625 35.815624 152.60625Q36.565624 152.60625 37.096874 152.02812Q37.628124 151.45 37.628124 150.5125Q37.628124 149.60625 37.1125 149.09062Q36.6125 148.55937 35.784374 148.55937Q35.284374 148.55937 34.8625 148.79375Q34.45625 149.02812 34.221874 149.3875L33.2375 149.2625L34.065624 144.85625L38.346874 144.85625L38.346874 145.85625L34.909374 145.85625L34.45625 148.16875Q35.221874 147.62187 36.065624 147.62187Q37.190624 147.62187 37.95625 148.40312Q38.7375 149.18437 38.7375 150.41875Q38.7375 151.575 38.065624 152.43437Q37.2375 153.46562 35.815624 153.46562Q34.64375 153.46562 33.89375 152.80937Q33.159374 152.15312 33.05 151.075ZM40.253124 146.79375Q40.253124 145.87187 40.70625 145.23125Q41.175 144.59062 42.05 144.59062Q42.8625 144.59062 43.39375 145.16875Q43.925 145.74687 43.925 146.85625Q43.925 147.95 43.378124 148.54375Q42.846874 149.12187 42.065624 149.12187Q41.284374 149.12187 40.76875 148.54375Q40.253124 147.96562 40.253124 146.79375ZM42.08125 145.30937Q41.690624 145.30937 41.425 145.65312Q41.175 145.99687 41.175 146.90312Q41.175 147.73125 41.425 148.075Q41.690624 148.40312 42.08125 148.40312Q42.4875 148.40312 42.7375 148.05937Q43.003124 147.71562 43.003124 146.825Q43.003124 145.98125 42.7375 145.65312Q42.471874 145.30937 42.08125 145.30937ZM42.08125 153.6375L46.784374 144.59062L47.64375 144.59062L42.95625 153.6375L42.08125 153.6375ZM45.8 151.30937Q45.8 150.3875 46.253124 149.74687Q46.721874 149.10625 47.6125 149.10625Q48.425 149.10625 48.95625 149.68437Q49.4875 150.24687 49.4875 151.37187Q49.4875 152.46562 48.940624 153.05937Q48.409374 153.6375 47.6125 153.6375Q46.846874 153.6375 46.315624 153.05937Q45.8 152.48125 45.8 151.30937ZM47.64375 149.825Q47.2375 149.825 46.971874 150.16875Q46.721874 150.5125 46.721874 151.41875Q46.721874 152.23125 46.9875 152.575Q47.253124 152.91875 47.64375 152.91875Q48.034374 152.91875 48.3 152.575Q48.565624 152.23125 48.565624 151.325Q48.565624 150.49687 48.3 150.16875Q48.034374 149.825 47.64375 149.825Z"
     fill-rule="nonzero"
     id="path43" />
  <path
     fill="#000000"
     d="M23.01875 92.28333L21.971874 92.28333L21.971874 85.56458Q21.58125 85.92396 20.95625 86.29896Q20.346874 86.65833 19.8625 86.83021L19.8625 85.81458Q20.7375 85.39271 21.39375 84.81458Q22.065624 84.22083 22.346874 83.65833L23.01875 83.65833L23.01875 92.28333ZM26.05 88.04896Q26.05 86.51771 26.3625 85.59583Q26.675 84.65833 27.284374 84.15833Q27.909374 83.65833 28.846874 83.65833Q29.534374 83.65833 30.05 83.93958Q30.58125 84.22083 30.925 84.75208Q31.26875 85.26771 31.45625 86.01771Q31.64375 86.76771 31.64375 88.04896Q31.64375 89.56458 31.33125 90.48646Q31.034374 91.40833 30.409374 91.92396Q29.8 92.42396 28.846874 92.42396Q27.6125 92.42396 26.89375 91.53333Q26.05 90.47083 26.05 88.04896ZM27.128124 88.04896Q27.128124 90.15833 27.628124 90.86146Q28.128124 91.56458 28.846874 91.56458Q29.58125 91.56458 30.065624 90.86146Q30.565624 90.15833 30.565624 88.04896Q30.565624 85.92396 30.065624 85.23646Q29.58125 84.53333 28.83125 84.53333Q28.1125 84.53333 27.675 85.14271Q27.128124 85.92396 27.128124 88.04896ZM33.05 88.04896Q33.05 86.51771 33.3625 85.59583Q33.675 84.65833 34.284374 84.15833Q34.909374 83.65833 35.846874 83.65833Q36.534374 83.65833 37.05 83.93958Q37.58125 84.22083 37.925 84.75208Q38.26875 85.26771 38.45625 86.01771Q38.64375 86.76771 38.64375 88.04896Q38.64375 89.56458 38.33125 90.48646Q38.034374 91.40833 37.409374 91.92396Q36.8 92.42396 35.846874 92.42396Q34.6125 92.42396 33.89375 91.53333Q33.05 90.47083 33.05 88.04896ZM34.128124 88.04896Q34.128124 90.15833 34.628124 90.86146Q35.128124 91.56458 35.846874 91.56458Q36.58125 91.56458 37.065624 90.86146Q37.565624 90.15833 37.565624 88.04896Q37.565624 85.92396 37.065624 85.23646Q36.58125 84.53333 35.83125 84.53333Q35.1125 84.53333 34.675 85.14271Q34.128124 85.92396 34.128124 88.04896ZM40.253124 85.75208Q40.253124 84.83021 40.70625 84.18958Q41.175 83.54896 42.05 83.54896Q42.8625 83.54896 43.39375 84.12708Q43.925 84.70521 43.925 85.81458Q43.925 86.90833 43.378124 87.50208Q42.846874 88.08021 42.065624 88.08021Q41.284374 88.08021 40.76875 87.50208Q40.253124 86.92396 40.253124 85.75208ZM42.08125 84.26771Q41.690624 84.26771 41.425 84.61146Q41.175 84.95521 41.175 85.86146Q41.175 86.68958 41.425 87.03333Q41.690624 87.36146 42.08125 87.36146Q42.4875 87.36146 42.7375 87.01771Q43.003124 86.67396 43.003124 85.78333Q43.003124 84.93958 42.7375 84.61146Q42.471874 84.26771 42.08125 84.26771ZM42.08125 92.59583L46.784374 83.54896L47.64375 83.54896L42.95625 92.59583L42.08125 92.59583ZM45.8 90.26771Q45.8 89.34583 46.253124 88.70521Q46.721874 88.06458 47.6125 88.06458Q48.425 88.06458 48.95625 88.64271Q49.4875 89.20521 49.4875 90.33021Q49.4875 91.42396 48.940624 92.01771Q48.409374 92.59583 47.6125 92.59583Q46.846874 92.59583 46.315624 92.01771Q45.8 91.43958 45.8 90.26771ZM47.64375 88.78333Q47.2375 88.78333 46.971874 89.12708Q46.721874 89.47083 46.721874 90.37708Q46.721874 91.18958 46.9875 91.53333Q47.253124 91.87708 47.64375 91.87708Q48.034374 91.87708 48.3 91.53333Q48.565624 91.18958 48.565624 90.28333Q48.565624 89.45521 48.3 89.12708Q48.034374 88.78333 47.64375 88.78333Z"
     fill-rule="nonzero"
     id="path44" />
  <path
     fill="#000000"
     d="M130.98438 349.45L130.98438 340.85626L136.78125 340.85626L136.78125 341.8719L132.125 341.8719L132.125 344.52814L136.15625 344.52814L136.15625 345.54376L132.125 345.54376L132.125 349.45L130.98438 349.45ZM137.89062 349.45L137.89062 340.85626L139.60938 340.85626L141.64062 346.9344Q141.92188 347.79376 142.04688 348.21564Q142.1875 347.7469 142.5 346.84064L144.5625 340.85626L146.09375 340.85626L146.09375 349.45L145.0 349.45L145.0 342.2625L142.5 349.45L141.46875 349.45L138.98438 342.1375L138.98438 349.45L137.89062 349.45Z"
     fill-rule="nonzero"
     id="path45" />
  <path
     fill="#000000"
     d="M248.21355 346.6844L249.27605 346.59064Q249.35417 347.2469 249.63542 347.65314Q249.91667 348.0594 250.4948 348.325Q251.08855 348.575 251.82292 348.575Q252.46355 348.575 252.96355 348.3875Q253.46355 348.1844 253.69792 347.85626Q253.94792 347.5125 253.94792 347.1219Q253.94792 346.71564 253.71355 346.41876Q253.47917 346.10626 252.94792 345.90314Q252.58855 345.7625 251.40105 345.48126Q250.22917 345.2 249.76042 344.95Q249.13542 344.6219 248.83855 344.15314Q248.54167 343.66876 248.54167 343.075Q248.54167 342.4344 248.90105 341.8719Q249.27605 341.29376 249.97917 341.0125Q250.69792 340.71564 251.5573 340.71564Q252.51042 340.71564 253.2448 341.02814Q253.97917 341.325 254.3698 341.9344Q254.76042 342.52814 254.79167 343.27814L253.69792 343.35626Q253.60417 342.54376 253.08855 342.1375Q252.58855 341.71564 251.60417 341.71564Q250.57292 341.71564 250.10417 342.09064Q249.63542 342.46564 249.63542 342.9969Q249.63542 343.46564 249.96355 343.7625Q250.29167 344.0594 251.66667 344.3719Q253.0573 344.6844 253.57292 344.91876Q254.32292 345.27814 254.6823 345.8094Q255.04167 346.325 255.04167 347.02814Q255.04167 347.71564 254.65105 348.325Q254.26042 348.91876 253.52605 349.2625Q252.79167 349.59064 251.8698 349.59064Q250.69792 349.59064 249.90105 349.2625Q249.1198 348.91876 248.66667 348.23126Q248.22917 347.54376 248.21355 346.6844ZM260.5417 349.45L260.5417 348.52814Q259.8073 349.59064 258.5573 349.59064Q258.01044 349.59064 257.52606 349.3875Q257.0573 349.16876 256.82294 348.85626Q256.58856 348.52814 256.4948 348.0594Q256.4323 347.7625 256.4323 347.075L256.4323 343.23126L257.4948 343.23126L257.4948 346.6844Q257.4948 347.4969 257.5573 347.79376Q257.65106 348.2 257.96356 348.45Q258.2917 348.6844 258.77606 348.6844Q259.2448 348.6844 259.65106 348.45Q260.07294 348.2 260.2448 347.77814Q260.4323 347.35626 260.4323 346.5594L260.4323 343.23126L261.4792 343.23126L261.4792 349.45L260.5417 349.45ZM264.4323 349.45L263.44794 349.45L263.44794 340.85626L264.51044 340.85626L264.51044 343.91876Q265.1823 343.09064 266.21356 343.09064Q266.7917 343.09064 267.2917 343.325Q267.8073 343.54376 268.13544 343.96564Q268.4792 344.3875 268.6667 344.98126Q268.8542 345.575 268.8542 346.2469Q268.8542 347.84064 268.0573 348.71564Q267.26044 349.59064 266.1667 349.59064Q265.0573 349.59064 264.4323 348.66876L264.4323 349.45ZM264.4167 346.29376Q264.4167 347.40314 264.7292 347.90314Q265.2292 348.71564 266.07294 348.71564Q266.76044 348.71564 267.26044 348.1219Q267.77606 347.52814 267.77606 346.325Q267.77606 345.10626 267.2917 344.52814Q266.8073 343.95 266.1198 343.95Q265.4323 343.95 264.9167 344.5594Q264.4167 345.15314 264.4167 346.29376Z"
     fill-rule="nonzero"
     id="path46" />
  <path
     fill="#000000"
     d="M367.22397 349.45L367.22397 340.85626L368.94272 340.85626L370.97397 346.9344Q371.25522 347.79376 371.38022 348.21564Q371.52084 347.7469 371.83334 346.84064L373.89584 340.85626L375.4271 340.85626L375.4271 349.45L374.33334 349.45L374.33334 342.2625L371.83334 349.45L370.8021 349.45L368.31772 342.1375L368.31772 349.45L367.22397 349.45ZM380.38022 347.45L381.47397 347.575Q381.22397 348.52814 380.52084 349.0594Q379.81772 349.59064 378.7396 349.59064Q377.38022 349.59064 376.56772 348.7469Q375.77084 347.90314 375.77084 346.3875Q375.77084 344.825 376.58334 343.96564Q377.39584 343.09064 378.6771 343.09064Q379.9271 343.09064 380.70834 343.9344Q381.50522 344.77814 381.50522 346.325Q381.50522 346.41876 381.50522 346.60626L376.8646 346.60626Q376.9271 347.6375 377.44272 348.1844Q377.95834 348.71564 378.7396 348.71564Q379.31772 348.71564 379.72397 348.41876Q380.14584 348.10626 380.38022 347.45ZM376.9271 345.7469L380.39584 345.7469Q380.33334 344.95 380.00522 344.5594Q379.4896 343.95 378.69272 343.95Q377.95834 343.95 377.45834 344.4344Q376.97397 344.91876 376.9271 345.7469ZM383.09897 349.45L383.09897 340.85626L384.16147 340.85626L384.16147 349.45L383.09897 349.45ZM390.16147 349.45L390.16147 348.66876Q389.56772 349.59064 388.4271 349.59064Q387.6771 349.59064 387.0521 349.1844Q386.4271 348.7625 386.08334 348.02814Q385.7396 347.29376 385.7396 346.34064Q385.7396 345.41876 386.0521 344.65314Q386.3646 343.8875 386.9896 343.4969Q387.6146 343.09064 388.38022 343.09064Q388.94272 343.09064 389.38022 343.325Q389.81772 343.5594 390.09897 343.9344L390.09897 340.85626L391.14584 340.85626L391.14584 349.45L390.16147 349.45ZM386.83334 346.34064Q386.83334 347.54376 387.33334 348.1375Q387.83334 348.71564 388.52084 348.71564Q389.20834 348.71564 389.69272 348.15314Q390.1771 347.59064 390.1771 346.4344Q390.1771 345.15314 389.6771 344.5594Q389.19272 343.96564 388.47397 343.96564Q387.77084 343.96564 387.3021 344.54376Q386.83334 345.10626 386.83334 346.34064Z"
     fill-rule="nonzero"
     id="path47" />
  <path
     fill="#000000"
     d="M487.42188 349.45L485.14062 340.85626L486.3125 340.85626L487.625 346.4969Q487.82812 347.3719 487.98438 348.2469Q488.3125 346.8719 488.375 346.65314L490.0 340.85626L491.375 340.85626L492.60938 345.2Q493.0625 346.825 493.28125 348.2469Q493.4375 347.4344 493.70312 346.3719L495.04688 340.85626L496.1875 340.85626L493.84375 349.45L492.73438 349.45L490.9375 342.90314Q490.70312 342.09064 490.65625 341.90314Q490.53125 342.48126 490.40625 342.90314L488.59375 349.45L487.42188 349.45ZM500.85938 348.6844Q500.26562 349.1844 499.71875 349.3875Q499.1875 349.59064 498.5625 349.59064Q497.53125 349.59064 496.98438 349.09064Q496.4375 348.59064 496.4375 347.8094Q496.4375 347.35626 496.64062 346.98126Q496.84375 346.59064 497.1875 346.3719Q497.53125 346.1375 497.95312 346.02814Q498.25 345.9344 498.89062 345.85626Q500.15625 345.71564 500.76562 345.4969Q500.76562 345.27814 500.76562 345.23126Q500.76562 344.575 500.46875 344.3094Q500.0625 343.96564 499.26562 343.96564Q498.53125 343.96564 498.17188 344.23126Q497.8125 344.48126 497.64062 345.1375L496.60938 344.9969Q496.75 344.34064 497.07812 343.9344Q497.40625 343.52814 498.01562 343.3094Q498.625 343.09064 499.42188 343.09064Q500.21875 343.09064 500.71875 343.27814Q501.21875 343.46564 501.45312 343.7469Q501.6875 344.02814 501.78125 344.46564Q501.82812 344.73126 501.82812 345.4344L501.82812 346.84064Q501.82812 348.3094 501.89062 348.7Q501.96875 349.09064 502.17188 349.45L501.0625 349.45Q500.90625 349.1219 500.85938 348.6844ZM500.76562 346.325Q500.1875 346.5594 499.04688 346.73126Q498.39062 346.825 498.125 346.95Q497.85938 347.0594 497.70312 347.27814Q497.5625 347.4969 497.5625 347.77814Q497.5625 348.2 497.875 348.48126Q498.20312 348.7625 498.8125 348.7625Q499.42188 348.7625 499.89062 348.4969Q500.375 348.23126 500.59375 347.7625Q500.76562 347.40314 500.76562 346.71564L500.76562 346.325ZM505.51562 349.45L503.15625 343.23126L504.26562 343.23126L505.60938 346.95Q505.8125 347.5594 506.0 348.2Q506.14062 347.71564 506.39062 347.02814L507.78125 343.23126L508.85938 343.23126L506.5 349.45L505.51562 349.45ZM513.0469 347.45L514.1406 347.575Q513.8906 348.52814 513.1875 349.0594Q512.4844 349.59064 511.40625 349.59064Q510.04688 349.59064 509.23438 348.7469Q508.4375 347.90314 508.4375 346.3875Q508.4375 344.825 509.25 343.96564Q510.0625 343.09064 511.34375 343.09064Q512.59375 343.09064 513.375 343.9344Q514.1719 344.77814 514.1719 346.325Q514.1719 346.41876 514.1719 346.60626L509.53125 346.60626Q509.59375 347.6375 510.10938 348.1844Q510.625 348.71564 511.40625 348.71564Q511.98438 348.71564 512.3906 348.41876Q512.8125 348.10626 513.0469 347.45ZM509.59375 345.7469L513.0625 345.7469Q513.0 344.95 512.6719 344.5594Q512.15625 343.95 511.35938 343.95Q510.625 343.95 510.125 344.4344Q509.64062 344.91876 509.59375 345.7469Z"
     fill-rule="nonzero"
     id="path48" />
  <path
     fill="#4285f4"
     d="M95.5 56.916668C95.5 56.364384 95.947716 55.916668 96.5 55.916668L106.5 55.916668C107.052284 55.916668 107.5 56.364384 107.5 56.916668L107.5 66.916664C107.5 67.46895 107.052284 67.916664 106.5 67.916664L96.5 67.916664C95.947716 67.916664 95.5 67.46895 95.5 66.916664Z"
     fill-rule="nonzero"
     id="path49" />
  <path
     fill="#1a1a1a"
     d="M116.421875 65.916664L116.421875 57.322914L117.578125 57.322914L122.09375 64.072914L122.09375 57.322914L123.1875 57.322914L123.1875 65.916664L122.015625 65.916664L117.5 59.166664L117.5 65.916664L116.421875 65.916664ZM124.90625 62.80729Q124.90625 61.072914 125.859375 60.24479Q126.65625 59.55729 127.8125 59.55729Q129.09375 59.55729 129.90625 60.40104Q130.73438 61.229164 130.73438 62.71354Q130.73438 63.916664 130.375 64.604164Q130.01562 65.291664 129.3125 65.68229Q128.625 66.05729 127.8125 66.05729Q126.515625 66.05729 125.703125 65.229164Q124.90625 64.385414 124.90625 62.80729ZM125.984375 62.80729Q125.984375 63.99479 126.5 64.58854Q127.03125 65.18229 127.8125 65.18229Q128.60938 65.18229 129.125 64.58854Q129.64062 63.99479 129.64062 62.77604Q129.64062 61.61979 129.10938 61.02604Q128.59375 60.43229 127.8125 60.43229Q127.03125 60.43229 126.5 61.02604Q125.984375 61.604164 125.984375 62.80729ZM132.29688 65.916664L132.29688 59.697914L133.23438 59.697914L133.23438 60.572914Q133.92188 59.55729 135.21875 59.55729Q135.78125 59.55729 136.25 59.760414Q136.73438 59.96354 136.96875 60.291664Q137.20312 60.61979 137.29688 61.05729Q137.34375 61.354164 137.34375 62.08854L137.34375 65.916664L136.29688 65.916664L136.29688 62.135414Q136.29688 61.479164 136.17188 61.166664Q136.04688 60.854164 135.73438 60.666664Q135.42188 60.46354 135.0 60.46354Q134.32812 60.46354 133.82812 60.90104Q133.34375 61.322914 133.34375 62.510414L133.34375 65.916664L132.29688 65.916664ZM138.875 63.33854L138.875 62.27604L142.125 62.27604L142.125 63.33854L138.875 63.33854ZM143.375 65.916664L143.375 57.322914L144.51562 57.322914L144.51562 64.90104L148.75 64.90104L148.75 65.916664L143.375 65.916664ZM150.29688 58.541664L150.29688 57.322914L151.35938 57.322914L151.35938 58.541664L150.29688 58.541664ZM150.29688 65.916664L150.29688 59.697914L151.35938 59.697914L151.35938 65.916664L150.29688 65.916664ZM153.29688 65.916664L153.29688 59.697914L154.23438 59.697914L154.23438 60.572914Q154.92188 59.55729 156.21875 59.55729Q156.78125 59.55729 157.25 59.760414Q157.73438 59.96354 157.96875 60.291664Q158.20312 60.61979 158.29688 61.05729Q158.34375 61.354164 158.34375 62.08854L158.34375 65.916664L157.29688 65.916664L157.29688 62.135414Q157.29688 61.479164 157.17188 61.166664Q157.04688 60.854164 156.73438 60.666664Q156.42188 60.46354 156.0 60.46354Q155.32812 60.46354 154.82812 60.90104Q154.34375 61.322914 154.34375 62.510414L154.34375 65.916664L153.29688 65.916664ZM164.54688 63.916664L165.64062 64.041664Q165.39062 64.99479 164.6875 65.52604Q163.98438 66.05729 162.90625 66.05729Q161.54688 66.05729 160.73438 65.21354Q159.9375 64.36979 159.9375 62.854164Q159.9375 61.291664 160.75 60.43229Q161.5625 59.55729 162.84375 59.55729Q164.09375 59.55729 164.875 60.40104Q165.67188 61.24479 165.67188 62.791664Q165.67188 62.885414 165.67188 63.072914L161.03125 63.072914Q161.09375 64.104164 161.60938 64.65104Q162.125 65.18229 162.90625 65.18229Q163.48438 65.18229 163.89062 64.885414Q164.3125 64.572914 164.54688 63.916664ZM161.09375 62.21354L164.5625 62.21354Q164.5 61.416664 164.17188 61.02604Q163.65625 60.416664 162.85938 60.416664Q162.125 60.416664 161.625 60.90104Q161.14062 61.385414 161.09375 62.21354ZM162.21875 58.916664L163.0 57.27604L164.39062 57.27604L163.09375 58.916664L162.21875 58.916664ZM171.35938 65.15104Q170.76562 65.65104 170.21875 65.854164Q169.6875 66.05729 169.0625 66.05729Q168.03125 66.05729 167.48438 65.55729Q166.9375 65.05729 166.9375 64.27604Q166.9375 63.822914 167.14062 63.447914Q167.34375 63.05729 167.6875 62.83854Q168.03125 62.604164 168.45312 62.49479Q168.75 62.40104 169.39062 62.322914Q170.65625 62.18229 171.26562 61.96354Q171.26562 61.74479 171.26562 61.697914Q171.26562 61.041664 170.96875 60.77604Q170.5625 60.43229 169.76562 60.43229Q169.03125 60.43229 168.67188 60.697914Q168.3125 60.947914 168.14062 61.604164L167.10938 61.46354Q167.25 60.80729 167.57812 60.40104Q167.90625 59.99479 168.51562 59.77604Q169.125 59.55729 169.92188 59.55729Q170.71875 59.55729 171.21875 59.74479Q171.71875 59.93229 171.95312 60.21354Q172.1875 60.49479 172.28125 60.93229Q172.32812 61.197914 172.32812 61.90104L172.32812 63.30729Q172.32812 64.77604 172.39062 65.166664Q172.46875 65.55729 172.67188 65.916664L171.5625 65.916664Q171.40625 65.58854 171.35938 65.15104ZM171.26562 62.791664Q170.6875 63.02604 169.54688 63.197914Q168.89062 63.291664 168.625 63.416664Q168.35938 63.52604 168.20312 63.74479Q168.0625 63.96354 168.0625 64.24479Q168.0625 64.666664 168.375 64.947914Q168.70312 65.229164 169.3125 65.229164Q169.92188 65.229164 170.39062 64.96354Q170.875 64.697914 171.09375 64.229164Q171.26562 63.86979 171.26562 63.18229L171.26562 62.791664ZM174.29688 58.541664L174.29688 57.322914L175.35938 57.322914L175.35938 58.541664L174.29688 58.541664ZM174.29688 65.916664L174.29688 59.697914L175.35938 59.697914L175.35938 65.916664L174.29688 65.916664ZM177.28125 65.916664L177.28125 59.697914L178.23438 59.697914L178.23438 60.635414Q178.59375 59.979164 178.89062 59.77604Q179.20312 59.55729 179.57812 59.55729Q180.10938 59.55729 180.65625 59.885414L180.29688 60.86979Q179.90625 60.635414 179.53125 60.635414Q179.17188 60.635414 178.89062 60.854164Q178.625 61.05729 178.51562 61.43229Q178.32812 61.99479 178.32812 62.65104L178.32812 65.916664L177.28125 65.916664ZM185.54688 63.916664L186.64062 64.041664Q186.39062 64.99479 185.6875 65.52604Q184.98438 66.05729 183.90625 66.05729Q182.54688 66.05729 181.73438 65.21354Q180.9375 64.36979 180.9375 62.854164Q180.9375 61.291664 181.75 60.43229Q182.5625 59.55729 183.84375 59.55729Q185.09375 59.55729 185.875 60.40104Q186.67188 61.24479 186.67188 62.791664Q186.67188 62.885414 186.67188 63.072914L182.03125 63.072914Q182.09375 64.104164 182.60938 64.65104Q183.125 65.18229 183.90625 65.18229Q184.48438 65.18229 184.89062 64.885414Q185.3125 64.572914 185.54688 63.916664ZM182.09375 62.21354L185.5625 62.21354Q185.5 61.416664 185.17188 61.02604Q184.65625 60.416664 183.85938 60.416664Q183.125 60.416664 182.625 60.90104Q182.14062 61.385414 182.09375 62.21354Z"
     fill-rule="nonzero"
     id="path50" />
  <path
     fill="#fbbc04"
     d="M203.5 56.916668C203.5 56.364384 203.94771 55.916668 204.5 55.916668L214.5 55.916668C215.05229 55.916668 215.5 56.364384 215.5 56.916668L215.5 66.916664C215.5 67.46895 215.05229 67.916664 214.5 67.916664L204.5 67.916664C203.94771 67.916664 203.5 67.46895 203.5 66.916664Z"
     fill-rule="nonzero"
     id="path51" />
  <path
     fill="#1a1a1a"
     d="M224.625 65.916664L224.625 57.322914L225.75 57.322914L225.75 65.916664L224.625 65.916664ZM227.29688 65.916664L227.29688 59.697914L228.23438 59.697914L228.23438 60.572914Q228.92188 59.55729 230.21875 59.55729Q230.78125 59.55729 231.25 59.760414Q231.73438 59.96354 231.96875 60.291664Q232.20312 60.61979 232.29688 61.05729Q232.34375 61.354164 232.34375 62.08854L232.34375 65.916664L231.29688 65.916664L231.29688 62.135414Q231.29688 61.479164 231.17188 61.166664Q231.04688 60.854164 230.73438 60.666664Q230.42188 60.46354 230.0 60.46354Q229.32812 60.46354 228.82812 60.90104Q228.34375 61.322914 228.34375 62.510414L228.34375 65.916664L227.29688 65.916664ZM236.59375 64.979164L236.75 65.90104Q236.29688 65.99479 235.95312 65.99479Q235.375 65.99479 235.0625 65.822914Q234.75 65.635414 234.60938 65.33854Q234.48438 65.041664 234.48438 64.08854L234.48438 60.510414L233.71875 60.510414L233.71875 59.697914L234.48438 59.697914L234.48438 58.15104L235.53125 57.52604L235.53125 59.697914L236.59375 59.697914L236.59375 60.510414L235.53125 60.510414L235.53125 64.15104Q235.53125 64.604164 235.57812 64.729164Q235.64062 64.854164 235.76562 64.93229Q235.89062 65.010414 236.125 65.010414Q236.3125 65.010414 236.59375 64.979164ZM241.54688 63.916664L242.64062 64.041664Q242.39062 64.99479 241.6875 65.52604Q240.98438 66.05729 239.90625 66.05729Q238.54688 66.05729 237.73438 65.21354Q236.9375 64.36979 236.9375 62.854164Q236.9375 61.291664 237.75 60.43229Q238.5625 59.55729 239.84375 59.55729Q241.09375 59.55729 241.875 60.40104Q242.67188 61.24479 242.67188 62.791664Q242.67188 62.885414 242.67188 63.072914L238.03125 63.072914Q238.09375 64.104164 238.60938 64.65104Q239.125 65.18229 239.90625 65.18229Q240.48438 65.18229 240.89062 64.885414Q241.3125 64.572914 241.54688 63.916664ZM238.09375 62.21354L241.5625 62.21354Q241.5 61.416664 241.17188 61.02604Q240.65625 60.416664 239.85938 60.416664Q239.125 60.416664 238.625 60.90104Q238.14062 61.385414 238.09375 62.21354ZM244.28125 65.916664L244.28125 59.697914L245.23438 59.697914L245.23438 60.635414Q245.59375 59.979164 245.89062 59.77604Q246.20312 59.55729 246.57812 59.55729Q247.10938 59.55729 247.65625 59.885414L247.29688 60.86979Q246.90625 60.635414 246.53125 60.635414Q246.17188 60.635414 245.89062 60.854164Q245.625 61.05729 245.51562 61.43229Q245.32812 61.99479 245.32812 62.65104L245.32812 65.916664L244.28125 65.916664ZM248.29688 68.30729L248.29688 59.697914L249.25 59.697914L249.25 60.49479Q249.59375 60.02604 250.01562 59.791664Q250.45312 59.55729 251.0625 59.55729Q251.85938 59.55729 252.46875 59.96354Q253.07812 60.36979 253.375 61.11979Q253.6875 61.86979 253.6875 62.760414Q253.6875 63.71354 253.34375 64.479164Q253.01562 65.24479 252.35938 65.65104Q251.70312 66.05729 250.98438 66.05729Q250.45312 66.05729 250.03125 65.83854Q249.60938 65.604164 249.34375 65.27604L249.34375 68.30729L248.29688 68.30729ZM249.25 62.83854Q249.25 64.041664 249.73438 64.61979Q250.21875 65.18229 250.90625 65.18229Q251.60938 65.18229 252.10938 64.58854Q252.60938 63.99479 252.60938 62.74479Q252.60938 61.55729 252.125 60.979164Q251.64062 60.385414 250.95312 60.385414Q250.28125 60.385414 249.76562 61.010414Q249.25 61.635414 249.25 62.83854ZM254.90625 62.80729Q254.90625 61.072914 255.85938 60.24479Q256.65625 59.55729 257.8125 59.55729Q259.09375 59.55729 259.90625 60.40104Q260.73438 61.229164 260.73438 62.71354Q260.73438 63.916664 260.375 64.604164Q260.01562 65.291664 259.3125 65.68229Q258.625 66.05729 257.8125 66.05729Q256.51562 66.05729 255.70312 65.229164Q254.90625 64.385414 254.90625 62.80729ZM255.98438 62.80729Q255.98438 63.99479 256.5 64.58854Q257.03125 65.18229 257.8125 65.18229Q258.60938 65.18229 259.125 64.58854Q259.64062 63.99479 259.64062 62.77604Q259.64062 61.61979 259.10938 61.02604Q258.59375 60.43229 257.8125 60.43229Q257.03125 60.43229 256.5 61.02604Q255.98438 61.604164 255.98438 62.80729ZM262.26562 65.916664L262.26562 57.322914L263.32812 57.322914L263.32812 65.916664L262.26562 65.916664ZM269.35938 65.15104Q268.76562 65.65104 268.21875 65.854164Q267.6875 66.05729 267.0625 66.05729Q266.03125 66.05729 265.48438 65.55729Q264.9375 65.05729 264.9375 64.27604Q264.9375 63.822914 265.14062 63.447914Q265.34375 63.05729 265.6875 62.83854Q266.03125 62.604164 266.45312 62.49479Q266.75 62.40104 267.39062 62.322914Q268.65625 62.18229 269.26562 61.96354Q269.26562 61.74479 269.26562 61.697914Q269.26562 61.041664 268.96875 60.77604Q268.5625 60.43229 267.76562 60.43229Q267.03125 60.43229 266.67188 60.697914Q266.3125 60.947914 266.14062 61.604164L265.10938 61.46354Q265.25 60.80729 265.57812 60.40104Q265.90625 59.99479 266.51562 59.77604Q267.125 59.55729 267.92188 59.55729Q268.71875 59.55729 269.21875 59.74479Q269.71875 59.93229 269.95312 60.21354Q270.1875 60.49479 270.28125 60.93229Q270.32812 61.197914 270.32812 61.90104L270.32812 63.30729Q270.32812 64.77604 270.39062 65.166664Q270.46875 65.55729 270.67188 65.916664L269.5625 65.916664Q269.40625 65.58854 269.35938 65.15104ZM269.26562 62.791664Q268.6875 63.02604 267.54688 63.197914Q266.89062 63.291664 266.625 63.416664Q266.35938 63.52604 266.20312 63.74479Q266.0625 63.96354 266.0625 64.24479Q266.0625 64.666664 266.375 64.947914Q266.70312 65.229164 267.3125 65.229164Q267.92188 65.229164 268.39062 64.96354Q268.875 64.697914 269.09375 64.229164Q269.26562 63.86979 269.26562 63.18229L269.26562 62.791664ZM274.59375 64.979164L274.75 65.90104Q274.29688 65.99479 273.95312 65.99479Q273.375 65.99479 273.0625 65.822914Q272.75 65.635414 272.60938 65.33854Q272.48438 65.041664 272.48438 64.08854L272.48438 60.510414L271.71875 60.510414L271.71875 59.697914L272.48438 59.697914L272.48438 58.15104L273.53125 57.52604L273.53125 59.697914L274.59375 59.697914L274.59375 60.510414L273.53125 60.510414L273.53125 64.15104Q273.53125 64.604164 273.57812 64.729164Q273.64062 64.854164 273.76562 64.93229Q273.89062 65.010414 274.125 65.010414Q274.3125 65.010414 274.59375 64.979164ZM275.29688 58.541664L275.29688 57.322914L276.35938 57.322914L276.35938 58.541664L275.29688 58.541664ZM275.29688 65.916664L275.29688 59.697914L276.35938 59.697914L276.35938 65.916664L275.29688 65.916664ZM277.90625 62.80729Q277.90625 61.072914 278.85938 60.24479Q279.65625 59.55729 280.8125 59.55729Q282.09375 59.55729 282.90625 60.40104Q283.73438 61.229164 283.73438 62.71354Q283.73438 63.916664 283.375 64.604164Q283.01562 65.291664 282.3125 65.68229Q281.625 66.05729 280.8125 66.05729Q279.51562 66.05729 278.70312 65.229164Q277.90625 64.385414 277.90625 62.80729ZM278.98438 62.80729Q278.98438 63.99479 279.5 64.58854Q280.03125 65.18229 280.8125 65.18229Q281.60938 65.18229 282.125 64.58854Q282.64062 63.99479 282.64062 62.77604Q282.64062 61.61979 282.10938 61.02604Q281.59375 60.43229 280.8125 60.43229Q280.03125 60.43229 279.5 61.02604Q278.98438 61.604164 278.98438 62.80729ZM285.29688 65.916664L285.29688 59.697914L286.23438 59.697914L286.23438 60.572914Q286.92188 59.55729 288.21875 59.55729Q288.78125 59.55729 289.25 59.760414Q289.73438 59.96354 289.96875 60.291664Q290.20312 60.61979 290.29688 61.05729Q290.34375 61.354164 290.34375 62.08854L290.34375 65.916664L289.29688 65.916664L289.29688 62.135414Q289.29688 61.479164 289.17188 61.166664Q289.04688 60.854164 288.73438 60.666664Q288.42188 60.46354 288.0 60.46354Q287.32812 60.46354 286.82812 60.90104Q286.34375 61.322914 286.34375 62.510414L286.34375 65.916664L285.29688 65.916664Z"
     fill-rule="nonzero"
     id="path52" />
  <path
     fill="#34a853"
     d="M307.5 56.916668C307.5 56.364384 307.94772 55.916668 308.5 55.916668L318.5 55.916668C319.05228 55.916668 319.5 56.364384 319.5 56.916668L319.5 66.916664C319.5 67.46895 319.05228 67.916664 318.5 67.916664L308.5 67.916664C307.94772 67.916664 307.5 67.46895 307.5 66.916664Z"
     fill-rule="nonzero"
     id="path53" />
  <path
     fill="#1a1a1a"
     d="M328.07812 61.729164Q328.07812 59.58854 329.21875 58.385414Q330.375 57.166664 332.1875 57.166664Q333.39062 57.166664 334.34375 57.74479Q335.29688 58.30729 335.79688 59.322914Q336.29688 60.33854 336.29688 61.635414Q336.29688 62.93229 335.76562 63.96354Q335.23438 64.99479 334.26562 65.52604Q333.3125 66.05729 332.1875 66.05729Q330.96875 66.05729 330.01562 65.479164Q329.0625 64.885414 328.5625 63.885414Q328.07812 62.86979 328.07812 61.729164ZM329.25 61.74479Q329.25 63.30729 330.07812 64.197914Q330.92188 65.08854 332.1875 65.08854Q333.46875 65.08854 334.29688 64.197914Q335.125 63.291664 335.125 61.61979Q335.125 60.572914 334.76562 59.791664Q334.42188 59.010414 333.73438 58.58854Q333.04688 58.15104 332.20312 58.15104Q331.0 58.15104 330.125 58.979164Q329.25 59.80729 329.25 61.74479ZM337.29688 65.916664L337.29688 59.697914L338.23438 59.697914L338.23438 60.572914Q338.92188 59.55729 340.21875 59.55729Q340.78125 59.55729 341.25 59.760414Q341.73438 59.96354 341.96875 60.291664Q342.20312 60.61979 342.29688 61.05729Q342.34375 61.354164 342.34375 62.08854L342.34375 65.916664L341.29688 65.916664L341.29688 62.135414Q341.29688 61.479164 341.17188 61.166664Q341.04688 60.854164 340.73438 60.666664Q340.42188 60.46354 340.0 60.46354Q339.32812 60.46354 338.82812 60.90104Q338.34375 61.322914 338.34375 62.510414L338.34375 65.916664L337.29688 65.916664ZM348.54688 63.916664L349.64062 64.041664Q349.39062 64.99479 348.6875 65.52604Q347.98438 66.05729 346.90625 66.05729Q345.54688 66.05729 344.73438 65.21354Q343.9375 64.36979 343.9375 62.854164Q343.9375 61.291664 344.75 60.43229Q345.5625 59.55729 346.84375 59.55729Q348.09375 59.55729 348.875 60.40104Q349.67188 61.24479 349.67188 62.791664Q349.67188 62.885414 349.67188 63.072914L345.03125 63.072914Q345.09375 64.104164 345.60938 64.65104Q346.125 65.18229 346.90625 65.18229Q347.48438 65.18229 347.89062 64.885414Q348.3125 64.572914 348.54688 63.916664ZM345.09375 62.21354L348.5625 62.21354Q348.5 61.416664 348.17188 61.02604Q347.65625 60.416664 346.85938 60.416664Q346.125 60.416664 345.625 60.90104Q345.14062 61.385414 345.09375 62.21354ZM350.875 63.33854L350.875 62.27604L354.125 62.27604L354.125 63.33854L350.875 63.33854ZM357.60938 65.916664L357.60938 58.33854L354.78125 58.33854L354.78125 57.322914L361.59375 57.322914L361.59375 58.33854L358.75 58.33854L358.75 65.916664L357.60938 65.916664ZM361.90625 62.80729Q361.90625 61.072914 362.85938 60.24479Q363.65625 59.55729 364.8125 59.55729Q366.09375 59.55729 366.90625 60.40104Q367.73438 61.229164 367.73438 62.71354Q367.73438 63.916664 367.375 64.604164Q367.01562 65.291664 366.3125 65.68229Q365.625 66.05729 364.8125 66.05729Q363.51562 66.05729 362.70312 65.229164Q361.90625 64.385414 361.90625 62.80729ZM362.98438 62.80729Q362.98438 63.99479 363.5 64.58854Q364.03125 65.18229 364.8125 65.18229Q365.60938 65.18229 366.125 64.58854Q366.64062 63.99479 366.64062 62.77604Q366.64062 61.61979 366.10938 61.02604Q365.59375 60.43229 364.8125 60.43229Q364.03125 60.43229 363.5 61.02604Q362.98438 61.604164 362.98438 62.80729ZM368.875 63.33854L368.875 62.27604L372.125 62.27604L372.125 63.33854L368.875 63.33854ZM373.39062 65.916664L373.39062 57.322914L375.10938 57.322914L377.14062 63.40104Q377.42188 64.260414 377.54688 64.68229Q377.6875 64.21354 378.0 63.30729L380.0625 57.322914L381.59375 57.322914L381.59375 65.916664L380.5 65.916664L380.5 58.729164L378.0 65.916664L376.96875 65.916664L374.48438 58.604164L374.48438 65.916664L373.39062 65.916664ZM386.35938 65.15104Q385.76562 65.65104 385.21875 65.854164Q384.6875 66.05729 384.0625 66.05729Q383.03125 66.05729 382.48438 65.55729Q381.9375 65.05729 381.9375 64.27604Q381.9375 63.822914 382.14062 63.447914Q382.34375 63.05729 382.6875 62.83854Q383.03125 62.604164 383.45312 62.49479Q383.75 62.40104 384.39062 62.322914Q385.65625 62.18229 386.26562 61.96354Q386.26562 61.74479 386.26562 61.697914Q386.26562 61.041664 385.96875 60.77604Q385.5625 60.43229 384.76562 60.43229Q384.03125 60.43229 383.67188 60.697914Q383.3125 60.947914 383.14062 61.604164L382.10938 61.46354Q382.25 60.80729 382.57812 60.40104Q382.90625 59.99479 383.51562 59.77604Q384.125 59.55729 384.92188 59.55729Q385.71875 59.55729 386.21875 59.74479Q386.71875 59.93229 386.95312 60.21354Q387.1875 60.49479 387.28125 60.93229Q387.32812 61.197914 387.32812 61.90104L387.32812 63.30729Q387.32812 64.77604 387.39062 65.166664Q387.46875 65.55729 387.67188 65.916664L386.5625 65.916664Q386.40625 65.58854 386.35938 65.15104ZM386.26562 62.791664Q385.6875 63.02604 384.54688 63.197914Q383.89062 63.291664 383.625 63.416664Q383.35938 63.52604 383.20312 63.74479Q383.0625 63.96354 383.0625 64.24479Q383.0625 64.666664 383.375 64.947914Q383.70312 65.229164 384.3125 65.229164Q384.92188 65.229164 385.39062 64.96354Q385.875 64.697914 386.09375 64.229164Q386.26562 63.86979 386.26562 63.18229L386.26562 62.791664ZM389.29688 65.916664L389.29688 59.697914L390.23438 59.697914L390.23438 60.572914Q390.92188 59.55729 392.21875 59.55729Q392.78125 59.55729 393.25 59.760414Q393.73438 59.96354 393.96875 60.291664Q394.20312 60.61979 394.29688 61.05729Q394.34375 61.354164 394.34375 62.08854L394.34375 65.916664L393.29688 65.916664L393.29688 62.135414Q393.29688 61.479164 393.17188 61.166664Q393.04688 60.854164 392.73438 60.666664Q392.42188 60.46354 392.0 60.46354Q391.32812 60.46354 390.82812 60.90104Q390.34375 61.322914 390.34375 62.510414L390.34375 65.916664L389.29688 65.916664ZM396.25 68.30729L396.125 67.322914Q396.46875 67.416664 396.73438 67.416664Q397.07812 67.416664 397.28125 67.291664Q397.5 67.18229 397.64062 66.979164Q397.73438 66.80729 397.96875 66.18229Q397.98438 66.104164 398.0625 65.93229L395.6875 59.697914L396.82812 59.697914L398.125 63.291664Q398.375 63.979164 398.57812 64.74479Q398.76562 64.010414 399.01562 63.322914L400.34375 59.697914L401.39062 59.697914L399.03125 66.02604Q398.64062 67.041664 398.4375 67.43229Q398.15625 67.96354 397.78125 68.197914Q397.42188 68.447914 396.92188 68.447914Q396.625 68.447914 396.25 68.30729Z"
     fill-rule="nonzero"
     id="path54" />
  <path
     fill="#ea4335"
     d="M416.5 56.916668C416.5 56.364384 416.94772 55.916668 417.5 55.916668L427.5 55.916668C428.05228 55.916668 428.5 56.364384 428.5 56.916668L428.5 66.916664C428.5 67.46895 428.05228 67.916664 427.5 67.916664L417.5 67.916664C416.94772 67.916664 416.5 67.46895 416.5 66.916664Z"
     fill-rule="nonzero"
     id="path55" />
  <path
     fill="#1a1a1a"
     d="M437.07812 61.729164Q437.07812 59.58854 438.21875 58.385414Q439.375 57.166664 441.1875 57.166664Q442.39062 57.166664 443.34375 57.74479Q444.29688 58.30729 444.79688 59.322914Q445.29688 60.33854 445.29688 61.635414Q445.29688 62.93229 444.76562 63.96354Q444.23438 64.99479 443.26562 65.52604Q442.3125 66.05729 441.1875 66.05729Q439.96875 66.05729 439.01562 65.479164Q438.0625 64.885414 437.5625 63.885414Q437.07812 62.86979 437.07812 61.729164ZM438.25 61.74479Q438.25 63.30729 439.07812 64.197914Q439.92188 65.08854 441.1875 65.08854Q442.46875 65.08854 443.29688 64.197914Q444.125 63.291664 444.125 61.61979Q444.125 60.572914 443.76562 59.791664Q443.42188 59.010414 442.73438 58.58854Q442.04688 58.15104 441.20312 58.15104Q440.0 58.15104 439.125 58.979164Q438.25 59.80729 438.25 61.74479ZM446.29688 65.916664L446.29688 59.697914L447.23438 59.697914L447.23438 60.572914Q447.92188 59.55729 449.21875 59.55729Q449.78125 59.55729 450.25 59.760414Q450.73438 59.96354 450.96875 60.291664Q451.20312 60.61979 451.29688 61.05729Q451.34375 61.354164 451.34375 62.08854L451.34375 65.916664L450.29688 65.916664L450.29688 62.135414Q450.29688 61.479164 450.17188 61.166664Q450.04688 60.854164 449.73438 60.666664Q449.42188 60.46354 449.0 60.46354Q448.32812 60.46354 447.82812 60.90104Q447.34375 61.322914 447.34375 62.510414L447.34375 65.916664L446.29688 65.916664ZM457.54688 63.916664L458.64062 64.041664Q458.39062 64.99479 457.6875 65.52604Q456.98438 66.05729 455.90625 66.05729Q454.54688 66.05729 453.73438 65.21354Q452.9375 64.36979 452.9375 62.854164Q452.9375 61.291664 453.75 60.43229Q454.5625 59.55729 455.84375 59.55729Q457.09375 59.55729 457.875 60.40104Q458.67188 61.24479 458.67188 62.791664Q458.67188 62.885414 458.67188 63.072914L454.03125 63.072914Q454.09375 64.104164 454.60938 64.65104Q455.125 65.18229 455.90625 65.18229Q456.48438 65.18229 456.89062 64.885414Q457.3125 64.572914 457.54688 63.916664ZM454.09375 62.21354L457.5625 62.21354Q457.5 61.416664 457.17188 61.02604Q456.65625 60.416664 455.85938 60.416664Q455.125 60.416664 454.625 60.90104Q454.14062 61.385414 454.09375 62.21354ZM459.875 63.33854L459.875 62.27604L463.125 62.27604L463.125 63.33854L459.875 63.33854ZM466.60938 65.916664L466.60938 58.33854L463.78125 58.33854L463.78125 57.322914L470.59375 57.322914L470.59375 58.33854L467.75 58.33854L467.75 65.916664L466.60938 65.916664ZM470.90625 62.80729Q470.90625 61.072914 471.85938 60.24479Q472.65625 59.55729 473.8125 59.55729Q475.09375 59.55729 475.90625 60.40104Q476.73438 61.229164 476.73438 62.71354Q476.73438 63.916664 476.375 64.604164Q476.01562 65.291664 475.3125 65.68229Q474.625 66.05729 473.8125 66.05729Q472.51562 66.05729 471.70312 65.229164Q470.90625 64.385414 470.90625 62.80729ZM471.98438 62.80729Q471.98438 63.99479 472.5 64.58854Q473.03125 65.18229 473.8125 65.18229Q474.60938 65.18229 475.125 64.58854Q475.64062 63.99479 475.64062 62.77604Q475.64062 61.61979 475.10938 61.02604Q474.59375 60.43229 473.8125 60.43229Q473.03125 60.43229 472.5 61.02604Q471.98438 61.604164 471.98438 62.80729ZM477.875 63.33854L477.875 62.27604L481.125 62.27604L481.125 63.33854L477.875 63.33854ZM482.07812 61.729164Q482.07812 59.58854 483.21875 58.385414Q484.375 57.166664 486.1875 57.166664Q487.39062 57.166664 488.34375 57.74479Q489.29688 58.30729 489.79688 59.322914Q490.29688 60.33854 490.29688 61.635414Q490.29688 62.93229 489.76562 63.96354Q489.23438 64.99479 488.26562 65.52604Q487.3125 66.05729 486.1875 66.05729Q484.96875 66.05729 484.01562 65.479164Q483.0625 64.885414 482.5625 63.885414Q482.07812 62.86979 482.07812 61.729164ZM483.25 61.74479Q483.25 63.30729 484.07812 64.197914Q484.92188 65.08854 486.1875 65.08854Q487.46875 65.08854 488.29688 64.197914Q489.125 63.291664 489.125 61.61979Q489.125 60.572914 488.76562 59.791664Q488.42188 59.010414 487.73438 58.58854Q487.04688 58.15104 486.20312 58.15104Q485.0 58.15104 484.125 58.979164Q483.25 59.80729 483.25 61.74479ZM491.29688 65.916664L491.29688 59.697914L492.23438 59.697914L492.23438 60.572914Q492.92188 59.55729 494.21875 59.55729Q494.78125 59.55729 495.25 59.760414Q495.73438 59.96354 495.96875 60.291664Q496.20312 60.61979 496.29688 61.05729Q496.34375 61.354164 496.34375 62.08854L496.34375 65.916664L495.29688 65.916664L495.29688 62.135414Q495.29688 61.479164 495.17188 61.166664Q495.04688 60.854164 494.73438 60.666664Q494.42188 60.46354 494.0 60.46354Q493.32812 60.46354 492.82812 60.90104Q492.34375 61.322914 492.34375 62.510414L492.34375 65.916664L491.29688 65.916664ZM502.54688 63.916664L503.64062 64.041664Q503.39062 64.99479 502.6875 65.52604Q501.98438 66.05729 500.90625 66.05729Q499.54688 66.05729 498.73438 65.21354Q497.9375 64.36979 497.9375 62.854164Q497.9375 61.291664 498.75 60.43229Q499.5625 59.55729 500.84375 59.55729Q502.09375 59.55729 502.875 60.40104Q503.67188 61.24479 503.67188 62.791664Q503.67188 62.885414 503.67188 63.072914L499.03125 63.072914Q499.09375 64.104164 499.60938 64.65104Q500.125 65.18229 500.90625 65.18229Q501.48438 65.18229 501.89062 64.885414Q502.3125 64.572914 502.54688 63.916664ZM499.09375 62.21354L502.5625 62.21354Q502.5 61.416664 502.17188 61.02604Q501.65625 60.416664 500.85938 60.416664Q500.125 60.416664 499.625 60.90104Q499.14062 61.385414 499.09375 62.21354Z"
     fill-rule="nonzero"
     id="path56"
     inkscape:export-filename="png/persocroise.png"
     inkscape:export-xdpi="300"
     inkscape:export-ydpi="300" />
</svg>
