<?xml version="1.0" encoding="UTF-8" standalone="no"?>
<svg
   version="1.1"
   viewBox="0.0 0.0 550.0 204.0"
   fill="none"
   stroke="none"
   stroke-linecap="square"
   stroke-miterlimit="10"
   width="550"
   height="204"
   id="svg32"
   sodipodi:docname="compo perso.svg"
   inkscape:version="1.3 (0e150ed, 2023-07-21)"
   xmlns:inkscape="http://www.inkscape.org/namespaces/inkscape"
   xmlns:sodipodi="http://sodipodi.sourceforge.net/DTD/sodipodi-0.dtd"
   xmlns="http://www.w3.org/2000/svg"
   xmlns:svg="http://www.w3.org/2000/svg">
  <defs
     id="defs32" />
  <sodipodi:namedview
     id="namedview32"
     pagecolor="#ffffff"
     bordercolor="#000000"
     borderopacity="0.25"
     inkscape:showpageshadow="2"
     inkscape:pageopacity="0.0"
     inkscape:pagecheckerboard="0"
     inkscape:deskcolor="#d1d1d1"
     inkscape:zoom="0.42909091"
     inkscape:cx="276.16525"
     inkscape:cy="102.54237"
     inkscape:window-width="1312"
     inkscape:window-height="449"
     inkscape:window-x="0"
     inkscape:window-y="32"
     inkscape:window-maximized="0"
     inkscape:current-layer="svg32" />
  <path
     stroke="#333333"
     stroke-width="1.0"
     stroke-linecap="butt"
     d="M37.5 173.5L539.5 173.5"
     fill-rule="nonzero"
     id="path2" />
  <path
     stroke="#cccccc"
     stroke-width="1.0"
     stroke-linecap="butt"
     d="M37.5 134.5L539.5 134.5"
     fill-rule="nonzero"
     id="path3" />
  <path
     stroke="#cccccc"
     stroke-width="1.0"
     stroke-linecap="butt"
     d="M37.5 95.5L539.5 95.5"
     fill-rule="nonzero"
     id="path4" />
  <path
     stroke="#cccccc"
     stroke-width="1.0"
     stroke-linecap="butt"
     d="M37.5 56.5L539.5 56.5"
     fill-rule="nonzero"
     id="path5" />
  <path
     stroke="#cccccc"
     stroke-width="1.0"
     stroke-linecap="butt"
     d="M37.5 17.5L539.5 17.5"
     fill-rule="nonzero"
     id="path6" />
  <clipPath
     id="id_0">
    <path
       d="M37.2 17.2L539.8 17.2L539.8 173.8L37.2 173.8L37.2 17.2Z"
       clip-rule="nonzero"
       id="path7" />
  </clipPath>
  <path
     stroke="#000000"
     stroke-width="2.0"
     stroke-linecap="butt"
     stroke-opacity="0.0"
     clip-path="url(#id_0)"
     d="M153.0 174.0L78.0 174.0L78.0 66.0C78.0 64.89543 78.89543 64.0 80.0 64.0L151.0 64.0C152.10457 64.0 153.0 64.89543 153.0 66.0Z"
     fill-rule="nonzero"
     id="path8" />
  <path
     fill="#ea4335"
     clip-path="url(#id_0)"
     d="M153.0 174.0L78.0 174.0L78.0 66.0C78.0 64.89543 78.89543 64.0 80.0 64.0L151.0 64.0C152.10457 64.0 153.0 64.89543 153.0 66.0Z"
     fill-rule="nonzero"
     id="path9" />
  <path
     stroke="#000000"
     stroke-width="2.0"
     stroke-linecap="butt"
     stroke-opacity="0.0"
     clip-path="url(#id_0)"
     d="M269.0 174.0L194.0 174.0L194.0 66.0C194.0 64.89543 194.89543 64.0 196.0 64.0L267.0 64.0C268.10458 64.0 269.0 64.89543 269.0 66.0Z"
     fill-rule="nonzero"
     id="path10" />
  <path
     fill="#34a853"
     clip-path="url(#id_0)"
     d="M269.0 174.0L194.0 174.0L194.0 66.0C194.0 64.89543 194.89543 64.0 196.0 64.0L267.0 64.0C268.10458 64.0 269.0 64.89543 269.0 66.0Z"
     fill-rule="nonzero"
     id="path11" />
  <path
     stroke="#000000"
     stroke-width="2.0"
     stroke-linecap="butt"
     stroke-opacity="0.0"
     clip-path="url(#id_0)"
     d="M384.0 174.0L309.0 174.0L309.0 51.0C309.0 49.89543 309.89542 49.0 311.0 49.0L382.0 49.0C383.10458 49.0 384.0 49.89543 384.0 51.0Z"
     fill-rule="nonzero"
     id="path12" />
  <path
     fill="#fbbc04"
     clip-path="url(#id_0)"
     d="M384.0 174.0L309.0 174.0L309.0 51.0C309.0 49.89543 309.89542 49.0 311.0 49.0L382.0 49.0C383.10458 49.0 384.0 49.89543 384.0 51.0Z"
     fill-rule="nonzero"
     id="path13" />
  <path
     stroke="#000000"
     stroke-width="2.0"
     stroke-linecap="butt"
     stroke-opacity="0.0"
     clip-path="url(#id_0)"
     d="M500.0 174.0L425.0 174.0L425.0 90.0C425.0 88.89543 425.89542 88.0 427.0 88.0L498.0 88.0C499.10458 88.0 500.0 88.89543 500.0 90.0Z"
     fill-rule="nonzero"
     id="path14" />
  <path
     fill="#4285f4"
     clip-path="url(#id_0)"
     d="M500.0 174.0L425.0 174.0L425.0 90.0C425.0 88.89543 425.89542 88.0 427.0 88.0L498.0 88.0C499.10458 88.0 500.0 88.89543 500.0 90.0Z"
     fill-rule="nonzero"
     id="path15" />
  <path
     stroke="#ea4335"
     stroke-width="3.0"
     stroke-linejoin="round"
     stroke-linecap="round"
     d="M112.265625 80.98L111.1875 80.98L111.1875 73.76125L109.0 74.55813L109.0 73.57375L112.109375 72.40188L112.265625 72.40188L112.265625 80.98ZM120.28125 78.12063L121.46875 78.12063L121.46875 78.99563L120.28125 78.99563L120.28125 80.98L119.203125 80.98L119.203125 78.99563L115.3125 78.99563L115.3125 78.355L119.125 72.44875L120.28125 72.44875L120.28125 78.12063ZM116.546875 78.12063L119.203125 78.12063L119.203125 73.93313L119.0625 74.1675L116.546875 78.12063Z"
     fill-rule="nonzero"
     id="path16" />
  <path
     fill="#ffffff"
     d="M112.265625 80.98L111.1875 80.98L111.1875 73.76125L109.0 74.55813L109.0 73.57375L112.109375 72.40188L112.265625 72.40188L112.265625 80.98ZM120.28125 78.12063L121.46875 78.12063L121.46875 78.99563L120.28125 78.99563L120.28125 80.98L119.203125 80.98L119.203125 78.99563L115.3125 78.99563L115.3125 78.355L119.125 72.44875L120.28125 72.44875L120.28125 78.12063ZM116.546875 78.12063L119.203125 78.12063L119.203125 73.93313L119.0625 74.1675L116.546875 78.12063Z"
     fill-rule="nonzero"
     id="path17" />
  <path
     stroke="#34a853"
     stroke-width="3.0"
     stroke-linejoin="round"
     stroke-linecap="round"
     d="M228.26562 80.98L227.1875 80.98L227.1875 73.76125L225.0 74.55813L225.0 73.57375L228.10938 72.40188L228.26562 72.40188L228.26562 80.98ZM236.28125 78.12063L237.46875 78.12063L237.46875 78.99563L236.28125 78.99563L236.28125 80.98L235.20312 80.98L235.20312 78.99563L231.3125 78.99563L231.3125 78.355L235.125 72.44875L236.28125 72.44875L236.28125 78.12063ZM232.54688 78.12063L235.20312 78.12063L235.20312 73.93313L235.0625 74.1675L232.54688 78.12063Z"
     fill-rule="nonzero"
     id="path18" />
  <path
     fill="#ffffff"
     d="M228.26562 80.98L227.1875 80.98L227.1875 73.76125L225.0 74.55813L225.0 73.57375L228.10938 72.40188L228.26562 72.40188L228.26562 80.98ZM236.28125 78.12063L237.46875 78.12063L237.46875 78.99563L236.28125 78.99563L236.28125 80.98L235.20312 80.98L235.20312 78.99563L231.3125 78.99563L231.3125 78.355L235.125 72.44875L236.28125 72.44875L236.28125 78.12063ZM232.54688 78.12063L235.20312 78.12063L235.20312 73.93313L235.0625 74.1675L232.54688 78.12063Z"
     fill-rule="nonzero"
     id="path19" />
  <path
     stroke="#fbbc04"
     stroke-width="3.0"
     stroke-linejoin="round"
     stroke-linecap="round"
     d="M343.26562 65.32L342.1875 65.32L342.1875 58.10125L340.0 58.898125L340.0 57.91375L343.10938 56.741875L343.26562 56.741875L343.26562 65.32ZM350.96875 56.78875L350.96875 57.695L350.76562 57.695Q349.5 57.72625 348.75 58.460625Q348.0 59.179375 347.875 60.491875Q348.5625 59.72625 349.71875 59.72625Q350.82812 59.72625 351.5 60.5075Q352.17188 61.28875 352.17188 62.53875Q352.17188 63.85125 351.45312 64.648125Q350.73438 65.445 349.51562 65.445Q348.29688 65.445 347.53125 64.5075Q346.78125 63.554375 346.78125 62.07L346.78125 61.66375Q346.78125 59.304375 347.78125 58.054375Q348.78125 56.804375 350.76562 56.78875L350.96875 56.78875ZM349.54688 60.6325Q348.98438 60.6325 348.51562 60.960625Q348.04688 61.28875 347.85938 61.804375L347.85938 62.195Q347.85938 63.2575 348.32812 63.898125Q348.8125 64.53875 349.51562 64.53875Q350.25 64.53875 350.67188 64.0075Q351.09375 63.460625 351.09375 62.585625Q351.09375 61.710625 350.67188 61.179375Q350.25 60.6325 349.54688 60.6325Z"
     fill-rule="nonzero"
     id="path20" />
  <path
     fill="#000000"
     d="M343.26562 65.32L342.1875 65.32L342.1875 58.10125L340.0 58.898125L340.0 57.91375L343.10938 56.741875L343.26562 56.741875L343.26562 65.32ZM350.96875 56.78875L350.96875 57.695L350.76562 57.695Q349.5 57.72625 348.75 58.460625Q348.0 59.179375 347.875 60.491875Q348.5625 59.72625 349.71875 59.72625Q350.82812 59.72625 351.5 60.5075Q352.17188 61.28875 352.17188 62.53875Q352.17188 63.85125 351.45312 64.648125Q350.73438 65.445 349.51562 65.445Q348.29688 65.445 347.53125 64.5075Q346.78125 63.554375 346.78125 62.07L346.78125 61.66375Q346.78125 59.304375 347.78125 58.054375Q348.78125 56.804375 350.76562 56.78875L350.96875 56.78875ZM349.54688 60.6325Q348.98438 60.6325 348.51562 60.960625Q348.04688 61.28875 347.85938 61.804375L347.85938 62.195Q347.85938 63.2575 348.32812 63.898125Q348.8125 64.53875 349.51562 64.53875Q350.25 64.53875 350.67188 64.0075Q351.09375 63.460625 351.09375 62.585625Q351.09375 61.710625 350.67188 61.179375Q350.25 60.6325 349.54688 60.6325Z"
     fill-rule="nonzero"
     id="path21" />
  <path
     stroke="#4285f4"
     stroke-width="3.0"
     stroke-linejoin="round"
     stroke-linecap="round"
     d="M459.26562 104.47L458.1875 104.47L458.1875 97.25125L456.0 98.04813L456.0 97.06375L459.10938 95.89188L459.26562 95.89188L459.26562 104.47ZM466.26562 104.47L465.1875 104.47L465.1875 97.25125L463.0 98.04813L463.0 97.06375L466.10938 95.89188L466.26562 95.89188L466.26562 104.47Z"
     fill-rule="nonzero"
     id="path22" />
  <path
     fill="#ffffff"
     d="M459.26562 104.47L458.1875 104.47L458.1875 97.25125L456.0 98.04813L456.0 97.06375L459.10938 95.89188L459.26562 95.89188L459.26562 104.47ZM466.26562 104.47L465.1875 104.47L465.1875 97.25125L463.0 98.04813L463.0 97.06375L466.10938 95.89188L466.26562 95.89188L466.26562 104.47Z"
     fill-rule="nonzero"
     id="path23" />
  <path
     fill="#000000"
     d="M24.7 173.56563Q24.7 172.03438 25.0125 171.1125Q25.325 170.175 25.934376 169.675Q26.559376 169.175 27.496876 169.175Q28.184376 169.175 28.7 169.45625Q29.23125 169.7375 29.575 170.26875Q29.91875 170.78438 30.10625 171.53438Q30.29375 172.28438 30.29375 173.56563Q30.29375 175.08125 29.98125 176.00313Q29.684376 176.925 29.059376 177.44063Q28.45 177.94063 27.496876 177.94063Q26.2625 177.94063 25.54375 177.05Q24.7 175.9875 24.7 173.56563ZM25.778126 173.56563Q25.778126 175.675 26.278126 176.37813Q26.778126 177.08125 27.496876 177.08125Q28.23125 177.08125 28.715626 176.37813Q29.215626 175.675 29.215626 173.56563Q29.215626 171.44063 28.715626 170.75313Q28.23125 170.05 27.48125 170.05Q26.7625 170.05 26.325 170.65938Q25.778126 171.44063 25.778126 173.56563Z"
     fill-rule="nonzero"
     id="path24" />
  <path
     fill="#000000"
     d="M24.7 136.4L25.809376 136.30624Q25.934376 137.11874 26.371876 137.525Q26.825 137.93124 27.465626 137.93124Q28.215626 137.93124 28.746876 137.35312Q29.278126 136.775 29.278126 135.8375Q29.278126 134.93124 28.7625 134.41562Q28.2625 133.88437 27.434376 133.88437Q26.934376 133.88437 26.5125 134.11874Q26.10625 134.35312 25.871876 134.7125L24.8875 134.5875L25.715626 130.18124L29.996876 130.18124L29.996876 131.18124L26.559376 131.18124L26.10625 133.49374Q26.871876 132.94687 27.715626 132.94687Q28.840626 132.94687 29.60625 133.72812Q30.3875 134.50937 30.3875 135.74374Q30.3875 136.9 29.715626 137.75937Q28.8875 138.79062 27.465626 138.79062Q26.29375 138.79062 25.54375 138.13437Q24.809376 137.47812 24.7 136.4Z"
     fill-rule="nonzero"
     id="path25" />
  <path
     fill="#000000"
     d="M21.66875 99.5L20.621876 99.5L20.621876 92.78125Q20.23125 93.140625 19.60625 93.515625Q18.996876 93.875 18.5125 94.046875L18.5125 93.03125Q19.3875 92.609375 20.04375 92.03125Q20.715626 91.4375 20.996876 90.875L21.66875 90.875L21.66875 99.5ZM24.7 95.265625Q24.7 93.734375 25.0125 92.8125Q25.325 91.875 25.934376 91.375Q26.559376 90.875 27.496876 90.875Q28.184376 90.875 28.7 91.15625Q29.23125 91.4375 29.575 91.96875Q29.91875 92.484375 30.10625 93.234375Q30.29375 93.984375 30.29375 95.265625Q30.29375 96.78125 29.98125 97.703125Q29.684376 98.625 29.059376 99.140625Q28.45 99.640625 27.496876 99.640625Q26.2625 99.640625 25.54375 98.75Q24.7 97.6875 24.7 95.265625ZM25.778126 95.265625Q25.778126 97.375 26.278126 98.078125Q26.778126 98.78125 27.496876 98.78125Q28.23125 98.78125 28.715626 98.078125Q29.215626 97.375 29.215626 95.265625Q29.215626 93.140625 28.715626 92.453125Q28.23125 91.75 27.48125 91.75Q26.7625 91.75 26.325 92.359375Q25.778126 93.140625 25.778126 95.265625Z"
     fill-rule="nonzero"
     id="path26" />
  <path
     fill="#000000"
     d="M21.66875 60.35L20.621876 60.35L20.621876 53.63125Q20.23125 53.990623 19.60625 54.365623Q18.996876 54.725 18.5125 54.896873L18.5125 53.88125Q19.3875 53.459373 20.04375 52.88125Q20.715626 52.2875 20.996876 51.725L21.66875 51.725L21.66875 60.35ZM24.7 58.1L25.809376 58.00625Q25.934376 58.81875 26.371876 59.225Q26.825 59.63125 27.465626 59.63125Q28.215626 59.63125 28.746876 59.053123Q29.278126 58.475 29.278126 57.5375Q29.278126 56.63125 28.7625 56.115623Q28.2625 55.584373 27.434376 55.584373Q26.934376 55.584373 26.5125 55.81875Q26.10625 56.053123 25.871876 56.4125L24.8875 56.2875L25.715626 51.88125L29.996876 51.88125L29.996876 52.88125L26.559376 52.88125L26.10625 55.19375Q26.871876 54.646873 27.715626 54.646873Q28.840626 54.646873 29.60625 55.428123Q30.3875 56.209373 30.3875 57.44375Q30.3875 58.6 29.715626 59.459373Q28.8875 60.490623 27.465626 60.490623Q26.29375 60.490623 25.54375 59.834373Q24.809376 59.178123 24.7 58.1Z"
     fill-rule="nonzero"
     id="path27" />
  <path
     fill="#000000"
     d="M23.246876 20.184376L23.246876 21.2L17.559376 21.2Q17.559376 20.825 17.684376 20.465626Q17.903126 19.8875 18.371876 19.325Q18.85625 18.7625 19.7625 18.028126Q21.16875 16.871876 21.653126 16.2Q22.153126 15.528126 22.153126 14.934376Q22.153126 14.309376 21.7 13.887501Q21.246876 13.450001 20.528126 13.450001Q19.7625 13.450001 19.309376 13.903126Q18.85625 14.356251 18.840626 15.168751L17.7625 15.059376Q17.871876 13.840626 18.590626 13.215626Q19.325 12.575001 20.559376 12.575001Q21.79375 12.575001 22.5125 13.262501Q23.23125 13.950001 23.23125 14.965626Q23.23125 15.481251 23.0125 15.981251Q22.809376 16.465626 22.309376 17.028126Q21.825 17.575 20.7 18.528126Q19.746876 19.325 19.465626 19.621876Q19.2 19.903126 19.028126 20.184376L23.246876 20.184376ZM24.7 16.965626Q24.7 15.434376 25.0125 14.512501Q25.325 13.575001 25.934376 13.075001Q26.559376 12.575001 27.496876 12.575001Q28.184376 12.575001 28.7 12.856251Q29.23125 13.137501 29.575 13.668751Q29.91875 14.184376 30.10625 14.934376Q30.29375 15.684376 30.29375 16.965626Q30.29375 18.48125 29.98125 19.403126Q29.684376 20.325 29.059376 20.840626Q28.45 21.340626 27.496876 21.340626Q26.2625 21.340626 25.54375 20.45Q24.7 19.3875 24.7 16.965626ZM25.778126 16.965626Q25.778126 19.075 26.278126 19.778126Q26.778126 20.48125 27.496876 20.48125Q28.23125 20.48125 28.715626 19.778126Q29.215626 19.075 29.215626 16.965626Q29.215626 14.840626 28.715626 14.153126Q28.23125 13.450001 27.48125 13.450001Q26.7625 13.450001 26.325 14.059376Q25.778126 14.840626 25.778126 16.965626Z"
     fill-rule="nonzero"
     id="path28" />
  <path
     fill="#000000"
     d="M85.5959 187.69063Q85.5959 185.95625 86.54903 185.12813Q87.3459 184.44063 88.50215 184.44063Q89.7834 184.44063 90.5959 185.28438Q91.42403 186.1125 91.42403 187.59688Q91.42403 188.8 91.06465 189.4875Q90.70528 190.175 90.00215 190.56563Q89.31465 190.94063 88.50215 190.94063Q87.20528 190.94063 86.39278 190.1125Q85.5959 189.26875 85.5959 187.69063ZM86.67403 187.69063Q86.67403 188.87813 87.18965 189.47188Q87.7209 190.06563 88.50215 190.06563Q89.29903 190.06563 89.81465 189.47188Q90.33028 188.87813 90.33028 187.65938Q90.33028 186.50313 89.79903 185.90938Q89.2834 185.31563 88.50215 185.31563Q87.7209 185.31563 87.18965 185.90938Q86.67403 186.4875 86.67403 187.69063ZM92.98653 190.8L92.98653 184.58125L93.92403 184.58125L93.92403 185.45625Q94.61153 184.44063 95.9084 184.44063Q96.4709 184.44063 96.93965 184.64375Q97.42403 184.84688 97.6584 185.175Q97.89278 185.50313 97.98653 185.94063Q98.0334 186.2375 98.0334 186.97188L98.0334 190.8L96.98653 190.8L96.98653 187.01875Q96.98653 186.3625 96.86153 186.05Q96.73653 185.7375 96.42403 185.55Q96.11153 185.34688 95.68965 185.34688Q95.01778 185.34688 94.51778 185.78438Q94.0334 186.20625 94.0334 187.39375L94.0334 190.8L92.98653 190.8ZM104.23653 188.8L105.33028 188.925Q105.08028 189.87813 104.37715 190.40938Q103.67403 190.94063 102.5959 190.94063Q101.23653 190.94063 100.42403 190.09688Q99.62715 189.25313 99.62715 187.7375Q99.62715 186.175 100.43965 185.31563Q101.25215 184.44063 102.5334 184.44063Q103.7834 184.44063 104.56465 185.28438Q105.36153 186.12813 105.36153 187.675Q105.36153 187.76875 105.36153 187.95625L100.7209 187.95625Q100.7834 188.9875 101.29903 189.53438Q101.81465 190.06563 102.5959 190.06563Q103.17403 190.06563 103.58028 189.76875Q104.00215 189.45625 104.23653 188.8ZM100.7834 187.09688L104.25215 187.09688Q104.18965 186.3 103.86153 185.90938Q103.3459 185.3 102.54903 185.3Q101.81465 185.3 101.31465 185.78438Q100.83028 186.26875 100.7834 187.09688ZM106.56465 188.22188L106.56465 187.15938L109.81465 187.15938L109.81465 188.22188L106.56465 188.22188ZM113.2834 189.8625L113.43965 190.78438Q112.98653 190.87813 112.64278 190.87813Q112.06465 190.87813 111.75215 190.70625Q111.43965 190.51875 111.29903 190.22188Q111.17403 189.925 111.17403 188.97188L111.17403 185.39375L110.4084 185.39375L110.4084 184.58125L111.17403 184.58125L111.17403 183.03438L112.2209 182.40938L112.2209 184.58125L113.2834 184.58125L113.2834 185.39375L112.2209 185.39375L112.2209 189.03438Q112.2209 189.4875 112.26778 189.6125Q112.33028 189.7375 112.45528 189.81563Q112.58028 189.89375 112.81465 189.89375Q113.00215 189.89375 113.2834 189.8625ZM113.5959 187.69063Q113.5959 185.95625 114.54903 185.12813Q115.3459 184.44063 116.50215 184.44063Q117.7834 184.44063 118.5959 185.28438Q119.42403 186.1125 119.42403 187.59688Q119.42403 188.8 119.06465 189.4875Q118.70528 190.175 118.00215 190.56563Q117.31465 190.94063 116.50215 190.94063Q115.20528 190.94063 114.39278 190.1125Q113.5959 189.26875 113.5959 187.69063ZM114.67403 187.69063Q114.67403 188.87813 115.18965 189.47188Q115.7209 190.06563 116.50215 190.06563Q117.29903 190.06563 117.81465 189.47188Q118.33028 188.87813 118.33028 187.65938Q118.33028 186.50313 117.79903 185.90938Q117.2834 185.31563 116.50215 185.31563Q115.7209 185.31563 115.18965 185.90938Q114.67403 186.4875 114.67403 187.69063ZM120.56465 188.22188L120.56465 187.15938L123.81465 187.15938L123.81465 188.22188L120.56465 188.22188ZM124.5959 187.69063Q124.5959 185.95625 125.54903 185.12813Q126.3459 184.44063 127.50215 184.44063Q128.7834 184.44063 129.5959 185.28438Q130.42403 186.1125 130.42403 187.59688Q130.42403 188.8 130.06465 189.4875Q129.70528 190.175 129.00215 190.56563Q128.31465 190.94063 127.50215 190.94063Q126.20528 190.94063 125.39278 190.1125Q124.5959 189.26875 124.5959 187.69063ZM125.67403 187.69063Q125.67403 188.87813 126.18965 189.47188Q126.7209 190.06563 127.50215 190.06563Q128.29903 190.06563 128.81465 189.47188Q129.33028 188.87813 129.33028 187.65938Q129.33028 186.50313 128.79903 185.90938Q128.2834 185.31563 127.50215 185.31563Q126.7209 185.31563 126.18965 185.90938Q125.67403 186.4875 125.67403 187.69063ZM131.98653 190.8L131.98653 184.58125L132.92403 184.58125L132.92403 185.45625Q133.61153 184.44063 134.9084 184.44063Q135.4709 184.44063 135.93965 184.64375Q136.42403 184.84688 136.6584 185.175Q136.89278 185.50313 136.98653 185.94063Q137.0334 186.2375 137.0334 186.97188L137.0334 190.8L135.98653 190.8L135.98653 187.01875Q135.98653 186.3625 135.86153 186.05Q135.73653 185.7375 135.42403 185.55Q135.11153 185.34688 134.68965 185.34688Q134.01778 185.34688 133.51778 185.78438Q133.0334 186.20625 133.0334 187.39375L133.0334 190.8L131.98653 190.8ZM143.23653 188.8L144.33028 188.925Q144.08028 189.87813 143.37715 190.40938Q142.67403 190.94063 141.5959 190.94063Q140.23653 190.94063 139.42403 190.09688Q138.62715 189.25313 138.62715 187.7375Q138.62715 186.175 139.43965 185.31563Q140.25215 184.44063 141.5334 184.44063Q142.7834 184.44063 143.56465 185.28438Q144.36153 186.12813 144.36153 187.675Q144.36153 187.76875 144.36153 187.95625L139.7209 187.95625Q139.7834 188.9875 140.29903 189.53438Q140.81465 190.06563 141.5959 190.06563Q142.17403 190.06563 142.58028 189.76875Q143.00215 189.45625 143.23653 188.8ZM139.7834 187.09688L143.25215 187.09688Q143.18965 186.3 142.86153 185.90938Q142.3459 185.3 141.54903 185.3Q140.81465 185.3 140.31465 185.78438Q139.83028 186.26875 139.7834 187.09688Z"
     fill-rule="nonzero"
     id="path29" />
  <path
     fill="#000000"
     d="M196.63614 187.69063Q196.63614 185.95625 197.58926 185.12813Q198.38614 184.44063 199.54239 184.44063Q200.82364 184.44063 201.63614 185.28438Q202.46426 186.1125 202.46426 187.59688Q202.46426 188.8 202.10489 189.4875Q201.74551 190.175 201.04239 190.56563Q200.35489 190.94063 199.54239 190.94063Q198.24551 190.94063 197.43301 190.1125Q196.63614 189.26875 196.63614 187.69063ZM197.71426 187.69063Q197.71426 188.87813 198.22989 189.47188Q198.76114 190.06563 199.54239 190.06563Q200.33926 190.06563 200.85489 189.47188Q201.37051 188.87813 201.37051 187.65938Q201.37051 186.50313 200.83926 185.90938Q200.32364 185.31563 199.54239 185.31563Q198.76114 185.31563 198.22989 185.90938Q197.71426 186.4875 197.71426 187.69063ZM204.02676 190.8L204.02676 184.58125L204.96426 184.58125L204.96426 185.45625Q205.65176 184.44063 206.94864 184.44063Q207.51114 184.44063 207.97989 184.64375Q208.46426 184.84688 208.69864 185.175Q208.93301 185.50313 209.02676 185.94063Q209.07364 186.2375 209.07364 186.97188L209.07364 190.8L208.02676 190.8L208.02676 187.01875Q208.02676 186.3625 207.90176 186.05Q207.77676 185.7375 207.46426 185.55Q207.15176 185.34688 206.72989 185.34688Q206.05801 185.34688 205.55801 185.78438Q205.07364 186.20625 205.07364 187.39375L205.07364 190.8L204.02676 190.8ZM215.27676 188.8L216.37051 188.925Q216.12051 189.87813 215.41739 190.40938Q214.71426 190.94063 213.63614 190.94063Q212.27676 190.94063 211.46426 190.09688Q210.66739 189.25313 210.66739 187.7375Q210.66739 186.175 211.47989 185.31563Q212.29239 184.44063 213.57364 184.44063Q214.82364 184.44063 215.60489 185.28438Q216.40176 186.12813 216.40176 187.675Q216.40176 187.76875 216.40176 187.95625L211.76114 187.95625Q211.82364 188.9875 212.33926 189.53438Q212.85489 190.06563 213.63614 190.06563Q214.21426 190.06563 214.62051 189.76875Q215.04239 189.45625 215.27676 188.8ZM211.82364 187.09688L215.29239 187.09688Q215.22989 186.3 214.90176 185.90938Q214.38614 185.3 213.58926 185.3Q212.85489 185.3 212.35489 185.78438Q211.87051 186.26875 211.82364 187.09688ZM217.60489 188.22188L217.60489 187.15938L220.85489 187.15938L220.85489 188.22188L217.60489 188.22188ZM224.32364 189.8625L224.47989 190.78438Q224.02676 190.87813 223.68301 190.87813Q223.10489 190.87813 222.79239 190.70625Q222.47989 190.51875 222.33926 190.22188Q222.21426 189.925 222.21426 188.97188L222.21426 185.39375L221.44864 185.39375L221.44864 184.58125L222.21426 184.58125L222.21426 183.03438L223.26114 182.40938L223.26114 184.58125L224.32364 184.58125L224.32364 185.39375L223.26114 185.39375L223.26114 189.03438Q223.26114 189.4875 223.30801 189.6125Q223.37051 189.7375 223.49551 189.81563Q223.62051 189.89375 223.85489 189.89375Q224.04239 189.89375 224.32364 189.8625ZM224.63614 187.69063Q224.63614 185.95625 225.58926 185.12813Q226.38614 184.44063 227.54239 184.44063Q228.82364 184.44063 229.63614 185.28438Q230.46426 186.1125 230.46426 187.59688Q230.46426 188.8 230.10489 189.4875Q229.74551 190.175 229.04239 190.56563Q228.35489 190.94063 227.54239 190.94063Q226.24551 190.94063 225.43301 190.1125Q224.63614 189.26875 224.63614 187.69063ZM225.71426 187.69063Q225.71426 188.87813 226.22989 189.47188Q226.76114 190.06563 227.54239 190.06563Q228.33926 190.06563 228.85489 189.47188Q229.37051 188.87813 229.37051 187.65938Q229.37051 186.50313 228.83926 185.90938Q228.32364 185.31563 227.54239 185.31563Q226.76114 185.31563 226.22989 185.90938Q225.71426 186.4875 225.71426 187.69063ZM231.60489 188.22188L231.60489 187.15938L234.85489 187.15938L234.85489 188.22188L231.60489 188.22188ZM236.02676 190.8L236.02676 184.58125L236.96426 184.58125L236.96426 185.45625Q237.26114 184.9875 237.74551 184.72188Q238.22989 184.44063 238.85489 184.44063Q239.54239 184.44063 239.97989 184.72188Q240.43301 185.00313 240.60489 185.51875Q241.35489 184.44063 242.52676 184.44063Q243.46426 184.44063 243.94864 184.95625Q244.44864 185.45625 244.44864 186.53438L244.44864 190.8L243.40176 190.8L243.40176 186.87813Q243.40176 186.25313 243.29239 185.97188Q243.19864 185.69063 242.93301 185.51875Q242.66739 185.34688 242.29239 185.34688Q241.63614 185.34688 241.19864 185.78438Q240.77676 186.22188 240.77676 187.19063L240.77676 190.8L239.71426 190.8L239.71426 186.75313Q239.71426 186.05 239.44864 185.70625Q239.19864 185.34688 238.62051 185.34688Q238.16739 185.34688 237.79239 185.58125Q237.41739 185.81563 237.24551 186.26875Q237.07364 186.72188 237.07364 187.56563L237.07364 190.8L236.02676 190.8ZM251.08926 190.03438Q250.49551 190.53438 249.94864 190.7375Q249.41739 190.94063 248.79239 190.94063Q247.76114 190.94063 247.21426 190.44063Q246.66739 189.94063 246.66739 189.15938Q246.66739 188.70625 246.87051 188.33125Q247.07364 187.94063 247.41739 187.72188Q247.76114 187.4875 248.18301 187.37813Q248.47989 187.28438 249.12051 187.20625Q250.38614 187.06563 250.99551 186.84688Q250.99551 186.62813 250.99551 186.58125Q250.99551 185.925 250.69864 185.65938Q250.29239 185.31563 249.49551 185.31563Q248.76114 185.31563 248.40176 185.58125Q248.04239 185.83125 247.87051 186.4875L246.83926 186.34688Q246.97989 185.69063 247.30801 185.28438Q247.63614 184.87813 248.24551 184.65938Q248.85489 184.44063 249.65176 184.44063Q250.44864 184.44063 250.94864 184.62813Q251.44864 184.81563 251.68301 185.09688Q251.91739 185.37813 252.01114 185.81563Q252.05801 186.08125 252.05801 186.78438L252.05801 188.19063Q252.05801 189.65938 252.12051 190.05Q252.19864 190.44063 252.40176 190.8L251.29239 190.8Q251.13614 190.47188 251.08926 190.03438ZM250.99551 187.675Q250.41739 187.90938 249.27676 188.08125Q248.62051 188.175 248.35489 188.3Q248.08926 188.40938 247.93301 188.62813Q247.79239 188.84688 247.79239 189.12813Q247.79239 189.55 248.10489 189.83125Q248.43301 190.1125 249.04239 190.1125Q249.65176 190.1125 250.12051 189.84688Q250.60489 189.58125 250.82364 189.1125Q250.99551 188.75313 250.99551 188.06563L250.99551 187.675ZM254.02676 190.8L254.02676 184.58125L254.96426 184.58125L254.96426 185.45625Q255.65176 184.44063 256.94864 184.44063Q257.51114 184.44063 257.9799 184.64375Q258.46426 184.84688 258.69864 185.175Q258.933 185.50313 259.02676 185.94063Q259.07364 186.2375 259.07364 186.97188L259.07364 190.8L258.02676 190.8L258.02676 187.01875Q258.02676 186.3625 257.90176 186.05Q257.77676 185.7375 257.46426 185.55Q257.15176 185.34688 256.7299 185.34688Q256.058 185.34688 255.55801 185.78438Q255.07364 186.20625 255.07364 187.39375L255.07364 190.8L254.02676 190.8ZM260.9799 193.19063L260.8549 192.20625Q261.19864 192.3 261.46426 192.3Q261.808 192.3 262.01114 192.175Q262.2299 192.06563 262.3705 191.8625Q262.46426 191.69063 262.69864 191.06563Q262.71426 190.9875 262.7924 190.81563L260.4174 184.58125L261.558 184.58125L262.8549 188.175Q263.1049 188.8625 263.308 189.62813Q263.4955 188.89375 263.7455 188.20625L265.07364 184.58125L266.1205 184.58125L263.76114 190.90938Q263.3705 191.925 263.1674 192.31563Q262.88614 192.84688 262.51114 193.08125Q262.15176 193.33125 261.65176 193.33125Q261.3549 193.33125 260.9799 193.19063Z"
     fill-rule="nonzero"
     id="path30" />
  <path
     fill="#000000"
     d="M313.3951 190.8L313.3951 182.20625L314.5201 182.20625L314.5201 190.8L313.3951 190.8ZM316.067 190.8L316.067 184.58125L317.0045 184.58125L317.0045 185.45625Q317.692 184.44063 318.98886 184.44063Q319.55136 184.44063 320.0201 184.64375Q320.5045 184.84688 320.73886 185.175Q320.97324 185.50313 321.067 185.94063Q321.11386 186.2375 321.11386 186.97188L321.11386 190.8L320.067 190.8L320.067 187.01875Q320.067 186.3625 319.942 186.05Q319.817 185.7375 319.5045 185.55Q319.192 185.34688 318.7701 185.34688Q318.09824 185.34688 317.59824 185.78438Q317.11386 186.20625 317.11386 187.39375L317.11386 190.8L316.067 190.8ZM325.36386 189.8625L325.5201 190.78438Q325.067 190.87813 324.72324 190.87813Q324.1451 190.87813 323.8326 190.70625Q323.5201 190.51875 323.3795 190.22188Q323.2545 189.925 323.2545 188.97188L323.2545 185.39375L322.48886 185.39375L322.48886 184.58125L323.2545 184.58125L323.2545 183.03438L324.30136 182.40938L324.30136 184.58125L325.36386 184.58125L325.36386 185.39375L324.30136 185.39375L324.30136 189.03438Q324.30136 189.4875 324.34824 189.6125Q324.41074 189.7375 324.53574 189.81563Q324.66074 189.89375 324.8951 189.89375Q325.0826 189.89375 325.36386 189.8625ZM330.317 188.8L331.41074 188.925Q331.16074 189.87813 330.4576 190.40938Q329.7545 190.94063 328.67636 190.94063Q327.317 190.94063 326.5045 190.09688Q325.7076 189.25313 325.7076 187.7375Q325.7076 186.175 326.5201 185.31563Q327.3326 184.44063 328.61386 184.44063Q329.86386 184.44063 330.6451 185.28438Q331.442 186.12813 331.442 187.675Q331.442 187.76875 331.442 187.95625L326.80136 187.95625Q326.86386 188.9875 327.3795 189.53438Q327.8951 190.06563 328.67636 190.06563Q329.2545 190.06563 329.66074 189.76875Q330.0826 189.45625 330.317 188.8ZM326.86386 187.09688L330.3326 187.09688Q330.2701 186.3 329.942 185.90938Q329.42636 185.3 328.6295 185.3Q327.8951 185.3 327.3951 185.78438Q326.91074 186.26875 326.86386 187.09688ZM333.05136 190.8L333.05136 184.58125L334.0045 184.58125L334.0045 185.51875Q334.36386 184.8625 334.66074 184.65938Q334.97324 184.44063 335.34824 184.44063Q335.8795 184.44063 336.42636 184.76875L336.067 185.75313Q335.67636 185.51875 335.30136 185.51875Q334.942 185.51875 334.66074 185.7375Q334.3951 185.94063 334.28574 186.31563Q334.09824 186.87813 334.09824 187.53438L334.09824 190.8L333.05136 190.8ZM337.067 193.19063L337.067 184.58125L338.0201 184.58125L338.0201 185.37813Q338.36386 184.90938 338.78574 184.675Q339.22324 184.44063 339.8326 184.44063Q340.6295 184.44063 341.23886 184.84688Q341.84824 185.25313 342.1451 186.00313Q342.4576 186.75313 342.4576 187.64375Q342.4576 188.59688 342.11386 189.3625Q341.78574 190.12813 341.1295 190.53438Q340.47324 190.94063 339.7545 190.94063Q339.22324 190.94063 338.80136 190.72188Q338.3795 190.4875 338.11386 190.15938L338.11386 193.19063L337.067 193.19063ZM338.0201 187.72188Q338.0201 188.925 338.5045 189.50313Q338.98886 190.06563 339.67636 190.06563Q340.3795 190.06563 340.8795 189.47188Q341.3795 188.87813 341.3795 187.62813Q341.3795 186.44063 340.8951 185.8625Q340.41074 185.26875 339.72324 185.26875Q339.05136 185.26875 338.53574 185.89375Q338.0201 186.51875 338.0201 187.72188ZM343.67636 187.69063Q343.67636 185.95625 344.6295 185.12813Q345.42636 184.44063 346.5826 184.44063Q347.86386 184.44063 348.67636 185.28438Q349.5045 186.1125 349.5045 187.59688Q349.5045 188.8 349.1451 189.4875Q348.78574 190.175 348.0826 190.56563Q347.3951 190.94063 346.5826 190.94063Q345.28574 190.94063 344.47324 190.1125Q343.67636 189.26875 343.67636 187.69063ZM344.7545 187.69063Q344.7545 188.87813 345.2701 189.47188Q345.80136 190.06563 346.5826 190.06563Q347.3795 190.06563 347.8951 189.47188Q348.41074 188.87813 348.41074 187.65938Q348.41074 186.50313 347.8795 185.90938Q347.36386 185.31563 346.5826 185.31563Q345.80136 185.31563 345.2701 185.90938Q344.7545 186.4875 344.7545 187.69063ZM351.03574 190.8L351.03574 182.20625L352.09824 182.20625L352.09824 190.8L351.03574 190.8ZM358.1295 190.03438Q357.53574 190.53438 356.98886 190.7375Q356.4576 190.94063 355.8326 190.94063Q354.80136 190.94063 354.2545 190.44063Q353.7076 189.94063 353.7076 189.15938Q353.7076 188.70625 353.91074 188.33125Q354.11386 187.94063 354.4576 187.72188Q354.80136 187.4875 355.22324 187.37813Q355.5201 187.28438 356.16074 187.20625Q357.42636 187.06563 358.03574 186.84688Q358.03574 186.62813 358.03574 186.58125Q358.03574 185.925 357.73886 185.65938Q357.3326 185.31563 356.53574 185.31563Q355.80136 185.31563 355.442 185.58125Q355.0826 185.83125 354.91074 186.4875L353.8795 186.34688Q354.0201 185.69063 354.34824 185.28438Q354.67636 184.87813 355.28574 184.65938Q355.8951 184.44063 356.692 184.44063Q357.48886 184.44063 357.98886 184.62813Q358.48886 184.81563 358.72324 185.09688Q358.9576 185.37813 359.05136 185.81563Q359.09824 186.08125 359.09824 186.78438L359.09824 188.19063Q359.09824 189.65938 359.16074 190.05Q359.23886 190.44063 359.442 190.8L358.3326 190.8Q358.17636 190.47188 358.1295 190.03438ZM358.03574 187.675Q357.4576 187.90938 356.317 188.08125Q355.66074 188.175 355.3951 188.3Q355.1295 188.40938 354.97324 188.62813Q354.8326 188.84688 354.8326 189.12813Q354.8326 189.55 355.1451 189.83125Q355.47324 190.1125 356.0826 190.1125Q356.692 190.1125 357.16074 189.84688Q357.6451 189.58125 357.86386 189.1125Q358.03574 188.75313 358.03574 188.06563L358.03574 187.675ZM363.36386 189.8625L363.5201 190.78438Q363.067 190.87813 362.72324 190.87813Q362.1451 190.87813 361.8326 190.70625Q361.5201 190.51875 361.3795 190.22188Q361.2545 189.925 361.2545 188.97188L361.2545 185.39375L360.48886 185.39375L360.48886 184.58125L361.2545 184.58125L361.2545 183.03438L362.30136 182.40938L362.30136 184.58125L363.36386 184.58125L363.36386 185.39375L362.30136 185.39375L362.30136 189.03438Q362.30136 189.4875 362.34824 189.6125Q362.41074 189.7375 362.53574 189.81563Q362.66074 189.89375 362.8951 189.89375Q363.0826 189.89375 363.36386 189.8625ZM364.067 183.425L364.067 182.20625L365.1295 182.20625L365.1295 183.425L364.067 183.425ZM364.067 190.8L364.067 184.58125L365.1295 184.58125L365.1295 190.8L364.067 190.8ZM366.67636 187.69063Q366.67636 185.95625 367.6295 185.12813Q368.42636 184.44063 369.5826 184.44063Q370.86386 184.44063 371.67636 185.28438Q372.5045 186.1125 372.5045 187.59688Q372.5045 188.8 372.1451 189.4875Q371.78574 190.175 371.0826 190.56563Q370.3951 190.94063 369.5826 190.94063Q368.28574 190.94063 367.47324 190.1125Q366.67636 189.26875 366.67636 187.69063ZM367.7545 187.69063Q367.7545 188.87813 368.2701 189.47188Q368.80136 190.06563 369.5826 190.06563Q370.3795 190.06563 370.8951 189.47188Q371.41074 188.87813 371.41074 187.65938Q371.41074 186.50313 370.8795 185.90938Q370.36386 185.31563 369.5826 185.31563Q368.80136 185.31563 368.2701 185.90938Q367.7545 186.4875 367.7545 187.69063ZM374.067 190.8L374.067 184.58125L375.0045 184.58125L375.0045 185.45625Q375.692 184.44063 376.98886 184.44063Q377.55136 184.44063 378.0201 184.64375Q378.5045 184.84688 378.73886 185.175Q378.97324 185.50313 379.067 185.94063Q379.11386 186.2375 379.11386 186.97188L379.11386 190.8L378.067 190.8L378.067 187.01875Q378.067 186.3625 377.942 186.05Q377.817 185.7375 377.5045 185.55Q377.192 185.34688 376.7701 185.34688Q376.09824 185.34688 375.59824 185.78438Q375.11386 186.20625 375.11386 187.39375L375.11386 190.8L374.067 190.8Z"
     fill-rule="nonzero"
     id="path31" />
  <path
     fill="#000000"
     d="M428.7322 190.8L428.7322 182.20625L429.88846 182.20625L434.40408 188.95625L434.40408 182.20625L435.49783 182.20625L435.49783 190.8L434.32596 190.8L429.81033 184.05L429.81033 190.8L428.7322 190.8ZM437.21658 187.69063Q437.21658 185.95625 438.1697 185.12813Q438.96658 184.44063 440.12283 184.44063Q441.40408 184.44063 442.21658 185.28438Q443.0447 186.1125 443.0447 187.59688Q443.0447 188.8 442.68533 189.4875Q442.32596 190.175 441.62283 190.56563Q440.93533 190.94063 440.12283 190.94063Q438.82596 190.94063 438.01346 190.1125Q437.21658 189.26875 437.21658 187.69063ZM438.2947 187.69063Q438.2947 188.87813 438.81033 189.47188Q439.34158 190.06563 440.12283 190.06563Q440.9197 190.06563 441.43533 189.47188Q441.95096 188.87813 441.95096 187.65938Q441.95096 186.50313 441.4197 185.90938Q440.90408 185.31563 440.12283 185.31563Q439.34158 185.31563 438.81033 185.90938Q438.2947 186.4875 438.2947 187.69063ZM444.6072 190.8L444.6072 184.58125L445.5447 184.58125L445.5447 185.45625Q446.2322 184.44063 447.52908 184.44063Q448.09158 184.44063 448.56033 184.64375Q449.0447 184.84688 449.27908 185.175Q449.51346 185.50313 449.6072 185.94063Q449.65408 186.2375 449.65408 186.97188L449.65408 190.8L448.6072 190.8L448.6072 187.01875Q448.6072 186.3625 448.4822 186.05Q448.3572 185.7375 448.0447 185.55Q447.7322 185.34688 447.31033 185.34688Q446.63846 185.34688 446.13846 185.78438Q445.65408 186.20625 445.65408 187.39375L445.65408 190.8L444.6072 190.8ZM451.18533 188.22188L451.18533 187.15938L454.43533 187.15938L454.43533 188.22188L451.18533 188.22188ZM455.57596 190.8L455.57596 182.20625L456.63846 182.20625L456.63846 190.8L455.57596 190.8ZM458.6072 183.425L458.6072 182.20625L459.6697 182.20625L459.6697 183.425L458.6072 183.425ZM458.6072 190.8L458.6072 184.58125L459.6697 184.58125L459.6697 190.8L458.6072 190.8ZM461.6072 190.8L461.6072 184.58125L462.5447 184.58125L462.5447 185.45625Q463.2322 184.44063 464.52908 184.44063Q465.09158 184.44063 465.56033 184.64375Q466.0447 184.84688 466.27908 185.175Q466.51346 185.50313 466.6072 185.94063Q466.65408 186.2375 466.65408 186.97188L466.65408 190.8L465.6072 190.8L465.6072 187.01875Q465.6072 186.3625 465.4822 186.05Q465.3572 185.7375 465.0447 185.55Q464.7322 185.34688 464.31033 185.34688Q463.63846 185.34688 463.13846 185.78438Q462.65408 186.20625 462.65408 187.39375L462.65408 190.8L461.6072 190.8ZM472.8572 188.8L473.95096 188.925Q473.70096 189.87813 472.99783 190.40938Q472.2947 190.94063 471.21658 190.94063Q469.8572 190.94063 469.0447 190.09688Q468.24783 189.25313 468.24783 187.7375Q468.24783 186.175 469.06033 185.31563Q469.87283 184.44063 471.15408 184.44063Q472.40408 184.44063 473.18533 185.28438Q473.9822 186.12813 473.9822 187.675Q473.9822 187.76875 473.9822 187.95625L469.34158 187.95625Q469.40408 188.9875 469.9197 189.53438Q470.43533 190.06563 471.21658 190.06563Q471.7947 190.06563 472.20096 189.76875Q472.62283 189.45625 472.8572 188.8ZM469.40408 187.09688L472.87283 187.09688Q472.81033 186.3 472.4822 185.90938Q471.96658 185.3 471.1697 185.3Q470.43533 185.3 469.93533 185.78438Q469.45096 186.26875 469.40408 187.09688ZM470.52908 183.8L471.31033 182.15938L472.70096 182.15938L471.40408 183.8L470.52908 183.8ZM479.6697 190.03438Q479.07596 190.53438 478.52908 190.7375Q477.99783 190.94063 477.37283 190.94063Q476.34158 190.94063 475.7947 190.44063Q475.24783 189.94063 475.24783 189.15938Q475.24783 188.70625 475.45096 188.33125Q475.65408 187.94063 475.99783 187.72188Q476.34158 187.4875 476.76346 187.37813Q477.06033 187.28438 477.70096 187.20625Q478.96658 187.06563 479.57596 186.84688Q479.57596 186.62813 479.57596 186.58125Q479.57596 185.925 479.27908 185.65938Q478.87283 185.31563 478.07596 185.31563Q477.34158 185.31563 476.9822 185.58125Q476.62283 185.83125 476.45096 186.4875L475.4197 186.34688Q475.56033 185.69063 475.88846 185.28438Q476.21658 184.87813 476.82596 184.65938Q477.43533 184.44063 478.2322 184.44063Q479.02908 184.44063 479.52908 184.62813Q480.02908 184.81563 480.26346 185.09688Q480.49783 185.37813 480.59158 185.81563Q480.63846 186.08125 480.63846 186.78438L480.63846 188.19063Q480.63846 189.65938 480.70096 190.05Q480.77908 190.44063 480.9822 190.8L479.87283 190.8Q479.71658 190.47188 479.6697 190.03438ZM479.57596 187.675Q478.99783 187.90938 477.8572 188.08125Q477.20096 188.175 476.93533 188.3Q476.6697 188.40938 476.51346 188.62813Q476.37283 188.84688 476.37283 189.12813Q476.37283 189.55 476.68533 189.83125Q477.01346 190.1125 477.62283 190.1125Q478.2322 190.1125 478.70096 189.84688Q479.18533 189.58125 479.40408 189.1125Q479.57596 188.75313 479.57596 188.06563L479.57596 187.675ZM482.6072 183.425L482.6072 182.20625L483.6697 182.20625L483.6697 183.425L482.6072 183.425ZM482.6072 190.8L482.6072 184.58125L483.6697 184.58125L483.6697 190.8L482.6072 190.8ZM485.59158 190.8L485.59158 184.58125L486.5447 184.58125L486.5447 185.51875Q486.90408 184.8625 487.20096 184.65938Q487.51346 184.44063 487.88846 184.44063Q488.4197 184.44063 488.96658 184.76875L488.6072 185.75313Q488.21658 185.51875 487.84158 185.51875Q487.4822 185.51875 487.20096 185.7375Q486.93533 185.94063 486.82596 186.31563Q486.63846 186.87813 486.63846 187.53438L486.63846 190.8L485.59158 190.8ZM493.8572 188.8L494.95096 188.925Q494.70096 189.87813 493.99783 190.40938Q493.2947 190.94063 492.21658 190.94063Q490.8572 190.94063 490.0447 190.09688Q489.24783 189.25313 489.24783 187.7375Q489.24783 186.175 490.06033 185.31563Q490.87283 184.44063 492.15408 184.44063Q493.40408 184.44063 494.18533 185.28438Q494.9822 186.12813 494.9822 187.675Q494.9822 187.76875 494.9822 187.95625L490.34158 187.95625Q490.40408 188.9875 490.9197 189.53438Q491.43533 190.06563 492.21658 190.06563Q492.7947 190.06563 493.20096 189.76875Q493.62283 189.45625 493.8572 188.8ZM490.40408 187.09688L493.87283 187.09688Q493.81033 186.3 493.4822 185.90938Q492.96658 185.3 492.1697 185.3Q491.43533 185.3 490.93533 185.78438Q490.45096 186.26875 490.40408 187.09688Z"
     fill-rule="nonzero"
     id="path32" />
</svg>
