<?xml version="1.0" encoding="UTF-8" standalone="no"?>
<svg
   version="1.1"
   viewBox="0 0 1200 371"
   fill="none"
   stroke="none"
   stroke-linecap="square"
   stroke-miterlimit="10"
   width="1200"
   height="371"
   id="svg51"
   sodipodi:docname="utilisation DAW.svg"
   xml:space="preserve"
   inkscape:version="1.3 (0e150ed, 2023-07-21)"
   xmlns:inkscape="http://www.inkscape.org/namespaces/inkscape"
   xmlns:sodipodi="http://sodipodi.sourceforge.net/DTD/sodipodi-0.dtd"
   xmlns="http://www.w3.org/2000/svg"
   xmlns:svg="http://www.w3.org/2000/svg"><defs
     id="defs51"><clipPath
       id="id_0-9"><path
         d="m 45.55,25.55 h 535.9 v 306.9 H 45.55 Z"
         clip-rule="nonzero"
         id="path7-0" /></clipPath><clipPath
       id="clipPath1"><path
         d="m 45.55,25.55 h 535.9 v 306.9 H 45.55 Z"
         clip-rule="nonzero"
         id="path1-5" /></clipPath><clipPath
       id="clipPath2"><path
         d="m 45.55,25.55 h 535.9 v 306.9 H 45.55 Z"
         clip-rule="nonzero"
         id="path2-2" /></clipPath><clipPath
       id="clipPath3"><path
         d="m 45.55,25.55 h 535.9 v 306.9 H 45.55 Z"
         clip-rule="nonzero"
         id="path3-2" /></clipPath><clipPath
       id="clipPath4"><path
         d="m 45.55,25.55 h 535.9 v 306.9 H 45.55 Z"
         clip-rule="nonzero"
         id="path4-7" /></clipPath><clipPath
       id="clipPath5"><path
         d="m 45.55,25.55 h 535.9 v 306.9 H 45.55 Z"
         clip-rule="nonzero"
         id="path5-3" /></clipPath><clipPath
       id="clipPath6"><path
         d="m 45.55,25.55 h 535.9 v 306.9 H 45.55 Z"
         clip-rule="nonzero"
         id="path6-7" /></clipPath><clipPath
       id="clipPath8"><path
         d="m 45.55,25.55 h 535.9 v 306.9 H 45.55 Z"
         clip-rule="nonzero"
         id="path8-9" /></clipPath><clipPath
       id="clipPath9"><path
         d="m 45.55,25.55 h 535.9 v 306.9 H 45.55 Z"
         clip-rule="nonzero"
         id="path9-0" /></clipPath><clipPath
       id="clipPath10"><path
         d="m 45.55,25.55 h 535.9 v 306.9 H 45.55 Z"
         clip-rule="nonzero"
         id="path10-2" /></clipPath><clipPath
       id="clipPath11"><path
         d="m 45.55,25.55 h 535.9 v 306.9 H 45.55 Z"
         clip-rule="nonzero"
         id="path11-3" /></clipPath><clipPath
       id="clipPath12"><path
         d="m 45.55,25.55 h 535.9 v 306.9 H 45.55 Z"
         clip-rule="nonzero"
         id="path12-9" /></clipPath><clipPath
       id="clipPath13"><path
         d="m 45.55,25.55 h 535.9 v 306.9 H 45.55 Z"
         clip-rule="nonzero"
         id="path13-9" /></clipPath><clipPath
       id="clipPath14"><path
         d="m 45.55,25.55 h 535.9 v 306.9 H 45.55 Z"
         clip-rule="nonzero"
         id="path14-7" /></clipPath></defs><sodipodi:namedview
     id="namedview51"
     pagecolor="#ffffff"
     bordercolor="#000000"
     borderopacity="0.25"
     inkscape:showpageshadow="2"
     inkscape:pageopacity="0.0"
     inkscape:pagecheckerboard="0"
     inkscape:deskcolor="#d1d1d1"
     inkscape:zoom="0.41581652"
     inkscape:cx="620.46597"
     inkscape:cy="565.15312"
     inkscape:window-width="1312"
     inkscape:window-height="1057"
     inkscape:window-x="0"
     inkscape:window-y="32"
     inkscape:window-maximized="0"
     inkscape:current-layer="svg51" /><path
     fill="#ffffff"
     d="M 0,0 H 600 V 371 H 0 Z"
     fill-rule="nonzero"
     id="path1" /><path
     stroke="#333333"
     stroke-width="1"
     stroke-linecap="butt"
     d="m 45.5,332.5 h 536"
     fill-rule="nonzero"
     id="path2" /><path
     stroke="#cccccc"
     stroke-width="1"
     stroke-linecap="butt"
     d="m 45.5,281.5 h 536"
     fill-rule="nonzero"
     id="path3" /><path
     stroke="#cccccc"
     stroke-width="1"
     stroke-linecap="butt"
     d="m 45.5,230.5 h 536"
     fill-rule="nonzero"
     id="path4" /><path
     stroke="#cccccc"
     stroke-width="1"
     stroke-linecap="butt"
     d="m 45.5,179.5 h 536"
     fill-rule="nonzero"
     id="path5" /><path
     stroke="#cccccc"
     stroke-width="1"
     stroke-linecap="butt"
     d="m 45.5,127.5 h 536"
     fill-rule="nonzero"
     id="path6" /><path
     stroke="#cccccc"
     stroke-width="1"
     stroke-linecap="butt"
     d="m 45.5,76.5 h 536"
     fill-rule="nonzero"
     id="path7" /><path
     stroke="#cccccc"
     stroke-width="1"
     stroke-linecap="butt"
     d="m 45.5,25.5 h 536"
     fill-rule="nonzero"
     id="path8" /><clipPath
     id="id_0"><path
       d="m 45.55,25.55 h 535.9 v 306.9 H 45.55 Z"
       clip-rule="nonzero"
       id="path9" /></clipPath><path
     stroke="#000000"
     stroke-width="2"
     stroke-linecap="butt"
     stroke-opacity="0"
     clip-path="url(#id_0)"
     d="M 119,332 H 72 v 0 z"
     fill-rule="nonzero"
     id="path10" /><path
     fill="#4285f4"
     clip-path="url(#id_0)"
     d="M 119,332 H 72 v 0 z"
     fill-rule="nonzero"
     id="path11" /><path
     stroke="#000000"
     stroke-width="2"
     stroke-linecap="butt"
     stroke-opacity="0"
     clip-path="url(#id_0)"
     d="m 192,332 h -47 v -49 c 0,-1.10458 0.89543,-2 2,-2 h 43 c 1.10457,0 2,0.89542 2,2 z"
     fill-rule="nonzero"
     id="path12" /><path
     fill="#4285f4"
     clip-path="url(#id_0)"
     d="m 192,332 h -47 v -49 c 0,-1.10458 0.89543,-2 2,-2 h 43 c 1.10457,0 2,0.89542 2,2 z"
     fill-rule="nonzero"
     id="path13" /><path
     stroke="#000000"
     stroke-width="2"
     stroke-linecap="butt"
     stroke-opacity="0"
     clip-path="url(#id_0)"
     d="m 265,332 h -47 v -49 c 0,-1.10458 0.89543,-2 2,-2 h 43 c 1.10458,0 2,0.89542 2,2 z"
     fill-rule="nonzero"
     id="path14" /><path
     fill="#4285f4"
     clip-path="url(#id_0)"
     d="m 265,332 h -47 v -49 c 0,-1.10458 0.89543,-2 2,-2 h 43 c 1.10458,0 2,0.89542 2,2 z"
     fill-rule="nonzero"
     id="path15" /><path
     stroke="#000000"
     stroke-width="2"
     stroke-linecap="butt"
     stroke-opacity="0"
     clip-path="url(#id_0)"
     d="m 338,332 h -47 v -74 c 0,-1.10458 0.89542,-2 2,-2 h 43 c 1.10458,0 2,0.89542 2,2 z"
     fill-rule="nonzero"
     id="path16" /><path
     fill="#4285f4"
     clip-path="url(#id_0)"
     d="m 338,332 h -47 v -74 c 0,-1.10458 0.89542,-2 2,-2 h 43 c 1.10458,0 2,0.89542 2,2 z"
     fill-rule="nonzero"
     id="path17" /><path
     stroke="#000000"
     stroke-width="2"
     stroke-linecap="butt"
     stroke-opacity="0"
     clip-path="url(#id_0)"
     d="m 410,332 h -47 v -74 c 0,-1.10458 0.89542,-2 2,-2 h 43 c 1.10458,0 2,0.89542 2,2 z"
     fill-rule="nonzero"
     id="path18" /><path
     fill="#4285f4"
     clip-path="url(#id_0)"
     d="m 410,332 h -47 v -74 c 0,-1.10458 0.89542,-2 2,-2 h 43 c 1.10458,0 2,0.89542 2,2 z"
     fill-rule="nonzero"
     id="path19" /><path
     stroke="#000000"
     stroke-width="2"
     stroke-linecap="butt"
     stroke-opacity="0"
     clip-path="url(#id_0)"
     d="M 483,332 H 436 V 232 c 0,-1.10457 0.89542,-2 2,-2 h 43 c 1.10458,0 2,0.89543 2,2 z"
     fill-rule="nonzero"
     id="path20" /><path
     fill="#4285f4"
     clip-path="url(#id_0)"
     d="M 483,332 H 436 V 232 c 0,-1.10457 0.89542,-2 2,-2 h 43 c 1.10458,0 2,0.89543 2,2 z"
     fill-rule="nonzero"
     id="path21" /><path
     stroke="#000000"
     stroke-width="2"
     stroke-linecap="butt"
     stroke-opacity="0"
     clip-path="url(#id_0)"
     d="M 556,332 H 509 V 53 c 0,-1.10457 0.89542,-2 2,-2 h 43 c 1.10455,0 2,0.89543 2,2 z"
     fill-rule="nonzero"
     id="path22" /><path
     fill="#4285f4"
     clip-path="url(#id_0)"
     d="M 556,332 H 509 V 53 c 0,-1.10457 0.89542,-2 2,-2 h 43 c 1.10455,0 2,0.89543 2,2 z"
     fill-rule="nonzero"
     id="path23" /><path
     stroke="#ffffff"
     stroke-width="3"
     stroke-linejoin="round"
     stroke-linecap="round"
     d="m 97.5625,313.8094 q 0,1.90624 -0.65625,2.84374 -0.640625,0.92186 -2.03125,0.92186 -1.359375,0 -2.015625,-0.90624 -0.65625,-0.90626 -0.6875,-2.71876 v -1.4375 q 0,-1.8906 0.640625,-2.79686 0.65625,-0.92188 2.046875,-0.92188 1.375,0 2.03125,0.89064 0.65625,0.875 0.671875,2.71874 z m -1.09375,-1.4844 q 0,-1.375 -0.390625,-2 -0.375,-0.6406 -1.21875,-0.6406 -0.828125,0 -1.21875,0.6406 -0.375,0.625 -0.375,1.9219 v 1.73436 q 0,1.375 0.390625,2.04688 0.40625,0.65626 1.21875,0.65626 0.796875,0 1.1875,-0.625 0.390625,-0.625 0.40625,-1.95314 z"
     fill-rule="nonzero"
     id="path24" /><path
     fill="#4285f4"
     d="m 97.5625,313.8094 q 0,1.90624 -0.65625,2.84374 -0.640625,0.92186 -2.03125,0.92186 -1.359375,0 -2.015625,-0.90624 -0.65625,-0.90626 -0.6875,-2.71876 v -1.4375 q 0,-1.8906 0.640625,-2.79686 0.65625,-0.92188 2.046875,-0.92188 1.375,0 2.03125,0.89064 0.65625,0.875 0.671875,2.71874 z m -1.09375,-1.4844 q 0,-1.375 -0.390625,-2 -0.375,-0.6406 -1.21875,-0.6406 -0.828125,0 -1.21875,0.6406 -0.375,0.625 -0.375,1.9219 v 1.73436 q 0,1.375 0.390625,2.04688 0.40625,0.65626 1.21875,0.65626 0.796875,0 1.1875,-0.625 0.390625,-0.625 0.40625,-1.95314 z"
     fill-rule="nonzero"
     id="path25" /><path
     stroke="#4285f4"
     stroke-width="3"
     stroke-linejoin="round"
     stroke-linecap="round"
     d="m 170.79688,298.1 h -5.59376 v -0.78124 l 2.95313,-3.28126 q 0.65625,-0.75 0.90625,-1.20312 0.25,-0.46875 0.25,-0.96875 0,-0.67187 -0.40625,-1.09375 -0.39063,-0.4375 -1.07813,-0.4375 -0.79687,0 -1.25,0.46875 -0.45312,0.45313 -0.45312,1.28125 h -1.07812 q 0,-1.1875 0.75,-1.90625 0.76562,-0.73437 2.03124,-0.73437 1.20313,0 1.89063,0.625 0.6875,0.625 0.6875,1.67187 0,1.25 -1.60937,3 l -2.28126,2.46875 h 4.28126 z"
     fill-rule="nonzero"
     id="path26" /><path
     fill="#ffffff"
     d="m 170.79688,298.1 h -5.59376 v -0.78124 l 2.95313,-3.28126 q 0.65625,-0.75 0.90625,-1.20312 0.25,-0.46875 0.25,-0.96875 0,-0.67187 -0.40625,-1.09375 -0.39063,-0.4375 -1.07813,-0.4375 -0.79687,0 -1.25,0.46875 -0.45312,0.45313 -0.45312,1.28125 h -1.07812 q 0,-1.1875 0.75,-1.90625 0.76562,-0.73437 2.03124,-0.73437 1.20313,0 1.89063,0.625 0.6875,0.625 0.6875,1.67187 0,1.25 -1.60937,3 l -2.28126,2.46875 h 4.28126 z"
     fill-rule="nonzero"
     id="path27" /><path
     stroke="#4285f4"
     stroke-width="3"
     stroke-linejoin="round"
     stroke-linecap="round"
     d="m 243.79688,298.1 h -5.59376 v -0.78124 l 2.95313,-3.28126 q 0.65625,-0.75 0.90625,-1.20312 0.25,-0.46875 0.25,-0.96875 0,-0.67187 -0.40625,-1.09375 -0.39063,-0.4375 -1.07813,-0.4375 -0.79687,0 -1.25,0.46875 -0.45312,0.45313 -0.45312,1.28125 h -1.07812 q 0,-1.1875 0.75,-1.90625 0.76562,-0.73437 2.03124,-0.73437 1.20313,0 1.89063,0.625 0.6875,0.625 0.6875,1.67187 0,1.25 -1.60937,3 l -2.28126,2.46875 h 4.28126 z"
     fill-rule="nonzero"
     id="path28" /><path
     fill="#ffffff"
     d="m 243.79688,298.1 h -5.59376 v -0.78124 l 2.95313,-3.28126 q 0.65625,-0.75 0.90625,-1.20312 0.25,-0.46875 0.25,-0.96875 0,-0.67187 -0.40625,-1.09375 -0.39063,-0.4375 -1.07813,-0.4375 -0.79687,0 -1.25,0.46875 -0.45312,0.45313 -0.45312,1.28125 h -1.07812 q 0,-1.1875 0.75,-1.90625 0.76562,-0.73437 2.03124,-0.73437 1.20313,0 1.89063,0.625 0.6875,0.625 0.6875,1.67187 0,1.25 -1.60937,3 l -2.28126,2.46875 h 4.28126 z"
     fill-rule="nonzero"
     id="path29" /><path
     stroke="#4285f4"
     stroke-width="3"
     stroke-linejoin="round"
     stroke-linecap="round"
     d="m 312.78125,267.72812 h 0.8125 q 0.78125,-0.0156 1.21875,-0.40625 0.4375,-0.39063 0.4375,-1.0625 0,-1.5 -1.5,-1.5 -0.70312,0 -1.125,0.40625 -0.40625,0.40625 -0.40625,1.0625 H 311.125 q 0,-1.01562 0.73438,-1.6875 0.75,-0.67188 1.89062,-0.67188 1.20312,0 1.89062,0.64063 0.6875,0.64063 0.6875,1.78125 0,0.5625 -0.35937,1.07812 -0.35937,0.51563 -0.98437,0.78126 0.70312,0.21874 1.07812,0.73437 0.39062,0.51563 0.39062,1.26563 0,1.14062 -0.75,1.82812 -0.75,0.67188 -1.95312,0.67188 -1.1875,0 -1.95312,-0.65626 -0.75,-0.65624 -0.75,-1.71874 h 1.09374 q 0,0.67187 0.4375,1.07812 0.4375,0.40625 1.1875,0.40625 0.78126,0 1.1875,-0.40625 0.42188,-0.42188 0.42188,-1.1875 0,-0.73438 -0.45312,-1.125 -0.45313,-0.40625 -1.32813,-0.42188 h -0.8125 z"
     fill-rule="nonzero"
     id="path30" /><path
     fill="#ffffff"
     d="m 312.78125,267.72812 h 0.8125 q 0.78125,-0.0156 1.21875,-0.40625 0.4375,-0.39063 0.4375,-1.0625 0,-1.5 -1.5,-1.5 -0.70312,0 -1.125,0.40625 -0.40625,0.40625 -0.40625,1.0625 H 311.125 q 0,-1.01562 0.73438,-1.6875 0.75,-0.67188 1.89062,-0.67188 1.20312,0 1.89062,0.64063 0.6875,0.64063 0.6875,1.78125 0,0.5625 -0.35937,1.07812 -0.35937,0.51563 -0.98437,0.78126 0.70312,0.21874 1.07812,0.73437 0.39062,0.51563 0.39062,1.26563 0,1.14062 -0.75,1.82812 -0.75,0.67188 -1.95312,0.67188 -1.1875,0 -1.95312,-0.65626 -0.75,-0.65624 -0.75,-1.71874 h 1.09374 q 0,0.67187 0.4375,1.07812 0.4375,0.40625 1.1875,0.40625 0.78126,0 1.1875,-0.40625 0.42188,-0.42188 0.42188,-1.1875 0,-0.73438 -0.45312,-1.125 -0.45313,-0.40625 -1.32813,-0.42188 h -0.8125 z"
     fill-rule="nonzero"
     id="path31" /><path
     stroke="#4285f4"
     stroke-width="3"
     stroke-linejoin="round"
     stroke-linecap="round"
     d="m 384.78125,267.72812 h 0.8125 q 0.78125,-0.0156 1.21875,-0.40625 0.4375,-0.39063 0.4375,-1.0625 0,-1.5 -1.5,-1.5 -0.70312,0 -1.125,0.40625 -0.40625,0.40625 -0.40625,1.0625 H 383.125 q 0,-1.01562 0.73438,-1.6875 0.75,-0.67188 1.89062,-0.67188 1.20312,0 1.89062,0.64063 0.6875,0.64063 0.6875,1.78125 0,0.5625 -0.35937,1.07812 -0.35937,0.51563 -0.98437,0.78126 0.70312,0.21874 1.07812,0.73437 0.39062,0.51563 0.39062,1.26563 0,1.14062 -0.75,1.82812 -0.75,0.67188 -1.95312,0.67188 -1.1875,0 -1.95312,-0.65626 -0.75,-0.65624 -0.75,-1.71874 h 1.09374 q 0,0.67187 0.4375,1.07812 0.4375,0.40625 1.1875,0.40625 0.78126,0 1.1875,-0.40625 0.42188,-0.42188 0.42188,-1.1875 0,-0.73438 -0.45312,-1.125 -0.45313,-0.40625 -1.32813,-0.42188 h -0.8125 z"
     fill-rule="nonzero"
     id="path32" /><path
     fill="#ffffff"
     d="m 384.78125,267.72812 h 0.8125 q 0.78125,-0.0156 1.21875,-0.40625 0.4375,-0.39063 0.4375,-1.0625 0,-1.5 -1.5,-1.5 -0.70312,0 -1.125,0.40625 -0.40625,0.40625 -0.40625,1.0625 H 383.125 q 0,-1.01562 0.73438,-1.6875 0.75,-0.67188 1.89062,-0.67188 1.20312,0 1.89062,0.64063 0.6875,0.64063 0.6875,1.78125 0,0.5625 -0.35937,1.07812 -0.35937,0.51563 -0.98437,0.78126 0.70312,0.21874 1.07812,0.73437 0.39062,0.51563 0.39062,1.26563 0,1.14062 -0.75,1.82812 -0.75,0.67188 -1.95312,0.67188 -1.1875,0 -1.95312,-0.65626 -0.75,-0.65624 -0.75,-1.71874 h 1.09374 q 0,0.67187 0.4375,1.07812 0.4375,0.40625 1.1875,0.40625 0.78126,0 1.1875,-0.40625 0.42188,-0.42188 0.42188,-1.1875 0,-0.73438 -0.45312,-1.125 -0.45313,-0.40625 -1.32813,-0.42188 h -0.8125 z"
     fill-rule="nonzero"
     id="path33" /><path
     stroke="#4285f4"
     stroke-width="3"
     stroke-linejoin="round"
     stroke-linecap="round"
     d="m 460.78125,244.09062 h 1.1875 v 0.875 h -1.1875 V 246.95 h -1.07813 v -1.98438 H 455.8125 V 244.325 l 3.8125,-5.90625 h 1.15625 z m -3.73437,0 h 2.65624 v -4.1875 l -0.14062,0.23438 z"
     fill-rule="nonzero"
     id="path34" /><path
     fill="#ffffff"
     d="m 460.78125,244.09062 h 1.1875 v 0.875 h -1.1875 V 246.95 h -1.07813 v -1.98438 H 455.8125 V 244.325 l 3.8125,-5.90625 h 1.15625 z m -3.73437,0 h 2.65624 v -4.1875 l -0.14062,0.23438 z"
     fill-rule="nonzero"
     id="path35" /><path
     stroke="#4285f4"
     stroke-width="3"
     stroke-linejoin="round"
     stroke-linecap="round"
     d="m 529.2656,67.925 h -1.0781 V 60.70625 L 526,61.503124 V 60.51875 l 3.1094,-1.171876 h 0.1562 z m 7,0 h -1.0781 V 60.70625 L 533,61.503124 V 60.51875 l 3.1094,-1.171876 h 0.1562 z"
     fill-rule="nonzero"
     id="path36" /><path
     fill="#ffffff"
     d="m 529.2656,67.925 h -1.0781 V 60.706253 L 526,61.503128 v -0.984375 l 3.1094,-1.171875 h 0.1562 z m 7,0 h -1.0781 V 60.706253 L 533,61.503128 v -0.984375 l 3.1094,-1.171875 h 0.1562 z"
     fill-rule="nonzero"
     id="path37" /><path
     fill="#000000"
     d="m 33.05,332.21564 q 0,-1.53124 0.3125,-2.45314 0.3125,-0.9375 0.921874,-1.4375 0.625,-0.5 1.5625,-0.5 0.6875,0 1.203126,0.28126 0.53125,0.28124 0.875,0.8125 0.34375,0.51564 0.53125,1.26564 0.1875,0.75 0.1875,2.03124 0,1.51562 -0.3125,2.4375 -0.296876,0.92186 -0.921876,1.4375 -0.609374,0.5 -1.5625,0.5 -1.234374,0 -1.953124,-0.89064 Q 33.05,334.6375 33.05,332.21564 Z m 1.078124,0 q 0,2.10936 0.5,2.8125 0.5,0.70312 1.21875,0.70312 0.734376,0 1.21875,-0.70312 0.5,-0.70314 0.5,-2.8125 0,-2.125 -0.5,-2.8125 Q 36.58125,328.7 35.83125,328.7 q -0.71875,0 -1.15625,0.6094 -0.546876,0.78124 -0.546876,2.90624 z"
     fill-rule="nonzero"
     id="path38" /><path
     fill="#000000"
     d="M 38.596874,284.28436 V 285.3 h -5.6875 q 0,-0.375 0.125,-0.7344 0.21875,-0.5781 0.6875,-1.1406 0.484376,-0.5625 1.390626,-1.2969 1.40625,-1.15624 1.890624,-1.8281 0.5,-0.6719 0.5,-1.26564 0,-0.625 -0.453124,-1.04686 -0.453126,-0.4375 -1.171876,-0.4375 -0.765624,0 -1.21875,0.4531 -0.453124,0.45314 -0.46875,1.26564 L 33.1125,279.15936 q 0.109374,-1.21876 0.828124,-1.84376 0.734376,-0.6406 1.96875,-0.6406 1.234376,0 1.953126,0.6875 0.71875,0.6875 0.71875,1.7031 0,0.51564 -0.21875,1.01564 -0.203126,0.48436 -0.703126,1.04686 -0.484374,0.5469 -1.609374,1.5 -0.953126,0.7969 -1.234376,1.09376 -0.265624,0.28124 -0.4375,0.5625 z"
     fill-rule="nonzero"
     id="path39" /><path
     fill="#000000"
     d="m 36.425,234.15 v -2.0625 h -3.71875 v -0.96876 l 3.921874,-5.5625 H 37.4875 v 5.5625 h 1.15625 v 0.96876 H 37.4875 v 2.0625 z m 0,-3.03126 v -3.85937 l -2.6875,3.85937 z"
     fill-rule="nonzero"
     id="path40" /><path
     fill="#000000"
     d="m 38.51875,176.51562 -1.046876,0.0781 q -0.140624,-0.625 -0.390624,-0.90625 -0.4375,-0.45312 -1.0625,-0.45312 -0.5,0 -0.890626,0.28124 -0.484374,0.375 -0.78125,1.07813 -0.28125,0.6875 -0.296874,1.96875 0.375,-0.57812 0.921874,-0.85938 0.5625,-0.28124 1.171876,-0.28124 1.046874,0 1.78125,0.78124 0.75,0.78126 0.75,2 0,0.8125 -0.359376,1.51563 -0.34375,0.6875 -0.953124,1.0625 -0.609376,0.35937 -1.375,0.35937 -1.328126,0 -2.15625,-0.96874 -0.828126,-0.96876 -0.828126,-3.1875 0,-2.5 0.921876,-3.625 0.796874,-0.98438 2.15625,-0.98438 1.015624,0 1.65625,0.57812 0.65625,0.5625 0.78125,1.5625 z m -4.296876,3.70313 q 0,0.54687 0.21875,1.04687 0.234376,0.48438 0.640626,0.75 0.421874,0.26563 0.890624,0.26563 0.65625,0 1.140626,-0.53125 0.484374,-0.54688 0.484374,-1.46875 0,-0.89063 -0.484374,-1.40625 -0.46875,-0.51562 -1.1875,-0.51562 -0.71875,0 -1.21875,0.51562 -0.484376,0.51562 -0.484376,1.34375 z"
     fill-rule="nonzero"
     id="path41" /><path
     fill="#000000"
     d="m 34.675,127.19376 q -0.65625,-0.25 -0.984376,-0.6875 -0.3125,-0.45313 -0.3125,-1.0625 0,-0.9375 0.671876,-1.57813 0.6875,-0.64062 1.796874,-0.64062 1.125,0 1.8125,0.65625 0.6875,0.65625 0.6875,1.59375 0,0.59375 -0.3125,1.03125 -0.3125,0.4375 -0.953124,0.6875 0.796874,0.25 1.203124,0.82812 0.40625,0.57812 0.40625,1.375 0,1.09375 -0.78125,1.84375 -0.765624,0.75 -2.046874,0.75 -1.265626,0 -2.046876,-0.75 -0.78125,-0.75 -0.78125,-1.875 0,-0.84375 0.421876,-1.40625 0.4375,-0.5625 1.21875,-0.76562 z m -0.21875,-1.79688 q 0,0.60938 0.390624,1 0.40625,0.39063 1.03125,0.39063 0.609376,0 1,-0.375 0.390626,-0.39063 0.390626,-0.95313 0,-0.57812 -0.40625,-0.96875 -0.40625,-0.40625 -1,-0.40625 -0.609376,0 -1.015626,0.39063 -0.390624,0.39062 -0.390624,0.92187 z m -0.328126,3.96875 q 0,0.45313 0.203126,0.875 0.21875,0.42187 0.640624,0.65625 0.421876,0.23438 0.90625,0.23438 0.75,0 1.234376,-0.48438 0.5,-0.48438 0.5,-1.23438 0,-0.76562 -0.5,-1.26562 -0.5,-0.5 -1.265626,-0.5 -0.75,0 -1.234374,0.5 -0.484376,0.48438 -0.484376,1.21875 z"
     fill-rule="nonzero"
     id="path42" /><path
     fill="#000000"
     d="M 30.01875,80.7 H 28.971874 V 73.98125 Q 28.58125,74.34062 27.95625,74.71562 27.346874,75.075 26.8625,75.24687 v -1.01562 q 0.875,-0.42188 1.53125,-1 0.671874,-0.59375 0.953124,-1.15625 H 30.01875 Z M 33.05,76.46562 q 0,-1.53125 0.3125,-2.45312 0.3125,-0.9375 0.921874,-1.4375 0.625,-0.5 1.5625,-0.5 0.6875,0 1.203126,0.28125 0.53125,0.28125 0.875,0.8125 0.34375,0.51562 0.53125,1.26562 0.1875,0.75 0.1875,2.03125 0,1.51563 -0.3125,2.4375 -0.296876,0.92188 -0.921876,1.4375 -0.609374,0.5 -1.5625,0.5 -1.234374,0 -1.953124,-0.89062 Q 33.05,78.8875 33.05,76.46562 Z m 1.078124,0 q 0,2.10938 0.5,2.8125 0.5,0.70313 1.21875,0.70313 0.734376,0 1.21875,-0.70313 0.5,-0.70312 0.5,-2.8125 0,-2.125 -0.5,-2.8125 Q 36.58125,72.95 35.83125,72.95 q -0.71875,0 -1.15625,0.60937 -0.546876,0.78125 -0.546876,2.90625 z"
     fill-rule="nonzero"
     id="path43" /><path
     fill="#000000"
     d="M 30.01875,29.55 H 28.971874 V 22.83125 Q 28.58125,23.190624 27.95625,23.565624 27.346874,23.925 26.8625,24.096874 V 23.08125 q 0.875,-0.421876 1.53125,-1 0.671874,-0.59375 0.953124,-1.15625 h 0.671876 z m 8.578124,-1.015626 V 29.55 h -5.6875 q 0,-0.375 0.125,-0.734376 0.21875,-0.578124 0.6875,-1.140624 0.484376,-0.5625 1.390626,-1.296876 1.40625,-1.15625 1.890624,-1.828124 0.5,-0.671876 0.5,-1.265626 0,-0.625 -0.453124,-1.046874 Q 36.596874,21.8 35.878124,21.8 q -0.765624,0 -1.21875,0.453124 -0.453124,0.453126 -0.46875,1.265626 L 33.1125,23.409374 q 0.109374,-1.21875 0.828124,-1.84375 Q 34.675,20.925 35.909374,20.925 q 1.234376,0 1.953126,0.6875 0.71875,0.6875 0.71875,1.703124 0,0.515626 -0.21875,1.015626 -0.203126,0.484374 -0.703126,1.046874 -0.484374,0.546876 -1.609374,1.5 -0.953126,0.796876 -1.234376,1.09375 -0.265624,0.28125 -0.4375,0.5625 z"
     fill-rule="nonzero"
     id="path44" /><path
     fill="#000000"
     d="M 95.734055,349.45 H 94.68718 v -6.71874 q -0.390625,0.35938 -1.015625,0.73438 -0.609375,0.35936 -1.09375,0.53126 v -1.01564 q 0.875,-0.42186 1.53125,-1 0.671875,-0.59376 0.953125,-1.15626 h 0.671875 z"
     fill-rule="nonzero"
     id="path45" /><path
     fill="#000000"
     d="m 170.22374,348.4344 v 1.0156 h -5.6875 q 0,-0.375 0.125,-0.73436 0.21875,-0.57814 0.6875,-1.14064 0.48437,-0.5625 1.39062,-1.29686 1.40625,-1.15624 1.89063,-1.82814 0.5,-0.67186 0.5,-1.2656 0,-0.625 -0.45313,-1.0469 -0.45312,-0.4375 -1.17187,-0.4375 -0.76563,0 -1.21875,0.45314 -0.45313,0.45312 -0.46875,1.26562 l -1.07813,-0.10936 q 0.10938,-1.21876 0.82813,-1.84376 0.73437,-0.64064 1.96875,-0.64064 1.23437,0 1.95312,0.6875 0.71875,0.6875 0.71875,1.70314 0,0.51562 -0.21875,1.01562 -0.20312,0.48438 -0.70312,1.04688 -0.48438,0.54686 -1.60938,1.5 -0.95312,0.79686 -1.23437,1.09376 -0.26563,0.28124 -0.4375,0.5625 z"
     fill-rule="nonzero"
     id="path46" /><path
     fill="#000000"
     d="m 237.58844,347.1844 1.0625,-0.14064 q 0.17187,0.89064 0.60937,1.29688 0.4375,0.39062 1.0625,0.39062 0.75,0 1.26563,-0.51562 0.51562,-0.51564 0.51562,-1.28124 0,-0.71876 -0.48437,-1.1875 -0.46875,-0.4844 -1.20313,-0.4844 -0.29687,0 -0.75,0.125 l 0.125,-0.9375 q 0.10938,0.0156 0.17188,0.0156 0.67187,0 1.20312,-0.34374 0.54688,-0.3594 0.54688,-1.09376 0,-0.57814 -0.39063,-0.95314 -0.39062,-0.3906 -1.01562,-0.3906 -0.60938,0 -1.03125,0.3906 -0.40625,0.39064 -0.51563,1.15626 l -1.0625,-0.1875 q 0.1875,-1.04686 0.875,-1.625 0.6875,-0.59376 1.70313,-0.59376 0.70312,0 1.29687,0.3125 0.59375,0.2969 0.90625,0.8125 0.3125,0.51564 0.3125,1.1094 0,0.54686 -0.29687,1.0156 -0.29688,0.45314 -0.875,0.71876 0.75,0.17188 1.17187,0.73438 0.42188,0.54686 0.42188,1.39062 0,1.125 -0.82813,1.90624 -0.8125,0.78126 -2.0625,0.78126 -1.125,0 -1.875,-0.67186 -0.75,-0.6875 -0.85937,-1.75 z"
     fill-rule="nonzero"
     id="path47" /><path
     fill="#000000"
     d="m 313.875,349.45 v -2.0625 h -3.71875 v -0.96874 l 3.92187,-5.5625 h 0.85938 v 5.5625 h 1.15625 v 0.96874 h -1.15625 v 2.0625 z m 0,-3.03124 v -3.85936 l -2.6875,3.85936 z"
     fill-rule="nonzero"
     id="path48" /><path
     fill="#000000"
     d="m 383.41156,347.2 1.10938,-0.0937 q 0.125,0.8125 0.5625,1.21874 0.45312,0.40626 1.09376,0.40626 0.75,0 1.28124,-0.57812 0.53126,-0.57814 0.53126,-1.51564 0,-0.90624 -0.51564,-1.42186 -0.5,-0.53124 -1.32812,-0.53124 -0.5,0 -0.92188,0.23436 -0.40626,0.23438 -0.64062,0.59374 l -0.98438,-0.125 0.82814,-4.40624 h 4.28124 v 1 h -3.4375 l -0.45314,2.3125 q 0.76564,-0.54686 1.6094,-0.54686 1.125,0 1.8906,0.78124 0.78126,0.78126 0.78126,2.01562 0,1.15624 -0.67186,2.01564 -0.82814,1.03124 -2.25,1.03124 -1.1719,0 -1.9219,-0.65624 -0.73436,-0.65626 -0.84374,-1.7344 z"
     fill-rule="nonzero"
     id="path49" /><path
     fill="#000000"
     d="m 461.79187,342.96564 -1.04687,0.0781 q -0.14063,-0.625 -0.39063,-0.90626 -0.4375,-0.4531 -1.0625,-0.4531 -0.5,0 -0.89062,0.28124 -0.48438,0.375 -0.78125,1.07812 -0.28125,0.6875 -0.29688,1.96874 0.375,-0.5781 0.92188,-0.85936 0.5625,-0.28124 1.17187,-0.28124 1.04688,0 1.78125,0.78124 0.75,0.78126 0.75,2 0,0.8125 -0.35937,1.51562 -0.34375,0.6875 -0.95313,1.0625 -0.60937,0.35938 -1.375,0.35938 -1.32812,0 -2.15625,-0.96874 -0.82812,-0.96876 -0.82812,-3.1875 0,-2.5 0.92187,-3.625 0.79688,-0.9844 2.15625,-0.9844 1.01563,0 1.65625,0.57814 0.65625,0.5625 0.78125,1.5625 z m -4.29687,3.70312 q 0,0.54688 0.21875,1.04688 0.23437,0.48436 0.64062,0.75 0.42188,0.26562 0.89063,0.26562 0.65625,0 1.14062,-0.53126 0.48438,-0.54686 0.48438,-1.46874 0,-0.89062 -0.48438,-1.40626 -0.46875,-0.5156 -1.1875,-0.5156 -0.71875,0 -1.21875,0.5156 -0.48437,0.51564 -0.48437,1.34376 z"
     fill-rule="nonzero"
     id="path50" /><path
     fill="#000000"
     d="m 529.2972,341.98126 v -1.01562 h 5.5625 v 0.82812 q -0.8125,0.875 -1.625,2.32814 -0.7969,1.4375 -1.2344,2.96874 -0.3281,1.07812 -0.40624,2.35936 h -1.09376 q 0.0156,-1.0156 0.3906,-2.4531 0.39066,-1.4375 1.0938,-2.76564 0.7187,-1.32812 1.5312,-2.25 z"
     fill-rule="nonzero"
     id="path51" /><path
     fill="#ffffff"
     d="M 617.09949,0 H 1217.0995 V 371 H 617.09949 Z"
     fill-rule="nonzero"
     id="path15-0" /><path
     stroke="#333333"
     stroke-width="1"
     stroke-linecap="butt"
     d="M 662.59949,332.5 H 1198.5995"
     fill-rule="nonzero"
     id="path16-3" /><path
     stroke="#cccccc"
     stroke-width="1"
     stroke-linecap="butt"
     d="M 662.59949,255.5 H 1198.5995"
     fill-rule="nonzero"
     id="path17-9" /><path
     stroke="#cccccc"
     stroke-width="1"
     stroke-linecap="butt"
     d="M 662.59949,179.5 H 1198.5995"
     fill-rule="nonzero"
     id="path18-8" /><path
     stroke="#cccccc"
     stroke-width="1"
     stroke-linecap="butt"
     d="M 662.59949,102.5 H 1198.5995"
     fill-rule="nonzero"
     id="path19-6" /><path
     stroke="#cccccc"
     stroke-width="1"
     stroke-linecap="butt"
     d="M 662.59949,25.5 H 1198.5995"
     fill-rule="nonzero"
     id="path20-5" /><path
     stroke="#000000"
     stroke-width="2"
     stroke-linecap="butt"
     stroke-opacity="0"
     clip-path="url(#id_0-9)"
     d="M 119,332 H 72 v 0 z"
     fill-rule="nonzero"
     id="path21-7"
     transform="translate(617.09949)" /><path
     fill="#4285f4"
     clip-path="url(#id_0-9)"
     d="M 119,332 H 72 v 0 z"
     fill-rule="nonzero"
     id="path22-6"
     transform="translate(617.09949)" /><path
     stroke="#000000"
     stroke-width="2"
     stroke-linecap="butt"
     stroke-opacity="0"
     clip-path="url(#id_0-9)"
     d="M 192,332 H 145 V 219 c 0,-1.10457 0.89543,-2 2,-2 h 43 c 1.10457,0 2,0.89543 2,2 z"
     fill-rule="nonzero"
     id="path23-2"
     transform="translate(617.09949)" /><path
     fill="#4285f4"
     clip-path="url(#id_0-9)"
     d="M 192,332 H 145 V 219 c 0,-1.10457 0.89543,-2 2,-2 h 43 c 1.10457,0 2,0.89543 2,2 z"
     fill-rule="nonzero"
     id="path24-7"
     transform="translate(617.09949)" /><path
     stroke="#000000"
     stroke-width="2"
     stroke-linecap="butt"
     stroke-opacity="0"
     clip-path="url(#id_0-9)"
     d="m 265,332 h -47 v -36 c 0,-1.10458 0.89543,-2 2,-2 h 43 c 1.10458,0 2,0.89542 2,2 z"
     fill-rule="nonzero"
     id="path25-0"
     transform="translate(617.09949)" /><path
     fill="#4285f4"
     clip-path="url(#id_0-9)"
     d="m 265,332 h -47 v -36 c 0,-1.10458 0.89543,-2 2,-2 h 43 c 1.10458,0 2,0.89542 2,2 z"
     fill-rule="nonzero"
     id="path26-3"
     transform="translate(617.09949)" /><path
     stroke="#000000"
     stroke-width="2"
     stroke-linecap="butt"
     stroke-opacity="0"
     clip-path="url(#id_0-9)"
     d="M 338,332 H 291 V 143 c 0,-1.10457 0.89542,-2 2,-2 h 43 c 1.10458,0 2,0.89543 2,2 z"
     fill-rule="nonzero"
     id="path27-9"
     transform="translate(617.09949)" /><path
     fill="#4285f4"
     clip-path="url(#id_0-9)"
     d="M 338,332 H 291 V 143 c 0,-1.10457 0.89542,-2 2,-2 h 43 c 1.10458,0 2,0.89543 2,2 z"
     fill-rule="nonzero"
     id="path28-9"
     transform="translate(617.09949)" /><path
     stroke="#000000"
     stroke-width="2"
     stroke-linecap="butt"
     stroke-opacity="0"
     clip-path="url(#id_0-9)"
     d="M 410,332 H 363 V 66 c 0,-1.10457 0.89542,-2 2,-2 h 43 c 1.10458,0 2,0.89543 2,2 z"
     fill-rule="nonzero"
     id="path29-9"
     transform="translate(617.09949)" /><path
     fill="#4285f4"
     clip-path="url(#id_0-9)"
     d="M 410,332 H 363 V 66 c 0,-1.10457 0.89542,-2 2,-2 h 43 c 1.10458,0 2,0.89543 2,2 z"
     fill-rule="nonzero"
     id="path30-1"
     transform="translate(617.09949)" /><path
     stroke="#000000"
     stroke-width="2"
     stroke-linecap="butt"
     stroke-opacity="0"
     clip-path="url(#id_0-9)"
     d="M 483,332 H 436 V 219 c 0,-1.10457 0.89542,-2 2,-2 h 43 c 1.10458,0 2,0.89543 2,2 z"
     fill-rule="nonzero"
     id="path31-7"
     transform="translate(617.09949)" /><path
     fill="#4285f4"
     clip-path="url(#id_0-9)"
     d="M 483,332 H 436 V 219 c 0,-1.10457 0.89542,-2 2,-2 h 43 c 1.10458,0 2,0.89543 2,2 z"
     fill-rule="nonzero"
     id="path32-2"
     transform="translate(617.09949)" /><path
     stroke="#000000"
     stroke-width="2"
     stroke-linecap="butt"
     stroke-opacity="0"
     clip-path="url(#id_0-9)"
     d="M 556,332 H 509 V 143 c 0,-1.10457 0.89542,-2 2,-2 h 43 c 1.10455,0 2,0.89543 2,2 z"
     fill-rule="nonzero"
     id="path33-3"
     transform="translate(617.09949)" /><path
     fill="#4285f4"
     clip-path="url(#id_0-9)"
     d="M 556,332 H 509 V 143 c 0,-1.10457 0.89542,-2 2,-2 h 43 c 1.10455,0 2,0.89543 2,2 z"
     fill-rule="nonzero"
     id="path34-6"
     transform="translate(617.09949)" /><path
     stroke="#ffffff"
     stroke-width="3"
     stroke-linejoin="round"
     stroke-linecap="round"
     d="m 714.66199,313.8094 q 0,1.90624 -0.65625,2.84374 -0.64063,0.92186 -2.03125,0.92186 -1.35938,0 -2.01563,-0.90624 -0.65625,-0.90626 -0.6875,-2.71876 v -1.4375 q 0,-1.8906 0.64063,-2.79686 0.65625,-0.92188 2.04687,-0.92188 1.375,0 2.03125,0.89064 0.65625,0.875 0.67188,2.71874 z m -1.09375,-1.4844 q 0,-1.375 -0.39063,-2 -0.375,-0.6406 -1.21875,-0.6406 -0.82812,0 -1.21875,0.6406 -0.375,0.625 -0.375,1.9219 v 1.73436 q 0,1.375 0.39063,2.04688 0.40625,0.65626 1.21875,0.65626 0.79687,0 1.1875,-0.625 0.39062,-0.625 0.40625,-1.95314 z"
     fill-rule="nonzero"
     id="path35-5" /><path
     fill="#4285f4"
     d="m 714.66199,313.8094 q 0,1.90624 -0.65625,2.84374 -0.64063,0.92186 -2.03125,0.92186 -1.35938,0 -2.01563,-0.90624 -0.65625,-0.90626 -0.6875,-2.71876 v -1.4375 q 0,-1.8906 0.64063,-2.79686 0.65625,-0.92188 2.04687,-0.92188 1.375,0 2.03125,0.89064 0.65625,0.875 0.67188,2.71874 z m -1.09375,-1.4844 q 0,-1.375 -0.39063,-2 -0.375,-0.6406 -1.21875,-0.6406 -0.82812,0 -1.21875,0.6406 -0.375,0.625 -0.375,1.9219 v 1.73436 q 0,1.375 0.39063,2.04688 0.40625,0.65626 1.21875,0.65626 0.79687,0 1.1875,-0.625 0.39062,-0.625 0.40625,-1.95314 z"
     fill-rule="nonzero"
     id="path36-5" /><path
     stroke="#4285f4"
     stroke-width="3"
     stroke-linejoin="round"
     stroke-linecap="round"
     d="m 783.88074,229.36563 h 0.8125 q 0.78125,-0.0156 1.21875,-0.40625 0.4375,-0.39062 0.4375,-1.0625 0,-1.5 -1.5,-1.5 -0.70312,0 -1.125,0.40625 -0.40625,0.40625 -0.40625,1.0625 h -1.09375 q 0,-1.01563 0.73438,-1.6875 0.75,-0.67187 1.89062,-0.67187 1.20312,0 1.89062,0.64062 0.6875,0.64062 0.6875,1.78125 0,0.5625 -0.35937,1.07813 -0.35937,0.51562 -0.98437,0.78124 0.70312,0.21876 1.07812,0.73438 0.39062,0.51562 0.39062,1.26562 0,1.14063 -0.75,1.82813 -0.75,0.67187 -1.95312,0.67187 -1.1875,0 -1.95312,-0.65624 -0.75,-0.65626 -0.75,-1.71876 h 1.09374 q 0,0.67188 0.4375,1.07813 0.4375,0.40625 1.1875,0.40625 0.78126,0 1.1875,-0.40625 0.42188,-0.42187 0.42188,-1.1875 0,-0.73437 -0.45312,-1.125 -0.45313,-0.40625 -1.32813,-0.42187 h -0.8125 z"
     fill-rule="nonzero"
     id="path37-8" /><path
     fill="#ffffff"
     d="m 783.88074,229.36563 h 0.8125 q 0.78125,-0.0156 1.21875,-0.40625 0.4375,-0.39062 0.4375,-1.0625 0,-1.5 -1.5,-1.5 -0.70312,0 -1.125,0.40625 -0.40625,0.40625 -0.40625,1.0625 h -1.09375 q 0,-1.01563 0.73438,-1.6875 0.75,-0.67187 1.89062,-0.67187 1.20312,0 1.89062,0.64062 0.6875,0.64062 0.6875,1.78125 0,0.5625 -0.35937,1.07813 -0.35937,0.51562 -0.98437,0.78124 0.70312,0.21876 1.07812,0.73438 0.39062,0.51562 0.39062,1.26562 0,1.14063 -0.75,1.82813 -0.75,0.67187 -1.95312,0.67187 -1.1875,0 -1.95312,-0.65624 -0.75,-0.65626 -0.75,-1.71876 h 1.09374 q 0,0.67188 0.4375,1.07813 0.4375,0.40625 1.1875,0.40625 0.78126,0 1.1875,-0.40625 0.42188,-0.42187 0.42188,-1.1875 0,-0.73437 -0.45312,-1.125 -0.45313,-0.40625 -1.32813,-0.42187 h -0.8125 z"
     fill-rule="nonzero"
     id="path38-1" /><path
     stroke="#4285f4"
     stroke-width="3"
     stroke-linejoin="round"
     stroke-linecap="round"
     d="m 858.86511,310.8875 h -1.07812 v -7.21874 l -2.1875,0.79688 v -0.98438 l 3.10938,-1.17186 h 0.15624 z"
     fill-rule="nonzero"
     id="path39-4" /><path
     fill="#ffffff"
     d="m 858.86511,310.8875 h -1.07812 v -7.21874 l -2.1875,0.79688 v -0.98438 l 3.10938,-1.17186 h 0.15624 z"
     fill-rule="nonzero"
     id="path40-7" /><path
     stroke="#4285f4"
     stroke-width="3"
     stroke-linejoin="round"
     stroke-linecap="round"
     d="m 928.80261,153.15625 0.4375,-4.25 h 4.375 v 1 h -3.45312 l -0.26562,2.32813 q 0.64062,-0.375 1.4375,-0.375 1.15624,0 1.84374,0.78124 0.6875,0.76563 0.6875,2.07813 0,1.3125 -0.71874,2.07813 -0.70313,0.76562 -1.98438,0.76562 -1.125,0 -1.84375,-0.625 -0.71875,-0.64062 -0.8125,-1.75 h 1.01563 q 0.10937,0.73438 0.53124,1.10938 0.42188,0.375 1.10938,0.375 0.75,0 1.1875,-0.51563 0.4375,-0.51563 0.4375,-1.42187 0,-0.85938 -0.46875,-1.375 -0.46875,-0.51563 -1.25,-0.51563 -0.70313,0 -1.10937,0.29687 l -0.28126,0.23438 z"
     fill-rule="nonzero"
     id="path41-1" /><path
     fill="#ffffff"
     d="m 928.80261,153.15625 0.4375,-4.25 h 4.375 v 1 h -3.45312 l -0.26562,2.32813 q 0.64062,-0.375 1.4375,-0.375 1.15624,0 1.84374,0.78124 0.6875,0.76563 0.6875,2.07813 0,1.3125 -0.71874,2.07813 -0.70313,0.76562 -1.98438,0.76562 -1.125,0 -1.84375,-0.625 -0.71875,-0.64062 -0.8125,-1.75 h 1.01563 q 0.10937,0.73438 0.53124,1.10938 0.42188,0.375 1.10938,0.375 0.75,0 1.1875,-0.51563 0.4375,-0.51563 0.4375,-1.42187 0,-0.85938 -0.46875,-1.375 -0.46875,-0.51563 -1.25,-0.51563 -0.70313,0 -1.10937,0.29687 l -0.28126,0.23438 z"
     fill-rule="nonzero"
     id="path42-3" /><path
     stroke="#4285f4"
     stroke-width="3"
     stroke-linejoin="round"
     stroke-linecap="round"
     d="m 1005.8182,72.79063 -3.5312,7.92187 h -1.1406 l 3.5156,-7.64062 h -4.6094 v -0.89063 h 5.7656 z"
     fill-rule="nonzero"
     id="path43-8" /><path
     fill="#ffffff"
     d="m 1005.8182,72.79063 -3.5312,7.92187 h -1.1406 l 3.5156,-7.64062 h -4.6094 v -0.89063 h 5.7656 z"
     fill-rule="nonzero"
     id="path44-4" /><path
     stroke="#4285f4"
     stroke-width="3"
     stroke-linejoin="round"
     stroke-linecap="round"
     d="m 1074.8807,229.36563 h 0.8125 q 0.7813,-0.0156 1.2188,-0.40625 0.4375,-0.39062 0.4375,-1.0625 0,-1.5 -1.5,-1.5 -0.7031,0 -1.125,0.40625 -0.4063,0.40625 -0.4063,1.0625 h -1.0937 q 0,-1.01563 0.7344,-1.6875 0.75,-0.67187 1.8906,-0.67187 1.2031,0 1.8906,0.64062 0.6875,0.64062 0.6875,1.78125 0,0.5625 -0.3594,1.07813 -0.3593,0.51562 -0.9843,0.78124 0.7031,0.21876 1.0781,0.73438 0.3906,0.51562 0.3906,1.26562 0,1.14063 -0.75,1.82813 -0.75,0.67187 -1.9531,0.67187 -1.1875,0 -1.9531,-0.65624 -0.75,-0.65626 -0.75,-1.71876 h 1.0937 q 0,0.67188 0.4375,1.07813 0.4375,0.40625 1.1875,0.40625 0.7813,0 1.1875,-0.40625 0.4219,-0.42187 0.4219,-1.1875 0,-0.73437 -0.4531,-1.125 -0.4532,-0.40625 -1.3282,-0.42187 h -0.8125 z"
     fill-rule="nonzero"
     id="path45-8" /><path
     fill="#ffffff"
     d="m 1074.8807,229.36563 h 0.8125 q 0.7813,-0.0156 1.2188,-0.40625 0.4375,-0.39062 0.4375,-1.0625 0,-1.5 -1.5,-1.5 -0.7031,0 -1.125,0.40625 -0.4063,0.40625 -0.4063,1.0625 h -1.0937 q 0,-1.01563 0.7344,-1.6875 0.75,-0.67187 1.8906,-0.67187 1.2031,0 1.8906,0.64062 0.6875,0.64062 0.6875,1.78125 0,0.5625 -0.3594,1.07813 -0.3593,0.51562 -0.9843,0.78124 0.7031,0.21876 1.0781,0.73438 0.3906,0.51562 0.3906,1.26562 0,1.14063 -0.75,1.82813 -0.75,0.67187 -1.9531,0.67187 -1.1875,0 -1.9531,-0.65624 -0.75,-0.65626 -0.75,-1.71876 h 1.0937 q 0,0.67188 0.4375,1.07813 0.4375,0.40625 1.1875,0.40625 0.7813,0 1.1875,-0.40625 0.4219,-0.42187 0.4219,-1.1875 0,-0.73437 -0.4531,-1.125 -0.4532,-0.40625 -1.3282,-0.42187 h -0.8125 z"
     fill-rule="nonzero"
     id="path46-0" /><path
     stroke="#4285f4"
     stroke-width="3"
     stroke-linejoin="round"
     stroke-linecap="round"
     d="m 1146.8026,153.15625 0.4375,-4.25 h 4.375 v 1 h -3.4531 l -0.2656,2.32813 q 0.6406,-0.375 1.4375,-0.375 1.1562,0 1.8437,0.78124 0.6875,0.76563 0.6875,2.07813 0,1.3125 -0.7187,2.07813 -0.7032,0.76562 -1.9844,0.76562 -1.125,0 -1.8438,-0.625 -0.7187,-0.64062 -0.8125,-1.75 h 1.0157 q 0.1093,0.73438 0.5312,1.10938 0.4219,0.375 1.1094,0.375 0.75,0 1.1875,-0.51563 0.4375,-0.51563 0.4375,-1.42187 0,-0.85938 -0.4688,-1.375 -0.4687,-0.51563 -1.25,-0.51563 -0.7031,0 -1.1093,0.29687 l -0.2813,0.23438 z"
     fill-rule="nonzero"
     id="path47-4" /><path
     fill="#ffffff"
     d="m 1146.8026,153.15625 0.4375,-4.25 h 4.375 v 1 h -3.4531 l -0.2656,2.32813 q 0.6406,-0.375 1.4375,-0.375 1.1562,0 1.8437,0.78124 0.6875,0.76563 0.6875,2.07813 0,1.3125 -0.7187,2.07813 -0.7032,0.76562 -1.9844,0.76562 -1.125,0 -1.8438,-0.625 -0.7187,-0.64062 -0.8125,-1.75 h 1.0157 q 0.1093,0.73438 0.5312,1.10938 0.4219,0.375 1.1094,0.375 0.75,0 1.1875,-0.51563 0.4375,-0.51563 0.4375,-1.42187 0,-0.85938 -0.4688,-1.375 -0.4687,-0.51563 -1.25,-0.51563 -0.7031,0 -1.1093,0.29687 l -0.2813,0.23438 z"
     fill-rule="nonzero"
     id="path48-6" /><path
     fill="#000000"
     d="m 650.14949,332.21564 q 0,-1.53124 0.3125,-2.45314 0.3125,-0.9375 0.92187,-1.4375 0.625,-0.5 1.5625,-0.5 0.6875,0 1.20313,0.28126 0.53125,0.28124 0.875,0.8125 0.34375,0.51564 0.53125,1.26564 0.1875,0.75 0.1875,2.03124 0,1.51562 -0.3125,2.4375 -0.29688,0.92186 -0.92188,1.4375 -0.60937,0.5 -1.5625,0.5 -1.23437,0 -1.95312,-0.89064 -0.84375,-1.0625 -0.84375,-3.48436 z m 1.07812,0 q 0,2.10936 0.5,2.8125 0.5,0.70312 1.21875,0.70312 0.73438,0 1.21875,-0.70312 0.5,-0.70314 0.5,-2.8125 0,-2.125 -0.5,-2.8125 -0.48437,-0.70314 -1.23437,-0.70314 -0.71875,0 -1.15625,0.6094 -0.54688,0.78124 -0.54688,2.90624 z"
     fill-rule="nonzero"
     id="path49-0" /><path
     fill="#000000"
     d="m 655.69636,258.70938 v 1.01562 h -5.6875 q 0,-0.375 0.125,-0.73437 0.21875,-0.57813 0.6875,-1.14063 0.48438,-0.5625 1.39063,-1.29687 1.40625,-1.15625 1.89062,-1.82813 0.5,-0.67187 0.5,-1.26562 0,-0.625 -0.45312,-1.04688 -0.45313,-0.4375 -1.17188,-0.4375 -0.76562,0 -1.21875,0.45313 -0.45312,0.45313 -0.46875,1.26563 l -1.07812,-0.10938 q 0.10937,-1.21875 0.82812,-1.84375 0.73438,-0.64063 1.96875,-0.64063 1.23438,0 1.95313,0.6875 0.71875,0.6875 0.71875,1.70313 0,0.51563 -0.21875,1.01563 -0.20313,0.48437 -0.70313,1.04687 -0.48437,0.54687 -1.60937,1.5 -0.95313,0.79687 -1.23438,1.09375 -0.26562,0.28125 -0.4375,0.5625 z"
     fill-rule="nonzero"
     id="path50-3" /><path
     fill="#000000"
     d="m 653.52449,183 v -2.0625 h -3.71875 v -0.96875 l 3.92187,-5.5625 h 0.85938 v 5.5625 h 1.15625 v 0.96875 h -1.15625 V 183 Z m 0,-3.03125 v -3.85937 l -2.6875,3.85937 z"
     fill-rule="nonzero"
     id="path51-2" /><path
     fill="#000000"
     d="m 655.61824,99.79063 -1.04688,0.07812 q -0.14062,-0.625 -0.39062,-0.90625 -0.4375,-0.45312 -1.0625,-0.45312 -0.5,0 -0.89063,0.28125 -0.48437,0.375 -0.78125,1.07812 -0.28125,0.6875 -0.29687,1.96875 0.375,-0.57812 0.92187,-0.85937 0.5625,-0.28125 1.17188,-0.28125 1.04687,0 1.78125,0.78125 0.75,0.78125 0.75,2 0,0.8125 -0.35938,1.51562 -0.34375,0.6875 -0.95312,1.0625 -0.60938,0.35938 -1.375,0.35938 -1.32813,0 -2.15625,-0.96875 -0.82813,-0.96875 -0.82813,-3.1875 0,-2.5 0.92188,-3.625 0.79687,-0.98438 2.15625,-0.98438 1.01562,0 1.65625,0.57813 0.65625,0.5625 0.78125,1.5625 z m -4.29688,3.70312 q 0,0.54688 0.21875,1.04688 0.23438,0.48437 0.64063,0.75 0.42187,0.26562 0.89062,0.26562 0.65625,0 1.14063,-0.53125 0.48437,-0.54687 0.48437,-1.46875 0,-0.89062 -0.48437,-1.40625 -0.46875,-0.51562 -1.1875,-0.51562 -0.71875,0 -1.21875,0.51562 -0.48438,0.51563 -0.48438,1.34375 z"
     fill-rule="nonzero"
     id="path52" /><path
     fill="#000000"
     d="m 651.77449,24.89375 q -0.65625,-0.25 -0.98438,-0.6875 -0.3125,-0.453126 -0.3125,-1.0625 0,-0.9375 0.67188,-1.578126 0.6875,-0.640624 1.79687,-0.640624 1.125,0 1.8125,0.65625 0.6875,0.65625 0.6875,1.59375 0,0.59375 -0.3125,1.03125 -0.3125,0.4375 -0.95312,0.6875 0.79687,0.25 1.20312,0.828124 0.40625,0.578126 0.40625,1.375 0,1.09375 -0.78125,1.84375 -0.76562,0.75 -2.04687,0.75 -1.26563,0 -2.04688,-0.75 -0.78125,-0.75 -0.78125,-1.875 0,-0.84375 0.42188,-1.40625 0.4375,-0.5625 1.21875,-0.765624 z m -0.21875,-1.796876 q 0,0.609376 0.39062,1 0.40625,0.390626 1.03125,0.390626 0.60938,0 1,-0.375 0.39063,-0.390626 0.39063,-0.953126 0,-0.578124 -0.40625,-0.96875 -0.40625,-0.40625 -1,-0.40625 -0.60938,0 -1.01563,0.390626 -0.39062,0.390624 -0.39062,0.921874 z m -0.32813,3.96875 q 0,0.453126 0.20313,0.875 0.21875,0.421876 0.64062,0.65625 0.42188,0.234376 0.90625,0.234376 0.75,0 1.23438,-0.484376 0.5,-0.484374 0.5,-1.234374 0,-0.765626 -0.5,-1.265626 -0.5,-0.5 -1.26563,-0.5 -0.75,0 -1.23437,0.5 -0.48438,0.484376 -0.48438,1.21875 z"
     fill-rule="nonzero"
     id="path53" /><path
     fill="#000000"
     d="m 712.83354,349.45 h -1.04687 v -6.71874 q -0.39063,0.35938 -1.01563,0.73438 -0.60937,0.35936 -1.09375,0.53126 v -1.01564 q 0.875,-0.42186 1.53125,-1 0.67188,-0.59376 0.95313,-1.15626 h 0.67187 z"
     fill-rule="nonzero"
     id="path54" /><path
     fill="#000000"
     d="m 787.32323,348.4344 v 1.0156 h -5.6875 q 0,-0.375 0.125,-0.73436 0.21875,-0.57814 0.6875,-1.14064 0.48437,-0.5625 1.39062,-1.29686 1.40625,-1.15624 1.89063,-1.82814 0.5,-0.67186 0.5,-1.2656 0,-0.625 -0.45313,-1.0469 -0.45312,-0.4375 -1.17187,-0.4375 -0.76563,0 -1.21875,0.45314 -0.45313,0.45312 -0.46875,1.26562 l -1.07813,-0.10936 q 0.10938,-1.21876 0.82813,-1.84376 0.73437,-0.64064 1.96875,-0.64064 1.23437,0 1.95312,0.6875 0.71875,0.6875 0.71875,1.70314 0,0.51562 -0.21875,1.01562 -0.20312,0.48438 -0.70312,1.04688 -0.48438,0.54686 -1.60938,1.5 -0.95312,0.79686 -1.23437,1.09376 -0.26563,0.28124 -0.4375,0.5625 z"
     fill-rule="nonzero"
     id="path55" /><path
     fill="#000000"
     d="m 854.68793,347.1844 1.0625,-0.14064 q 0.17187,0.89064 0.60937,1.29688 0.4375,0.39062 1.0625,0.39062 0.75,0 1.26563,-0.51562 0.51562,-0.51564 0.51562,-1.28124 0,-0.71876 -0.48437,-1.1875 -0.46875,-0.4844 -1.20313,-0.4844 -0.29687,0 -0.75,0.125 l 0.125,-0.9375 q 0.10938,0.0156 0.17188,0.0156 0.67187,0 1.20312,-0.34374 0.54688,-0.3594 0.54688,-1.09376 0,-0.57814 -0.39063,-0.95314 -0.39062,-0.3906 -1.01562,-0.3906 -0.60938,0 -1.03125,0.3906 -0.40625,0.39064 -0.51563,1.15626 l -1.0625,-0.1875 q 0.1875,-1.04686 0.875,-1.625 0.6875,-0.59376 1.70313,-0.59376 0.70312,0 1.29687,0.3125 0.59375,0.2969 0.90625,0.8125 0.3125,0.51564 0.3125,1.1094 0,0.54686 -0.29687,1.0156 -0.29688,0.45314 -0.875,0.71876 0.75,0.17188 1.17187,0.73438 0.42188,0.54686 0.42188,1.39062 0,1.125 -0.82813,1.90624 -0.8125,0.78126 -2.0625,0.78126 -1.125,0 -1.875,-0.67186 -0.75,-0.6875 -0.85937,-1.75 z"
     fill-rule="nonzero"
     id="path56" /><path
     fill="#000000"
     d="m 930.97449,349.45 v -2.0625 h -3.71875 v -0.96874 l 3.92187,-5.5625 h 0.85938 v 5.5625 h 1.15625 v 0.96874 h -1.15625 v 2.0625 z m 0,-3.03124 v -3.85936 l -2.6875,3.85936 z"
     fill-rule="nonzero"
     id="path57" /><path
     fill="#000000"
     d="m 1000.5111,347.2 1.1093,-0.0937 q 0.125,0.8125 0.5625,1.21874 0.4531,0.40626 1.0938,0.40626 0.75,0 1.2812,-0.57812 0.5313,-0.57814 0.5313,-1.51564 0,-0.90624 -0.5157,-1.42186 -0.5,-0.53124 -1.3281,-0.53124 -0.5,0 -0.9219,0.23436 -0.4062,0.23438 -0.6406,0.59374 l -0.9844,-0.125 0.8282,-4.40624 h 4.2812 v 1 h -3.4375 l -0.4531,2.3125 q 0.7656,-0.54686 1.6094,-0.54686 1.125,0 1.8906,0.78124 0.7812,0.78126 0.7812,2.01562 0,1.15624 -0.6718,2.01564 -0.8282,1.03124 -2.25,1.03124 -1.1719,0 -1.9219,-0.65624 -0.7344,-0.65626 -0.8437,-1.7344 z"
     fill-rule="nonzero"
     id="path58" /><path
     fill="#000000"
     d="m 1078.8913,342.96564 -1.0468,0.0781 q -0.1407,-0.625 -0.3907,-0.90626 -0.4375,-0.4531 -1.0625,-0.4531 -0.5,0 -0.8906,0.28124 -0.4844,0.375 -0.7812,1.07812 -0.2813,0.6875 -0.2969,1.96874 0.375,-0.5781 0.9219,-0.85936 0.5625,-0.28124 1.1718,-0.28124 1.0469,0 1.7813,0.78124 0.75,0.78126 0.75,2 0,0.8125 -0.3594,1.51562 -0.3437,0.6875 -0.9531,1.0625 -0.6094,0.35938 -1.375,0.35938 -1.3281,0 -2.1563,-0.96874 -0.8281,-0.96876 -0.8281,-3.1875 0,-2.5 0.9219,-3.625 0.7969,-0.9844 2.1562,-0.9844 1.0157,0 1.6563,0.57814 0.6562,0.5625 0.7812,1.5625 z m -4.2968,3.70312 q 0,0.54688 0.2187,1.04688 0.2344,0.48436 0.6406,0.75 0.4219,0.26562 0.8907,0.26562 0.6562,0 1.1406,-0.53126 0.4844,-0.54686 0.4844,-1.46874 0,-0.89062 -0.4844,-1.40626 -0.4688,-0.5156 -1.1875,-0.5156 -0.7188,0 -1.2188,0.5156 -0.4843,0.51564 -0.4843,1.34376 z"
     fill-rule="nonzero"
     id="path59" /><path
     fill="#000000"
     d="m 1146.3967,341.98126 v -1.01562 h 5.5625 v 0.82812 q -0.8125,0.875 -1.625,2.32814 -0.7969,1.4375 -1.2344,2.96874 -0.3281,1.07812 -0.4063,2.35936 h -1.0937 q 0.016,-1.0156 0.3906,-2.4531 0.3906,-1.4375 1.0938,-2.76564 0.7187,-1.32812 1.5312,-2.25 z"
     fill-rule="nonzero"
     id="path60" /><text
     xml:space="preserve"
     style="font-style:normal;font-variant:normal;font-weight:normal;font-stretch:normal;font-size:14.6667px;font-family:Arial;-inkscape-font-specification:Arial;text-align:center;text-anchor:middle;fill:#000000;fill-opacity:1;stroke-width:1.32332;stroke-linecap:round;stroke-opacity:0.626316"
     x="711.98798"
     y="364.4874"
     id="text51-5"><tspan
       sodipodi:role="line"
       id="tspan51-55"
       x="711.98798"
       y="364.4874"
       style="font-size:14.6667px;stroke-width:1.32332">Jamais</tspan></text><text
     xml:space="preserve"
     style="font-style:normal;font-variant:normal;font-weight:normal;font-stretch:normal;font-size:14.6667px;font-family:Arial;-inkscape-font-specification:Arial;text-align:center;text-anchor:middle;fill:#000000;fill-opacity:1;stroke-width:1.32332;stroke-linecap:round;stroke-opacity:0.626316"
     x="1148.4871"
     y="365.35873"
     id="text51-9-8"><tspan
       sodipodi:role="line"
       id="tspan51-5-2"
       x="1148.4871"
       y="365.35873"
       style="font-size:14.6667px;stroke-width:1.32332">Toujours</tspan></text><text
     xml:space="preserve"
     style="font-style:normal;font-variant:normal;font-weight:normal;font-stretch:normal;font-size:14.6667px;font-family:Arial;-inkscape-font-specification:Arial;text-align:center;text-anchor:middle;fill:#000000;fill-opacity:1;stroke-width:1.32332;stroke-linecap:round;stroke-opacity:0.626316"
     x="93.794975"
     y="363.25934"
     id="text51-5-7"><tspan
       sodipodi:role="line"
       id="tspan51-55-8"
       x="93.794975"
       y="363.25934"
       style="font-size:14.6667px;stroke-width:1.32332">Pas du tout</tspan></text><text
     xml:space="preserve"
     style="font-style:normal;font-variant:normal;font-weight:normal;font-stretch:normal;font-size:14.6667px;font-family:Arial;-inkscape-font-specification:Arial;text-align:center;text-anchor:middle;fill:#000000;fill-opacity:1;stroke-width:1.32332;stroke-linecap:round;stroke-opacity:0.626316"
     x="530.29407"
     y="364.13068"
     id="text51-9-8-8"><tspan
       sodipodi:role="line"
       id="tspan51-5-2-3"
       x="530.29407"
       y="364.13068"
       style="font-size:14.6667px;stroke-width:1.32332">Absolument</tspan></text></svg>
