<?xml version="1.0" encoding="UTF-8" standalone="no"?>
<svg
   version="1.1"
   viewBox="0 0 1200 371"
   fill="none"
   stroke="none"
   stroke-linecap="square"
   stroke-miterlimit="10"
   width="1200"
   height="371"
   id="svg37"
   sodipodi:docname="domaine d'experimentation.svg"
   inkscape:version="1.3 (0e150ed, 2023-07-21)"
   xmlns:inkscape="http://www.inkscape.org/namespaces/inkscape"
   xmlns:sodipodi="http://sodipodi.sourceforge.net/DTD/sodipodi-0.dtd"
   xmlns="http://www.w3.org/2000/svg"
   xmlns:svg="http://www.w3.org/2000/svg">
  <defs
     id="defs37">
    <clipPath
       id="id_0-4">
      <path
         d="m 45.55,25.55 h 535.9 v 306.9 H 45.55 Z"
         clip-rule="nonzero"
         id="path6-8" />
    </clipPath>
    <clipPath
       id="clipPath1">
      <path
         d="m 45.55,25.55 h 535.9 v 306.9 H 45.55 Z"
         clip-rule="nonzero"
         id="path1-5" />
    </clipPath>
    <clipPath
       id="clipPath2">
      <path
         d="m 45.55,25.55 h 535.9 v 306.9 H 45.55 Z"
         clip-rule="nonzero"
         id="path2-8" />
    </clipPath>
    <clipPath
       id="clipPath3">
      <path
         d="m 45.55,25.55 h 535.9 v 306.9 H 45.55 Z"
         clip-rule="nonzero"
         id="path3-3" />
    </clipPath>
    <clipPath
       id="clipPath4">
      <path
         d="m 45.55,25.55 h 535.9 v 306.9 H 45.55 Z"
         clip-rule="nonzero"
         id="path4-0" />
    </clipPath>
    <clipPath
       id="clipPath5">
      <path
         d="m 45.55,25.55 h 535.9 v 306.9 H 45.55 Z"
         clip-rule="nonzero"
         id="path5-6" />
    </clipPath>
    <clipPath
       id="clipPath7">
      <path
         d="m 45.55,25.55 h 535.9 v 306.9 H 45.55 Z"
         clip-rule="nonzero"
         id="path7-2" />
    </clipPath>
    <clipPath
       id="clipPath8">
      <path
         d="m 45.55,25.55 h 535.9 v 306.9 H 45.55 Z"
         clip-rule="nonzero"
         id="path8-2" />
    </clipPath>
    <clipPath
       id="clipPath9">
      <path
         d="m 45.55,25.55 h 535.9 v 306.9 H 45.55 Z"
         clip-rule="nonzero"
         id="path9-5" />
    </clipPath>
    <clipPath
       id="clipPath10">
      <path
         d="m 45.55,25.55 h 535.9 v 306.9 H 45.55 Z"
         clip-rule="nonzero"
         id="path10-2" />
    </clipPath>
    <clipPath
       id="clipPath11">
      <path
         d="m 45.55,25.55 h 535.9 v 306.9 H 45.55 Z"
         clip-rule="nonzero"
         id="path11-2" />
    </clipPath>
    <clipPath
       id="clipPath12">
      <path
         d="m 45.55,25.55 h 535.9 v 306.9 H 45.55 Z"
         clip-rule="nonzero"
         id="path12-7" />
    </clipPath>
    <clipPath
       id="clipPath13">
      <path
         d="m 45.55,25.55 h 535.9 v 306.9 H 45.55 Z"
         clip-rule="nonzero"
         id="path13-1" />
    </clipPath>
    <clipPath
       id="clipPath14">
      <path
         d="m 45.55,25.55 h 535.9 v 306.9 H 45.55 Z"
         clip-rule="nonzero"
         id="path14-5" />
    </clipPath>
  </defs>
  <sodipodi:namedview
     id="namedview37"
     pagecolor="#ffffff"
     bordercolor="#000000"
     borderopacity="0.25"
     inkscape:showpageshadow="2"
     inkscape:pageopacity="0.0"
     inkscape:pagecheckerboard="0"
     inkscape:deskcolor="#d1d1d1"
     inkscape:zoom="0.53173936"
     inkscape:cx="842.51804"
     inkscape:cy="203.10703"
     inkscape:window-width="1312"
     inkscape:window-height="449"
     inkscape:window-x="0"
     inkscape:window-y="32"
     inkscape:window-maximized="0"
     inkscape:current-layer="svg37" />
  <path
     fill="#ffffff"
     d="M 0,0 H 600 V 371 H 0 Z"
     fill-rule="nonzero"
     id="path1" />
  <path
     stroke="#333333"
     stroke-width="1"
     stroke-linecap="butt"
     d="m 45.5,332.5 h 536"
     fill-rule="nonzero"
     id="path2" />
  <path
     stroke="#cccccc"
     stroke-width="1"
     stroke-linecap="butt"
     d="m 45.5,255.5 h 536"
     fill-rule="nonzero"
     id="path3" />
  <path
     stroke="#cccccc"
     stroke-width="1"
     stroke-linecap="butt"
     d="m 45.5,179.5 h 536"
     fill-rule="nonzero"
     id="path4" />
  <path
     stroke="#cccccc"
     stroke-width="1"
     stroke-linecap="butt"
     d="m 45.5,102.5 h 536"
     fill-rule="nonzero"
     id="path5" />
  <path
     stroke="#cccccc"
     stroke-width="1"
     stroke-linecap="butt"
     d="m 45.5,25.5 h 536"
     fill-rule="nonzero"
     id="path6" />
  <clipPath
     id="id_0">
    <path
       d="m 45.55,25.55 h 535.9 v 306.9 H 45.55 Z"
       clip-rule="nonzero"
       id="path7" />
  </clipPath>
  <path
     stroke="#000000"
     stroke-width="2"
     stroke-linecap="butt"
     stroke-opacity="0"
     clip-path="url(#id_0)"
     d="M 146,332 H 81 V 89 c 0,-1.10457 0.89543,-2 2,-2 h 61 c 1.10457,0 2,0.89543 2,2 z"
     fill-rule="nonzero"
     id="path8" />
  <path
     fill="#4285f4"
     clip-path="url(#id_0)"
     d="M 146,332 H 81 V 89 c 0,-1.10457 0.89543,-2 2,-2 h 61 c 1.10457,0 2,0.89543 2,2 z"
     fill-rule="nonzero"
     id="path9" />
  <path
     stroke="#000000"
     stroke-width="2"
     stroke-linecap="butt"
     stroke-opacity="0"
     clip-path="url(#id_0)"
     d="M 246,332 H 181 V 89 c 0,-1.10457 0.89543,-2 2,-2 h 61 c 1.10457,0 2,0.89543 2,2 z"
     fill-rule="nonzero"
     id="path10" />
  <path
     fill="#4285f4"
     clip-path="url(#id_0)"
     d="M 246,332 H 181 V 89 c 0,-1.10457 0.89543,-2 2,-2 h 61 c 1.10457,0 2,0.89543 2,2 z"
     fill-rule="nonzero"
     id="path11" />
  <path
     stroke="#000000"
     stroke-width="2"
     stroke-linecap="butt"
     stroke-opacity="0"
     clip-path="url(#id_0)"
     d="M 347,332 H 282 V 135 c 0,-1.10457 0.89542,-2 2,-2 h 61 c 1.10458,0 2,0.89543 2,2 z"
     fill-rule="nonzero"
     id="path12" />
  <path
     fill="#4285f4"
     clip-path="url(#id_0)"
     d="M 347,332 H 282 V 135 c 0,-1.10457 0.89542,-2 2,-2 h 61 c 1.10458,0 2,0.89543 2,2 z"
     fill-rule="nonzero"
     id="path13" />
  <path
     stroke="#000000"
     stroke-width="2"
     stroke-linecap="butt"
     stroke-opacity="0"
     clip-path="url(#id_0)"
     d="M 447,332 H 382 V 135 c 0,-1.10457 0.89542,-2 2,-2 h 61 c 1.10458,0 2,0.89543 2,2 z"
     fill-rule="nonzero"
     id="path14" />
  <path
     fill="#4285f4"
     clip-path="url(#id_0)"
     d="M 447,332 H 382 V 135 c 0,-1.10457 0.89542,-2 2,-2 h 61 c 1.10458,0 2,0.89543 2,2 z"
     fill-rule="nonzero"
     id="path15" />
  <path
     stroke="#000000"
     stroke-width="2"
     stroke-linecap="butt"
     stroke-opacity="0"
     clip-path="url(#id_0)"
     d="M 547,332 H 482 V 166 c 0,-1.10457 0.89542,-2 2,-2 h 61 c 1.10455,0 2,0.89543 2,2 z"
     fill-rule="nonzero"
     id="path16" />
  <path
     fill="#4285f4"
     clip-path="url(#id_0)"
     d="M 547,332 H 482 V 166 c 0,-1.10457 0.89542,-2 2,-2 h 61 c 1.10455,0 2,0.89543 2,2 z"
     fill-rule="nonzero"
     id="path17" />
  <path
     stroke="#4285f4"
     stroke-width="3"
     stroke-linejoin="round"
     stroke-linecap="round"
     d="M 110.26563,103.73 H 109.1875 V 96.51125 L 107,97.30813 v -0.98438 l 3.10938,-1.17187 h 0.15625 z m 7.70312,-8.53125 V 96.105 h -0.20312 Q 116.5,96.13625 115.75,96.87063 q -0.75,0.71875 -0.875,2.03125 0.6875,-0.76563 1.84375,-0.76563 1.10938,0 1.78125,0.78125 0.67188,0.78125 0.67188,2.03125 0,1.3125 -0.71875,2.10938 -0.71875,0.79687 -1.9375,0.79687 -1.21875,0 -1.98438,-0.9375 -0.75,-0.95312 -0.75,-2.4375 v -0.40625 q 0,-2.35937 1,-3.60937 1,-1.25 2.98438,-1.26563 z m -1.42187,3.84375 q -0.5625,0 -1.03125,0.32813 -0.46875,0.32812 -0.65625,0.84375 v 0.39062 q 0,1.0625 0.46875,1.70313 0.48437,0.64062 1.1875,0.64062 0.73437,0 1.15625,-0.53125 0.42187,-0.54687 0.42187,-1.42187 0,-0.875 -0.42187,-1.40625 -0.42188,-0.54688 -1.125,-0.54688 z"
     fill-rule="nonzero"
     id="path18" />
  <path
     fill="#ffffff"
     d="M 110.26563,103.73 H 109.1875 V 96.51125 L 107,97.30813 v -0.98438 l 3.10938,-1.17187 h 0.15625 z m 7.70312,-8.53125 V 96.105 h -0.20312 Q 116.5,96.13625 115.75,96.87063 q -0.75,0.71875 -0.875,2.03125 0.6875,-0.76563 1.84375,-0.76563 1.10938,0 1.78125,0.78125 0.67188,0.78125 0.67188,2.03125 0,1.3125 -0.71875,2.10938 -0.71875,0.79687 -1.9375,0.79687 -1.21875,0 -1.98438,-0.9375 -0.75,-0.95312 -0.75,-2.4375 v -0.40625 q 0,-2.35937 1,-3.60937 1,-1.25 2.98438,-1.26563 z m -1.42187,3.84375 q -0.5625,0 -1.03125,0.32813 -0.46875,0.32812 -0.65625,0.84375 v 0.39062 q 0,1.0625 0.46875,1.70313 0.48437,0.64062 1.1875,0.64062 0.73437,0 1.15625,-0.53125 0.42187,-0.54687 0.42187,-1.42187 0,-0.875 -0.42187,-1.40625 -0.42188,-0.54688 -1.125,-0.54688 z"
     fill-rule="nonzero"
     id="path19" />
  <path
     stroke="#4285f4"
     stroke-width="3"
     stroke-linejoin="round"
     stroke-linecap="round"
     d="M 210.26562,103.73 H 209.1875 V 96.51125 L 207,97.30813 v -0.98438 l 3.10938,-1.17187 h 0.15624 z m 7.70313,-8.53125 V 96.105 h -0.20313 Q 216.5,96.13625 215.75,96.87063 q -0.75,0.71875 -0.875,2.03125 0.6875,-0.76563 1.84375,-0.76563 1.10937,0 1.78125,0.78125 0.67188,0.78125 0.67188,2.03125 0,1.3125 -0.71876,2.10938 -0.71874,0.79687 -1.9375,0.79687 -1.21874,0 -1.98437,-0.9375 -0.75,-0.95312 -0.75,-2.4375 v -0.40625 q 0,-2.35937 1,-3.60937 1,-1.25 2.98437,-1.26563 z m -1.42187,3.84375 q -0.5625,0 -1.03126,0.32813 -0.46874,0.32812 -0.65624,0.84375 v 0.39062 q 0,1.0625 0.46874,1.70313 0.48438,0.64062 1.1875,0.64062 0.73438,0 1.15626,-0.53125 0.42187,-0.54687 0.42187,-1.42187 0,-0.875 -0.42187,-1.40625 -0.42188,-0.54688 -1.125,-0.54688 z"
     fill-rule="nonzero"
     id="path20" />
  <path
     fill="#ffffff"
     d="M 210.26562,103.73 H 209.1875 V 96.51125 L 207,97.30813 v -0.98438 l 3.10938,-1.17187 h 0.15624 z m 7.70313,-8.53125 V 96.105 h -0.20313 Q 216.5,96.13625 215.75,96.87063 q -0.75,0.71875 -0.875,2.03125 0.6875,-0.76563 1.84375,-0.76563 1.10937,0 1.78125,0.78125 0.67188,0.78125 0.67188,2.03125 0,1.3125 -0.71876,2.10938 -0.71874,0.79687 -1.9375,0.79687 -1.21874,0 -1.98437,-0.9375 -0.75,-0.95312 -0.75,-2.4375 v -0.40625 q 0,-2.35937 1,-3.60937 1,-1.25 2.98437,-1.26563 z m -1.42187,3.84375 q -0.5625,0 -1.03126,0.32813 -0.46874,0.32812 -0.65624,0.84375 v 0.39062 q 0,1.0625 0.46874,1.70313 0.48438,0.64062 1.1875,0.64062 0.73438,0 1.15626,-0.53125 0.42187,-0.54687 0.42187,-1.42187 0,-0.875 -0.42187,-1.40625 -0.42188,-0.54688 -1.125,-0.54688 z"
     fill-rule="nonzero"
     id="path21" />
  <path
     stroke="#4285f4"
     stroke-width="3"
     stroke-linejoin="round"
     stroke-linecap="round"
     d="m 311.26562,149.765 h -1.07812 v -7.21875 L 308,143.34312 v -0.98437 l 3.10938,-1.17188 h 0.15624 z m 5.01563,-4.79688 h 0.8125 q 0.78125,-0.0156 1.21875,-0.40625 0.4375,-0.39062 0.4375,-1.0625 0,-1.5 -1.5,-1.5 -0.70312,0 -1.125,0.40625 -0.40625,0.40625 -0.40625,1.0625 H 314.625 q 0,-1.01562 0.73438,-1.6875 0.75,-0.67187 1.89062,-0.67187 1.20312,0 1.89062,0.64062 0.6875,0.64063 0.6875,1.78125 0,0.5625 -0.35937,1.07813 -0.35937,0.51562 -0.98437,0.78125 0.70312,0.21875 1.07812,0.73437 0.39062,0.51563 0.39062,1.26563 0,1.14062 -0.75,1.82812 -0.75,0.67188 -1.95312,0.67188 -1.1875,0 -1.95312,-0.65625 -0.75,-0.65625 -0.75,-1.71875 h 1.09374 q 0,0.67187 0.4375,1.07812 0.4375,0.40625 1.1875,0.40625 0.78126,0 1.1875,-0.40625 0.42188,-0.42187 0.42188,-1.1875 0,-0.73437 -0.45312,-1.125 -0.45313,-0.40625 -1.32813,-0.42187 h -0.8125 z"
     fill-rule="nonzero"
     id="path22" />
  <path
     fill="#ffffff"
     d="m 311.26562,149.765 h -1.07812 v -7.21875 L 308,143.34312 v -0.98437 l 3.10938,-1.17188 h 0.15624 z m 5.01563,-4.79688 h 0.8125 q 0.78125,-0.0156 1.21875,-0.40625 0.4375,-0.39062 0.4375,-1.0625 0,-1.5 -1.5,-1.5 -0.70312,0 -1.125,0.40625 -0.40625,0.40625 -0.40625,1.0625 H 314.625 q 0,-1.01562 0.73438,-1.6875 0.75,-0.67187 1.89062,-0.67187 1.20312,0 1.89062,0.64062 0.6875,0.64063 0.6875,1.78125 0,0.5625 -0.35937,1.07813 -0.35937,0.51562 -0.98437,0.78125 0.70312,0.21875 1.07812,0.73437 0.39062,0.51563 0.39062,1.26563 0,1.14062 -0.75,1.82812 -0.75,0.67188 -1.95312,0.67188 -1.1875,0 -1.95312,-0.65625 -0.75,-0.65625 -0.75,-1.71875 h 1.09374 q 0,0.67187 0.4375,1.07812 0.4375,0.40625 1.1875,0.40625 0.78126,0 1.1875,-0.40625 0.42188,-0.42187 0.42188,-1.1875 0,-0.73437 -0.45312,-1.125 -0.45313,-0.40625 -1.32813,-0.42187 h -0.8125 z"
     fill-rule="nonzero"
     id="path23" />
  <path
     stroke="#4285f4"
     stroke-width="3"
     stroke-linejoin="round"
     stroke-linecap="round"
     d="m 411.26562,149.765 h -1.07812 v -7.21875 L 408,143.34312 v -0.98437 l 3.10938,-1.17188 h 0.15624 z m 5.01563,-4.79688 h 0.8125 q 0.78125,-0.0156 1.21875,-0.40625 0.4375,-0.39062 0.4375,-1.0625 0,-1.5 -1.5,-1.5 -0.70312,0 -1.125,0.40625 -0.40625,0.40625 -0.40625,1.0625 H 414.625 q 0,-1.01562 0.73438,-1.6875 0.75,-0.67187 1.89062,-0.67187 1.20312,0 1.89062,0.64062 0.6875,0.64063 0.6875,1.78125 0,0.5625 -0.35937,1.07813 -0.35937,0.51562 -0.98437,0.78125 0.70312,0.21875 1.07812,0.73437 0.39062,0.51563 0.39062,1.26563 0,1.14062 -0.75,1.82812 -0.75,0.67188 -1.95312,0.67188 -1.1875,0 -1.95312,-0.65625 -0.75,-0.65625 -0.75,-1.71875 h 1.09374 q 0,0.67187 0.4375,1.07812 0.4375,0.40625 1.1875,0.40625 0.78126,0 1.1875,-0.40625 0.42188,-0.42187 0.42188,-1.1875 0,-0.73437 -0.45312,-1.125 -0.45313,-0.40625 -1.32813,-0.42187 h -0.8125 z"
     fill-rule="nonzero"
     id="path24" />
  <path
     fill="#ffffff"
     d="m 411.26562,149.765 h -1.07812 v -7.21875 L 408,143.34312 v -0.98437 l 3.10938,-1.17188 h 0.15624 z m 5.01563,-4.79688 h 0.8125 q 0.78125,-0.0156 1.21875,-0.40625 0.4375,-0.39062 0.4375,-1.0625 0,-1.5 -1.5,-1.5 -0.70312,0 -1.125,0.40625 -0.40625,0.40625 -0.40625,1.0625 H 414.625 q 0,-1.01562 0.73438,-1.6875 0.75,-0.67187 1.89062,-0.67187 1.20312,0 1.89062,0.64062 0.6875,0.64063 0.6875,1.78125 0,0.5625 -0.35937,1.07813 -0.35937,0.51562 -0.98437,0.78125 0.70312,0.21875 1.07812,0.73437 0.39062,0.51563 0.39062,1.26563 0,1.14062 -0.75,1.82812 -0.75,0.67188 -1.95312,0.67188 -1.1875,0 -1.95312,-0.65625 -0.75,-0.65625 -0.75,-1.71875 h 1.09374 q 0,0.67187 0.4375,1.07812 0.4375,0.40625 1.1875,0.40625 0.78126,0 1.1875,-0.40625 0.42188,-0.42187 0.42188,-1.1875 0,-0.73437 -0.45312,-1.125 -0.45313,-0.40625 -1.32813,-0.42187 h -0.8125 z"
     fill-rule="nonzero"
     id="path25" />
  <path
     stroke="#4285f4"
     stroke-width="3"
     stroke-linejoin="round"
     stroke-linecap="round"
     d="m 511.26562,180.455 h -1.07812 v -7.21875 L 508,174.03313 v -0.98438 l 3.10938,-1.17187 h 0.15624 z m 6.99998,0 h -1.0781 v -7.21875 L 515,174.03313 v -0.98438 l 3.1094,-1.17187 h 0.1562 z"
     fill-rule="nonzero"
     id="path26" />
  <path
     fill="#ffffff"
     d="m 511.26562,180.455 h -1.07812 v -7.21875 L 508,174.03313 v -0.98438 l 3.10938,-1.17187 h 0.15624 z m 6.99998,0 h -1.0781 v -7.21875 L 515,174.03313 v -0.98438 l 3.1094,-1.17187 h 0.1562 z"
     fill-rule="nonzero"
     id="path27" />
  <path
     fill="#000000"
     d="m 33.05,332.21564 q 0,-1.53124 0.3125,-2.45314 0.3125,-0.9375 0.921874,-1.4375 0.625,-0.5 1.5625,-0.5 0.6875,0 1.203126,0.28126 0.53125,0.28124 0.875,0.8125 0.34375,0.51564 0.53125,1.26564 0.1875,0.75 0.1875,2.03124 0,1.51562 -0.3125,2.4375 -0.296876,0.92186 -0.921876,1.4375 -0.609374,0.5 -1.5625,0.5 -1.234374,0 -1.953124,-0.89064 Q 33.05,334.6375 33.05,332.21564 Z m 1.078124,0 q 0,2.10936 0.5,2.8125 0.5,0.70312 1.21875,0.70312 0.734376,0 1.21875,-0.70312 0.5,-0.70314 0.5,-2.8125 0,-2.125 -0.5,-2.8125 Q 36.58125,328.7 35.83125,328.7 q -0.71875,0 -1.15625,0.6094 -0.546876,0.78124 -0.546876,2.90624 z"
     fill-rule="nonzero"
     id="path28" />
  <path
     fill="#000000"
     d="m 33.05,257.475 1.109374,-0.0937 q 0.125,0.8125 0.5625,1.21874 0.453126,0.40626 1.09375,0.40626 0.75,0 1.28125,-0.57813 0.53125,-0.57813 0.53125,-1.51563 0,-0.90624 -0.515624,-1.42187 -0.5,-0.53125 -1.328126,-0.53125 -0.5,0 -0.921874,0.23438 -0.40625,0.23437 -0.640626,0.59374 l -0.984374,-0.125 0.828124,-4.40624 h 4.28125 v 1 h -3.4375 l -0.453124,2.3125 q 0.765624,-0.54688 1.609374,-0.54688 1.125,0 1.890626,0.78125 0.78125,0.78125 0.78125,2.01563 0,1.15624 -0.671876,2.01562 -0.828124,1.03125 -2.25,1.03125 -1.171874,0 -1.921874,-0.65625 Q 33.159374,258.55313 33.05,257.475 Z"
     fill-rule="nonzero"
     id="path29" />
  <path
     fill="#000000"
     d="m 30.01875,183 h -1.046876 v -6.71875 q -0.390624,0.35937 -1.015624,0.73437 -0.609376,0.35938 -1.09375,0.53126 v -1.01563 q 0.875,-0.42187 1.53125,-1 0.671874,-0.59375 0.953124,-1.15625 H 30.01875 Z M 33.05,178.76562 q 0,-1.53124 0.3125,-2.45312 0.3125,-0.9375 0.921874,-1.4375 0.625,-0.5 1.5625,-0.5 0.6875,0 1.203126,0.28125 0.53125,0.28125 0.875,0.8125 0.34375,0.51563 0.53125,1.26563 0.1875,0.75 0.1875,2.03124 0,1.51563 -0.3125,2.4375 -0.296876,0.92188 -0.921876,1.4375 -0.609374,0.5 -1.5625,0.5 -1.234374,0 -1.953124,-0.89062 Q 33.05,181.1875 33.05,178.76562 Z m 1.078124,0 q 0,2.10938 0.5,2.8125 0.5,0.70313 1.21875,0.70313 0.734376,0 1.21875,-0.70313 0.5,-0.70312 0.5,-2.8125 0,-2.125 -0.5,-2.8125 Q 36.58125,175.25 35.83125,175.25 q -0.71875,0 -1.15625,0.60938 -0.546876,0.78124 -0.546876,2.90624 z"
     fill-rule="nonzero"
     id="path30" />
  <path
     fill="#000000"
     d="m 30.01875,106.275 h -1.046876 v -6.71875 q -0.390624,0.35938 -1.015624,0.73438 -0.609376,0.35937 -1.09375,0.53125 v -1.01563 q 0.875,-0.42187 1.53125,-1 0.671874,-0.59375 0.953124,-1.15625 h 0.671876 z m 3.03125,-2.25 1.109374,-0.0937 q 0.125,0.8125 0.5625,1.21875 0.453126,0.40625 1.09375,0.40625 0.75,0 1.28125,-0.57812 0.53125,-0.57813 0.53125,-1.51563 0,-0.90625 -0.515624,-1.42187 -0.5,-0.53125 -1.328126,-0.53125 -0.5,0 -0.921874,0.23437 -0.40625,0.23438 -0.640626,0.59375 l -0.984374,-0.125 0.828124,-4.40625 h 4.28125 v 1 h -3.4375 l -0.453124,2.3125 q 0.765624,-0.54687 1.609374,-0.54687 1.125,0 1.890626,0.78125 0.78125,0.78125 0.78125,2.01562 0,1.15625 -0.671876,2.01563 -0.828124,1.03125 -2.25,1.03125 -1.171874,0 -1.921874,-0.65625 -0.734376,-0.6563 -0.84375,-1.73443 z"
     fill-rule="nonzero"
     id="path31" />
  <path
     fill="#000000"
     d="M 31.596874,28.534374 V 29.55 h -5.6875 q 0,-0.375 0.125,-0.734376 0.21875,-0.578124 0.6875,-1.140624 0.484376,-0.5625 1.390626,-1.296876 1.40625,-1.15625 1.890624,-1.828124 0.5,-0.671876 0.5,-1.265626 0,-0.625 -0.453124,-1.046874 Q 29.596874,21.8 28.878124,21.8 q -0.765624,0 -1.21875,0.453124 -0.453124,0.453126 -0.46875,1.265626 L 26.1125,23.409374 q 0.109374,-1.21875 0.828124,-1.84375 Q 27.675,20.925 28.909374,20.925 q 1.234376,0 1.953126,0.6875 0.71875,0.6875 0.71875,1.703124 0,0.515626 -0.21875,1.015626 -0.203126,0.484374 -0.703126,1.046874 -0.484374,0.546876 -1.609374,1.5 -0.953126,0.796876 -1.234376,1.09375 -0.265624,0.28125 -0.4375,0.5625 z M 33.05,25.315624 q 0,-1.53125 0.3125,-2.453124 0.3125,-0.9375 0.921874,-1.4375 0.625,-0.5 1.5625,-0.5 0.6875,0 1.203126,0.28125 0.53125,0.28125 0.875,0.8125 0.34375,0.515624 0.53125,1.265624 0.1875,0.75 0.1875,2.03125 0,1.515626 -0.3125,2.4375 -0.296876,0.921876 -0.921876,1.4375 -0.609374,0.5 -1.5625,0.5 Q 34.6125,29.690624 33.89375,28.8 33.05,27.7375 33.05,25.315624 Z m 1.078124,0 q 0,2.109376 0.5,2.8125 0.5,0.703126 1.21875,0.703126 0.734376,0 1.21875,-0.703126 0.5,-0.703124 0.5,-2.8125 0,-2.125 -0.5,-2.8125 Q 36.58125,21.8 35.83125,21.8 q -0.71875,0 -1.15625,0.609374 -0.546876,0.78125 -0.546876,2.90625 z"
     fill-rule="nonzero"
     id="path32" />
  <path
     fill="#000000"
     d="m 86.6323,349.45 v -8.59374 h 1.125 v 3.53124 h 4.46875 v -3.53124 h 1.14063 V 349.45 h -1.14063 v -4.04686 H 87.7573 V 349.45 Z m 12.89063,-0.7656 q -0.59375,0.5 -1.14063,0.7031 -0.53125,0.20314 -1.15625,0.20314 -1.03125,0 -1.57812,-0.5 -0.54688,-0.5 -0.54688,-1.28124 0,-0.45314 0.20313,-0.82814 0.20312,-0.39062 0.54687,-0.60936 0.34375,-0.2344 0.76563,-0.34376 0.29687,-0.0937 0.9375,-0.17188 1.26562,-0.14062 1.875,-0.35936 0,-0.21876 0,-0.26564 0,-0.65626 -0.29688,-0.92186 -0.40625,-0.34376 -1.20312,-0.34376 -0.73438,0 -1.09375,0.26562 -0.35938,0.25 -0.53125,0.90624 l -1.03125,-0.1406 q 0.14062,-0.65626 0.46875,-1.0625 0.32812,-0.40626 0.9375,-0.625 0.60937,-0.21876 1.40625,-0.21876 0.79687,0 1.29687,0.1875 0.5,0.1875 0.73438,0.46876 0.23437,0.28124 0.32812,0.71874 0.0469,0.26562 0.0469,0.96876 v 1.40624 q 0,1.46876 0.0625,1.85936 0.0781,0.39064 0.28125,0.75 h -1.10938 q -0.15625,-0.3281 -0.20312,-0.7656 z m -0.09375,-2.3594 q -0.57813,0.2344 -1.71875,0.40626 -0.65625,0.0937 -0.92188,0.21874 -0.26562,0.1094 -0.42187,0.32814 -0.14063,0.21876 -0.14063,0.5 0,0.42186 0.3125,0.70312 0.32813,0.28124 0.9375,0.28124 0.60938,0 1.07813,-0.2656 0.48437,-0.26564 0.70312,-0.7344 0.17188,-0.35936 0.17188,-1.04686 z m 3.01562,3.125 v -6.21874 h 0.95313 v 0.9375 q 0.35937,-0.65626 0.65625,-0.85936 0.3125,-0.21876 0.6875,-0.21876 0.53125,0 1.07812,0.32812 l -0.35937,0.98438 q -0.39063,-0.23438 -0.76563,-0.23438 -0.35937,0 -0.64062,0.21874 -0.26563,0.20314 -0.375,0.57814 -0.1875,0.5625 -0.1875,1.21876 v 3.2656 z m 4.01563,0 v -6.21874 h 0.9375 v 0.875 q 0.29687,-0.46876 0.78125,-0.73436 0.48437,-0.28126 1.10937,-0.28126 0.6875,0 1.125,0.28126 0.45313,0.28124 0.625,0.79686 0.75,-1.07812 1.92188,-1.07812 0.9375,0 1.42187,0.51562 0.5,0.5 0.5,1.57814 v 4.2656 h -1.04687 v -3.92186 q 0,-0.625 -0.10938,-0.90624 -0.0937,-0.28126 -0.35937,-0.45314 -0.26563,-0.17186 -0.64063,-0.17186 -0.65625,0 -1.09375,0.4375 -0.42187,0.4375 -0.42187,1.40624 V 349.45 h -1.0625 v -4.04686 q 0,-0.70314 -0.26563,-1.04688 -0.25,-0.35936 -0.82812,-0.35936 -0.45313,0 -0.82813,0.23436 -0.375,0.23438 -0.54687,0.6875 -0.17188,0.45314 -0.17188,1.29688 V 349.45 Z m 10.60937,-3.10936 q 0,-1.73438 0.95313,-2.5625 0.79687,-0.6875 1.95312,-0.6875 1.28125,0 2.09375,0.84376 0.82813,0.8281 0.82813,2.3125 0,1.2031 -0.35938,1.8906 -0.35937,0.6875 -1.0625,1.07814 -0.6875,0.375 -1.5,0.375 -1.29687,0 -2.10937,-0.82814 -0.79688,-0.84374 -0.79688,-2.42186 z m 1.07813,0 q 0,1.1875 0.51562,1.78126 0.53125,0.59374 1.3125,0.59374 0.79688,0 1.3125,-0.59374 0.51563,-0.59376 0.51563,-1.8125 0,-1.15626 -0.53125,-1.75 -0.51563,-0.59376 -1.29688,-0.59376 -0.78125,0 -1.3125,0.59376 -0.51562,0.5781 -0.51562,1.78124 z m 6.3125,3.10936 v -6.21874 h 0.9375 v 0.875 q 0.6875,-1.01562 1.98437,-1.01562 0.5625,0 1.03124,0.20312 0.48438,0.20314 0.71876,0.53124 0.23437,0.32814 0.32812,0.76564 0.0469,0.29686 0.0469,1.03126 v 3.8281 h -1.04688 v -3.78124 q 0,-0.65626 -0.125,-0.96876 -0.125,-0.3125 -0.43749,-0.5 -0.3125,-0.2031 -0.73438,-0.2031 -0.67187,0 -1.17187,0.4375 -0.48438,0.42186 -0.48438,1.60936 V 349.45 Z m 6.99999,-7.375 v -1.21874 h 1.0625 v 1.21874 z m 0,7.375 v -6.21874 h 1.0625 V 349.45 Z m 7.25,-2 1.09375,0.125 q -0.25,0.95314 -0.95313,1.4844 -0.70312,0.53124 -1.78124,0.53124 -1.35938,0 -2.17188,-0.84374 -0.79688,-0.84376 -0.79688,-2.3594 0,-1.5625 0.8125,-2.42186 0.8125,-0.875 2.09376,-0.875 1.25,0 2.03124,0.84376 0.79688,0.84374 0.79688,2.3906 0,0.0938 0,0.28126 h -4.64062 q 0.0625,1.03124 0.57812,1.57814 0.51562,0.53124 1.29688,0.53124 0.57812,0 0.98437,-0.29688 0.42187,-0.3125 0.65625,-0.96876 z m -3.45312,-1.7031 h 3.46874 q -0.0625,-0.7969 -0.39062,-1.1875 -0.51562,-0.6094 -1.3125,-0.6094 -0.73438,0 -1.23438,0.4844 -0.48437,0.48436 -0.53124,1.3125 z"
     fill-rule="nonzero"
     id="path33" />
  <path
     fill="#000000"
     d="m 174.87865,346.6844 1.0625,-0.0938 q 0.0781,0.65626 0.35937,1.0625 0.28125,0.40626 0.85938,0.67186 0.59375,0.25 1.32812,0.25 0.64063,0 1.14063,-0.1875 0.5,-0.2031 0.73437,-0.53124 0.25,-0.34376 0.25,-0.73436 0,-0.40626 -0.23437,-0.70314 -0.23438,-0.3125 -0.76563,-0.51562 -0.35937,-0.14064 -1.54687,-0.42188 -1.17188,-0.28126 -1.64063,-0.53126 -0.625,-0.3281 -0.92187,-0.79686 -0.29688,-0.48438 -0.29688,-1.07814 0,-0.6406 0.35938,-1.2031 0.375,-0.57814 1.07812,-0.8594 0.71875,-0.29686 1.57813,-0.29686 0.95312,0 1.6875,0.3125 0.73437,0.29686 1.125,0.90626 0.39062,0.59374 0.42187,1.34374 l -1.09375,0.0781 q -0.0937,-0.8125 -0.60937,-1.21876 -0.5,-0.42186 -1.48438,-0.42186 -1.03125,0 -1.5,0.375 -0.46875,0.375 -0.46875,0.90626 0,0.46874 0.32813,0.7656 0.32812,0.2969 1.70312,0.6094 1.39063,0.3125 1.90625,0.54686 0.75,0.35938 1.10938,0.89064 0.35937,0.5156 0.35937,1.21874 0,0.6875 -0.39062,1.29686 -0.39063,0.59376 -1.125,0.9375 -0.73438,0.32814 -1.65625,0.32814 -1.17188,0 -1.96875,-0.32814 -0.78125,-0.34374 -1.23438,-1.03124 -0.4375,-0.6875 -0.45312,-1.54686 z m 7.85937,-0.34376 q 0,-1.73438 0.95313,-2.5625 0.79687,-0.6875 1.95312,-0.6875 1.28125,0 2.09375,0.84376 0.82813,0.8281 0.82813,2.3125 0,1.2031 -0.35938,1.8906 -0.35937,0.6875 -1.0625,1.07814 -0.6875,0.375 -1.5,0.375 -1.29687,0 -2.10937,-0.82814 -0.79688,-0.84374 -0.79688,-2.42186 z m 1.07813,0 q 0,1.1875 0.51562,1.78126 0.53125,0.59374 1.3125,0.59374 0.79688,0 1.3125,-0.59374 0.51563,-0.59376 0.51563,-1.8125 0,-1.15626 -0.53125,-1.75 -0.51563,-0.59376 -1.29688,-0.59376 -0.78125,0 -1.3125,0.59376 -0.51562,0.5781 -0.51562,1.78124 z m 10.39062,3.10936 v -0.92186 q -0.73437,1.0625 -1.98437,1.0625 -0.54688,0 -1.03125,-0.20314 -0.46875,-0.21874 -0.70313,-0.53124 -0.23437,-0.32812 -0.32812,-0.79686 -0.0625,-0.2969 -0.0625,-0.9844 v -3.84374 h 1.0625 v 3.45314 q 0,0.8125 0.0625,1.10936 0.0937,0.40624 0.40625,0.65624 0.32812,0.2344 0.8125,0.2344 0.46875,0 0.875,-0.2344 0.42187,-0.25 0.59375,-0.67186 0.1875,-0.42188 0.1875,-1.21874 v -3.32814 h 1.04687 V 349.45 Z m 2.92188,0 v -6.21874 h 0.9375 v 0.875 q 0.6875,-1.01562 1.98437,-1.01562 0.5625,0 1.03125,0.20312 0.48438,0.20314 0.71875,0.53124 0.23438,0.32814 0.32813,0.76564 0.0469,0.29686 0.0469,1.03126 v 3.8281 h -1.04687 v -3.78124 q 0,-0.65626 -0.125,-0.96876 -0.125,-0.3125 -0.4375,-0.5 -0.3125,-0.2031 -0.73438,-0.2031 -0.67187,0 -1.17187,0.4375 -0.48438,0.42186 -0.48438,1.60936 V 349.45 Z m 11.03125,0 v -0.78124 q -0.59375,0.92188 -1.73438,0.92188 -0.75,0 -1.375,-0.40624 -0.625,-0.4219 -0.96875,-1.15626 -0.34375,-0.73438 -0.34375,-1.6875 0,-0.92188 0.3125,-1.6875 0.3125,-0.76564 0.9375,-1.15624 0.625,-0.40626 1.39063,-0.40626 0.5625,0 1,0.23436 0.4375,0.2344 0.71875,0.6094 v -3.07814 h 1.04687 V 349.45 Z m -3.32813,-3.10936 q 0,1.20312 0.5,1.79686 0.5,0.57814 1.1875,0.57814 0.6875,0 1.17188,-0.5625 0.48437,-0.5625 0.48437,-1.71874 0,-1.28126 -0.5,-1.875 -0.48437,-0.59376 -1.20312,-0.59376 -0.70313,0 -1.17188,0.57812 -0.46875,0.5625 -0.46875,1.79688 z m 5.875,0.53126 v -1.0625 h 3.25 v 1.0625 z m 8.45313,2.5781 v -0.78124 q -0.59375,0.92188 -1.73438,0.92188 -0.75,0 -1.375,-0.40624 -0.625,-0.4219 -0.96875,-1.15626 -0.34375,-0.73438 -0.34375,-1.6875 0,-0.92188 0.3125,-1.6875 0.3125,-0.76564 0.9375,-1.15624 0.625,-0.40626 1.39063,-0.40626 0.5625,0 1,0.23436 0.4375,0.2344 0.71875,0.6094 v -3.07814 h 1.04687 V 349.45 Z m -3.32813,-3.10936 q 0,1.20312 0.5,1.79686 0.5,0.57814 1.1875,0.57814 0.6875,0 1.17188,-0.5625 0.48437,-0.5625 0.48437,-1.71874 0,-1.28126 -0.5,-1.875 -0.48437,-0.59376 -1.20312,-0.59376 -0.70313,0 -1.17188,0.57812 -0.46875,0.5625 -0.46875,1.79688 z m 10.54688,1.10936 1.09375,0.125 q -0.25,0.95314 -0.95313,1.4844 -0.70312,0.53124 -1.78125,0.53124 -1.35937,0 -2.17187,-0.84374 -0.79688,-0.84376 -0.79688,-2.3594 0,-1.5625 0.8125,-2.42186 0.8125,-0.875 2.09375,-0.875 1.25,0 2.03125,0.84376 0.79688,0.84374 0.79688,2.3906 0,0.0938 0,0.28126 h -4.64063 q 0.0625,1.03124 0.57813,1.57814 0.51562,0.53124 1.29687,0.53124 0.57813,0 0.98438,-0.29688 0.42187,-0.3125 0.65625,-0.96876 z m -3.45313,-1.7031 h 3.46875 q -0.0625,-0.7969 -0.39062,-1.1875 -0.51563,-0.6094 -1.3125,-0.6094 -0.73438,0 -1.23438,0.4844 -0.48437,0.48436 -0.53125,1.3125 z m 5.78125,1.84374 1.03125,-0.15624 q 0.0937,0.625 0.48438,0.9531 0.40625,0.32814 1.14062,0.32814 0.71875,0 1.0625,-0.28124 0.35938,-0.2969 0.35938,-0.70314 0,-0.35936 -0.3125,-0.5625 -0.21875,-0.14062 -1.07813,-0.35936 -1.15625,-0.2969 -1.60937,-0.5 -0.4375,-0.21876 -0.67188,-0.59376 -0.23437,-0.375 -0.23437,-0.84374 0,-0.40626 0.1875,-0.76564 0.1875,-0.35936 0.51562,-0.59376 0.25,-0.17186 0.67188,-0.29686 0.42187,-0.125 0.92187,-0.125 0.71875,0 1.26563,0.21876 0.5625,0.2031 0.82812,0.5625 0.26563,0.35936 0.35938,0.9531 l -1.03125,0.14064 q -0.0625,-0.46874 -0.40625,-0.73438 -0.32813,-0.28126 -0.95313,-0.28126 -0.71875,0 -1.03125,0.25 -0.3125,0.2344 -0.3125,0.5625 0,0.20314 0.125,0.3594 0.14063,0.17186 0.40625,0.28124 0.15625,0.0625 0.9375,0.26562 1.125,0.3125 1.5625,0.5 0.4375,0.1875 0.6875,0.54688 0.25,0.35936 0.25,0.90626 0,0.53124 -0.3125,1 -0.29687,0.4531 -0.875,0.71874 -0.57812,0.25 -1.3125,0.25 -1.21875,0 -1.85937,-0.5 -0.625,-0.51564 -0.79688,-1.5 z m 7.42188,-5.51564 v -1.21874 h 1.0625 v 1.21874 z m 0,7.375 v -6.21874 h 1.0625 V 349.45 Z m 2.79687,0.51564 1.03125,0.15626 q 0.0625,0.46874 0.35938,0.6875 0.39062,0.29686 1.0625,0.29686 0.73437,0 1.125,-0.29686 0.40625,-0.2969 0.54687,-0.8125 0.0937,-0.32814 0.0781,-1.3594 -0.6875,0.8125 -1.71875,0.8125 -1.28125,0 -1.98438,-0.92186 -0.70312,-0.9375 -0.70312,-2.21874 0,-0.89064 0.3125,-1.64064 0.32812,-0.76562 0.9375,-1.17186 0.60937,-0.40626 1.4375,-0.40626 1.10937,0 1.82812,0.89062 v -0.75 h 0.96875 v 5.375 q 0,1.45314 -0.29687,2.0625 -0.29688,0.60938 -0.9375,0.95314 -0.64063,0.35936 -1.57813,0.35936 -1.10937,0 -1.79687,-0.5 -0.6875,-0.5 -0.67188,-1.51562 z m 0.875,-3.73438 q 0,1.21874 0.48438,1.78124 0.48437,0.5625 1.21875,0.5625 0.73437,0 1.21875,-0.5625 0.5,-0.5625 0.5,-1.75 0,-1.1406 -0.51563,-1.71874 -0.5,-0.57812 -1.21875,-0.57812 -0.70312,0 -1.20312,0.57812 -0.48438,0.5625 -0.48438,1.6875 z m 6.32813,3.21874 v -6.21874 h 0.9375 v 0.875 q 0.6875,-1.01562 1.98437,-1.01562 0.5625,0 1.03125,0.20312 0.48438,0.20314 0.71875,0.53124 0.23438,0.32814 0.32813,0.76564 0.0469,0.29686 0.0469,1.03126 v 3.8281 h -1.04687 v -3.78124 q 0,-0.65626 -0.125,-0.96876 -0.125,-0.3125 -0.4375,-0.5 -0.3125,-0.2031 -0.73438,-0.2031 -0.67187,0 -1.17187,0.4375 -0.48438,0.42186 -0.48438,1.60936 V 349.45 Z"
     fill-rule="nonzero"
     id="path34" />
  <path
     fill="#000000"
     d="m 277.98438,349.45 3.29687,-8.59374 H 282.5 l 3.51562,8.59374 h -1.28124 l -1.01563,-2.60936 h -3.57813 L 279.1875,349.45 Z m 2.48437,-3.53124 h 2.90625 l -0.89062,-2.375 q -0.42188,-1.07812 -0.60938,-1.78126 -0.17188,0.82814 -0.46875,1.64064 z m 5.3125,3.53124 v -6.21874 h 0.95313 v 0.9375 q 0.35937,-0.65626 0.65624,-0.85936 0.3125,-0.21876 0.6875,-0.21876 0.53126,0 1.07813,0.32812 l -0.35937,0.98438 q -0.39063,-0.23438 -0.76563,-0.23438 -0.35937,0 -0.64063,0.21874 -0.26562,0.20314 -0.375,0.57814 -0.1875,0.5625 -0.1875,1.21876 v 3.2656 z m 4,0 v -6.21874 h 0.95313 v 0.9375 q 0.35937,-0.65626 0.65624,-0.85936 0.3125,-0.21876 0.6875,-0.21876 0.53126,0 1.07813,0.32812 l -0.35937,0.98438 q -0.39063,-0.23438 -0.76563,-0.23438 -0.35937,0 -0.64063,0.21874 -0.26562,0.20314 -0.375,0.57814 -0.1875,0.5625 -0.1875,1.21876 v 3.2656 z m 8.07813,-0.7656 q -0.59376,0.5 -1.14063,0.7031 -0.53125,0.20314 -1.15625,0.20314 -1.03125,0 -1.57812,-0.5 -0.54688,-0.5 -0.54688,-1.28124 0,-0.45314 0.20312,-0.82814 0.20313,-0.39062 0.54688,-0.60936 0.34375,-0.2344 0.76562,-0.34376 0.29688,-0.0937 0.9375,-0.17188 1.26563,-0.14062 1.875,-0.35936 0,-0.21876 0,-0.26564 0,-0.65626 -0.29687,-0.92186 -0.40625,-0.34376 -1.20313,-0.34376 -0.73437,0 -1.09374,0.26562 -0.35938,0.25 -0.53126,0.90624 l -1.03124,-0.1406 q 0.14062,-0.65626 0.46874,-1.0625 0.32813,-0.40626 0.9375,-0.625 0.60938,-0.21876 1.40626,-0.21876 0.79687,0 1.29687,0.1875 0.5,0.1875 0.73437,0.46876 0.23438,0.28124 0.32813,0.71874 0.0469,0.26562 0.0469,0.96876 v 1.40624 q 0,1.46876 0.0625,1.85936 0.0781,0.39064 0.28126,0.75 h -1.10938 q -0.15625,-0.3281 -0.20312,-0.7656 z m -0.0938,-2.3594 q -0.57812,0.2344 -1.71874,0.40626 -0.65626,0.0937 -0.92188,0.21874 -0.26562,0.1094 -0.42188,0.32814 -0.14062,0.21876 -0.14062,0.5 0,0.42186 0.3125,0.70312 0.32812,0.28124 0.9375,0.28124 0.60938,0 1.07812,-0.2656 0.48438,-0.26564 0.70313,-0.7344 0.17187,-0.35936 0.17187,-1.04686 z m 3.03126,3.125 v -6.21874 h 0.9375 v 0.875 q 0.6875,-1.01562 1.98437,-1.01562 0.5625,0 1.03125,0.20312 0.48438,0.20314 0.71875,0.53124 0.23437,0.32814 0.32813,0.76564 0.0469,0.29686 0.0469,1.03126 v 3.8281 h -1.04687 v -3.78124 q 0,-0.65626 -0.125,-0.96876 -0.125,-0.3125 -0.4375,-0.5 -0.3125,-0.2031 -0.73438,-0.2031 -0.67188,0 -1.17188,0.4375 -0.48437,0.42186 -0.48437,1.60936 V 349.45 Z m 6.79687,0.51564 1.03125,0.15626 q 0.0625,0.46874 0.35938,0.6875 0.39062,0.29686 1.0625,0.29686 0.73437,0 1.125,-0.29686 0.40624,-0.2969 0.54687,-0.8125 0.0937,-0.32814 0.0781,-1.3594 -0.6875,0.8125 -1.71876,0.8125 -1.28124,0 -1.98437,-0.92186 -0.70313,-0.9375 -0.70313,-2.21874 0,-0.89064 0.3125,-1.64064 0.32813,-0.76562 0.9375,-1.17186 0.60938,-0.40626 1.4375,-0.40626 1.10938,0 1.82813,0.89062 v -0.75 h 0.96875 v 5.375 q 0,1.45314 -0.29688,2.0625 -0.29687,0.60938 -0.9375,0.95314 -0.64062,0.35936 -1.57812,0.35936 -1.10938,0 -1.79688,-0.5 -0.6875,-0.5 -0.67187,-1.51562 z m 0.875,-3.73438 q 0,1.21874 0.48437,1.78124 0.48438,0.5625 1.21876,0.5625 0.73437,0 1.21874,-0.5625 0.5,-0.5625 0.5,-1.75 0,-1.1406 -0.51562,-1.71874 -0.5,-0.57812 -1.21875,-0.57812 -0.70313,0 -1.20313,0.57812 -0.48437,0.5625 -0.48437,1.6875 z m 10.57813,1.21874 1.09374,0.125 q -0.25,0.95314 -0.95312,1.4844 -0.70312,0.53124 -1.78125,0.53124 -1.35937,0 -2.17187,-0.84374 -0.79688,-0.84376 -0.79688,-2.3594 0,-1.5625 0.8125,-2.42186 0.8125,-0.875 2.09375,-0.875 1.25,0 2.03125,0.84376 0.79688,0.84374 0.79688,2.3906 0,0.0938 0,0.28126 h -4.64063 q 0.0625,1.03124 0.57813,1.57814 0.51562,0.53124 1.29687,0.53124 0.57813,0 0.98437,-0.29688 0.42188,-0.3125 0.65626,-0.96876 z m -3.45313,-1.7031 h 3.46875 Q 319,344.95 318.67188,344.5594 q -0.51563,-0.6094 -1.3125,-0.6094 -0.73438,0 -1.23438,0.4844 -0.48438,0.48436 -0.53125,1.3125 z m 6.20313,3.7031 v -6.21874 h 0.9375 v 0.875 q 0.29687,-0.46876 0.78124,-0.73436 0.48438,-0.28126 1.10938,-0.28126 0.6875,0 1.125,0.28126 0.45312,0.28124 0.625,0.79686 0.75,-1.07812 1.92188,-1.07812 0.9375,0 1.42187,0.51562 0.5,0.5 0.5,1.57814 v 4.2656 h -1.04687 v -3.92186 q 0,-0.625 -0.10938,-0.90624 -0.0937,-0.28126 -0.35938,-0.45314 -0.26562,-0.17186 -0.64062,-0.17186 -0.65625,0 -1.09375,0.4375 -0.42187,0.4375 -0.42187,1.40624 V 349.45 h -1.0625 v -4.04686 q 0,-0.70314 -0.26563,-1.04688 -0.25,-0.35936 -0.82813,-0.35936 -0.45312,0 -0.82812,0.23436 -0.375,0.23438 -0.54688,0.6875 -0.17187,0.45314 -0.17187,1.29688 V 349.45 Z m 15.25,-2 1.09374,0.125 q -0.25,0.95314 -0.95312,1.4844 -0.70312,0.53124 -1.78125,0.53124 -1.35937,0 -2.17187,-0.84374 -0.79688,-0.84376 -0.79688,-2.3594 0,-1.5625 0.8125,-2.42186 0.8125,-0.875 2.09375,-0.875 1.25,0 2.03125,0.84376 0.79688,0.84374 0.79688,2.3906 0,0.0938 0,0.28126 h -4.64063 q 0.0625,1.03124 0.57813,1.57814 0.51562,0.53124 1.29687,0.53124 0.57813,0 0.98437,-0.29688 0.42188,-0.3125 0.65626,-0.96876 z m -3.45313,-1.7031 h 3.46875 Q 337,344.95 336.67188,344.5594 q -0.51563,-0.6094 -1.3125,-0.6094 -0.73438,0 -1.23438,0.4844 -0.48438,0.48436 -0.53125,1.3125 z m 6.20313,3.7031 v -6.21874 h 0.9375 v 0.875 q 0.6875,-1.01562 1.98437,-1.01562 0.5625,0 1.03125,0.20312 0.48438,0.20314 0.71875,0.53124 0.23437,0.32814 0.32813,0.76564 0.0469,0.29686 0.0469,1.03126 v 3.8281 h -1.04687 v -3.78124 q 0,-0.65626 -0.125,-0.96876 -0.125,-0.3125 -0.4375,-0.5 -0.3125,-0.2031 -0.73438,-0.2031 -0.67188,0 -1.17188,0.4375 -0.48437,0.42186 -0.48437,1.60936 V 349.45 Z m 9.29687,-0.9375 0.15625,0.9219 q -0.45312,0.0937 -0.79688,0.0937 -0.57812,0 -0.89062,-0.17188 -0.3125,-0.1875 -0.45312,-0.48436 -0.125,-0.2969 -0.125,-1.25 v -3.57814 h -0.76563 v -0.8125 h 0.76563 v -1.54686 l 1.04687,-0.625 v 2.17186 h 1.0625 v 0.8125 h -1.0625 v 3.64064 q 0,0.4531 0.0469,0.5781 0.0625,0.125 0.1875,0.20314 0.125,0.0781 0.35938,0.0781 0.1875,0 0.46875,-0.0313 z"
     fill-rule="nonzero"
     id="path35" />
  <path
     fill="#000000"
     d="m 406.05884,349.45 v -8.59374 h 1.71876 l 2.03124,6.07814 q 0.28126,0.85936 0.40626,1.28124 0.1406,-0.46874 0.4531,-1.375 l 2.0625,-5.98438 h 1.53126 V 349.45 h -1.09376 v -7.1875 l -2.5,7.1875 h -1.03124 l -2.48436,-7.3125 v 7.3125 z m 8.90626,-7.375 v -1.21874 h 1.0625 v 1.21874 z m 0,7.375 v -6.21874 h 1.0625 V 349.45 Z m 2.29686,0 2.26564,-3.23436 -2.09376,-2.98438 h 1.3125 l 0.95312,1.45314 q 0.26564,0.42186 0.4375,0.7031 0.25,-0.3906 0.46874,-0.6875 l 1.0469,-1.46874 h 1.2656 l -2.15624,2.92188 2.3125,3.29686 h -1.28126 l -1.28124,-1.9375 -0.34376,-0.5156 -1.6406,2.4531 z"
     fill-rule="nonzero"
     id="path36" />
  <path
     fill="#000000"
     d="m 493.77396,349.45 v -8.59374 h 3.8125 q 1.15624,0 1.75,0.23438 0.59374,0.23436 0.95312,0.82812 0.35938,0.57814 0.35938,1.28124 0,0.9219 -0.59376,1.5469 -0.59374,0.625 -1.82812,0.79686 0.45312,0.21874 0.6875,0.42188 0.5,0.45312 0.9375,1.14062 l 1.5,2.34374 h -1.4375 l -1.125,-1.78124 q -0.5,-0.78126 -0.82812,-1.1875 -0.3125,-0.40626 -0.57813,-0.5625 -0.25,-0.17186 -0.51563,-0.25 -0.1875,-0.0313 -0.625,-0.0313 h -1.32812 v 3.8125 z m 1.14062,-4.79686 h 2.45312 q 0.76563,0 1.20313,-0.15624 0.45313,-0.1719 0.67187,-0.51564 0.23438,-0.35936 0.23438,-0.78126 0,-0.60936 -0.45312,-1 -0.4375,-0.3906 -1.39063,-0.3906 h -2.71875 z m 7.67188,7.1875 -0.125,-0.98438 q 0.34374,0.0937 0.60937,0.0937 0.34375,0 0.54687,-0.125 0.21876,-0.10936 0.35938,-0.3125 0.0937,-0.17186 0.32812,-0.79686 0.0156,-0.0781 0.0938,-0.25 l -2.375,-6.23438 h 1.14062 l 1.29688,3.59374 q 0.25,0.6875 0.45312,1.45314 0.1875,-0.73438 0.4375,-1.42188 l 1.32812,-3.625 h 1.04688 l -2.35938,6.32814 q -0.39062,1.0156 -0.59374,1.40624 -0.28126,0.53126 -0.65626,0.76562 -0.35937,0.25 -0.85937,0.25 -0.29687,0 -0.67187,-0.14062 z m 7.34374,-3.32814 0.15626,0.9219 q -0.45313,0.0937 -0.79688,0.0937 -0.57812,0 -0.89062,-0.17188 -0.3125,-0.1875 -0.45313,-0.48436 -0.125,-0.2969 -0.125,-1.25 v -3.57814 h -0.76563 v -0.8125 h 0.76563 v -1.54686 l 1.04687,-0.625 v 2.17186 h 1.0625 v 0.8125 h -1.0625 v 3.64064 q 0,0.4531 0.0469,0.5781 0.0625,0.125 0.1875,0.20314 0.125,0.0781 0.35938,0.0781 0.1875,0 0.46874,-0.0313 z m 0.70313,0.9375 v -8.59374 h 1.04687 v 3.07814 q 0.73435,-0.84376 1.85935,-0.84376 0.70315,0 1.20315,0.28126 0.5156,0.2656 0.73435,0.75 0.21875,0.46874 0.21875,1.3906 v 3.9375 h -1.0469 v -3.9375 q 0,-0.79686 -0.3437,-1.15624 -0.3438,-0.35936 -0.9688,-0.35936 -0.4687,0 -0.8906,0.25 -0.40625,0.23436 -0.59372,0.65624 -0.17188,0.40626 -0.17188,1.14062 V 349.45 Z m 6.99997,0 v -6.21874 h 0.9375 v 0.875 q 0.2969,-0.46876 0.78125,-0.73436 0.48435,-0.28126 1.10935,-0.28126 0.6875,0 1.125,0.28126 0.45315,0.28124 0.625,0.79686 0.75,-1.07812 1.9219,-1.07812 0.9375,0 1.4219,0.51562 0.5,0.5 0.5,1.57814 v 4.2656 h -1.0469 v -3.92186 q 0,-0.625 -0.1094,-0.90624 -0.0937,-0.28126 -0.35935,-0.45314 -0.26565,-0.17186 -0.64065,-0.17186 -0.6562,0 -1.0937,0.4375 -0.4219,0.4375 -0.4219,1.40624 V 349.45 h -1.0625 v -4.04686 q 0,-0.70314 -0.2656,-1.04688 -0.25,-0.35936 -0.82815,-0.35936 -0.45315,0 -0.82815,0.23436 -0.375,0.23438 -0.54685,0.6875 -0.17185,0.45314 -0.17185,1.29688 V 349.45 Z m 15.25,-2 1.09375,0.125 q -0.25,0.95314 -0.95315,1.4844 -0.7031,0.53124 -1.7812,0.53124 -1.3594,0 -2.1719,-0.84374 -0.7969,-0.84376 -0.7969,-2.3594 0,-1.5625 0.8125,-2.42186 0.8125,-0.875 2.0938,-0.875 1.25,0 2.0312,0.84376 0.7969,0.84374 0.7969,2.3906 0,0.0938 0,0.28126 h -4.6406 q 0.0625,1.03124 0.5781,1.57814 0.5156,0.53124 1.2969,0.53124 0.5781,0 0.98435,-0.29688 0.42185,-0.3125 0.65625,-0.96876 z m -3.4531,-1.7031 h 3.4687 q -0.0625,-0.7969 -0.3906,-1.1875 -0.5156,-0.6094 -1.3125,-0.6094 -0.7344,0 -1.2344,0.4844 -0.48435,0.48436 -0.5312,1.3125 z"
     fill-rule="nonzero"
     id="path37" />
  <path
     fill="#ffffff"
     d="m 602.70763,0.03128 h 599.99997 v 371 H 602.70763 Z"
     fill-rule="nonzero"
     id="path15-2" />
  <path
     stroke="#333333"
     stroke-width="1"
     stroke-linecap="butt"
     d="M 648.20763,332.53128 H 1184.2076"
     fill-rule="nonzero"
     id="path16-1" />
  <path
     stroke="#cccccc"
     stroke-width="1"
     stroke-linecap="butt"
     d="M 648.20763,230.53128 H 1184.2076"
     fill-rule="nonzero"
     id="path17-1" />
  <path
     stroke="#cccccc"
     stroke-width="1"
     stroke-linecap="butt"
     d="M 648.20763,127.53128 H 1184.2076"
     fill-rule="nonzero"
     id="path18-0" />
  <path
     stroke="#cccccc"
     stroke-width="1"
     stroke-linecap="butt"
     d="M 648.20763,25.53128 H 1184.2076"
     fill-rule="nonzero"
     id="path19-1" />
  <path
     stroke="#000000"
     stroke-width="2"
     stroke-linecap="butt"
     stroke-opacity="0"
     clip-path="url(#id_0-4)"
     d="M 119,332 H 72 v 0 z"
     fill-rule="nonzero"
     id="path20-8"
     transform="translate(602.70763,0.03128)" />
  <path
     fill="#4285f4"
     clip-path="url(#id_0-4)"
     d="M 119,332 H 72 v 0 z"
     fill-rule="nonzero"
     id="path21-7"
     transform="translate(602.70763,0.03128)" />
  <path
     stroke="#000000"
     stroke-width="2"
     stroke-linecap="butt"
     stroke-opacity="0"
     clip-path="url(#id_0-4)"
     d="m 192,332 h -47 v 0 z"
     fill-rule="nonzero"
     id="path22-6"
     transform="translate(602.70763,0.03128)" />
  <path
     fill="#4285f4"
     clip-path="url(#id_0-4)"
     d="m 192,332 h -47 v 0 z"
     fill-rule="nonzero"
     id="path23-0"
     transform="translate(602.70763,0.03128)" />
  <path
     stroke="#000000"
     stroke-width="2"
     stroke-linecap="butt"
     stroke-opacity="0"
     clip-path="url(#id_0-4)"
     d="m 265,332 h -47 v 0 z"
     fill-rule="nonzero"
     id="path24-0"
     transform="translate(602.70763,0.03128)" />
  <path
     fill="#4285f4"
     clip-path="url(#id_0-4)"
     d="m 265,332 h -47 v 0 z"
     fill-rule="nonzero"
     id="path25-9"
     transform="translate(602.70763,0.03128)" />
  <path
     stroke="#000000"
     stroke-width="2"
     stroke-linecap="butt"
     stroke-opacity="0"
     clip-path="url(#id_0-4)"
     d="m 338,332 h -47 v 0 z"
     fill-rule="nonzero"
     id="path26-5"
     transform="translate(602.70763,0.03128)" />
  <path
     fill="#4285f4"
     clip-path="url(#id_0-4)"
     d="m 338,332 h -47 v 0 z"
     fill-rule="nonzero"
     id="path27-6"
     transform="translate(602.70763,0.03128)" />
  <path
     stroke="#000000"
     stroke-width="2"
     stroke-linecap="butt"
     stroke-opacity="0"
     clip-path="url(#id_0-4)"
     d="m 410,332 h -47 v -59 c 0,-1.10458 0.89542,-2 2,-2 h 43 c 1.10458,0 2,0.89542 2,2 z"
     fill-rule="nonzero"
     id="path28-2"
     transform="translate(602.70763,0.03128)" />
  <path
     fill="#4285f4"
     clip-path="url(#id_0-4)"
     d="m 410,332 h -47 v -59 c 0,-1.10458 0.89542,-2 2,-2 h 43 c 1.10458,0 2,0.89542 2,2 z"
     fill-rule="nonzero"
     id="path29-8"
     transform="translate(602.70763,0.03128)" />
  <path
     stroke="#000000"
     stroke-width="2"
     stroke-linecap="butt"
     stroke-opacity="0"
     clip-path="url(#id_0-4)"
     d="M 483,332 H 436 V 48 c 0,-1.10457 0.89542,-2 2,-2 h 43 c 1.10458,0 2,0.89543 2,2 z"
     fill-rule="nonzero"
     id="path30-5"
     transform="translate(602.70763,0.03128)" />
  <path
     fill="#4285f4"
     clip-path="url(#id_0-4)"
     d="M 483,332 H 436 V 48 c 0,-1.10457 0.89542,-2 2,-2 h 43 c 1.10458,0 2,0.89543 2,2 z"
     fill-rule="nonzero"
     id="path31-9"
     transform="translate(602.70763,0.03128)" />
  <path
     stroke="#000000"
     stroke-width="2"
     stroke-linecap="butt"
     stroke-opacity="0"
     clip-path="url(#id_0-4)"
     d="M 556,332 H 509 V 191 c 0,-1.10457 0.89542,-2 2,-2 h 43 c 1.10455,0 2,0.89543 2,2 z"
     fill-rule="nonzero"
     id="path32-4"
     transform="translate(602.70763,0.03128)" />
  <path
     fill="#4285f4"
     clip-path="url(#id_0-4)"
     d="M 556,332 H 509 V 191 c 0,-1.10457 0.89542,-2 2,-2 h 43 c 1.10455,0 2,0.89543 2,2 z"
     fill-rule="nonzero"
     id="path33-3"
     transform="translate(602.70763,0.03128)" />
  <path
     stroke="#ffffff"
     stroke-width="3"
     stroke-linejoin="round"
     stroke-linecap="round"
     d="m 700.27013,313.84068 q 0,1.90624 -0.65625,2.84374 -0.64063,0.92186 -2.03125,0.92186 -1.35938,0 -2.01563,-0.90624 -0.65625,-0.90626 -0.6875,-2.71876 v -1.4375 q 0,-1.8906 0.64063,-2.79686 0.65625,-0.92188 2.04687,-0.92188 1.375,0 2.03125,0.89064 0.65625,0.875 0.67188,2.71874 z m -1.09375,-1.4844 q 0,-1.375 -0.39063,-2 -0.375,-0.6406 -1.21875,-0.6406 -0.82812,0 -1.21875,0.6406 -0.375,0.625 -0.375,1.9219 v 1.73436 q 0,1.375 0.39063,2.04688 0.40625,0.65626 1.21875,0.65626 0.79687,0 1.1875,-0.625 0.39062,-0.625 0.40625,-1.95314 z"
     fill-rule="nonzero"
     id="path34-9" />
  <path
     fill="#4285f4"
     d="m 700.27013,313.84068 q 0,1.90624 -0.65625,2.84374 -0.64063,0.92186 -2.03125,0.92186 -1.35938,0 -2.01563,-0.90624 -0.65625,-0.90626 -0.6875,-2.71876 v -1.4375 q 0,-1.8906 0.64063,-2.79686 0.65625,-0.92188 2.04687,-0.92188 1.375,0 2.03125,0.89064 0.65625,0.875 0.67188,2.71874 z m -1.09375,-1.4844 q 0,-1.375 -0.39063,-2 -0.375,-0.6406 -1.21875,-0.6406 -0.82812,0 -1.21875,0.6406 -0.375,0.625 -0.375,1.9219 v 1.73436 q 0,1.375 0.39063,2.04688 0.40625,0.65626 1.21875,0.65626 0.79687,0 1.1875,-0.625 0.39062,-0.625 0.40625,-1.95314 z"
     fill-rule="nonzero"
     id="path35-0" />
  <path
     stroke="#ffffff"
     stroke-width="3"
     stroke-linejoin="round"
     stroke-linecap="round"
     d="m 773.27013,313.84068 q 0,1.90624 -0.65625,2.84374 -0.64063,0.92186 -2.03125,0.92186 -1.35938,0 -2.01562,-0.90624 -0.65626,-0.90626 -0.6875,-2.71876 v -1.4375 q 0,-1.8906 0.64062,-2.79686 0.65625,-0.92188 2.04688,-0.92188 1.375,0 2.03124,0.89064 0.65626,0.875 0.67188,2.71874 z m -1.09375,-1.4844 q 0,-1.375 -0.39063,-2 -0.375,-0.6406 -1.21874,-0.6406 -0.82813,0 -1.21876,0.6406 -0.375,0.625 -0.375,1.9219 v 1.73436 q 0,1.375 0.39063,2.04688 0.40625,0.65626 1.21875,0.65626 0.79688,0 1.1875,-0.625 0.39062,-0.625 0.40625,-1.95314 z"
     fill-rule="nonzero"
     id="path36-5" />
  <path
     fill="#4285f4"
     d="m 773.27013,313.84068 q 0,1.90624 -0.65625,2.84374 -0.64063,0.92186 -2.03125,0.92186 -1.35938,0 -2.01562,-0.90624 -0.65626,-0.90626 -0.6875,-2.71876 v -1.4375 q 0,-1.8906 0.64062,-2.79686 0.65625,-0.92188 2.04688,-0.92188 1.375,0 2.03124,0.89064 0.65626,0.875 0.67188,2.71874 z m -1.09375,-1.4844 q 0,-1.375 -0.39063,-2 -0.375,-0.6406 -1.21874,-0.6406 -0.82813,0 -1.21876,0.6406 -0.375,0.625 -0.375,1.9219 v 1.73436 q 0,1.375 0.39063,2.04688 0.40625,0.65626 1.21875,0.65626 0.79688,0 1.1875,-0.625 0.39062,-0.625 0.40625,-1.95314 z"
     fill-rule="nonzero"
     id="path37-6" />
  <path
     stroke="#ffffff"
     stroke-width="3"
     stroke-linejoin="round"
     stroke-linecap="round"
     d="m 846.27013,313.84068 q 0,1.90624 -0.65625,2.84374 -0.64063,0.92186 -2.03125,0.92186 -1.35938,0 -2.01562,-0.90624 -0.65626,-0.90626 -0.6875,-2.71876 v -1.4375 q 0,-1.8906 0.64062,-2.79686 0.65625,-0.92188 2.04688,-0.92188 1.375,0 2.03124,0.89064 0.65626,0.875 0.67188,2.71874 z m -1.09375,-1.4844 q 0,-1.375 -0.39063,-2 -0.375,-0.6406 -1.21874,-0.6406 -0.82813,0 -1.21876,0.6406 -0.375,0.625 -0.375,1.9219 v 1.73436 q 0,1.375 0.39063,2.04688 0.40625,0.65626 1.21875,0.65626 0.79688,0 1.1875,-0.625 0.39062,-0.625 0.40625,-1.95314 z"
     fill-rule="nonzero"
     id="path38" />
  <path
     fill="#4285f4"
     d="m 846.27013,313.84068 q 0,1.90624 -0.65625,2.84374 -0.64063,0.92186 -2.03125,0.92186 -1.35938,0 -2.01562,-0.90624 -0.65626,-0.90626 -0.6875,-2.71876 v -1.4375 q 0,-1.8906 0.64062,-2.79686 0.65625,-0.92188 2.04688,-0.92188 1.375,0 2.03124,0.89064 0.65626,0.875 0.67188,2.71874 z m -1.09375,-1.4844 q 0,-1.375 -0.39063,-2 -0.375,-0.6406 -1.21874,-0.6406 -0.82813,0 -1.21876,0.6406 -0.375,0.625 -0.375,1.9219 v 1.73436 q 0,1.375 0.39063,2.04688 0.40625,0.65626 1.21875,0.65626 0.79688,0 1.1875,-0.625 0.39062,-0.625 0.40625,-1.95314 z"
     fill-rule="nonzero"
     id="path39" />
  <path
     stroke="#ffffff"
     stroke-width="3"
     stroke-linejoin="round"
     stroke-linecap="round"
     d="m 919.27013,313.84068 q 0,1.90624 -0.65625,2.84374 -0.64063,0.92186 -2.03125,0.92186 -1.35938,0 -2.01562,-0.90624 -0.65626,-0.90626 -0.6875,-2.71876 v -1.4375 q 0,-1.8906 0.64062,-2.79686 0.65625,-0.92188 2.04688,-0.92188 1.375,0 2.03124,0.89064 0.65626,0.875 0.67188,2.71874 z m -1.09375,-1.4844 q 0,-1.375 -0.39063,-2 -0.375,-0.6406 -1.21874,-0.6406 -0.82813,0 -1.21876,0.6406 -0.375,0.625 -0.375,1.9219 v 1.73436 q 0,1.375 0.39063,2.04688 0.40625,0.65626 1.21875,0.65626 0.79688,0 1.1875,-0.625 0.39062,-0.625 0.40625,-1.95314 z"
     fill-rule="nonzero"
     id="path40" />
  <path
     fill="#4285f4"
     d="m 919.27013,313.84068 q 0,1.90624 -0.65625,2.84374 -0.64063,0.92186 -2.03125,0.92186 -1.35938,0 -2.01562,-0.90624 -0.65626,-0.90626 -0.6875,-2.71876 v -1.4375 q 0,-1.8906 0.64062,-2.79686 0.65625,-0.92188 2.04688,-0.92188 1.375,0 2.03124,0.89064 0.65626,0.875 0.67188,2.71874 z m -1.09375,-1.4844 q 0,-1.375 -0.39063,-2 -0.375,-0.6406 -1.21874,-0.6406 -0.82813,0 -1.21876,0.6406 -0.375,0.625 -0.375,1.9219 v 1.73436 q 0,1.375 0.39063,2.04688 0.40625,0.65626 1.21875,0.65626 0.79688,0 1.1875,-0.625 0.39062,-0.625 0.40625,-1.95314 z"
     fill-rule="nonzero"
     id="path41" />
  <path
     stroke="#4285f4"
     stroke-width="3"
     stroke-linejoin="round"
     stroke-linecap="round"
     d="m 987.48883,283.1044 h 0.8125 q 0.7813,-0.0156 1.2188,-0.40625 0.4375,-0.39062 0.4375,-1.0625 0,-1.5 -1.5,-1.5 -0.7031,0 -1.125,0.40625 -0.4063,0.40625 -0.4063,1.0625 h -1.0937 q 0,-1.01562 0.7344,-1.6875 0.75,-0.67187 1.8906,-0.67187 1.2031,0 1.8906,0.64062 0.6875,0.64063 0.6875,1.78125 0,0.5625 -0.3594,1.07813 -0.3593,0.51562 -0.9843,0.78125 0.7031,0.21875 1.0781,0.73437 0.3906,0.51563 0.3906,1.26563 0,1.14062 -0.75,1.82812 -0.75,0.67188 -1.9531,0.67188 -1.1875,0 -1.9531,-0.65625 -0.75,-0.65625 -0.75,-1.71875 h 1.0937 q 0,0.67187 0.4375,1.07812 0.4375,0.40625 1.1875,0.40625 0.7813,0 1.1875,-0.40625 0.4219,-0.42187 0.4219,-1.1875 0,-0.73437 -0.4531,-1.125 -0.4532,-0.40625 -1.3282,-0.42187 h -0.8125 z"
     fill-rule="nonzero"
     id="path42" />
  <path
     fill="#ffffff"
     d="m 987.48883,283.1044 h 0.8125 q 0.7813,-0.0156 1.2188,-0.40625 0.4375,-0.39062 0.4375,-1.0625 0,-1.5 -1.5,-1.5 -0.7031,0 -1.125,0.40625 -0.4063,0.40625 -0.4063,1.0625 h -1.0937 q 0,-1.01562 0.7344,-1.6875 0.75,-0.67187 1.8906,-0.67187 1.2031,0 1.8906,0.64062 0.6875,0.64063 0.6875,1.78125 0,0.5625 -0.3594,1.07813 -0.3593,0.51562 -0.9843,0.78125 0.7031,0.21875 1.0781,0.73437 0.3906,0.51563 0.3906,1.26563 0,1.14062 -0.75,1.82812 -0.75,0.67188 -1.9531,0.67188 -1.1875,0 -1.9531,-0.65625 -0.75,-0.65625 -0.75,-1.71875 h 1.0937 q 0,0.67187 0.4375,1.07812 0.4375,0.40625 1.1875,0.40625 0.7813,0 1.1875,-0.40625 0.4219,-0.42187 0.4219,-1.1875 0,-0.73437 -0.4531,-1.125 -0.4532,-0.40625 -1.3282,-0.42187 h -0.8125 z"
     fill-rule="nonzero"
     id="path43" />
  <path
     stroke="#4285f4"
     stroke-width="3"
     stroke-linejoin="round"
     stroke-linecap="round"
     d="m 1058.9732,62.84128 h -1.0781 v -7.21875 l -2.1875,0.796876 V 55.43503 l 3.1094,-1.171874 h 0.1562 z m 8.0157,-2.859374 h 1.1875 v 0.875 h -1.1875 v 1.984374 h -1.0782 v -1.984374 h -3.8906 V 60.21628 l 3.8125,-5.90625 h 1.1563 z m -3.7344,0 h 2.6562 v -4.1875 l -0.1406,0.234374 z"
     fill-rule="nonzero"
     id="path44" />
  <path
     fill="#ffffff"
     d="m 1058.9732,62.84128 h -1.0781 v -7.21875 l -2.1875,0.796876 V 55.43503 l 3.1094,-1.171874 h 0.1562 z m 8.0157,-2.859374 h 1.1875 v 0.875 h -1.1875 v 1.984374 h -1.0782 v -1.984374 h -3.8906 V 60.21628 l 3.8125,-5.90625 h 1.1563 z m -3.7344,0 h 2.6562 v -4.1875 l -0.1406,0.234374 z"
     fill-rule="nonzero"
     id="path45" />
  <path
     stroke="#4285f4"
     stroke-width="3"
     stroke-linejoin="round"
     stroke-linecap="round"
     d="m 1137.4264,198.1394 -3.5313,7.92188 h -1.1406 l 3.5156,-7.64063 h -4.6094 v -0.89062 h 5.7657 z"
     fill-rule="nonzero"
     id="path46" />
  <path
     fill="#ffffff"
     d="m 1137.4264,198.1394 -3.5313,7.92188 h -1.1406 l 3.5156,-7.64063 h -4.6094 v -0.89062 h 5.7657 z"
     fill-rule="nonzero"
     id="path47" />
  <path
     fill="#000000"
     d="m 635.75763,332.24692 q 0,-1.53124 0.3125,-2.45314 0.3125,-0.9375 0.92187,-1.4375 0.625,-0.5 1.5625,-0.5 0.6875,0 1.20313,0.28126 0.53125,0.28124 0.875,0.8125 0.34375,0.51564 0.53125,1.26564 0.1875,0.75 0.1875,2.03124 0,1.51562 -0.3125,2.4375 -0.29688,0.92186 -0.92188,1.4375 -0.60937,0.5 -1.5625,0.5 -1.23437,0 -1.95312,-0.89064 -0.84375,-1.0625 -0.84375,-3.48436 z m 1.07812,0 q 0,2.10936 0.5,2.8125 0.5,0.70312 1.21875,0.70312 0.73438,0 1.21875,-0.70312 0.5,-0.70314 0.5,-2.8125 0,-2.125 -0.5,-2.8125 -0.48437,-0.70314 -1.23437,-0.70314 -0.71875,0 -1.15625,0.6094 -0.54688,0.78124 -0.54688,2.90624 z"
     fill-rule="nonzero"
     id="path48" />
  <path
     fill="#000000"
     d="m 635.75763,231.93128 1.10937,-0.0938 q 0.125,0.8125 0.5625,1.21876 0.45313,0.40624 1.09375,0.40624 0.75,0 1.28125,-0.57812 0.53125,-0.57812 0.53125,-1.51562 0,-0.90626 -0.51562,-1.42188 -0.5,-0.53125 -1.32813,-0.53125 -0.5,0 -0.92187,0.23437 -0.40625,0.23438 -0.64063,0.59376 l -0.98437,-0.125 0.82812,-4.40626 h 4.28125 v 1 h -3.4375 l -0.45312,2.3125 q 0.76562,-0.54687 1.60937,-0.54687 1.125,0 1.89063,0.78125 0.78125,0.78125 0.78125,2.01562 0,1.15626 -0.67188,2.01563 -0.82812,1.03125 -2.25,1.03125 -1.17187,0 -1.92187,-0.65625 -0.73438,-0.65621 -0.84375,-1.73433 z"
     fill-rule="nonzero"
     id="path49" />
  <path
     fill="#000000"
     d="m 632.72638,131.88128 h -1.04688 v -6.71874 q -0.39062,0.35937 -1.01562,0.73437 -0.60938,0.35938 -1.09375,0.53125 v -1.01562 q 0.875,-0.42188 1.53125,-1 0.67187,-0.59375 0.95312,-1.15625 h 0.67188 z m 3.03125,-4.23437 q 0,-1.53125 0.3125,-2.45312 0.3125,-0.9375 0.92187,-1.4375 0.625,-0.5 1.5625,-0.5 0.6875,0 1.20313,0.28125 0.53125,0.28125 0.875,0.8125 0.34375,0.51562 0.53125,1.26562 0.1875,0.75 0.1875,2.03125 0,1.51563 -0.3125,2.4375 -0.29688,0.92187 -0.92188,1.4375 -0.60937,0.5 -1.5625,0.5 -1.23437,0 -1.95312,-0.89063 -0.84375,-1.0625 -0.84375,-3.48437 z m 1.07812,0 q 0,2.10937 0.5,2.8125 0.5,0.70313 1.21875,0.70313 0.73438,0 1.21875,-0.70313 0.5,-0.70313 0.5,-2.8125 0,-2.125 -0.5,-2.8125 -0.48437,-0.70312 -1.23437,-0.70312 -0.71875,0 -1.15625,0.60937 -0.54688,0.78125 -0.54688,2.90625 z"
     fill-rule="nonzero"
     id="path50" />
  <path
     fill="#000000"
     d="m 632.72638,29.58128 h -1.04688 v -6.71875 q -0.39062,0.359374 -1.01562,0.734374 -0.60938,0.359376 -1.09375,0.53125 V 23.11253 q 0.875,-0.421876 1.53125,-1 0.67187,-0.59375 0.95312,-1.15625 h 0.67188 z m 3.03125,-2.25 1.10937,-0.09375 q 0.125,0.8125 0.5625,1.21875 0.45313,0.40625 1.09375,0.40625 0.75,0 1.28125,-0.578126 0.53125,-0.578124 0.53125,-1.515624 0,-0.90625 -0.51562,-1.421876 -0.5,-0.53125 -1.32813,-0.53125 -0.5,0 -0.92187,0.234376 -0.40625,0.234374 -0.64063,0.59375 l -0.98437,-0.125 0.82812,-4.40625 h 4.28125 v 1 h -3.4375 l -0.45312,2.3125 q 0.76562,-0.546876 1.60937,-0.546876 1.125,0 1.89063,0.78125 0.78125,0.78125 0.78125,2.015626 0,1.15625 -0.67188,2.015624 -0.82812,1.03125 -2.25,1.03125 -1.17187,0 -1.92187,-0.65625 -0.73438,-0.65625 -0.84375,-1.734374 z"
     fill-rule="nonzero"
     id="path51" />
  <path
     fill="#000000"
     d="m 698.44168,349.48128 h -1.04687 v -6.71874 q -0.39063,0.35938 -1.01563,0.73438 -0.60937,0.35936 -1.09375,0.53126 v -1.01564 q 0.875,-0.42186 1.53125,-1 0.67188,-0.59376 0.95313,-1.15626 h 0.67187 z"
     fill-rule="nonzero"
     id="path52" />
  <path
     fill="#000000"
     d="m 772.93137,348.46568 v 1.0156 h -5.6875 q 0,-0.375 0.125,-0.73436 0.21875,-0.57814 0.6875,-1.14064 0.48437,-0.5625 1.39062,-1.29686 1.40625,-1.15624 1.89063,-1.82814 0.5,-0.67186 0.5,-1.2656 0,-0.625 -0.45313,-1.0469 -0.45312,-0.4375 -1.17187,-0.4375 -0.76563,0 -1.21875,0.45314 -0.45313,0.45312 -0.46875,1.26562 l -1.07813,-0.10936 q 0.10938,-1.21876 0.82813,-1.84376 0.73437,-0.64064 1.96875,-0.64064 1.23437,0 1.95312,0.6875 0.71875,0.6875 0.71875,1.70314 0,0.51562 -0.21875,1.01562 -0.20312,0.48438 -0.70312,1.04688 -0.48438,0.54686 -1.60938,1.5 -0.95312,0.79686 -1.23437,1.09376 -0.26563,0.28124 -0.4375,0.5625 z"
     fill-rule="nonzero"
     id="path53" />
  <path
     fill="#000000"
     d="m 840.29607,347.21568 1.0625,-0.14064 q 0.17187,0.89064 0.60937,1.29688 0.4375,0.39062 1.0625,0.39062 0.75,0 1.26563,-0.51562 0.51562,-0.51564 0.51562,-1.28124 0,-0.71876 -0.48437,-1.1875 -0.46875,-0.4844 -1.20313,-0.4844 -0.29687,0 -0.75,0.125 l 0.125,-0.9375 q 0.10938,0.0156 0.17188,0.0156 0.67187,0 1.20312,-0.34374 0.54688,-0.3594 0.54688,-1.09376 0,-0.57814 -0.39063,-0.95314 -0.39062,-0.3906 -1.01562,-0.3906 -0.60938,0 -1.03125,0.3906 -0.40625,0.39064 -0.51563,1.15626 l -1.0625,-0.1875 q 0.1875,-1.04686 0.875,-1.625 0.6875,-0.59376 1.70313,-0.59376 0.70312,0 1.29687,0.3125 0.59375,0.2969 0.90625,0.8125 0.3125,0.51564 0.3125,1.1094 0,0.54686 -0.29687,1.0156 -0.29688,0.45314 -0.875,0.71876 0.75,0.17188 1.17187,0.73438 0.42188,0.54686 0.42188,1.39062 0,1.125 -0.82813,1.90624 -0.8125,0.78126 -2.0625,0.78126 -1.125,0 -1.875,-0.67186 -0.75,-0.6875 -0.85937,-1.75 z"
     fill-rule="nonzero"
     id="path54" />
  <path
     fill="#000000"
     d="m 916.58263,349.48128 v -2.0625 h -3.71875 v -0.96874 l 3.92187,-5.5625 h 0.85938 v 5.5625 h 1.15625 v 0.96874 h -1.15625 v 2.0625 z m 0,-3.03124 v -3.85936 l -2.6875,3.85936 z"
     fill-rule="nonzero"
     id="path55" />
  <path
     fill="#000000"
     d="m 986.11923,347.23128 1.1093,-0.0937 q 0.125,0.8125 0.5625,1.21874 0.4532,0.40626 1.0938,0.40626 0.75,0 1.2812,-0.57812 0.5313,-0.57814 0.5313,-1.51564 0,-0.90624 -0.5156,-1.42186 -0.5,-0.53124 -1.3282,-0.53124 -0.5,0 -0.9218,0.23436 -0.4063,0.23438 -0.6407,0.59374 l -0.9843,-0.125 0.8281,-4.40624 h 4.2812 v 1 h -3.4375 l -0.4531,2.3125 q 0.7656,-0.54686 1.6094,-0.54686 1.125,0 1.8906,0.78124 0.7813,0.78126 0.7813,2.01562 0,1.15624 -0.6719,2.01564 -0.8281,1.03124 -2.25,1.03124 -1.1719,0 -1.9219,-0.65624 -0.7344,-0.65626 -0.8437,-1.7344 z"
     fill-rule="nonzero"
     id="path56" />
  <path
     fill="#000000"
     d="m 1064.4995,342.99692 -1.0469,0.0781 q -0.1406,-0.625 -0.3906,-0.90626 -0.4375,-0.4531 -1.0625,-0.4531 -0.5,0 -0.8907,0.28124 -0.4843,0.375 -0.7812,1.07812 -0.2813,0.6875 -0.2969,1.96874 0.375,-0.5781 0.9219,-0.85936 0.5625,-0.28124 1.1719,-0.28124 1.0468,0 1.7812,0.78124 0.75,0.78126 0.75,2 0,0.8125 -0.3594,1.51562 -0.3437,0.6875 -0.9531,1.0625 -0.6094,0.35938 -1.375,0.35938 -1.3281,0 -2.1562,-0.96874 -0.8282,-0.96876 -0.8282,-3.1875 0,-2.5 0.9219,-3.625 0.7969,-0.9844 2.1563,-0.9844 1.0156,0 1.6562,0.57814 0.6563,0.5625 0.7813,1.5625 z m -4.2969,3.70312 q 0,0.54688 0.2187,1.04688 0.2344,0.48436 0.6407,0.75 0.4218,0.26562 0.8906,0.26562 0.6562,0 1.1406,-0.53126 0.4844,-0.54686 0.4844,-1.46874 0,-0.89062 -0.4844,-1.40626 -0.4687,-0.5156 -1.1875,-0.5156 -0.7187,0 -1.2187,0.5156 -0.4844,0.51564 -0.4844,1.34376 z"
     fill-rule="nonzero"
     id="path57" />
  <path
     fill="#000000"
     d="m 1132.0048,342.01254 v -1.01562 h 5.5625 v 0.82812 q -0.8125,0.875 -1.625,2.32814 -0.7969,1.4375 -1.2344,2.96874 -0.3281,1.07812 -0.4062,2.35936 h -1.0938 q 0.016,-1.0156 0.3906,-2.4531 0.3907,-1.4375 1.0938,-2.76564 0.7187,-1.32812 1.5312,-2.25 z"
     fill-rule="nonzero"
     id="path58" />
  <text
     xml:space="preserve"
     style="font-style:normal;font-variant:normal;font-weight:normal;font-stretch:normal;font-size:14.6667px;font-family:Arial;-inkscape-font-specification:Arial;text-align:center;text-anchor:middle;fill:#000000;fill-opacity:1;stroke-width:1.32332;stroke-linecap:round;stroke-opacity:0.626316"
     x="700.16547"
     y="363.76694"
     id="text51-5-7"><tspan
       sodipodi:role="line"
       id="tspan51-55-8"
       x="700.16547"
       y="363.76694"
       style="font-size:14.6667px;stroke-width:1.32332">Pas du tout</tspan></text>
  <text
     xml:space="preserve"
     style="font-style:normal;font-variant:normal;font-weight:normal;font-stretch:normal;font-size:14.6667px;font-family:Arial;-inkscape-font-specification:Arial;text-align:center;text-anchor:middle;fill:#000000;fill-opacity:1;stroke-width:1.32332;stroke-linecap:round;stroke-opacity:0.626316"
     x="1136.6646"
     y="364.63828"
     id="text51-9-8-8"><tspan
       sodipodi:role="line"
       id="tspan51-5-2-3"
       x="1136.6646"
       y="364.63828"
       style="font-size:14.6667px;stroke-width:1.32332">Absolument</tspan></text>
</svg>
