<?xml version="1.0" encoding="UTF-8" standalone="no"?>
<svg
   version="1.1"
   viewBox="0.0 0.0 600.0 371.0"
   fill="none"
   stroke="none"
   stroke-linecap="square"
   stroke-miterlimit="10"
   width="600"
   height="371"
   id="svg31"
   sodipodi:docname="Inhabituel.svg"
   inkscape:version="1.3 (0e150ed, 2023-07-21)"
   xmlns:inkscape="http://www.inkscape.org/namespaces/inkscape"
   xmlns:sodipodi="http://sodipodi.sourceforge.net/DTD/sodipodi-0.dtd"
   xmlns="http://www.w3.org/2000/svg"
   xmlns:svg="http://www.w3.org/2000/svg">
  <defs
     id="defs31" />
  <sodipodi:namedview
     id="namedview31"
     pagecolor="#ffffff"
     bordercolor="#000000"
     borderopacity="0.25"
     inkscape:showpageshadow="2"
     inkscape:pageopacity="0.0"
     inkscape:pagecheckerboard="0"
     inkscape:deskcolor="#d1d1d1"
     inkscape:zoom="0.86769611"
     inkscape:cx="239.13902"
     inkscape:cy="225.3093"
     inkscape:window-width="1728"
     inkscape:window-height="1046"
     inkscape:window-x="0"
     inkscape:window-y="32"
     inkscape:window-maximized="0"
     inkscape:current-layer="svg31" />
  <path
     fill="#ea4335"
     d="M300.0 18.55C340.39594 18.55 379.42184 33.196663 409.84286 59.77472L300.0 185.5Z"
     fill-rule="nonzero"
     id="path2"
     inkscape:export-filename="Inhabituel.png"
     inkscape:export-xdpi="300"
     inkscape:export-ydpi="300" />
  <path
     fill="#34a853"
     d="M409.84286 59.77472C440.26392 86.352776 460.01657 123.0594 465.43906 163.08975L300.0 185.5Z"
     fill-rule="nonzero"
     id="path3" />
  <path
     fill="#999999"
     d="M190.15714 59.77472C220.57816 33.196663 259.60406 18.55 300.0 18.55L300.0 185.5Z"
     fill-rule="nonzero"
     id="path4" />
  <path
     fill="#efefef"
     d="M141.22112 133.9096C150.53897 105.2322 167.4496 79.613686 190.15714 59.77472L300.0 185.5Z"
     fill-rule="nonzero"
     id="path5" />
  <path
     fill="#4285f4"
     d="M285.03473 351.77792C234.43225 347.2236 188.65741 319.87442 160.668 277.47226C132.67857 235.07008 125.52089 182.22993 141.22112 133.9096L300.0 185.5Z"
     fill-rule="nonzero"
     id="path6" />
  <path
     fill="#fbbc04"
     d="M465.43906 163.08975C472.25906 213.43694 455.78143 264.14987 420.6706 300.8729C385.55978 337.59595 335.63718 356.3322 285.03473 351.77792L300.0 185.5Z"
     fill-rule="nonzero"
     id="path7" />
  <path
     fill="#1a1a1a"
     d="M18.534374 32.510807L21.83125 23.917057L23.05 23.917057L26.565624 32.510807L25.284374 32.510807L24.26875 29.901432L20.690624 29.901432L19.7375 32.510807L18.534374 32.510807ZM21.01875 28.979557L23.925 28.979557L23.034374 26.604557Q22.6125 25.526432 22.425 24.823307Q22.253124 25.651432 21.95625 26.463932L21.01875 28.979557ZM30.425 32.510807L30.425 31.588932Q29.690624 32.651432 28.440624 32.651432Q27.89375 32.651432 27.409374 32.448307Q26.940624 32.229557 26.70625 31.917057Q26.471874 31.588932 26.378124 31.120182Q26.315624 30.823307 26.315624 30.135807L26.315624 26.292057L27.378124 26.292057L27.378124 29.745182Q27.378124 30.557682 27.440624 30.854557Q27.534374 31.260807 27.846874 31.510807Q28.175 31.745182 28.659374 31.745182Q29.128124 31.745182 29.534374 31.510807Q29.95625 31.260807 30.128124 30.838932Q30.315624 30.417057 30.315624 29.620182L30.315624 26.292057L31.3625 26.292057L31.3625 32.510807L30.425 32.510807ZM37.409374 30.229557L38.440624 30.370182Q38.26875 31.432682 37.565624 32.042057Q36.8625 32.651432 35.846874 32.651432Q34.565624 32.651432 33.784374 31.823307Q33.01875 30.979557 33.01875 29.417057Q33.01875 28.417057 33.346874 27.667057Q33.690624 26.901432 34.3625 26.526432Q35.05 26.151432 35.8625 26.151432Q36.8625 26.151432 37.503124 26.667057Q38.159374 27.167057 38.346874 28.120182L37.315624 28.276432Q37.175 27.651432 36.8 27.338932Q36.425 27.010807 35.89375 27.010807Q35.096874 27.010807 34.596874 27.588932Q34.096874 28.151432 34.096874 29.385807Q34.096874 30.651432 34.58125 31.213932Q35.065624 31.776432 35.83125 31.776432Q36.45625 31.776432 36.8625 31.401432Q37.284374 31.026432 37.409374 30.229557ZM43.425 32.510807L43.425 31.588932Q42.690624 32.651432 41.440624 32.651432Q40.89375 32.651432 40.409374 32.448307Q39.940624 32.229557 39.70625 31.917057Q39.471874 31.588932 39.378124 31.120182Q39.315624 30.823307 39.315624 30.135807L39.315624 26.292057L40.378124 26.292057L40.378124 29.745182Q40.378124 30.557682 40.440624 30.854557Q40.534374 31.260807 40.846874 31.510807Q41.175 31.745182 41.659374 31.745182Q42.128124 31.745182 42.534374 31.510807Q42.95625 31.260807 43.128124 30.838932Q43.315624 30.417057 43.315624 29.620182L43.315624 26.292057L44.3625 26.292057L44.3625 32.510807L43.425 32.510807ZM46.346874 32.510807L46.346874 26.292057L47.284374 26.292057L47.284374 27.167057Q47.971874 26.151432 49.26875 26.151432Q49.83125 26.151432 50.3 26.354557Q50.784374 26.557682 51.01875 26.885807Q51.253124 27.213932 51.346874 27.651432Q51.39375 27.948307 51.39375 28.682682L51.39375 32.510807L50.346874 32.510807L50.346874 28.729557Q50.346874 28.073307 50.221874 27.760807Q50.096874 27.448307 49.784374 27.260807Q49.471874 27.057682 49.05 27.057682Q48.378124 27.057682 47.878124 27.495182Q47.39375 27.917057 47.39375 29.104557L47.39375 32.510807L46.346874 32.510807Z"
     fill-rule="nonzero"
     id="path8" />
  <path
     fill="#9e9e9e"
     d="M23.01875 49.510807L21.971874 49.510807L21.971874 42.792057Q21.58125 43.151432 20.95625 43.526432Q20.346874 43.885807 19.8625 44.057682L19.8625 43.042057Q20.7375 42.620182 21.39375 42.042057Q22.065624 41.448307 22.346874 40.885807L23.01875 40.885807L23.01875 49.510807ZM30.01875 49.510807L28.971874 49.510807L28.971874 42.792057Q28.58125 43.151432 27.95625 43.526432Q27.346874 43.885807 26.8625 44.057682L26.8625 43.042057Q27.7375 42.620182 28.39375 42.042057Q29.065624 41.448307 29.346874 40.885807L30.01875 40.885807L30.01875 49.510807ZM33.64375 49.510807L33.64375 48.307682L34.846874 48.307682L34.846874 49.510807L33.64375 49.510807ZM39.425 49.510807L39.425 47.448307L35.70625 47.448307L35.70625 46.479557L39.628124 40.917057L40.4875 40.917057L40.4875 46.479557L41.64375 46.479557L41.64375 47.448307L40.4875 47.448307L40.4875 49.510807L39.425 49.510807ZM39.425 46.479557L39.425 42.620182L36.7375 46.479557L39.425 46.479557ZM43.253124 42.979557Q43.253124 42.057682 43.70625 41.417057Q44.175 40.776432 45.05 40.776432Q45.8625 40.776432 46.39375 41.354557Q46.925 41.932682 46.925 43.042057Q46.925 44.135807 46.378124 44.729557Q45.846874 45.307682 45.065624 45.307682Q44.284374 45.307682 43.76875 44.729557Q43.253124 44.151432 43.253124 42.979557ZM45.08125 41.495182Q44.690624 41.495182 44.425 41.838932Q44.175 42.182682 44.175 43.088932Q44.175 43.917057 44.425 44.260807Q44.690624 44.588932 45.08125 44.588932Q45.4875 44.588932 45.7375 44.245182Q46.003124 43.901432 46.003124 43.010807Q46.003124 42.167057 45.7375 41.838932Q45.471874 41.495182 45.08125 41.495182ZM45.08125 49.823307L49.784374 40.776432L50.64375 40.776432L45.95625 49.823307L45.08125 49.823307ZM48.8 47.495182Q48.8 46.573307 49.253124 45.932682Q49.721874 45.292057 50.6125 45.292057Q51.425 45.292057 51.95625 45.870182Q52.4875 46.432682 52.4875 47.557682Q52.4875 48.651432 51.940624 49.245182Q51.409374 49.823307 50.6125 49.823307Q49.846874 49.823307 49.315624 49.245182Q48.8 48.667057 48.8 47.495182ZM50.64375 46.010807Q50.2375 46.010807 49.971874 46.354557Q49.721874 46.698307 49.721874 47.604557Q49.721874 48.417057 49.9875 48.760807Q50.253124 49.104557 50.64375 49.104557Q51.034374 49.104557 51.3 48.760807Q51.565624 48.417057 51.565624 47.510807Q51.565624 46.682682 51.3 46.354557Q51.034374 46.010807 50.64375 46.010807Z"
     fill-rule="nonzero"
     id="path9" />
  <path
     stroke="#757575"
     stroke-width="1.0"
     stroke-linecap="butt"
     d="M18.55 37.010807L127.05 37.010807L244.27107 37.010807"
     fill-rule="nonzero"
     id="path10" />
  <path
     fill="#9e9e9e"
     d="M246.27107 37.010807C246.27107 35.90624 245.37564 35.010807 244.27107 35.010807C243.1665 35.010807 242.27107 35.90624 242.27107 37.010807C242.27107 38.11538 243.1665 39.010807 244.27107 39.010807C245.37564 39.010807 246.27107 38.11538 246.27107 37.010807"
     fill-rule="nonzero"
     id="path11" />
  <path
     fill="#1a1a1a"
     d="M19.471874 93.62636L19.471874 85.03261L20.628124 85.03261L25.14375 91.78261L25.14375 85.03261L26.2375 85.03261L26.2375 93.62636L25.065624 93.62636L20.55 86.87636L20.55 93.62636L19.471874 93.62636ZM32.596874 91.62636L33.690624 91.75136Q33.440624 92.70448 32.7375 93.23573Q32.034374 93.76698 30.95625 93.76698Q29.596874 93.76698 28.784374 92.92323Q27.9875 92.07948 27.9875 90.56386Q27.9875 89.00136 28.8 88.14198Q29.6125 87.26698 30.89375 87.26698Q32.14375 87.26698 32.925 88.11073Q33.721874 88.95448 33.721874 90.50136Q33.721874 90.59511 33.721874 90.78261L29.08125 90.78261Q29.14375 91.81386 29.659374 92.36073Q30.175 92.89198 30.95625 92.89198Q31.534374 92.89198 31.940624 92.59511Q32.3625 92.28261 32.596874 91.62636ZM29.14375 89.92323L32.6125 89.92323Q32.55 89.12636 32.221874 88.73573Q31.70625 88.12636 30.909374 88.12636Q30.175 88.12636 29.675 88.61073Q29.190624 89.09511 29.14375 89.92323ZM37.925 91.76698L38.95625 91.61073Q39.05 92.23573 39.440624 92.56386Q39.846874 92.89198 40.58125 92.89198Q41.3 92.89198 41.64375 92.61073Q42.003124 92.31386 42.003124 91.90761Q42.003124 91.54823 41.690624 91.34511Q41.471874 91.20448 40.6125 90.98573Q39.45625 90.68886 39.003124 90.48573Q38.565624 90.26698 38.33125 89.89198Q38.096874 89.51698 38.096874 89.04823Q38.096874 88.64198 38.284374 88.28261Q38.471874 87.92323 38.8 87.68886Q39.05 87.51698 39.471874 87.39198Q39.89375 87.26698 40.39375 87.26698Q41.1125 87.26698 41.659374 87.48573Q42.221874 87.68886 42.4875 88.04823Q42.753124 88.40761 42.846874 89.00136L41.815624 89.14198Q41.753124 88.67323 41.409374 88.40761Q41.08125 88.12636 40.45625 88.12636Q39.7375 88.12636 39.425 88.37636Q39.1125 88.61073 39.1125 88.93886Q39.1125 89.14198 39.2375 89.29823Q39.378124 89.47011 39.64375 89.57948Q39.8 89.64198 40.58125 89.84511Q41.70625 90.15761 42.14375 90.34511Q42.58125 90.53261 42.83125 90.89198Q43.08125 91.25136 43.08125 91.79823Q43.08125 92.32948 42.76875 92.79823Q42.471874 93.25136 41.89375 93.51698Q41.315624 93.76698 40.58125 93.76698Q39.3625 93.76698 38.721874 93.26698Q38.096874 92.75136 37.925 91.76698ZM49.409374 92.86073Q48.815624 93.36073 48.26875 93.56386Q47.7375 93.76698 47.1125 93.76698Q46.08125 93.76698 45.534374 93.26698Q44.9875 92.76698 44.9875 91.98573Q44.9875 91.53261 45.190624 91.15761Q45.39375 90.76698 45.7375 90.54823Q46.08125 90.31386 46.503124 90.20448Q46.8 90.11073 47.440624 90.03261Q48.70625 89.89198 49.315624 89.67323Q49.315624 89.45448 49.315624 89.40761Q49.315624 88.75136 49.01875 88.48573Q48.6125 88.14198 47.815624 88.14198Q47.08125 88.14198 46.721874 88.40761Q46.3625 88.65761 46.190624 89.31386L45.159374 89.17323Q45.3 88.51698 45.628124 88.11073Q45.95625 87.70448 46.565624 87.48573Q47.175 87.26698 47.971874 87.26698Q48.76875 87.26698 49.26875 87.45448Q49.76875 87.64198 50.003124 87.92323Q50.2375 88.20448 50.33125 88.64198Q50.378124 88.90761 50.378124 89.61073L50.378124 91.01698Q50.378124 92.48573 50.440624 92.87636Q50.51875 93.26698 50.721874 93.62636L49.6125 93.62636Q49.45625 93.29823 49.409374 92.86073ZM49.315624 90.50136Q48.7375 90.73573 47.596874 90.90761Q46.940624 91.00136 46.675 91.12636Q46.409374 91.23573 46.253124 91.45448Q46.1125 91.67323 46.1125 91.95448Q46.1125 92.37636 46.425 92.65761Q46.753124 92.93886 47.3625 92.93886Q47.971874 92.93886 48.440624 92.67323Q48.925 92.40761 49.14375 91.93886Q49.315624 91.57948 49.315624 90.89198L49.315624 90.50136ZM52.346874 86.25136L52.346874 85.03261L53.409374 85.03261L53.409374 86.25136L52.346874 86.25136ZM52.346874 93.62636L52.346874 87.40761L53.409374 87.40761L53.409374 93.62636L52.346874 93.62636ZM54.925 91.76698L55.95625 91.61073Q56.05 92.23573 56.440624 92.56386Q56.846874 92.89198 57.58125 92.89198Q58.3 92.89198 58.64375 92.61073Q59.003124 92.31386 59.003124 91.90761Q59.003124 91.54823 58.690624 91.34511Q58.471874 91.20448 57.6125 90.98573Q56.45625 90.68886 56.003124 90.48573Q55.565624 90.26698 55.33125 89.89198Q55.096874 89.51698 55.096874 89.04823Q55.096874 88.64198 55.284374 88.28261Q55.471874 87.92323 55.8 87.68886Q56.05 87.51698 56.471874 87.39198Q56.89375 87.26698 57.39375 87.26698Q58.1125 87.26698 58.659374 87.48573Q59.221874 87.68886 59.4875 88.04823Q59.753124 88.40761 59.846874 89.00136L58.815624 89.14198Q58.753124 88.67323 58.409374 88.40761Q58.08125 88.12636 57.45625 88.12636Q56.7375 88.12636 56.425 88.37636Q56.1125 88.61073 56.1125 88.93886Q56.1125 89.14198 56.2375 89.29823Q56.378124 89.47011 56.64375 89.57948Q56.8 89.64198 57.58125 89.84511Q58.70625 90.15761 59.14375 90.34511Q59.58125 90.53261 59.83125 90.89198Q60.08125 91.25136 60.08125 91.79823Q60.08125 92.32948 59.76875 92.79823Q59.471874 93.25136 58.89375 93.51698Q58.315624 93.76698 57.58125 93.76698Q56.3625 93.76698 55.721874 93.26698Q55.096874 92.75136 54.925 91.76698ZM65.34688 96.01698L65.34688 87.40761L66.3 87.40761L66.3 88.20448Q66.64375 87.73573 67.06563 87.50136Q67.50313 87.26698 68.1125 87.26698Q68.90938 87.26698 69.51875 87.67323Q70.12813 88.07948 70.425 88.82948Q70.7375 89.57948 70.7375 90.47011Q70.7375 91.42323 70.39375 92.18886Q70.06563 92.95448 69.40938 93.36073Q68.75313 93.76698 68.03438 93.76698Q67.50313 93.76698 67.08125 93.54823Q66.65938 93.31386 66.39375 92.98573L66.39375 96.01698L65.34688 96.01698ZM66.3 90.54823Q66.3 91.75136 66.78438 92.32948Q67.26875 92.89198 67.95625 92.89198Q68.65938 92.89198 69.15938 92.29823Q69.65938 91.70448 69.65938 90.45448Q69.65938 89.26698 69.175 88.68886Q68.69063 88.09511 68.00313 88.09511Q67.33125 88.09511 66.81563 88.72011Q66.3 89.34511 66.3 90.54823ZM76.40938 92.86073Q75.81563 93.36073 75.26875 93.56386Q74.7375 93.76698 74.1125 93.76698Q73.08125 93.76698 72.53438 93.26698Q71.9875 92.76698 71.9875 91.98573Q71.9875 91.53261 72.19063 91.15761Q72.39375 90.76698 72.7375 90.54823Q73.08125 90.31386 73.50313 90.20448Q73.8 90.11073 74.44063 90.03261Q75.70625 89.89198 76.31563 89.67323Q76.31563 89.45448 76.31563 89.40761Q76.31563 88.75136 76.01875 88.48573Q75.6125 88.14198 74.81563 88.14198Q74.08125 88.14198 73.72188 88.40761Q73.3625 88.65761 73.19063 89.31386L72.15938 89.17323Q72.3 88.51698 72.62813 88.11073Q72.95625 87.70448 73.56563 87.48573Q74.175 87.26698 74.97188 87.26698Q75.76875 87.26698 76.26875 87.45448Q76.76875 87.64198 77.00313 87.92323Q77.2375 88.20448 77.33125 88.64198Q77.37813 88.90761 77.37813 89.61073L77.37813 91.01698Q77.37813 92.48573 77.44063 92.87636Q77.51875 93.26698 77.72188 93.62636L76.6125 93.62636Q76.45625 93.29823 76.40938 92.86073ZM76.31563 90.50136Q75.7375 90.73573 74.59688 90.90761Q73.94063 91.00136 73.675 91.12636Q73.40938 91.23573 73.25313 91.45448Q73.1125 91.67323 73.1125 91.95448Q73.1125 92.37636 73.425 92.65761Q73.75313 92.93886 74.3625 92.93886Q74.97188 92.93886 75.44063 92.67323Q75.925 92.40761 76.14375 91.93886Q76.31563 91.57948 76.31563 90.89198L76.31563 90.50136ZM78.925 91.76698L79.95625 91.61073Q80.05 92.23573 80.44063 92.56386Q80.84688 92.89198 81.58125 92.89198Q82.3 92.89198 82.64375 92.61073Q83.00313 92.31386 83.00313 91.90761Q83.00313 91.54823 82.69063 91.34511Q82.47188 91.20448 81.6125 90.98573Q80.45625 90.68886 80.00313 90.48573Q79.56563 90.26698 79.33125 89.89198Q79.09688 89.51698 79.09688 89.04823Q79.09688 88.64198 79.28438 88.28261Q79.47188 87.92323 79.8 87.68886Q80.05 87.51698 80.47188 87.39198Q80.89375 87.26698 81.39375 87.26698Q82.1125 87.26698 82.65938 87.48573Q83.22188 87.68886 83.4875 88.04823Q83.75313 88.40761 83.84688 89.00136L82.81563 89.14198Q82.75313 88.67323 82.40938 88.40761Q82.08125 88.12636 81.45625 88.12636Q80.7375 88.12636 80.425 88.37636Q80.1125 88.61073 80.1125 88.93886Q80.1125 89.14198 80.2375 89.29823Q80.37813 89.47011 80.64375 89.57948Q80.8 89.64198 81.58125 89.84511Q82.70625 90.15761 83.14375 90.34511Q83.58125 90.53261 83.83125 90.89198Q84.08125 91.25136 84.08125 91.79823Q84.08125 92.32948 83.76875 92.79823Q83.47188 93.25136 82.89375 93.51698Q82.31563 93.76698 81.58125 93.76698Q80.3625 93.76698 79.72188 93.26698Q79.09688 92.75136 78.925 91.76698Z"
     fill-rule="nonzero"
     id="path12" />
  <path
     fill="#9e9e9e"
     d="M20.675 105.97011Q20.01875 105.72011 19.690624 105.28261Q19.378124 104.82948 19.378124 104.22011Q19.378124 103.28261 20.05 102.64198Q20.7375 102.00136 21.846874 102.00136Q22.971874 102.00136 23.659374 102.65761Q24.346874 103.31386 24.346874 104.25136Q24.346874 104.84511 24.034374 105.28261Q23.721874 105.72011 23.08125 105.97011Q23.878124 106.22011 24.284374 106.79823Q24.690624 107.37636 24.690624 108.17323Q24.690624 109.26698 23.909374 110.01698Q23.14375 110.76698 21.8625 110.76698Q20.596874 110.76698 19.815624 110.01698Q19.034374 109.26698 19.034374 108.14198Q19.034374 107.29823 19.45625 106.73573Q19.89375 106.17323 20.675 105.97011ZM20.45625 104.17323Q20.45625 104.78261 20.846874 105.17323Q21.253124 105.56386 21.878124 105.56386Q22.4875 105.56386 22.878124 105.18886Q23.26875 104.79823 23.26875 104.23573Q23.26875 103.65761 22.8625 103.26698Q22.45625 102.86073 21.8625 102.86073Q21.253124 102.86073 20.846874 103.25136Q20.45625 103.64198 20.45625 104.17323ZM20.128124 108.14198Q20.128124 108.59511 20.33125 109.01698Q20.55 109.43886 20.971874 109.67323Q21.39375 109.90761 21.878124 109.90761Q22.628124 109.90761 23.1125 109.42323Q23.6125 108.93886 23.6125 108.18886Q23.6125 107.42323 23.1125 106.92323Q22.6125 106.42323 21.846874 106.42323Q21.096874 106.42323 20.6125 106.92323Q20.128124 107.40761 20.128124 108.14198ZM26.64375 110.62636L26.64375 109.42323L27.846874 109.42323L27.846874 110.62636L26.64375 110.62636ZM34.51875 104.14198L33.471874 104.22011Q33.33125 103.59511 33.08125 103.31386Q32.64375 102.86073 32.01875 102.86073Q31.51875 102.86073 31.128124 103.14198Q30.64375 103.51698 30.346874 104.22011Q30.065624 104.90761 30.05 106.18886Q30.425 105.61073 30.971874 105.32948Q31.534374 105.04823 32.14375 105.04823Q33.190624 105.04823 33.925 105.82948Q34.675 106.61073 34.675 107.82948Q34.675 108.64198 34.315624 109.34511Q33.971874 110.03261 33.3625 110.40761Q32.753124 110.76698 31.9875 110.76698Q30.659374 110.76698 29.83125 109.79823Q29.003124 108.82948 29.003124 106.61073Q29.003124 104.11073 29.925 102.98573Q30.721874 102.00136 32.08125 102.00136Q33.096874 102.00136 33.7375 102.57948Q34.39375 103.14198 34.51875 104.14198ZM30.221874 107.84511Q30.221874 108.39198 30.440624 108.89198Q30.675 109.37636 31.08125 109.64198Q31.503124 109.90761 31.971874 109.90761Q32.628124 109.90761 33.1125 109.37636Q33.596874 108.82948 33.596874 107.90761Q33.596874 107.01698 33.1125 106.50136Q32.64375 105.98573 31.925 105.98573Q31.20625 105.98573 30.70625 106.50136Q30.221874 107.01698 30.221874 107.84511ZM36.253124 104.09511Q36.253124 103.17323 36.70625 102.53261Q37.175 101.89198 38.05 101.89198Q38.8625 101.89198 39.39375 102.47011Q39.925 103.04823 39.925 104.15761Q39.925 105.25136 39.378124 105.84511Q38.846874 106.42323 38.065624 106.42323Q37.284374 106.42323 36.76875 105.84511Q36.253124 105.26698 36.253124 104.09511ZM38.08125 102.61073Q37.690624 102.61073 37.425 102.95448Q37.175 103.29823 37.175 104.20448Q37.175 105.03261 37.425 105.37636Q37.690624 105.70448 38.08125 105.70448Q38.4875 105.70448 38.7375 105.36073Q39.003124 105.01698 39.003124 104.12636Q39.003124 103.28261 38.7375 102.95448Q38.471874 102.61073 38.08125 102.61073ZM38.08125 110.93886L42.784374 101.89198L43.64375 101.89198L38.95625 110.93886L38.08125 110.93886ZM41.8 108.61073Q41.8 107.68886 42.253124 107.04823Q42.721874 106.40761 43.6125 106.40761Q44.425 106.40761 44.95625 106.98573Q45.4875 107.54823 45.4875 108.67323Q45.4875 109.76698 44.940624 110.36073Q44.409374 110.93886 43.6125 110.93886Q42.846874 110.93886 42.315624 110.36073Q41.8 109.78261 41.8 108.61073ZM43.64375 107.12636Q43.2375 107.12636 42.971874 107.47011Q42.721874 107.81386 42.721874 108.72011Q42.721874 109.53261 42.9875 109.87636Q43.253124 110.22011 43.64375 110.22011Q44.034374 110.22011 44.3 109.87636Q44.565624 109.53261 44.565624 108.62636Q44.565624 107.79823 44.3 107.47011Q44.034374 107.12636 43.64375 107.12636Z"
     fill-rule="nonzero"
     id="path13" />
  <path
     stroke="#757575"
     stroke-width="1.0"
     stroke-linecap="butt"
     d="M18.55 98.12636L127.05 98.12636L167.6346 98.12636"
     fill-rule="nonzero"
     id="path14" />
  <path
     fill="#9e9e9e"
     d="M169.6346 98.12636C169.6346 97.02179 168.73917 96.12636 167.6346 96.12636C166.53003 96.12636 165.6346 97.02179 165.6346 98.12636C165.6346 99.230934 166.53003 100.12636 167.6346 100.12636C168.73917 100.12636 169.6346 99.230934 169.6346 98.12636"
     fill-rule="nonzero"
     id="path15" />
  <path
     fill="#1a1a1a"
     d="M19.471874 268.37363L19.471874 259.77988L20.628124 259.77988L25.14375 266.52988L25.14375 259.77988L26.2375 259.77988L26.2375 268.37363L25.065624 268.37363L20.55 261.62363L20.55 268.37363L19.471874 268.37363ZM27.95625 265.26425Q27.95625 263.52988 28.909374 262.70175Q29.70625 262.01425 30.8625 262.01425Q32.14375 262.01425 32.95625 262.858Q33.784374 263.68613 33.784374 265.1705Q33.784374 266.37363 33.425 267.06113Q33.065624 267.74863 32.3625 268.13925Q31.675 268.51425 30.8625 268.51425Q29.565624 268.51425 28.753124 267.68613Q27.95625 266.84238 27.95625 265.26425ZM29.034374 265.26425Q29.034374 266.45175 29.55 267.0455Q30.08125 267.63925 30.8625 267.63925Q31.659374 267.63925 32.175 267.0455Q32.690624 266.45175 32.690624 265.233Q32.690624 264.07675 32.159374 263.483Q31.64375 262.88925 30.8625 262.88925Q30.08125 262.88925 29.55 263.483Q29.034374 264.06113 29.034374 265.26425ZM35.346874 268.37363L35.346874 262.15488L36.284374 262.15488L36.284374 263.02988Q36.971874 262.01425 38.26875 262.01425Q38.83125 262.01425 39.3 262.21738Q39.784374 262.4205 40.01875 262.74863Q40.253124 263.07675 40.346874 263.51425Q40.39375 263.81113 40.39375 264.5455L40.39375 268.37363L39.346874 268.37363L39.346874 264.59238Q39.346874 263.93613 39.221874 263.62363Q39.096874 263.31113 38.784374 263.12363Q38.471874 262.9205 38.05 262.9205Q37.378124 262.9205 36.878124 263.358Q36.39375 263.77988 36.39375 264.96738L36.39375 268.37363L35.346874 268.37363ZM41.925 265.7955L41.925 264.733L45.175 264.733L45.175 265.7955L41.925 265.7955ZM46.425 268.37363L46.425 259.77988L47.565624 259.77988L47.565624 267.358L51.8 267.358L51.8 268.37363L46.425 268.37363ZM53.346874 260.99863L53.346874 259.77988L54.409374 259.77988L54.409374 260.99863L53.346874 260.99863ZM53.346874 268.37363L53.346874 262.15488L54.409374 262.15488L54.409374 268.37363L53.346874 268.37363ZM56.346874 268.37363L56.346874 262.15488L57.284374 262.15488L57.284374 263.02988Q57.971874 262.01425 59.26875 262.01425Q59.83125 262.01425 60.3 262.21738Q60.784374 262.4205 61.01875 262.74863Q61.253124 263.07675 61.346874 263.51425Q61.39375 263.81113 61.39375 264.5455L61.39375 268.37363L60.346874 268.37363L60.346874 264.59238Q60.346874 263.93613 60.221874 263.62363Q60.096874 263.31113 59.784374 263.12363Q59.471874 262.9205 59.05 262.9205Q58.378124 262.9205 57.878124 263.358Q57.39375 263.77988 57.39375 264.96738L57.39375 268.37363L56.346874 268.37363ZM67.59688 266.37363L68.69063 266.49863Q68.44063 267.45175 67.7375 267.983Q67.03438 268.51425 65.95625 268.51425Q64.59688 268.51425 63.784374 267.6705Q62.9875 266.82675 62.9875 265.31113Q62.9875 263.74863 63.8 262.88925Q64.6125 262.01425 65.89375 262.01425Q67.14375 262.01425 67.925 262.858Q68.72188 263.70175 68.72188 265.24863Q68.72188 265.34238 68.72188 265.52988L64.08125 265.52988Q64.14375 266.56113 64.65938 267.108Q65.175 267.63925 65.95625 267.63925Q66.53438 267.63925 66.94063 267.34238Q67.3625 267.02988 67.59688 266.37363ZM64.14375 264.6705L67.6125 264.6705Q67.55 263.87363 67.22188 263.483Q66.70625 262.87363 65.90938 262.87363Q65.175 262.87363 64.675 263.358Q64.19063 263.84238 64.14375 264.6705ZM65.26875 261.37363L66.05 259.733L67.44063 259.733L66.14375 261.37363L65.26875 261.37363ZM74.40938 267.608Q73.81563 268.108 73.26875 268.31113Q72.7375 268.51425 72.1125 268.51425Q71.08125 268.51425 70.53438 268.01425Q69.9875 267.51425 69.9875 266.733Q69.9875 266.27988 70.19063 265.90488Q70.39375 265.51425 70.7375 265.2955Q71.08125 265.06113 71.50313 264.95175Q71.8 264.858 72.44063 264.77988Q73.70625 264.63925 74.31563 264.4205Q74.31563 264.20175 74.31563 264.15488Q74.31563 263.49863 74.01875 263.233Q73.6125 262.88925 72.81563 262.88925Q72.08125 262.88925 71.72188 263.15488Q71.3625 263.40488 71.19063 264.06113L70.15938 263.9205Q70.3 263.26425 70.62813 262.858Q70.95625 262.45175 71.56563 262.233Q72.175 262.01425 72.97188 262.01425Q73.76875 262.01425 74.26875 262.20175Q74.76875 262.38925 75.00313 262.6705Q75.2375 262.95175 75.33125 263.38925Q75.37813 263.65488 75.37813 264.358L75.37813 265.76425Q75.37813 267.233 75.44063 267.62363Q75.51875 268.01425 75.72188 268.37363L74.6125 268.37363Q74.45625 268.0455 74.40938 267.608ZM74.31563 265.24863Q73.7375 265.483 72.59688 265.65488Q71.94063 265.74863 71.675 265.87363Q71.40938 265.983 71.25313 266.20175Q71.1125 266.4205 71.1125 266.70175Q71.1125 267.12363 71.425 267.40488Q71.75313 267.68613 72.3625 267.68613Q72.97188 267.68613 73.44063 267.4205Q73.925 267.15488 74.14375 266.68613Q74.31563 266.32675 74.31563 265.63925L74.31563 265.24863ZM77.34688 260.99863L77.34688 259.77988L78.40938 259.77988L78.40938 260.99863L77.34688 260.99863ZM77.34688 268.37363L77.34688 262.15488L78.40938 262.15488L78.40938 268.37363L77.34688 268.37363ZM80.33125 268.37363L80.33125 262.15488L81.28438 262.15488L81.28438 263.09238Q81.64375 262.43613 81.94063 262.233Q82.25313 262.01425 82.62813 262.01425Q83.15938 262.01425 83.70625 262.34238L83.34688 263.32675Q82.95625 263.09238 82.58125 263.09238Q82.22188 263.09238 81.94063 263.31113Q81.675 263.51425 81.56563 263.88925Q81.37813 264.45175 81.37813 265.108L81.37813 268.37363L80.33125 268.37363ZM88.59688 266.37363L89.69063 266.49863Q89.44063 267.45175 88.7375 267.983Q88.03438 268.51425 86.95625 268.51425Q85.59688 268.51425 84.78438 267.6705Q83.9875 266.82675 83.9875 265.31113Q83.9875 263.74863 84.8 262.88925Q85.6125 262.01425 86.89375 262.01425Q88.14375 262.01425 88.925 262.858Q89.72188 263.70175 89.72188 265.24863Q89.72188 265.34238 89.72188 265.52988L85.08125 265.52988Q85.14375 266.56113 85.65938 267.108Q86.175 267.63925 86.95625 267.63925Q87.53438 267.63925 87.94063 267.34238Q88.3625 267.02988 88.59688 266.37363ZM85.14375 264.6705L88.6125 264.6705Q88.55 263.87363 88.22188 263.483Q87.70625 262.87363 86.90938 262.87363Q86.175 262.87363 85.675 263.358Q85.19063 263.84238 85.14375 264.6705Z"
     fill-rule="nonzero"
     id="path16" />
  <path
     fill="#9e9e9e"
     d="M24.596874 284.358L24.596874 285.37363L18.909374 285.37363Q18.909374 284.99863 19.034374 284.63925Q19.253124 284.06113 19.721874 283.49863Q20.20625 282.93613 21.1125 282.20175Q22.51875 281.0455 23.003124 280.37363Q23.503124 279.70175 23.503124 279.108Q23.503124 278.483 23.05 278.06113Q22.596874 277.62363 21.878124 277.62363Q21.1125 277.62363 20.659374 278.07675Q20.20625 278.52988 20.190624 279.34238L19.1125 279.233Q19.221874 278.01425 19.940624 277.38925Q20.675 276.74863 21.909374 276.74863Q23.14375 276.74863 23.8625 277.43613Q24.58125 278.12363 24.58125 279.13925Q24.58125 279.65488 24.3625 280.15488Q24.159374 280.63925 23.659374 281.20175Q23.175 281.74863 22.05 282.70175Q21.096874 283.49863 20.815624 283.7955Q20.55 284.07675 20.378124 284.358L24.596874 284.358ZM27.675 280.71738Q27.01875 280.46738 26.690624 280.02988Q26.378124 279.57675 26.378124 278.96738Q26.378124 278.02988 27.05 277.38925Q27.7375 276.74863 28.846874 276.74863Q29.971874 276.74863 30.659374 277.40488Q31.346874 278.06113 31.346874 278.99863Q31.346874 279.59238 31.034374 280.02988Q30.721874 280.46738 30.08125 280.71738Q30.878124 280.96738 31.284374 281.5455Q31.690624 282.12363 31.690624 282.9205Q31.690624 284.01425 30.909374 284.76425Q30.14375 285.51425 28.8625 285.51425Q27.596874 285.51425 26.815624 284.76425Q26.034374 284.01425 26.034374 282.88925Q26.034374 282.0455 26.45625 281.483Q26.89375 280.9205 27.675 280.71738ZM27.45625 278.9205Q27.45625 279.52988 27.846874 279.9205Q28.253124 280.31113 28.878124 280.31113Q29.4875 280.31113 29.878124 279.93613Q30.26875 279.5455 30.26875 278.983Q30.26875 278.40488 29.8625 278.01425Q29.45625 277.608 28.8625 277.608Q28.253124 277.608 27.846874 277.99863Q27.45625 278.38925 27.45625 278.9205ZM27.128124 282.88925Q27.128124 283.34238 27.33125 283.76425Q27.55 284.18613 27.971874 284.4205Q28.39375 284.65488 28.878124 284.65488Q29.628124 284.65488 30.1125 284.1705Q30.6125 283.68613 30.6125 282.93613Q30.6125 282.1705 30.1125 281.6705Q29.6125 281.1705 28.846874 281.1705Q28.096874 281.1705 27.6125 281.6705Q27.128124 282.15488 27.128124 282.88925ZM33.64375 285.37363L33.64375 284.1705L34.846874 284.1705L34.846874 285.37363L33.64375 285.37363ZM41.51875 278.88925L40.471874 278.96738Q40.33125 278.34238 40.08125 278.06113Q39.64375 277.608 39.01875 277.608Q38.51875 277.608 38.128124 277.88925Q37.64375 278.26425 37.346874 278.96738Q37.065624 279.65488 37.05 280.93613Q37.425 280.358 37.971874 280.07675Q38.534374 279.7955 39.14375 279.7955Q40.190624 279.7955 40.925 280.57675Q41.675 281.358 41.675 282.57675Q41.675 283.38925 41.315624 284.09238Q40.971874 284.77988 40.3625 285.15488Q39.753124 285.51425 38.9875 285.51425Q37.659374 285.51425 36.83125 284.5455Q36.003124 283.57675 36.003124 281.358Q36.003124 278.858 36.925 277.733Q37.721874 276.74863 39.08125 276.74863Q40.096874 276.74863 40.7375 277.32675Q41.39375 277.88925 41.51875 278.88925ZM37.221874 282.59238Q37.221874 283.13925 37.440624 283.63925Q37.675 284.12363 38.08125 284.38925Q38.503124 284.65488 38.971874 284.65488Q39.628124 284.65488 40.1125 284.12363Q40.596874 283.57675 40.596874 282.65488Q40.596874 281.76425 40.1125 281.24863Q39.64375 280.733 38.925 280.733Q38.20625 280.733 37.70625 281.24863Q37.221874 281.76425 37.221874 282.59238ZM43.253124 278.84238Q43.253124 277.9205 43.70625 277.27988Q44.175 276.63925 45.05 276.63925Q45.8625 276.63925 46.39375 277.21738Q46.925 277.7955 46.925 278.90488Q46.925 279.99863 46.378124 280.59238Q45.846874 281.1705 45.065624 281.1705Q44.284374 281.1705 43.76875 280.59238Q43.253124 280.01425 43.253124 278.84238ZM45.08125 277.358Q44.690624 277.358 44.425 277.70175Q44.175 278.0455 44.175 278.95175Q44.175 279.77988 44.425 280.12363Q44.690624 280.45175 45.08125 280.45175Q45.4875 280.45175 45.7375 280.108Q46.003124 279.76425 46.003124 278.87363Q46.003124 278.02988 45.7375 277.70175Q45.471874 277.358 45.08125 277.358ZM45.08125 285.68613L49.784374 276.63925L50.64375 276.63925L45.95625 285.68613L45.08125 285.68613ZM48.8 283.358Q48.8 282.43613 49.253124 281.7955Q49.721874 281.15488 50.6125 281.15488Q51.425 281.15488 51.95625 281.733Q52.4875 282.2955 52.4875 283.4205Q52.4875 284.51425 51.940624 285.108Q51.409374 285.68613 50.6125 285.68613Q49.846874 285.68613 49.315624 285.108Q48.8 284.52988 48.8 283.358ZM50.64375 281.87363Q50.2375 281.87363 49.971874 282.21738Q49.721874 282.56113 49.721874 283.46738Q49.721874 284.27988 49.9875 284.62363Q50.253124 284.96738 50.64375 284.96738Q51.034374 284.96738 51.3 284.62363Q51.565624 284.27988 51.565624 283.37363Q51.565624 282.5455 51.3 282.21738Q51.034374 281.87363 50.64375 281.87363Z"
     fill-rule="nonzero"
     id="path17" />
  <path
     stroke="#757575"
     stroke-width="1.0"
     stroke-linecap="butt"
     d="M18.55 272.87363L127.05 272.87363L167.6346 272.87363"
     fill-rule="nonzero"
     id="path18" />
  <path
     fill="#9e9e9e"
     d="M169.6346 272.87363C169.6346 271.76907 168.73917 270.87363 167.6346 270.87363C166.53003 270.87363 165.6346 271.76907 165.6346 272.87363C165.6346 273.9782 166.53003 274.87363 167.6346 274.87363C168.73917 274.87363 169.6346 273.9782 169.6346 272.87363"
     fill-rule="nonzero"
     id="path19" />
  <path
     fill="#1a1a1a"
     d="M514.02814 28.323307Q514.02814 26.182682 515.16876 24.979557Q516.325 23.760807 518.1375 23.760807Q519.34064 23.760807 520.29376 24.338932Q521.2469 24.901432 521.7469 25.917057Q522.2469 26.932682 522.2469 28.229557Q522.2469 29.526432 521.71564 30.557682Q521.1844 31.588932 520.21564 32.120182Q519.2625 32.651432 518.1375 32.651432Q516.91876 32.651432 515.96564 32.073307Q515.0125 31.479557 514.5125 30.479557Q514.02814 29.463932 514.02814 28.323307ZM515.2 28.338932Q515.2 29.901432 516.02814 30.792057Q516.8719 31.682682 518.1375 31.682682Q519.41876 31.682682 520.2469 30.792057Q521.075 29.885807 521.075 28.213932Q521.075 27.167057 520.71564 26.385807Q520.3719 25.604557 519.6844 25.182682Q518.9969 24.745182 518.15314 24.745182Q516.95 24.745182 516.075 25.573307Q515.2 26.401432 515.2 28.338932ZM523.2469 32.510807L523.2469 26.292057L524.1844 26.292057L524.1844 27.167057Q524.8719 26.151432 526.16876 26.151432Q526.73126 26.151432 527.2 26.354557Q527.6844 26.557682 527.91876 26.885807Q528.15314 27.213932 528.2469 27.651432Q528.29376 27.948307 528.29376 28.682682L528.29376 32.510807L527.2469 32.510807L527.2469 28.729557Q527.2469 28.073307 527.1219 27.760807Q526.9969 27.448307 526.6844 27.260807Q526.3719 27.057682 525.95 27.057682Q525.27814 27.057682 524.77814 27.495182Q524.29376 27.917057 524.29376 29.104557L524.29376 32.510807L523.2469 32.510807ZM534.4969 30.510807L535.59064 30.635807Q535.34064 31.588932 534.6375 32.120182Q533.9344 32.651432 532.85626 32.651432Q531.4969 32.651432 530.6844 31.807682Q529.8875 30.963932 529.8875 29.448307Q529.8875 27.885807 530.7 27.026432Q531.5125 26.151432 532.79376 26.151432Q534.04376 26.151432 534.825 26.995182Q535.6219 27.838932 535.6219 29.385807Q535.6219 29.479557 535.6219 29.667057L530.98126 29.667057Q531.04376 30.698307 531.5594 31.245182Q532.075 31.776432 532.85626 31.776432Q533.4344 31.776432 533.84064 31.479557Q534.2625 31.167057 534.4969 30.510807ZM531.04376 28.807682L534.5125 28.807682Q534.45 28.010807 534.1219 27.620182Q533.60626 27.010807 532.8094 27.010807Q532.075 27.010807 531.575 27.495182Q531.09064 27.979557 531.04376 28.807682ZM536.825 29.932682L536.825 28.870182L540.075 28.870182L540.075 29.932682L536.825 29.932682ZM543.5594 32.510807L543.5594 24.932682L540.73126 24.932682L540.73126 23.917057L547.54376 23.917057L547.54376 24.932682L544.7 24.932682L544.7 32.510807L543.5594 32.510807ZM547.85626 29.401432Q547.85626 27.667057 548.8094 26.838932Q549.60626 26.151432 550.7625 26.151432Q552.04376 26.151432 552.85626 26.995182Q553.6844 27.823307 553.6844 29.307682Q553.6844 30.510807 553.325 31.198307Q552.96564 31.885807 552.2625 32.276432Q551.575 32.651432 550.7625 32.651432Q549.46564 32.651432 548.65314 31.823307Q547.85626 30.979557 547.85626 29.401432ZM548.9344 29.401432Q548.9344 30.588932 549.45 31.182682Q549.98126 31.776432 550.7625 31.776432Q551.5594 31.776432 552.075 31.182682Q552.59064 30.588932 552.59064 29.370182Q552.59064 28.213932 552.0594 27.620182Q551.54376 27.026432 550.7625 27.026432Q549.98126 27.026432 549.45 27.620182Q548.9344 28.198307 548.9344 29.401432ZM554.825 29.932682L554.825 28.870182L558.075 28.870182L558.075 29.932682L554.825 29.932682ZM559.02814 28.323307Q559.02814 26.182682 560.16876 24.979557Q561.325 23.760807 563.1375 23.760807Q564.34064 23.760807 565.29376 24.338932Q566.2469 24.901432 566.7469 25.917057Q567.2469 26.932682 567.2469 28.229557Q567.2469 29.526432 566.71564 30.557682Q566.1844 31.588932 565.21564 32.120182Q564.2625 32.651432 563.1375 32.651432Q561.91876 32.651432 560.96564 32.073307Q560.0125 31.479557 559.5125 30.479557Q559.02814 29.463932 559.02814 28.323307ZM560.2 28.338932Q560.2 29.901432 561.02814 30.792057Q561.8719 31.682682 563.1375 31.682682Q564.41876 31.682682 565.2469 30.792057Q566.075 29.885807 566.075 28.213932Q566.075 27.167057 565.71564 26.385807Q565.3719 25.604557 564.6844 25.182682Q563.9969 24.745182 563.15314 24.745182Q561.95 24.745182 561.075 25.573307Q560.2 26.401432 560.2 28.338932ZM568.2469 32.510807L568.2469 26.292057L569.1844 26.292057L569.1844 27.167057Q569.8719 26.151432 571.16876 26.151432Q571.73126 26.151432 572.2 26.354557Q572.6844 26.557682 572.91876 26.885807Q573.15314 27.213932 573.2469 27.651432Q573.29376 27.948307 573.29376 28.682682L573.29376 32.510807L572.2469 32.510807L572.2469 28.729557Q572.2469 28.073307 572.1219 27.760807Q571.9969 27.448307 571.6844 27.260807Q571.3719 27.057682 570.95 27.057682Q570.27814 27.057682 569.77814 27.495182Q569.29376 27.917057 569.29376 29.104557L569.29376 32.510807L568.2469 32.510807ZM579.4969 30.510807L580.59064 30.635807Q580.34064 31.588932 579.6375 32.120182Q578.9344 32.651432 577.85626 32.651432Q576.4969 32.651432 575.6844 31.807682Q574.8875 30.963932 574.8875 29.448307Q574.8875 27.885807 575.7 27.026432Q576.5125 26.151432 577.79376 26.151432Q579.04376 26.151432 579.825 26.995182Q580.6219 27.838932 580.6219 29.385807Q580.6219 29.479557 580.6219 29.667057L575.98126 29.667057Q576.04376 30.698307 576.5594 31.245182Q577.075 31.776432 577.85626 31.776432Q578.4344 31.776432 578.84064 31.479557Q579.2625 31.167057 579.4969 30.510807ZM576.04376 28.807682L579.5125 28.807682Q579.45 28.010807 579.1219 27.620182Q578.60626 27.010807 577.8094 27.010807Q577.075 27.010807 576.575 27.495182Q576.09064 27.979557 576.04376 28.807682Z"
     fill-rule="nonzero"
     id="path20" />
  <path
     fill="#9e9e9e"
     d="M550.91876 49.510807L549.8719 49.510807L549.8719 42.792057Q549.48126 43.151432 548.85626 43.526432Q548.2469 43.885807 547.7625 44.057682L547.7625 43.042057Q548.6375 42.620182 549.29376 42.042057Q549.96564 41.448307 550.2469 40.885807L550.91876 40.885807L550.91876 49.510807ZM557.91876 49.510807L556.8719 49.510807L556.8719 42.792057Q556.48126 43.151432 555.85626 43.526432Q555.2469 43.885807 554.7625 44.057682L554.7625 43.042057Q555.6375 42.620182 556.29376 42.042057Q556.96564 41.448307 557.2469 40.885807L557.91876 40.885807L557.91876 49.510807ZM561.54376 49.510807L561.54376 48.307682L562.7469 48.307682L562.7469 49.510807L561.54376 49.510807ZM567.325 49.510807L567.325 47.448307L563.60626 47.448307L563.60626 46.479557L567.52814 40.917057L568.3875 40.917057L568.3875 46.479557L569.54376 46.479557L569.54376 47.448307L568.3875 47.448307L568.3875 49.510807L567.325 49.510807ZM567.325 46.479557L567.325 42.620182L564.6375 46.479557L567.325 46.479557ZM571.15314 42.979557Q571.15314 42.057682 571.60626 41.417057Q572.075 40.776432 572.95 40.776432Q573.7625 40.776432 574.29376 41.354557Q574.825 41.932682 574.825 43.042057Q574.825 44.135807 574.27814 44.729557Q573.7469 45.307682 572.96564 45.307682Q572.1844 45.307682 571.66876 44.729557Q571.15314 44.151432 571.15314 42.979557ZM572.98126 41.495182Q572.59064 41.495182 572.325 41.838932Q572.075 42.182682 572.075 43.088932Q572.075 43.917057 572.325 44.260807Q572.59064 44.588932 572.98126 44.588932Q573.3875 44.588932 573.6375 44.245182Q573.90314 43.901432 573.90314 43.010807Q573.90314 42.167057 573.6375 41.838932Q573.3719 41.495182 572.98126 41.495182ZM572.98126 49.823307L577.6844 40.776432L578.54376 40.776432L573.85626 49.823307L572.98126 49.823307ZM576.7 47.495182Q576.7 46.573307 577.15314 45.932682Q577.6219 45.292057 578.5125 45.292057Q579.325 45.292057 579.85626 45.870182Q580.3875 46.432682 580.3875 47.557682Q580.3875 48.651432 579.84064 49.245182Q579.3094 49.823307 578.5125 49.823307Q577.7469 49.823307 577.21564 49.245182Q576.7 48.667057 576.7 47.495182ZM578.54376 46.010807Q578.1375 46.010807 577.8719 46.354557Q577.6219 46.698307 577.6219 47.604557Q577.6219 48.417057 577.8875 48.760807Q578.15314 49.104557 578.54376 49.104557Q578.9344 49.104557 579.2 48.760807Q579.46564 48.417057 579.46564 47.510807Q579.46564 46.682682 579.2 46.354557Q578.9344 46.010807 578.54376 46.010807Z"
     fill-rule="nonzero"
     id="path21" />
  <path
     stroke="#757575"
     stroke-width="1.0"
     stroke-linecap="butt"
     d="M581.45 37.010807L472.95 37.010807L355.7289 37.010807"
     fill-rule="nonzero"
     id="path22" />
  <path
     fill="#9e9e9e"
     d="M357.7289 37.010807C357.7289 35.90624 356.8335 35.010807 355.7289 35.010807C354.62436 35.010807 353.7289 35.90624 353.7289 37.010807C353.7289 38.11538 354.62436 39.010807 355.7289 39.010807C356.8335 39.010807 357.7289 38.11538 357.7289 37.010807"
     fill-rule="nonzero"
     id="path23" />
  <path
     fill="#1a1a1a"
     d="M509.02814 101.65575Q509.02814 99.51512 510.16876 98.312Q511.325 97.09325 513.1375 97.09325Q514.34064 97.09325 515.29376 97.67137Q516.2469 98.23387 516.7469 99.2495Q517.2469 100.26512 517.2469 101.562Q517.2469 102.85887 516.71564 103.89012Q516.1844 104.92137 515.21564 105.45262Q514.2625 105.98387 513.1375 105.98387Q511.91876 105.98387 510.96564 105.40575Q510.0125 104.812 509.5125 103.812Q509.02814 102.79637 509.02814 101.65575ZM510.2 101.67137Q510.2 103.23387 511.02814 104.1245Q511.8719 105.01512 513.1375 105.01512Q514.41876 105.01512 515.2469 104.1245Q516.075 103.21825 516.075 101.54637Q516.075 100.4995 515.71564 99.71825Q515.3719 98.937 514.6844 98.51512Q513.9969 98.07762 513.15314 98.07762Q511.95 98.07762 511.075 98.90575Q510.2 99.73387 510.2 101.67137ZM518.2469 105.84325L518.2469 99.6245L519.1844 99.6245L519.1844 100.4995Q519.8719 99.48387 521.16876 99.48387Q521.73126 99.48387 522.2 99.687Q522.6844 99.89012 522.91876 100.21825Q523.15314 100.54637 523.2469 100.98387Q523.29376 101.28075 523.29376 102.01512L523.29376 105.84325L522.2469 105.84325L522.2469 102.062Q522.2469 101.40575 522.1219 101.09325Q521.9969 100.78075 521.6844 100.59325Q521.3719 100.39012 520.95 100.39012Q520.27814 100.39012 519.77814 100.82762Q519.29376 101.2495 519.29376 102.437L519.29376 105.84325L518.2469 105.84325ZM529.4969 103.84325L530.59064 103.96825Q530.34064 104.92137 529.6375 105.45262Q528.9344 105.98387 527.85626 105.98387Q526.4969 105.98387 525.6844 105.14012Q524.8875 104.29637 524.8875 102.78075Q524.8875 101.21825 525.7 100.35887Q526.5125 99.48387 527.79376 99.48387Q529.04376 99.48387 529.825 100.32762Q530.6219 101.17137 530.6219 102.71825Q530.6219 102.812 530.6219 102.9995L525.98126 102.9995Q526.04376 104.03075 526.5594 104.57762Q527.075 105.10887 527.85626 105.10887Q528.4344 105.10887 528.84064 104.812Q529.2625 104.4995 529.4969 103.84325ZM526.04376 102.14012L529.5125 102.14012Q529.45 101.34325 529.1219 100.95262Q528.60626 100.34325 527.8094 100.34325Q527.075 100.34325 526.575 100.82762Q526.09064 101.312 526.04376 102.14012ZM531.825 103.26512L531.825 102.20262L535.075 102.20262L535.075 103.26512L531.825 103.26512ZM538.5594 105.84325L538.5594 98.26512L535.73126 98.26512L535.73126 97.2495L542.54376 97.2495L542.54376 98.26512L539.7 98.26512L539.7 105.84325L538.5594 105.84325ZM542.85626 102.73387Q542.85626 100.9995 543.8094 100.17137Q544.60626 99.48387 545.7625 99.48387Q547.04376 99.48387 547.85626 100.32762Q548.6844 101.15575 548.6844 102.64012Q548.6844 103.84325 548.325 104.53075Q547.96564 105.21825 547.2625 105.60887Q546.575 105.98387 545.7625 105.98387Q544.46564 105.98387 543.65314 105.15575Q542.85626 104.312 542.85626 102.73387ZM543.9344 102.73387Q543.9344 103.92137 544.45 104.51512Q544.98126 105.10887 545.7625 105.10887Q546.5594 105.10887 547.075 104.51512Q547.59064 103.92137 547.59064 102.70262Q547.59064 101.54637 547.0594 100.95262Q546.54376 100.35887 545.7625 100.35887Q544.98126 100.35887 544.45 100.95262Q543.9344 101.53075 543.9344 102.73387ZM549.825 103.26512L549.825 102.20262L553.075 102.20262L553.075 103.26512L549.825 103.26512ZM554.34064 105.84325L554.34064 97.2495L556.0594 97.2495L558.09064 103.32762Q558.3719 104.187 558.4969 104.60887Q558.6375 104.14012 558.95 103.23387L561.0125 97.2495L562.54376 97.2495L562.54376 105.84325L561.45 105.84325L561.45 98.65575L558.95 105.84325L557.91876 105.84325L555.4344 98.53075L555.4344 105.84325L554.34064 105.84325ZM567.3094 105.07762Q566.71564 105.57762 566.16876 105.78075Q565.6375 105.98387 565.0125 105.98387Q563.98126 105.98387 563.4344 105.48387Q562.8875 104.98387 562.8875 104.20262Q562.8875 103.7495 563.09064 103.3745Q563.29376 102.98387 563.6375 102.76512Q563.98126 102.53075 564.40314 102.42137Q564.7 102.32762 565.34064 102.2495Q566.60626 102.10887 567.21564 101.89012Q567.21564 101.67137 567.21564 101.6245Q567.21564 100.96825 566.91876 100.70262Q566.5125 100.35887 565.71564 100.35887Q564.98126 100.35887 564.6219 100.6245Q564.2625 100.8745 564.09064 101.53075L563.0594 101.39012Q563.2 100.73387 563.52814 100.32762Q563.85626 99.92137 564.46564 99.70262Q565.075 99.48387 565.8719 99.48387Q566.66876 99.48387 567.16876 99.67137Q567.66876 99.85887 567.90314 100.14012Q568.1375 100.42137 568.23126 100.85887Q568.27814 101.1245 568.27814 101.82762L568.27814 103.23387Q568.27814 104.70262 568.34064 105.09325Q568.41876 105.48387 568.6219 105.84325L567.5125 105.84325Q567.35626 105.51512 567.3094 105.07762ZM567.21564 102.71825Q566.6375 102.95262 565.4969 103.1245Q564.84064 103.21825 564.575 103.34325Q564.3094 103.45262 564.15314 103.67137Q564.0125 103.89012 564.0125 104.17137Q564.0125 104.59325 564.325 104.8745Q564.65314 105.15575 565.2625 105.15575Q565.8719 105.15575 566.34064 104.89012Q566.825 104.6245 567.04376 104.15575Q567.21564 103.79637 567.21564 103.10887L567.21564 102.71825ZM570.2469 105.84325L570.2469 99.6245L571.1844 99.6245L571.1844 100.4995Q571.8719 99.48387 573.16876 99.48387Q573.73126 99.48387 574.2 99.687Q574.6844 99.89012 574.91876 100.21825Q575.15314 100.54637 575.2469 100.98387Q575.29376 101.28075 575.29376 102.01512L575.29376 105.84325L574.2469 105.84325L574.2469 102.062Q574.2469 101.40575 574.1219 101.09325Q573.9969 100.78075 573.6844 100.59325Q573.3719 100.39012 572.95 100.39012Q572.27814 100.39012 571.77814 100.82762Q571.29376 101.2495 571.29376 102.437L571.29376 105.84325L570.2469 105.84325ZM577.2 108.23387L577.075 107.2495Q577.41876 107.34325 577.6844 107.34325Q578.02814 107.34325 578.23126 107.21825Q578.45 107.10887 578.59064 106.90575Q578.6844 106.73387 578.91876 106.10887Q578.9344 106.03075 579.0125 105.85887L576.6375 99.6245L577.77814 99.6245L579.075 103.21825Q579.325 103.90575 579.52814 104.67137Q579.71564 103.937 579.96564 103.2495L581.29376 99.6245L582.34064 99.6245L579.98126 105.95262Q579.59064 106.96825 579.3875 107.35887Q579.10626 107.89012 578.73126 108.1245Q578.3719 108.3745 577.8719 108.3745Q577.575 108.3745 577.2 108.23387Z"
     fill-rule="nonzero"
     id="path24" />
  <path
     fill="#9e9e9e"
     d="M550.91876 122.84325L549.8719 122.84325L549.8719 116.1245Q549.48126 116.48387 548.85626 116.85887Q548.2469 117.21825 547.7625 117.39012L547.7625 116.3745Q548.6375 115.95262 549.29376 115.3745Q549.96564 114.78075 550.2469 114.21825L550.91876 114.21825L550.91876 122.84325ZM557.91876 122.84325L556.8719 122.84325L556.8719 116.1245Q556.48126 116.48387 555.85626 116.85887Q555.2469 117.21825 554.7625 117.39012L554.7625 116.3745Q555.6375 115.95262 556.29376 115.3745Q556.96564 114.78075 557.2469 114.21825L557.91876 114.21825L557.91876 122.84325ZM561.54376 122.84325L561.54376 121.64012L562.7469 121.64012L562.7469 122.84325L561.54376 122.84325ZM567.325 122.84325L567.325 120.78075L563.60626 120.78075L563.60626 119.812L567.52814 114.2495L568.3875 114.2495L568.3875 119.812L569.54376 119.812L569.54376 120.78075L568.3875 120.78075L568.3875 122.84325L567.325 122.84325ZM567.325 119.812L567.325 115.95262L564.6375 119.812L567.325 119.812ZM571.15314 116.312Q571.15314 115.39012 571.60626 114.7495Q572.075 114.10887 572.95 114.10887Q573.7625 114.10887 574.29376 114.687Q574.825 115.26512 574.825 116.3745Q574.825 117.46825 574.27814 118.062Q573.7469 118.64012 572.96564 118.64012Q572.1844 118.64012 571.66876 118.062Q571.15314 117.48387 571.15314 116.312ZM572.98126 114.82762Q572.59064 114.82762 572.325 115.17137Q572.075 115.51512 572.075 116.42137Q572.075 117.2495 572.325 117.59325Q572.59064 117.92137 572.98126 117.92137Q573.3875 117.92137 573.6375 117.57762Q573.90314 117.23387 573.90314 116.34325Q573.90314 115.4995 573.6375 115.17137Q573.3719 114.82762 572.98126 114.82762ZM572.98126 123.15575L577.6844 114.10887L578.54376 114.10887L573.85626 123.15575L572.98126 123.15575ZM576.7 120.82762Q576.7 119.90575 577.15314 119.26512Q577.6219 118.6245 578.5125 118.6245Q579.325 118.6245 579.85626 119.20262Q580.3875 119.76512 580.3875 120.89012Q580.3875 121.98387 579.84064 122.57762Q579.3094 123.15575 578.5125 123.15575Q577.7469 123.15575 577.21564 122.57762Q576.7 121.9995 576.7 120.82762ZM578.54376 119.34325Q578.1375 119.34325 577.8719 119.687Q577.6219 120.03075 577.6219 120.937Q577.6219 121.7495 577.8875 122.09325Q578.15314 122.437 578.54376 122.437Q578.9344 122.437 579.2 122.09325Q579.46564 121.7495 579.46564 120.84325Q579.46564 120.01512 579.2 119.687Q578.9344 119.34325 578.54376 119.34325Z"
     fill-rule="nonzero"
     id="path25" />
  <path
     stroke="#757575"
     stroke-width="1.0"
     stroke-linecap="butt"
     d="M581.45 110.34325L472.95 110.34325L439.66464 110.34325"
     fill-rule="nonzero"
     id="path26" />
  <path
     fill="#9e9e9e"
     d="M441.66464 110.34325C441.66464 109.23868 440.76923 108.34325 439.66464 108.34325C438.5601 108.34325 437.66464 109.23868 437.66464 110.34325C437.66464 111.447815 438.5601 112.34325 439.66464 112.34325C440.76923 112.34325 441.66464 111.447815 441.66464 110.34325"
     fill-rule="nonzero"
     id="path27" />
  <path
     fill="#1a1a1a"
     d="M514.575 290.60428L514.575 282.01053L515.7 282.01053L515.7 290.60428L514.575 290.60428ZM517.2469 290.60428L517.2469 284.38553L518.1844 284.38553L518.1844 285.26053Q518.8719 284.2449 520.16876 284.2449Q520.73126 284.2449 521.2 284.44803Q521.6844 284.65115 521.91876 284.97928Q522.15314 285.3074 522.2469 285.7449Q522.29376 286.04178 522.29376 286.77615L522.29376 290.60428L521.2469 290.60428L521.2469 286.82303Q521.2469 286.16678 521.1219 285.85428Q520.9969 285.54178 520.6844 285.35428Q520.3719 285.15115 519.95 285.15115Q519.27814 285.15115 518.77814 285.58865Q518.29376 286.01053 518.29376 287.19803L518.29376 290.60428L517.2469 290.60428ZM526.54376 289.66678L526.7 290.58865Q526.2469 290.6824 525.90314 290.6824Q525.325 290.6824 525.0125 290.51053Q524.7 290.32303 524.5594 290.02615Q524.4344 289.72928 524.4344 288.77615L524.4344 285.19803L523.66876 285.19803L523.66876 284.38553L524.4344 284.38553L524.4344 282.83865L525.48126 282.21365L525.48126 284.38553L526.54376 284.38553L526.54376 285.19803L525.48126 285.19803L525.48126 288.83865Q525.48126 289.29178 525.52814 289.41678Q525.59064 289.54178 525.71564 289.6199Q525.84064 289.69803 526.075 289.69803Q526.2625 289.69803 526.54376 289.66678ZM531.4969 288.60428L532.59064 288.72928Q532.34064 289.6824 531.6375 290.21365Q530.9344 290.7449 529.85626 290.7449Q528.4969 290.7449 527.6844 289.90115Q526.8875 289.0574 526.8875 287.54178Q526.8875 285.97928 527.7 285.1199Q528.5125 284.2449 529.79376 284.2449Q531.04376 284.2449 531.825 285.08865Q532.6219 285.9324 532.6219 287.47928Q532.6219 287.57303 532.6219 287.76053L527.98126 287.76053Q528.04376 288.79178 528.5594 289.33865Q529.075 289.8699 529.85626 289.8699Q530.4344 289.8699 530.84064 289.57303Q531.2625 289.26053 531.4969 288.60428ZM528.04376 286.90115L531.5125 286.90115Q531.45 286.10428 531.1219 285.71365Q530.60626 285.10428 529.8094 285.10428Q529.075 285.10428 528.575 285.58865Q528.09064 286.07303 528.04376 286.90115ZM534.23126 290.60428L534.23126 284.38553L535.1844 284.38553L535.1844 285.32303Q535.54376 284.66678 535.84064 284.46365Q536.15314 284.2449 536.52814 284.2449Q537.0594 284.2449 537.60626 284.57303L537.2469 285.5574Q536.85626 285.32303 536.48126 285.32303Q536.1219 285.32303 535.84064 285.54178Q535.575 285.7449 535.46564 286.1199Q535.27814 286.6824 535.27814 287.33865L535.27814 290.60428L534.23126 290.60428ZM538.2469 292.9949L538.2469 284.38553L539.2 284.38553L539.2 285.1824Q539.54376 284.71365 539.96564 284.47928Q540.40314 284.2449 541.0125 284.2449Q541.8094 284.2449 542.41876 284.65115Q543.02814 285.0574 543.325 285.8074Q543.6375 286.5574 543.6375 287.44803Q543.6375 288.40115 543.29376 289.16678Q542.96564 289.9324 542.3094 290.33865Q541.65314 290.7449 540.9344 290.7449Q540.40314 290.7449 539.98126 290.52615Q539.5594 290.29178 539.29376 289.96365L539.29376 292.9949L538.2469 292.9949ZM539.2 287.52615Q539.2 288.72928 539.6844 289.3074Q540.16876 289.8699 540.85626 289.8699Q541.5594 289.8699 542.0594 289.27615Q542.5594 288.6824 542.5594 287.4324Q542.5594 286.2449 542.075 285.66678Q541.59064 285.07303 540.90314 285.07303Q540.23126 285.07303 539.71564 285.69803Q539.2 286.32303 539.2 287.52615ZM544.85626 287.4949Q544.85626 285.76053 545.8094 284.9324Q546.60626 284.2449 547.7625 284.2449Q549.04376 284.2449 549.85626 285.08865Q550.6844 285.91678 550.6844 287.40115Q550.6844 288.60428 550.325 289.29178Q549.96564 289.97928 549.2625 290.3699Q548.575 290.7449 547.7625 290.7449Q546.46564 290.7449 545.65314 289.91678Q544.85626 289.07303 544.85626 287.4949ZM545.9344 287.4949Q545.9344 288.6824 546.45 289.27615Q546.98126 289.8699 547.7625 289.8699Q548.5594 289.8699 549.075 289.27615Q549.59064 288.6824 549.59064 287.46365Q549.59064 286.3074 549.0594 285.71365Q548.54376 285.1199 547.7625 285.1199Q546.98126 285.1199 546.45 285.71365Q545.9344 286.29178 545.9344 287.4949ZM552.21564 290.60428L552.21564 282.01053L553.27814 282.01053L553.27814 290.60428L552.21564 290.60428ZM559.3094 289.83865Q558.71564 290.33865 558.16876 290.54178Q557.6375 290.7449 557.0125 290.7449Q555.98126 290.7449 555.4344 290.2449Q554.8875 289.7449 554.8875 288.96365Q554.8875 288.51053 555.09064 288.13553Q555.29376 287.7449 555.6375 287.52615Q555.98126 287.29178 556.40314 287.1824Q556.7 287.08865 557.34064 287.01053Q558.60626 286.8699 559.21564 286.65115Q559.21564 286.4324 559.21564 286.38553Q559.21564 285.72928 558.91876 285.46365Q558.5125 285.1199 557.71564 285.1199Q556.98126 285.1199 556.6219 285.38553Q556.2625 285.63553 556.09064 286.29178L555.0594 286.15115Q555.2 285.4949 555.52814 285.08865Q555.85626 284.6824 556.46564 284.46365Q557.075 284.2449 557.8719 284.2449Q558.66876 284.2449 559.16876 284.4324Q559.66876 284.6199 559.90314 284.90115Q560.1375 285.1824 560.23126 285.6199Q560.27814 285.88553 560.27814 286.58865L560.27814 287.9949Q560.27814 289.46365 560.34064 289.85428Q560.41876 290.2449 560.6219 290.60428L559.5125 290.60428Q559.35626 290.27615 559.3094 289.83865ZM559.21564 287.47928Q558.6375 287.71365 557.4969 287.88553Q556.84064 287.97928 556.575 288.10428Q556.3094 288.21365 556.15314 288.4324Q556.0125 288.65115 556.0125 288.9324Q556.0125 289.35428 556.325 289.63553Q556.65314 289.91678 557.2625 289.91678Q557.8719 289.91678 558.34064 289.65115Q558.825 289.38553 559.04376 288.91678Q559.21564 288.5574 559.21564 287.8699L559.21564 287.47928ZM564.54376 289.66678L564.7 290.58865Q564.2469 290.6824 563.90314 290.6824Q563.325 290.6824 563.0125 290.51053Q562.7 290.32303 562.5594 290.02615Q562.4344 289.72928 562.4344 288.77615L562.4344 285.19803L561.66876 285.19803L561.66876 284.38553L562.4344 284.38553L562.4344 282.83865L563.48126 282.21365L563.48126 284.38553L564.54376 284.38553L564.54376 285.19803L563.48126 285.19803L563.48126 288.83865Q563.48126 289.29178 563.52814 289.41678Q563.59064 289.54178 563.71564 289.6199Q563.84064 289.69803 564.075 289.69803Q564.2625 289.69803 564.54376 289.66678ZM565.2469 283.22928L565.2469 282.01053L566.3094 282.01053L566.3094 283.22928L565.2469 283.22928ZM565.2469 290.60428L565.2469 284.38553L566.3094 284.38553L566.3094 290.60428L565.2469 290.60428ZM567.85626 287.4949Q567.85626 285.76053 568.8094 284.9324Q569.60626 284.2449 570.7625 284.2449Q572.04376 284.2449 572.85626 285.08865Q573.6844 285.91678 573.6844 287.40115Q573.6844 288.60428 573.325 289.29178Q572.96564 289.97928 572.2625 290.3699Q571.575 290.7449 570.7625 290.7449Q569.46564 290.7449 568.65314 289.91678Q567.85626 289.07303 567.85626 287.4949ZM568.9344 287.4949Q568.9344 288.6824 569.45 289.27615Q569.98126 289.8699 570.7625 289.8699Q571.5594 289.8699 572.075 289.27615Q572.59064 288.6824 572.59064 287.46365Q572.59064 286.3074 572.0594 285.71365Q571.54376 285.1199 570.7625 285.1199Q569.98126 285.1199 569.45 285.71365Q568.9344 286.29178 568.9344 287.4949ZM575.2469 290.60428L575.2469 284.38553L576.1844 284.38553L576.1844 285.26053Q576.8719 284.2449 578.16876 284.2449Q578.73126 284.2449 579.2 284.44803Q579.6844 284.65115 579.91876 284.97928Q580.15314 285.3074 580.2469 285.7449Q580.29376 286.04178 580.29376 286.77615L580.29376 290.60428L579.2469 290.60428L579.2469 286.82303Q579.2469 286.16678 579.1219 285.85428Q578.9969 285.54178 578.6844 285.35428Q578.3719 285.15115 577.95 285.15115Q577.27814 285.15115 576.77814 285.58865Q576.29376 286.01053 576.29376 287.19803L576.29376 290.60428L575.2469 290.60428Z"
     fill-rule="nonzero"
     id="path28" />
  <path
     fill="#9e9e9e"
     d="M552.4969 306.58865L552.4969 307.60428L546.8094 307.60428Q546.8094 307.22928 546.9344 306.8699Q547.15314 306.29178 547.6219 305.72928Q548.10626 305.16678 549.0125 304.4324Q550.41876 303.27615 550.90314 302.60428Q551.40314 301.9324 551.40314 301.33865Q551.40314 300.71365 550.95 300.29178Q550.4969 299.85428 549.77814 299.85428Q549.0125 299.85428 548.5594 300.3074Q548.10626 300.76053 548.09064 301.57303L547.0125 301.46365Q547.1219 300.2449 547.84064 299.6199Q548.575 298.97928 549.8094 298.97928Q551.04376 298.97928 551.7625 299.66678Q552.48126 300.35428 552.48126 301.3699Q552.48126 301.88553 552.2625 302.38553Q552.0594 302.8699 551.5594 303.4324Q551.075 303.97928 549.95 304.9324Q548.9969 305.72928 548.71564 306.02615Q548.45 306.3074 548.27814 306.58865L552.4969 306.58865ZM555.575 302.94803Q554.91876 302.69803 554.59064 302.26053Q554.27814 301.8074 554.27814 301.19803Q554.27814 300.26053 554.95 299.6199Q555.6375 298.97928 556.7469 298.97928Q557.8719 298.97928 558.5594 299.63553Q559.2469 300.29178 559.2469 301.22928Q559.2469 301.82303 558.9344 302.26053Q558.6219 302.69803 557.98126 302.94803Q558.77814 303.19803 559.1844 303.77615Q559.59064 304.35428 559.59064 305.15115Q559.59064 306.2449 558.8094 306.9949Q558.04376 307.7449 556.7625 307.7449Q555.4969 307.7449 554.71564 306.9949Q553.9344 306.2449 553.9344 305.1199Q553.9344 304.27615 554.35626 303.71365Q554.79376 303.15115 555.575 302.94803ZM555.35626 301.15115Q555.35626 301.76053 555.7469 302.15115Q556.15314 302.54178 556.77814 302.54178Q557.3875 302.54178 557.77814 302.16678Q558.16876 301.77615 558.16876 301.21365Q558.16876 300.63553 557.7625 300.2449Q557.35626 299.83865 556.7625 299.83865Q556.15314 299.83865 555.7469 300.22928Q555.35626 300.6199 555.35626 301.15115ZM555.02814 305.1199Q555.02814 305.57303 555.23126 305.9949Q555.45 306.41678 555.8719 306.65115Q556.29376 306.88553 556.77814 306.88553Q557.52814 306.88553 558.0125 306.40115Q558.5125 305.91678 558.5125 305.16678Q558.5125 304.40115 558.0125 303.90115Q557.5125 303.40115 556.7469 303.40115Q555.9969 303.40115 555.5125 303.90115Q555.02814 304.38553 555.02814 305.1199ZM561.54376 307.60428L561.54376 306.40115L562.7469 306.40115L562.7469 307.60428L561.54376 307.60428ZM569.41876 301.1199L568.3719 301.19803Q568.23126 300.57303 567.98126 300.29178Q567.54376 299.83865 566.91876 299.83865Q566.41876 299.83865 566.02814 300.1199Q565.54376 300.4949 565.2469 301.19803Q564.96564 301.88553 564.95 303.16678Q565.325 302.58865 565.8719 302.3074Q566.4344 302.02615 567.04376 302.02615Q568.09064 302.02615 568.825 302.8074Q569.575 303.58865 569.575 304.8074Q569.575 305.6199 569.21564 306.32303Q568.8719 307.01053 568.2625 307.38553Q567.65314 307.7449 566.8875 307.7449Q565.5594 307.7449 564.73126 306.77615Q563.90314 305.8074 563.90314 303.58865Q563.90314 301.08865 564.825 299.96365Q565.6219 298.97928 566.98126 298.97928Q567.9969 298.97928 568.6375 299.5574Q569.29376 300.1199 569.41876 301.1199ZM565.1219 304.82303Q565.1219 305.3699 565.34064 305.8699Q565.575 306.35428 565.98126 306.6199Q566.40314 306.88553 566.8719 306.88553Q567.52814 306.88553 568.0125 306.35428Q568.4969 305.8074 568.4969 304.88553Q568.4969 303.9949 568.0125 303.47928Q567.54376 302.96365 566.825 302.96365Q566.10626 302.96365 565.60626 303.47928Q565.1219 303.9949 565.1219 304.82303ZM571.15314 301.07303Q571.15314 300.15115 571.60626 299.51053Q572.075 298.8699 572.95 298.8699Q573.7625 298.8699 574.29376 299.44803Q574.825 300.02615 574.825 301.13553Q574.825 302.22928 574.27814 302.82303Q573.7469 303.40115 572.96564 303.40115Q572.1844 303.40115 571.66876 302.82303Q571.15314 302.2449 571.15314 301.07303ZM572.98126 299.58865Q572.59064 299.58865 572.325 299.9324Q572.075 300.27615 572.075 301.1824Q572.075 302.01053 572.325 302.35428Q572.59064 302.6824 572.98126 302.6824Q573.3875 302.6824 573.6375 302.33865Q573.90314 301.9949 573.90314 301.10428Q573.90314 300.26053 573.6375 299.9324Q573.3719 299.58865 572.98126 299.58865ZM572.98126 307.91678L577.6844 298.8699L578.54376 298.8699L573.85626 307.91678L572.98126 307.91678ZM576.7 305.58865Q576.7 304.66678 577.15314 304.02615Q577.6219 303.38553 578.5125 303.38553Q579.325 303.38553 579.85626 303.96365Q580.3875 304.52615 580.3875 305.65115Q580.3875 306.7449 579.84064 307.33865Q579.3094 307.91678 578.5125 307.91678Q577.7469 307.91678 577.21564 307.33865Q576.7 306.76053 576.7 305.58865ZM578.54376 304.10428Q578.1375 304.10428 577.8719 304.44803Q577.6219 304.79178 577.6219 305.69803Q577.6219 306.51053 577.8875 306.85428Q578.15314 307.19803 578.54376 307.19803Q578.9344 307.19803 579.2 306.85428Q579.46564 306.51053 579.46564 305.60428Q579.46564 304.77615 579.2 304.44803Q578.9344 304.10428 578.54376 304.10428Z"
     fill-rule="nonzero"
     id="path29" />
  <path
     stroke="#757575"
     stroke-width="1.0"
     stroke-linecap="butt"
     d="M581.45 295.10428L472.95 295.10428L414.6371 295.10428"
     fill-rule="nonzero"
     id="path30" />
  <path
     fill="#9e9e9e"
     d="M416.6371 295.10428C416.6371 293.9997 415.74164 293.10428 414.6371 293.10428C413.5325 293.10428 412.6371 293.9997 412.6371 295.10428C412.6371 296.20883 413.5325 297.10428 414.6371 297.10428C415.74164 297.10428 416.6371 296.20883 416.6371 295.10428"
     fill-rule="nonzero"
     id="path31" />
</svg>
