<?xml version="1.0" encoding="UTF-8" standalone="no"?>
<!-- Created with Inkscape (http://www.inkscape.org/) -->

<svg
   width="210mm"
   height="100mm"
   viewBox="0 0 210 100"
   version="1.1"
   id="svg1"
   inkscape:version="1.3 (0e150ed, 2023-07-21)"
   sodipodi:docname="Interpolation.svg"
   xml:space="preserve"
   xmlns:inkscape="http://www.inkscape.org/namespaces/inkscape"
   xmlns:sodipodi="http://sodipodi.sourceforge.net/DTD/sodipodi-0.dtd"
   xmlns="http://www.w3.org/2000/svg"
   xmlns:svg="http://www.w3.org/2000/svg"><sodipodi:namedview
     id="namedview1"
     pagecolor="#ffffff"
     bordercolor="#000000"
     borderopacity="0.25"
     inkscape:showpageshadow="2"
     inkscape:pageopacity="0.0"
     inkscape:pagecheckerboard="0"
     inkscape:deskcolor="#d1d1d1"
     inkscape:document-units="mm"
     inkscape:zoom="0.87732488"
     inkscape:cx="263.87032"
     inkscape:cy="336.24944"
     inkscape:window-width="1648"
     inkscape:window-height="1057"
     inkscape:window-x="0"
     inkscape:window-y="32"
     inkscape:window-maximized="0"
     inkscape:current-layer="layer1"
     inkscape:export-bgcolor="#ffffffff" /><defs
     id="defs1"><marker
       style="overflow:visible"
       id="marker8-5"
       refX="0"
       refY="0"
       orient="auto-start-reverse"
       inkscape:stockid="Wide, rounded arrow"
       markerWidth="1"
       markerHeight="1"
       viewBox="0 0 1 1"
       inkscape:isstock="true"
       inkscape:collect="always"
       preserveAspectRatio="xMidYMid"><path
         style="fill:none;stroke:context-stroke;stroke-width:1;stroke-linecap:round"
         d="M 3,-3 0,0 3,3"
         transform="rotate(180,0.125,0)"
         sodipodi:nodetypes="ccc"
         id="path8-6" /></marker><marker
       style="overflow:visible"
       id="marker8-5-4"
       refX="0"
       refY="0"
       orient="auto-start-reverse"
       inkscape:stockid="Wide, rounded arrow"
       markerWidth="1"
       markerHeight="1"
       viewBox="0 0 1 1"
       inkscape:isstock="true"
       inkscape:collect="always"
       preserveAspectRatio="xMidYMid"><path
         style="fill:none;stroke:context-stroke;stroke-width:1;stroke-linecap:round"
         d="M 3,-3 0,0 3,3"
         transform="rotate(180,0.125,0)"
         sodipodi:nodetypes="ccc"
         id="path8-6-3" /></marker><marker
       style="overflow:visible"
       id="marker8-5-4-3"
       refX="0"
       refY="0"
       orient="auto-start-reverse"
       inkscape:stockid="Wide, rounded arrow"
       markerWidth="1"
       markerHeight="1"
       viewBox="0 0 1 1"
       inkscape:isstock="true"
       inkscape:collect="always"
       preserveAspectRatio="xMidYMid"><path
         style="fill:none;stroke:context-stroke;stroke-width:1;stroke-linecap:round"
         d="M 3,-3 0,0 3,3"
         transform="rotate(180,0.125,0)"
         sodipodi:nodetypes="ccc"
         id="path8-6-3-0" /></marker></defs><g
     inkscape:label="Layer 1"
     inkscape:groupmode="layer"
     id="layer1"><circle
       style="fill:#87c588;fill-opacity:1;stroke:none;stroke-width:0.542501;stroke-opacity:1"
       id="use3"
       cx="16.50326"
       cy="33.477234"
       r="10.735666" /><text
       xml:space="preserve"
       style="font-style:italic;font-variant:normal;font-weight:bold;font-stretch:normal;font-size:10.1108px;font-family:'Times New Roman';-inkscape-font-specification:'Times New Roman,  Bold Italic';fill:#000000;stroke-width:0.39059;stroke-linecap:round"
       x="68.217979"
       y="25.823948"
       id="text3"><tspan
         sodipodi:role="line"
         id="tspan3"
         style="font-style:italic;font-variant:normal;font-weight:bold;font-stretch:normal;font-size:10.1108px;font-family:'Times New Roman';-inkscape-font-specification:'Times New Roman,  Bold Italic';stroke-width:0.390588"
         x="68.217979"
         y="25.823948">preset 1</tspan></text><text
       xml:space="preserve"
       style="font-style:italic;font-variant:normal;font-weight:bold;font-stretch:normal;font-size:10.1108px;font-family:'Times New Roman';-inkscape-font-specification:'Times New Roman,  Bold Italic';fill:#000000;stroke-width:0.290477;stroke-linecap:round"
       x="68.782898"
       y="89.851639"
       id="text4"><tspan
         sodipodi:role="line"
         id="tspan4"
         style="font-style:italic;font-variant:normal;font-weight:bold;font-stretch:normal;font-size:10.1108px;font-family:'Times New Roman';-inkscape-font-specification:'Times New Roman,  Bold Italic';stroke-width:0.290475"
         x="68.782898"
         y="89.851639">preset 2</tspan></text><g
       id="path5"><path
         style="color:#000000;fill:#000000;stroke-linecap:round;-inkscape-stroke:none"
         d="M 83.201522,29.741433 V 80.180531"
         id="path11" /><path
         style="color:#000000;fill:#000000;stroke-width:0.56056;stroke-linecap:round;-inkscape-stroke:none"
         d="m 83.201172,29.367187 a 0.37361151,0.11739917 0 0 0 -0.373047,0.117835 v 15.848871 a 0.37361151,0.11739917 0 0 0 0.373047,0.117836 0.37361151,0.11739917 0 0 0 0.373047,-0.117836 V 29.485022 a 0.37361151,0.11739917 0 0 0 -0.373047,-0.117835 z"
         id="path10" /><path
         style="color:#000000;fill:#000000;stroke-width:0.56056;stroke-linecap:round;-inkscape-stroke:none"
         d="m 83.201171,63.800357 a 0.37361151,0.11739917 0 0 0 -0.373046,0.117835 v 15.848871 a 0.37361151,0.11739917 0 0 0 0.373046,0.117836 0.37361151,0.11739917 0 0 0 0.373047,-0.117836 V 63.918192 a 0.37361151,0.11739917 0 0 0 -0.373047,-0.117835 z"
         id="path10-4" /><g
         id="g2"><path
           style="color:#000000;fill:#000000;stroke-linecap:round;-inkscape-stroke:none"
           d="m 80.695312,77.861328 a 0.37361151,0.37361151 0 0 0 0,0.529297 l 2.50586,2.505859 2.505859,-2.505859 a 0.37361151,0.37361151 0 0 0 0,-0.529297 0.37361151,0.37361151 0 0 0 -0.527344,0 l -1.978515,1.978516 -1.976563,-1.978516 a 0.37361151,0.37361151 0 0 0 -0.529297,0 z"
           id="path9" /><path
           style="color:#000000;fill:#000000;stroke-linecap:round;-inkscape-stroke:none"
           d="m 83.201172,29.025391 -2.50586,2.505859 a 0.37361151,0.37361151 0 0 0 0,0.529297 0.37361151,0.37361151 0 0 0 0.529297,0 l 1.976563,-1.978516 1.978515,1.978516 a 0.37361151,0.37361151 0 0 0 0.527344,0 0.37361151,0.37361151 0 0 0 0,-0.529297 z"
           id="path7" /></g></g><path
       style="fill:#000000;stroke:#000000;stroke-width:0.747223;stroke-linecap:round;stroke-opacity:1;marker-start:url(#marker8-5);marker-end:url(#marker8-5)"
       d="M 122.7942,29.741433 V 80.180531"
       id="path5-8"
       sodipodi:nodetypes="cc" /><path
       style="fill:#000000;stroke:#000000;stroke-width:0.747223;stroke-linecap:round;stroke-opacity:1;marker-start:url(#marker8-5-4);marker-end:url(#marker8-5-4)"
       d="M 156.18206,29.720265 V 80.159363"
       id="path5-8-0"
       sodipodi:nodetypes="cc" /><path
       style="fill:#000000;stroke:#000000;stroke-width:0.747223;stroke-linecap:round;stroke-opacity:1;marker-start:url(#marker8-5-4-3);marker-end:url(#marker8-5-4-3)"
       d="M 188.87225,29.720265 V 80.159363"
       id="path5-8-0-8"
       sodipodi:nodetypes="cc" /><text
       xml:space="preserve"
       style="font-style:italic;font-size:7.22201px;font-family:'Times New Roman';-inkscape-font-specification:'Times New Roman,  Italic';text-align:center;text-anchor:middle;fill:#000000;stroke:none;stroke-width:0.747223;stroke-linecap:round;stroke-opacity:1"
       x="83.279121"
       y="52.182194"
       id="text5"><tspan
         sodipodi:role="line"
         style="font-size:7.22201px;text-align:center;text-anchor:middle;stroke:none;stroke-width:0.747221"
         x="83.279121"
         y="52.182194"
         id="tspan6">interpolation</tspan><tspan
         sodipodi:role="line"
         style="font-size:7.22201px;text-align:center;text-anchor:middle;stroke:none;stroke-width:0.747221"
         x="83.279121"
         y="61.209705"
         id="tspan1">coefficient </tspan><tspan
         sodipodi:role="line"
         style="font-size:7.22201px;text-align:center;text-anchor:middle;stroke:none;stroke-width:0.747221"
         x="83.279121"
         y="70.237221"
         id="tspan2" /></text><g
       id="path13"><path
         style="color:#000000;fill:#000000;stroke-linecap:round;-inkscape-stroke:none"
         d="m 16.550781,43.841797 a 0.37361151,0.37361151 0 0 0 -0.27539,0.07617 0.37361151,0.37361151 0 0 0 -0.06836,0.523437 c 15.746182,20.426893 39.892578,15.394531 39.892578,15.394531 a 0.37361151,0.37361151 0 0 0 0.289063,-0.441406 0.37361151,0.37361151 0 0 0 -0.441406,-0.289062 c 0,0 -23.663665,4.966683 -39.148438,-15.121094 a 0.37361151,0.37361151 0 0 0 -0.248047,-0.142578 z"
         id="path14" /><g
         id="g12"><path
           style="color:#000000;fill:#000000;stroke-linecap:round;-inkscape-stroke:none"
           d="m 53.757812,57.384766 a 0.37361151,0.37361151 0 0 0 -0.517578,0.107421 0.37361151,0.37361151 0 0 0 0.109375,0.517579 l 2.339844,1.53125 -1.53125,2.339843 a 0.37361151,0.37361151 0 0 0 0.107422,0.517578 0.37361151,0.37361151 0 0 0 0.517578,-0.107421 l 1.939453,-2.966797 z"
           id="path15" /></g></g><text
       xml:space="preserve"
       style="font-style:italic;font-size:7.22199px;font-family:'Times New Roman';-inkscape-font-specification:'Times New Roman,  Italic';text-align:center;text-anchor:middle;fill:#000000;fill-opacity:1;stroke:none;stroke-width:0.747223;stroke-linecap:round;stroke-opacity:1"
       x="121.97559"
       y="13.360433"
       id="text18"><tspan
         sodipodi:role="line"
         id="tspan18"
         style="fill:#000000;fill-opacity:1;stroke:none;stroke-width:0.747221;stroke-opacity:1"
         x="121.97559"
         y="13.360433">amplitude</tspan></text><text
       xml:space="preserve"
       style="font-style:italic;font-size:7.22199px;font-family:'Times New Roman';-inkscape-font-specification:'Times New Roman,  Italic';text-align:center;text-anchor:middle;fill:#000000;fill-opacity:1;stroke:none;stroke-width:0.747223;stroke-linecap:round;stroke-opacity:1"
       x="158.06853"
       y="13.360433"
       id="text18-5"><tspan
         sodipodi:role="line"
         id="tspan18-2"
         style="fill:#000000;fill-opacity:1;stroke:none;stroke-width:0.747221;stroke-opacity:1"
         x="158.06853"
         y="13.360433">frequence</tspan></text><text
       xml:space="preserve"
       style="font-style:italic;font-size:7.22199px;font-family:'Times New Roman';-inkscape-font-specification:'Times New Roman,  Italic';text-align:center;text-anchor:middle;fill:#000000;fill-opacity:1;stroke:none;stroke-width:0.747223;stroke-linecap:round;stroke-opacity:1"
       x="189.17691"
       y="11.907576"
       id="text19"><tspan
         sodipodi:role="line"
         id="tspan19"
         style="stroke-width:0.747221"
         x="189.17691"
         y="11.907576">...</tspan></text><text
       xml:space="preserve"
       style="font-style:italic;font-size:7.22199px;font-family:'Times New Roman';-inkscape-font-specification:'Times New Roman,  Italic';text-align:center;text-anchor:middle;fill:#000000;fill-opacity:1;stroke:none;stroke-width:0.747223;stroke-linecap:round;stroke-opacity:1"
       x="121.87157"
       y="24.803419"
       id="text20"><tspan
         sodipodi:role="line"
         id="tspan20"
         style="stroke-width:0.747221"
         x="121.87157"
         y="24.803419">0.5</tspan></text><text
       xml:space="preserve"
       style="font-style:italic;font-size:7.22199px;font-family:'Times New Roman';-inkscape-font-specification:'Times New Roman,  Italic';text-align:center;text-anchor:middle;fill:#000000;fill-opacity:1;stroke:none;stroke-width:0.747223;stroke-linecap:round;stroke-opacity:1"
       x="121.87157"
       y="89.914398"
       id="text20-8"><tspan
         sodipodi:role="line"
         id="tspan20-2"
         style="stroke-width:0.747221"
         x="121.87157"
         y="89.914398">2</tspan></text><text
       xml:space="preserve"
       style="font-style:italic;font-size:7.22199px;font-family:'Times New Roman';-inkscape-font-specification:'Times New Roman,  Italic';text-align:center;text-anchor:middle;fill:#000000;fill-opacity:1;stroke:none;stroke-width:0.747223;stroke-linecap:round;stroke-opacity:1"
       x="156.09213"
       y="24.803419"
       id="text21"><tspan
         sodipodi:role="line"
         id="tspan21"
         style="stroke-width:0.747221"
         x="156.09213"
         y="24.803419">400</tspan></text><text
       xml:space="preserve"
       style="font-style:italic;font-size:7.22199px;font-family:'Times New Roman';-inkscape-font-specification:'Times New Roman,  Italic';text-align:center;text-anchor:middle;fill:#000000;fill-opacity:1;stroke:none;stroke-width:0.747223;stroke-linecap:round;stroke-opacity:1"
       x="156.06746"
       y="89.87207"
       id="text22"><tspan
         sodipodi:role="line"
         id="tspan22"
         style="stroke-width:0.747221"
         x="156.06746"
         y="89.87207">800</tspan></text><path
       style="color:#000000;fill:#000000;stroke-linecap:round;-inkscape-stroke:none"
       d="m 66.845703,16.705078 c -1.546817,0 -2.796875,1.252011 -2.796875,2.798828 v 6.703125 c 0,1.546818 1.250058,2.798828 2.796875,2.798828 H 200.35156 c 1.54682,0 2.79688,-1.25201 2.79688,-2.798828 v -6.703125 c 0,-1.546817 -1.25006,-2.798828 -2.79688,-2.798828 z m 0,0.382813 H 200.35156 c 1.3418,0 2.41602,1.074213 2.41602,2.416015 v 6.703125 c 0,1.341803 -1.07422,2.416016 -2.41602,2.416016 H 66.845703 c -1.341802,0 -2.416016,-1.074213 -2.416016,-2.416016 v -6.703125 c 0,-1.341802 1.074214,-2.416015 2.416016,-2.416015 z"
       id="rect22" /><path
       style="color:#000000;fill:#000000;stroke-linecap:round;-inkscape-stroke:none"
       d="m 67.929687,80.916016 c -1.546817,0 -2.798828,1.25201 -2.798828,2.798828 v 6.703125 c 0,1.546817 1.252011,2.798828 2.798828,2.798828 H 201.43359 c 1.54682,0 2.79883,-1.252011 2.79883,-2.798828 v -6.703125 c 0,-1.546818 -1.25201,-2.798828 -2.79883,-2.798828 z m 0,0.382812 H 201.43359 c 1.34181,0 2.41602,1.074213 2.41602,2.416016 v 6.703125 c 0,1.341802 -1.07421,2.416015 -2.41602,2.416015 H 67.929687 c -1.341802,0 -2.416015,-1.074213 -2.416015,-2.416015 v -6.703125 c 0,-1.341803 1.074213,-2.416016 2.416015,-2.416016 z"
       id="rect22-2" /><text
       xml:space="preserve"
       style="font-style:italic;font-variant:normal;font-weight:normal;font-stretch:normal;font-size:7.22199px;font-family:'Times New Roman';-inkscape-font-specification:'Times New Roman,  Italic';text-align:center;text-anchor:middle;fill:#000000;fill-opacity:1;stroke:none;stroke-width:0.747223;stroke-linecap:round;stroke-opacity:1"
       x="189.17337"
       y="24.275162"
       id="text23"><tspan
         sodipodi:role="line"
         id="tspan23"
         style="font-style:italic;font-variant:normal;font-weight:normal;font-stretch:normal;font-family:'Times New Roman';-inkscape-font-specification:'Times New Roman,  Italic';fill:#000000;fill-opacity:1;stroke:none;stroke-width:0.747221"
         x="189.17337"
         y="24.275162">x</tspan></text><text
       xml:space="preserve"
       style="font-style:italic;font-variant:normal;font-weight:normal;font-stretch:normal;font-size:7.22199px;font-family:'Times New Roman';-inkscape-font-specification:'Times New Roman,  Italic';text-align:center;text-anchor:middle;fill:#000000;fill-opacity:1;stroke:none;stroke-width:0.747223;stroke-linecap:round;stroke-opacity:1"
       x="189.02213"
       y="88.782318"
       id="text23-5"><tspan
         sodipodi:role="line"
         id="tspan23-1"
         style="font-style:italic;font-variant:normal;font-weight:normal;font-stretch:normal;font-family:'Times New Roman';-inkscape-font-specification:'Times New Roman,  Italic';fill:#000000;fill-opacity:1;stroke:none;stroke-width:0.747221"
         x="189.02213"
         y="88.782318">y</tspan></text></g></svg>
