<?xml version="1.0" encoding="UTF-8" standalone="no"?>
<svg
   version="1.1"
   viewBox="0.0 0.0 630.0 389.0"
   fill="none"
   stroke="none"
   stroke-linecap="square"
   stroke-miterlimit="10"
   width="630"
   height="389"
   id="svg25"
   sodipodi:docname="Live-Studio.svg"
   inkscape:version="1.3 (0e150ed, 2023-07-21)"
   xmlns:inkscape="http://www.inkscape.org/namespaces/inkscape"
   xmlns:sodipodi="http://sodipodi.sourceforge.net/DTD/sodipodi-0.dtd"
   xmlns="http://www.w3.org/2000/svg"
   xmlns:svg="http://www.w3.org/2000/svg">
  <defs
     id="defs25" />
  <sodipodi:namedview
     id="namedview25"
     pagecolor="#ffffff"
     bordercolor="#000000"
     borderopacity="0.25"
     inkscape:showpageshadow="2"
     inkscape:pageopacity="0.0"
     inkscape:pagecheckerboard="0"
     inkscape:deskcolor="#d1d1d1"
     inkscape:zoom="0.37460317"
     inkscape:cx="316.33475"
     inkscape:cy="194.87288"
     inkscape:window-width="1312"
     inkscape:window-height="449"
     inkscape:window-x="0"
     inkscape:window-y="32"
     inkscape:window-maximized="0"
     inkscape:current-layer="svg25" />
  <path
     stroke="#cccccc"
     stroke-width="1.0"
     stroke-linecap="butt"
     d="M315.0 212.0C315.0 212.0 315.0 212.0 315.0 212.0C315.0 212.0 315.0 212.0 315.0 212.0C315.0 212.0 315.0 212.0 315.0 212.0C315.0 212.0 315.0 212.0 315.0 212.0"
     fill-rule="nonzero"
     id="path3" />
  <path
     fill="#000000"
     d="M286.0625 205.35938Q286.0625 207.26562 285.40625 208.20312Q284.76562 209.125 283.375 209.125Q282.01562 209.125 281.35938 208.21875Q280.70312 207.3125 280.67188 205.5L280.67188 204.0625Q280.67188 202.17188 281.3125 201.26562Q281.96875 200.34375 283.35938 200.34375Q284.73438 200.34375 285.39062 201.23438Q286.04688 202.10938 286.0625 203.95312L286.0625 205.35938ZM284.96875 203.875Q284.96875 202.5 284.57812 201.875Q284.20312 201.23438 283.35938 201.23438Q282.53125 201.23438 282.14062 201.875Q281.76562 202.5 281.76562 203.79688L281.76562 205.53125Q281.76562 206.90625 282.15625 207.57812Q282.5625 208.23438 283.375 208.23438Q284.17188 208.23438 284.5625 207.60938Q284.95312 206.98438 284.96875 205.65625L284.96875 203.875ZM287.84375 208.4375Q287.84375 208.15625 288.0 207.96875Q288.17188 207.78125 288.5 207.78125Q288.84375 207.78125 289.01562 207.96875Q289.1875 208.15625 289.1875 208.4375Q289.1875 208.70312 289.01562 208.89062Q288.84375 209.0625 288.5 209.0625Q288.17188 209.0625 288.0 208.89062Q287.84375 208.70312 287.84375 208.4375ZM296.0625 205.35938Q296.0625 207.26562 295.40625 208.20312Q294.76562 209.125 293.375 209.125Q292.01562 209.125 291.35938 208.21875Q290.70312 207.3125 290.67188 205.5L290.67188 204.0625Q290.67188 202.17188 291.3125 201.26562Q291.96875 200.34375 293.35938 200.34375Q294.73438 200.34375 295.39062 201.23438Q296.04688 202.10938 296.0625 203.95312L296.0625 205.35938ZM294.96875 203.875Q294.96875 202.5 294.57812 201.875Q294.20312 201.23438 293.35938 201.23438Q292.53125 201.23438 292.14062 201.875Q291.76562 202.5 291.76562 203.79688L291.76562 205.53125Q291.76562 206.90625 292.15625 207.57812Q292.5625 208.23438 293.375 208.23438Q294.17188 208.23438 294.5625 207.60938Q294.95312 206.98438 294.96875 205.65625L294.96875 203.875ZM303.0625 205.35938Q303.0625 207.26562 302.40625 208.20312Q301.76562 209.125 300.375 209.125Q299.01562 209.125 298.35938 208.21875Q297.70312 207.3125 297.67188 205.5L297.67188 204.0625Q297.67188 202.17188 298.3125 201.26562Q298.96875 200.34375 300.35938 200.34375Q301.73438 200.34375 302.39062 201.23438Q303.04688 202.10938 303.0625 203.95312L303.0625 205.35938ZM301.96875 203.875Q301.96875 202.5 301.57812 201.875Q301.20312 201.23438 300.35938 201.23438Q299.53125 201.23438 299.14062 201.875Q298.76562 202.5 298.76562 203.79688L298.76562 205.53125Q298.76562 206.90625 299.15625 207.57812Q299.5625 208.23438 300.375 208.23438Q301.17188 208.23438 301.5625 207.60938Q301.95312 206.98438 301.96875 205.65625L301.96875 203.875ZM304.60938 202.10938Q304.60938 201.34375 305.09375 200.84375Q305.59375 200.34375 306.35938 200.34375Q307.14062 200.34375 307.625 200.84375Q308.10938 201.34375 308.10938 202.14062L308.10938 202.5625Q308.10938 203.32812 307.60938 203.82812Q307.125 204.3125 306.375 204.3125Q305.60938 204.3125 305.10938 203.82812Q304.60938 203.32812 304.60938 202.51562L304.60938 202.10938ZM305.42188 202.5625Q305.42188 203.01562 305.67188 203.3125Q305.9375 203.60938 306.375 203.60938Q306.79688 203.60938 307.04688 203.32812Q307.29688 203.03125 307.29688 202.53125L307.29688 202.10938Q307.29688 201.65625 307.04688 201.35938Q306.79688 201.04688 306.35938 201.04688Q305.92188 201.04688 305.67188 201.35938Q305.42188 201.65625 305.42188 202.125L305.42188 202.5625ZM308.76562 206.90625Q308.76562 206.14062 309.25 205.65625Q309.75 205.15625 310.51562 205.15625Q311.28125 205.15625 311.76562 205.65625Q312.26562 206.14062 312.26562 206.95312L312.26562 207.35938Q312.26562 208.125 311.78125 208.625Q311.29688 209.125 310.53125 209.125Q309.76562 209.125 309.26562 208.64062Q308.76562 208.14062 308.76562 207.32812L308.76562 206.90625ZM309.57812 207.35938Q309.57812 207.82812 309.82812 208.125Q310.09375 208.42188 310.53125 208.42188Q310.95312 208.42188 311.20312 208.14062Q311.45312 207.84375 311.45312 207.34375L311.45312 206.90625Q311.45312 206.4375 311.1875 206.15625Q310.9375 205.85938 310.51562 205.85938Q310.09375 205.85938 309.82812 206.15625Q309.57812 206.4375 309.57812 206.9375L309.57812 207.35938ZM306.625 208.35938L306.0 207.96875L310.17188 201.29688L310.78125 201.6875L306.625 208.35938Z"
     fill-rule="nonzero"
     id="path4" />
  <path
     stroke="#cccccc"
     stroke-width="1.0"
     stroke-linecap="butt"
     d="M356.95856 212.0C356.95856 188.82693 338.17307 170.04144 315.0 170.04144C291.82693 170.04144 273.04144 188.82693 273.04144 212.0C273.04144 235.17307 291.82693 253.95856 315.0 253.95856C338.17307 253.95856 356.95856 235.17307 356.95856 212.0"
     fill-rule="nonzero"
     id="path5" />
  <path
     fill="#000000"
     d="M277.26562 167.04144L276.1875 167.04144L276.1875 159.8227L274.0 160.61957L274.0 159.6352L277.10938 158.46332L277.26562 158.46332L277.26562 167.04144ZM286.0625 163.40082Q286.0625 165.30707 285.40625 166.24457Q284.76562 167.16644 283.375 167.16644Q282.01562 167.16644 281.35938 166.2602Q280.70312 165.35394 280.67188 163.54144L280.67188 162.10394Q280.67188 160.21332 281.3125 159.30707Q281.96875 158.3852 283.35938 158.3852Q284.73438 158.3852 285.39062 159.27582Q286.04688 160.15082 286.0625 161.99457L286.0625 163.40082ZM284.96875 161.91644Q284.96875 160.54144 284.57812 159.91644Q284.20312 159.27582 283.35938 159.27582Q282.53125 159.27582 282.14062 159.91644Q281.76562 160.54144 281.76562 161.83832L281.76562 163.5727Q281.76562 164.9477 282.15625 165.61957Q282.5625 166.27582 283.375 166.27582Q284.17188 166.27582 284.5625 165.65082Q284.95312 165.02582 284.96875 163.6977L284.96875 161.91644ZM287.84375 166.47894Q287.84375 166.1977 288.0 166.0102Q288.17188 165.8227 288.5 165.8227Q288.84375 165.8227 289.01562 166.0102Q289.1875 166.1977 289.1875 166.47894Q289.1875 166.74457 289.01562 166.93207Q288.84375 167.10394 288.5 167.10394Q288.17188 167.10394 288.0 166.93207Q287.84375 166.74457 287.84375 166.47894ZM296.0625 163.40082Q296.0625 165.30707 295.40625 166.24457Q294.76562 167.16644 293.375 167.16644Q292.01562 167.16644 291.35938 166.2602Q290.70312 165.35394 290.67188 163.54144L290.67188 162.10394Q290.67188 160.21332 291.3125 159.30707Q291.96875 158.3852 293.35938 158.3852Q294.73438 158.3852 295.39062 159.27582Q296.04688 160.15082 296.0625 161.99457L296.0625 163.40082ZM294.96875 161.91644Q294.96875 160.54144 294.57812 159.91644Q294.20312 159.27582 293.35938 159.27582Q292.53125 159.27582 292.14062 159.91644Q291.76562 160.54144 291.76562 161.83832L291.76562 163.5727Q291.76562 164.9477 292.15625 165.61957Q292.5625 166.27582 293.375 166.27582Q294.17188 166.27582 294.5625 165.65082Q294.95312 165.02582 294.96875 163.6977L294.96875 161.91644ZM303.0625 163.40082Q303.0625 165.30707 302.40625 166.24457Q301.76562 167.16644 300.375 167.16644Q299.01562 167.16644 298.35938 166.2602Q297.70312 165.35394 297.67188 163.54144L297.67188 162.10394Q297.67188 160.21332 298.3125 159.30707Q298.96875 158.3852 300.35938 158.3852Q301.73438 158.3852 302.39062 159.27582Q303.04688 160.15082 303.0625 161.99457L303.0625 163.40082ZM301.96875 161.91644Q301.96875 160.54144 301.57812 159.91644Q301.20312 159.27582 300.35938 159.27582Q299.53125 159.27582 299.14062 159.91644Q298.76562 160.54144 298.76562 161.83832L298.76562 163.5727Q298.76562 164.9477 299.15625 165.61957Q299.5625 166.27582 300.375 166.27582Q301.17188 166.27582 301.5625 165.65082Q301.95312 165.02582 301.96875 163.6977L301.96875 161.91644ZM304.60938 160.15082Q304.60938 159.3852 305.09375 158.8852Q305.59375 158.3852 306.35938 158.3852Q307.14062 158.3852 307.625 158.8852Q308.10938 159.3852 308.10938 160.18207L308.10938 160.60394Q308.10938 161.36957 307.60938 161.86957Q307.125 162.35394 306.375 162.35394Q305.60938 162.35394 305.10938 161.86957Q304.60938 161.36957 304.60938 160.55707L304.60938 160.15082ZM305.42188 160.60394Q305.42188 161.05707 305.67188 161.35394Q305.9375 161.65082 306.375 161.65082Q306.79688 161.65082 307.04688 161.36957Q307.29688 161.0727 307.29688 160.5727L307.29688 160.15082Q307.29688 159.6977 307.04688 159.40082Q306.79688 159.08832 306.35938 159.08832Q305.92188 159.08832 305.67188 159.40082Q305.42188 159.6977 305.42188 160.16644L305.42188 160.60394ZM308.76562 164.9477Q308.76562 164.18207 309.25 163.6977Q309.75 163.1977 310.51562 163.1977Q311.28125 163.1977 311.76562 163.6977Q312.26562 164.18207 312.26562 164.99457L312.26562 165.40082Q312.26562 166.16644 311.78125 166.66644Q311.29688 167.16644 310.53125 167.16644Q309.76562 167.16644 309.26562 166.68207Q308.76562 166.18207 308.76562 165.36957L308.76562 164.9477ZM309.57812 165.40082Q309.57812 165.86957 309.82812 166.16644Q310.09375 166.46332 310.53125 166.46332Q310.95312 166.46332 311.20312 166.18207Q311.45312 165.8852 311.45312 165.3852L311.45312 164.9477Q311.45312 164.47894 311.1875 164.1977Q310.9375 163.90082 310.51562 163.90082Q310.09375 163.90082 309.82812 164.1977Q309.57812 164.47894 309.57812 164.97894L309.57812 165.40082ZM306.625 166.40082L306.0 166.0102L310.17188 159.33832L310.78125 159.72894L306.625 166.40082Z"
     fill-rule="nonzero"
     id="path6" />
  <path
     stroke="#cccccc"
     stroke-width="1.0"
     stroke-linecap="butt"
     d="M398.9171 212.0C398.9171 165.65387 361.34613 128.0829 315.0 128.0829C268.65387 128.0829 231.0829 165.65387 231.0829 212.0C231.0829 258.34613 268.65387 295.9171 315.0 295.9171C361.34613 295.9171 398.9171 258.34613 398.9171 212.0"
     fill-rule="nonzero"
     id="path7" />
  <path
     fill="#000000"
     d="M279.29688 125.0829L273.70312 125.0829L273.70312 124.30165L276.65625 121.0204Q277.3125 120.2704 277.5625 119.817276Q277.8125 119.348526 277.8125 118.848526Q277.8125 118.17665 277.40625 117.754776Q277.01562 117.317276 276.32812 117.317276Q275.53125 117.317276 275.07812 117.786026Q274.625 118.23915 274.625 119.067276L273.54688 119.067276Q273.54688 117.879776 274.29688 117.161026Q275.0625 116.42665 276.32812 116.42665Q277.53125 116.42665 278.21875 117.05165Q278.90625 117.67665 278.90625 118.723526Q278.90625 119.973526 277.29688 121.723526L275.01562 124.192276L279.29688 124.192276L279.29688 125.0829ZM286.0625 121.442276Q286.0625 123.348526 285.40625 124.286026Q284.76562 125.2079 283.375 125.2079Q282.01562 125.2079 281.35938 124.30165Q280.70312 123.3954 280.67188 121.5829L280.67188 120.1454Q280.67188 118.254776 281.3125 117.348526Q281.96875 116.42665 283.35938 116.42665Q284.73438 116.42665 285.39062 117.317276Q286.04688 118.192276 286.0625 120.036026L286.0625 121.442276ZM284.96875 119.9579Q284.96875 118.5829 284.57812 117.9579Q284.20312 117.317276 283.35938 117.317276Q282.53125 117.317276 282.14062 117.9579Q281.76562 118.5829 281.76562 119.879776L281.76562 121.61415Q281.76562 122.98915 282.15625 123.661026Q282.5625 124.317276 283.375 124.317276Q284.17188 124.317276 284.5625 123.692276Q284.95312 123.067276 284.96875 121.73915L284.96875 119.9579ZM287.84375 124.5204Q287.84375 124.23915 288.0 124.05165Q288.17188 123.86415 288.5 123.86415Q288.84375 123.86415 289.01562 124.05165Q289.1875 124.23915 289.1875 124.5204Q289.1875 124.786026 289.01562 124.973526Q288.84375 125.1454 288.5 125.1454Q288.17188 125.1454 288.0 124.973526Q287.84375 124.786026 287.84375 124.5204ZM296.0625 121.442276Q296.0625 123.348526 295.40625 124.286026Q294.76562 125.2079 293.375 125.2079Q292.01562 125.2079 291.35938 124.30165Q290.70312 123.3954 290.67188 121.5829L290.67188 120.1454Q290.67188 118.254776 291.3125 117.348526Q291.96875 116.42665 293.35938 116.42665Q294.73438 116.42665 295.39062 117.317276Q296.04688 118.192276 296.0625 120.036026L296.0625 121.442276ZM294.96875 119.9579Q294.96875 118.5829 294.57812 117.9579Q294.20312 117.317276 293.35938 117.317276Q292.53125 117.317276 292.14062 117.9579Q291.76562 118.5829 291.76562 119.879776L291.76562 121.61415Q291.76562 122.98915 292.15625 123.661026Q292.5625 124.317276 293.375 124.317276Q294.17188 124.317276 294.5625 123.692276Q294.95312 123.067276 294.96875 121.73915L294.96875 119.9579ZM303.0625 121.442276Q303.0625 123.348526 302.40625 124.286026Q301.76562 125.2079 300.375 125.2079Q299.01562 125.2079 298.35938 124.30165Q297.70312 123.3954 297.67188 121.5829L297.67188 120.1454Q297.67188 118.254776 298.3125 117.348526Q298.96875 116.42665 300.35938 116.42665Q301.73438 116.42665 302.39062 117.317276Q303.04688 118.192276 303.0625 120.036026L303.0625 121.442276ZM301.96875 119.9579Q301.96875 118.5829 301.57812 117.9579Q301.20312 117.317276 300.35938 117.317276Q299.53125 117.317276 299.14062 117.9579Q298.76562 118.5829 298.76562 119.879776L298.76562 121.61415Q298.76562 122.98915 299.15625 123.661026Q299.5625 124.317276 300.375 124.317276Q301.17188 124.317276 301.5625 123.692276Q301.95312 123.067276 301.96875 121.73915L301.96875 119.9579ZM304.60938 118.192276Q304.60938 117.42665 305.09375 116.92665Q305.59375 116.42665 306.35938 116.42665Q307.14062 116.42665 307.625 116.92665Q308.10938 117.42665 308.10938 118.223526L308.10938 118.6454Q308.10938 119.411026 307.60938 119.911026Q307.125 120.3954 306.375 120.3954Q305.60938 120.3954 305.10938 119.911026Q304.60938 119.411026 304.60938 118.598526L304.60938 118.192276ZM305.42188 118.6454Q305.42188 119.098526 305.67188 119.3954Q305.9375 119.692276 306.375 119.692276Q306.79688 119.692276 307.04688 119.411026Q307.29688 119.11415 307.29688 118.61415L307.29688 118.192276Q307.29688 117.73915 307.04688 117.442276Q306.79688 117.129776 306.35938 117.129776Q305.92188 117.129776 305.67188 117.442276Q305.42188 117.73915 305.42188 118.2079L305.42188 118.6454ZM308.76562 122.98915Q308.76562 122.223526 309.25 121.73915Q309.75 121.23915 310.51562 121.23915Q311.28125 121.23915 311.76562 121.73915Q312.26562 122.223526 312.26562 123.036026L312.26562 123.442276Q312.26562 124.2079 311.78125 124.7079Q311.29688 125.2079 310.53125 125.2079Q309.76562 125.2079 309.26562 124.723526Q308.76562 124.223526 308.76562 123.411026L308.76562 122.98915ZM309.57812 123.442276Q309.57812 123.911026 309.82812 124.2079Q310.09375 124.504776 310.53125 124.504776Q310.95312 124.504776 311.20312 124.223526Q311.45312 123.92665 311.45312 123.42665L311.45312 122.98915Q311.45312 122.5204 311.1875 122.23915Q310.9375 121.942276 310.51562 121.942276Q310.09375 121.942276 309.82812 122.23915Q309.57812 122.5204 309.57812 123.0204L309.57812 123.442276ZM306.625 124.442276L306.0 124.05165L310.17188 117.379776L310.78125 117.7704L306.625 124.442276Z"
     fill-rule="nonzero"
     id="path8" />
  <path
     stroke="#cccccc"
     stroke-width="1.0"
     stroke-linecap="butt"
     d="M440.87564 212.0C440.87564 142.4808 384.5192 86.12435 315.0 86.12435C245.4808 86.12435 189.12434 142.4808 189.12434 212.0C189.12434 281.5192 245.4808 337.87564 315.0 337.87564C384.5192 337.87564 440.87564 281.5192 440.87564 212.0"
     fill-rule="nonzero"
     id="path9" />
  <path
     fill="#000000"
     d="M275.28125 78.32748L276.09375 78.32748Q276.875 78.31185 277.3125 77.92123Q277.75 77.5306 277.75 76.85873Q277.75 75.35873 276.25 75.35873Q275.54688 75.35873 275.125 75.76498Q274.71875 76.17123 274.71875 76.82748L273.625 76.82748Q273.625 75.81185 274.35938 75.13998Q275.10938 74.4681 276.25 74.4681Q277.45312 74.4681 278.14062 75.10873Q278.82812 75.74935 278.82812 76.88998Q278.82812 77.45248 278.46875 77.9681Q278.10938 78.48373 277.48438 78.74935Q278.1875 78.9681 278.5625 79.48373Q278.95312 79.99935 278.95312 80.74935Q278.95312 81.88998 278.20312 82.57748Q277.45312 83.24935 276.25 83.24935Q275.0625 83.24935 274.29688 82.5931Q273.54688 81.93685 273.54688 80.87435L274.64062 80.87435Q274.64062 81.54623 275.07812 81.95248Q275.51562 82.35873 276.26562 82.35873Q277.04688 82.35873 277.45312 81.95248Q277.875 81.5306 277.875 80.76498Q277.875 80.0306 277.42188 79.63998Q276.96875 79.23373 276.09375 79.2181L275.28125 79.2181L275.28125 78.32748ZM286.0625 79.48373Q286.0625 81.38998 285.40625 82.32748Q284.76562 83.24935 283.375 83.24935Q282.01562 83.24935 281.35938 82.3431Q280.70312 81.43685 280.67188 79.62435L280.67188 78.18685Q280.67188 76.29623 281.3125 75.38998Q281.96875 74.4681 283.35938 74.4681Q284.73438 74.4681 285.39062 75.35873Q286.04688 76.23373 286.0625 78.07748L286.0625 79.48373ZM284.96875 77.99935Q284.96875 76.62435 284.57812 75.99935Q284.20312 75.35873 283.35938 75.35873Q282.53125 75.35873 282.14062 75.99935Q281.76562 76.62435 281.76562 77.92123L281.76562 79.6556Q281.76562 81.0306 282.15625 81.70248Q282.5625 82.35873 283.375 82.35873Q284.17188 82.35873 284.5625 81.73373Q284.95312 81.10873 284.96875 79.7806L284.96875 77.99935ZM287.84375 82.56185Q287.84375 82.2806 288.0 82.0931Q288.17188 81.9056 288.5 81.9056Q288.84375 81.9056 289.01562 82.0931Q289.1875 82.2806 289.1875 82.56185Q289.1875 82.82748 289.01562 83.01498Q288.84375 83.18685 288.5 83.18685Q288.17188 83.18685 288.0 83.01498Q287.84375 82.82748 287.84375 82.56185ZM296.0625 79.48373Q296.0625 81.38998 295.40625 82.32748Q294.76562 83.24935 293.375 83.24935Q292.01562 83.24935 291.35938 82.3431Q290.70312 81.43685 290.67188 79.62435L290.67188 78.18685Q290.67188 76.29623 291.3125 75.38998Q291.96875 74.4681 293.35938 74.4681Q294.73438 74.4681 295.39062 75.35873Q296.04688 76.23373 296.0625 78.07748L296.0625 79.48373ZM294.96875 77.99935Q294.96875 76.62435 294.57812 75.99935Q294.20312 75.35873 293.35938 75.35873Q292.53125 75.35873 292.14062 75.99935Q291.76562 76.62435 291.76562 77.92123L291.76562 79.6556Q291.76562 81.0306 292.15625 81.70248Q292.5625 82.35873 293.375 82.35873Q294.17188 82.35873 294.5625 81.73373Q294.95312 81.10873 294.96875 79.7806L294.96875 77.99935ZM303.0625 79.48373Q303.0625 81.38998 302.40625 82.32748Q301.76562 83.24935 300.375 83.24935Q299.01562 83.24935 298.35938 82.3431Q297.70312 81.43685 297.67188 79.62435L297.67188 78.18685Q297.67188 76.29623 298.3125 75.38998Q298.96875 74.4681 300.35938 74.4681Q301.73438 74.4681 302.39062 75.35873Q303.04688 76.23373 303.0625 78.07748L303.0625 79.48373ZM301.96875 77.99935Q301.96875 76.62435 301.57812 75.99935Q301.20312 75.35873 300.35938 75.35873Q299.53125 75.35873 299.14062 75.99935Q298.76562 76.62435 298.76562 77.92123L298.76562 79.6556Q298.76562 81.0306 299.15625 81.70248Q299.5625 82.35873 300.375 82.35873Q301.17188 82.35873 301.5625 81.73373Q301.95312 81.10873 301.96875 79.7806L301.96875 77.99935ZM304.60938 76.23373Q304.60938 75.4681 305.09375 74.9681Q305.59375 74.4681 306.35938 74.4681Q307.14062 74.4681 307.625 74.9681Q308.10938 75.4681 308.10938 76.26498L308.10938 76.68685Q308.10938 77.45248 307.60938 77.95248Q307.125 78.43685 306.375 78.43685Q305.60938 78.43685 305.10938 77.95248Q304.60938 77.45248 304.60938 76.63998L304.60938 76.23373ZM305.42188 76.68685Q305.42188 77.13998 305.67188 77.43685Q305.9375 77.73373 306.375 77.73373Q306.79688 77.73373 307.04688 77.45248Q307.29688 77.1556 307.29688 76.6556L307.29688 76.23373Q307.29688 75.7806 307.04688 75.48373Q306.79688 75.17123 306.35938 75.17123Q305.92188 75.17123 305.67188 75.48373Q305.42188 75.7806 305.42188 76.24935L305.42188 76.68685ZM308.76562 81.0306Q308.76562 80.26498 309.25 79.7806Q309.75 79.2806 310.51562 79.2806Q311.28125 79.2806 311.76562 79.7806Q312.26562 80.26498 312.26562 81.07748L312.26562 81.48373Q312.26562 82.24935 311.78125 82.74935Q311.29688 83.24935 310.53125 83.24935Q309.76562 83.24935 309.26562 82.76498Q308.76562 82.26498 308.76562 81.45248L308.76562 81.0306ZM309.57812 81.48373Q309.57812 81.95248 309.82812 82.24935Q310.09375 82.54623 310.53125 82.54623Q310.95312 82.54623 311.20312 82.26498Q311.45312 81.9681 311.45312 81.4681L311.45312 81.0306Q311.45312 80.56185 311.1875 80.2806Q310.9375 79.98373 310.51562 79.98373Q310.09375 79.98373 309.82812 80.2806Q309.57812 80.56185 309.57812 81.06185L309.57812 81.48373ZM306.625 82.48373L306.0 82.0931L310.17188 75.42123L310.78125 75.81185L306.625 82.48373Z"
     fill-rule="nonzero"
     id="path10" />
  <path
     stroke="#cccccc"
     stroke-width="1.0"
     stroke-linecap="butt"
     d="M315.0 212.0L315.0 86.0"
     fill-rule="nonzero"
     id="path11" />
  <path
     fill="#000000"
     d="M291.54688 51.515625Q291.54688 52.765625 291.125 53.703125Q290.70312 54.625 289.92188 55.125Q289.15625 55.625 288.125 55.625Q287.125 55.625 286.34375 55.125Q285.5625 54.625 285.125 53.71875Q284.70312 52.796875 284.6875 51.578125L284.6875 50.96875Q284.6875 49.734375 285.10938 48.796875Q285.54688 47.859375 286.32812 47.359375Q287.10938 46.84375 288.125 46.84375Q289.14062 46.84375 289.92188 47.34375Q290.70312 47.84375 291.125 48.78125Q291.54688 49.71875 291.54688 50.96875L291.54688 51.515625ZM290.4375 50.953125Q290.4375 49.4375 289.82812 48.625Q289.21875 47.8125 288.125 47.8125Q287.04688 47.8125 286.4375 48.625Q285.82812 49.4375 285.8125 50.875L285.8125 51.515625Q285.8125 52.984375 286.42188 53.828125Q287.04688 54.65625 288.125 54.65625Q289.21875 54.65625 289.8125 53.875Q290.42188 53.078125 290.4375 51.59375L290.4375 50.953125ZM293.84375 49.15625L293.875 49.953125Q294.60938 49.046875 295.78125 49.046875Q297.79688 49.046875 297.8125 51.3125L297.8125 55.5L296.71875 55.5L296.71875 51.296875Q296.71875 50.625 296.40625 50.296875Q296.10938 49.96875 295.45312 49.96875Q294.92188 49.96875 294.51562 50.25Q294.125 50.53125 293.90625 50.984375L293.90625 55.5L292.82812 55.5L292.82812 49.15625L293.84375 49.15625ZM302.45312 55.625Q301.15625 55.625 300.34375 54.78125Q299.54688 53.921875 299.54688 52.5L299.54688 52.3125Q299.54688 51.359375 299.90625 50.625Q300.26562 49.875 300.90625 49.46875Q301.5625 49.046875 302.3125 49.046875Q303.54688 49.046875 304.23438 49.859375Q304.92188 50.671875 304.92188 52.1875L304.92188 52.640625L300.625 52.640625Q300.65625 53.578125 301.17188 54.15625Q301.70312 54.734375 302.51562 54.734375Q303.07812 54.734375 303.46875 54.5Q303.875 54.265625 304.1875 53.875L304.84375 54.390625Q304.04688 55.625 302.45312 55.625ZM302.3125 49.9375Q301.65625 49.9375 301.20312 50.421875Q300.76562 50.890625 300.67188 51.75L303.84375 51.75L303.84375 51.671875Q303.79688 50.84375 303.39062 50.390625Q303.0 49.9375 302.3125 49.9375ZM308.07812 52.3125L305.21875 52.3125L305.21875 51.4375L308.07812 51.4375L308.07812 52.3125ZM314.89062 47.890625L312.14062 47.890625L312.14062 55.5L311.03125 55.5L311.03125 47.890625L308.28125 47.890625L308.28125 46.96875L314.89062 46.96875L314.89062 47.890625ZM315.53125 52.265625Q315.53125 51.34375 315.89062 50.59375Q316.26562 49.84375 316.92188 49.453125Q317.57812 49.046875 318.40625 49.046875Q319.70312 49.046875 320.5 49.9375Q321.3125 50.828125 321.3125 52.328125L321.3125 52.40625Q321.3125 53.328125 320.95312 54.0625Q320.59375 54.796875 319.9375 55.21875Q319.28125 55.625 318.42188 55.625Q317.14062 55.625 316.32812 54.734375Q315.53125 53.828125 315.53125 52.34375L315.53125 52.265625ZM316.625 52.40625Q316.625 53.453125 317.10938 54.09375Q317.60938 54.734375 318.42188 54.734375Q319.25 54.734375 319.73438 54.09375Q320.21875 53.4375 320.21875 52.265625Q320.21875 51.234375 319.71875 50.59375Q319.23438 49.9375 318.40625 49.9375Q317.60938 49.9375 317.10938 50.578125Q316.625 51.203125 316.625 52.40625ZM325.07812 52.3125L322.21875 52.3125L322.21875 51.4375L325.07812 51.4375L325.07812 52.3125ZM332.54688 51.515625Q332.54688 52.765625 332.125 53.703125Q331.70312 54.625 330.92188 55.125Q330.15625 55.625 329.125 55.625Q328.125 55.625 327.34375 55.125Q326.5625 54.625 326.125 53.71875Q325.70312 52.796875 325.6875 51.578125L325.6875 50.96875Q325.6875 49.734375 326.10938 48.796875Q326.54688 47.859375 327.32812 47.359375Q328.10938 46.84375 329.125 46.84375Q330.14062 46.84375 330.92188 47.34375Q331.70312 47.84375 332.125 48.78125Q332.54688 49.71875 332.54688 50.96875L332.54688 51.515625ZM331.4375 50.953125Q331.4375 49.4375 330.82812 48.625Q330.21875 47.8125 329.125 47.8125Q328.04688 47.8125 327.4375 48.625Q326.82812 49.4375 326.8125 50.875L326.8125 51.515625Q326.8125 52.984375 327.42188 53.828125Q328.04688 54.65625 329.125 54.65625Q330.21875 54.65625 330.8125 53.875Q331.42188 53.078125 331.4375 51.59375L331.4375 50.953125ZM334.84375 49.15625L334.875 49.953125Q335.60938 49.046875 336.78125 49.046875Q338.79688 49.046875 338.8125 51.3125L338.8125 55.5L337.71875 55.5L337.71875 51.296875Q337.71875 50.625 337.40625 50.296875Q337.10938 49.96875 336.45312 49.96875Q335.92188 49.96875 335.51562 50.25Q335.125 50.53125 334.90625 50.984375L334.90625 55.5L333.82812 55.5L333.82812 49.15625L334.84375 49.15625ZM343.45312 55.625Q342.15625 55.625 341.34375 54.78125Q340.54688 53.921875 340.54688 52.5L340.54688 52.3125Q340.54688 51.359375 340.90625 50.625Q341.26562 49.875 341.90625 49.46875Q342.5625 49.046875 343.3125 49.046875Q344.54688 49.046875 345.23438 49.859375Q345.92188 50.671875 345.92188 52.1875L345.92188 52.640625L341.625 52.640625Q341.65625 53.578125 342.17188 54.15625Q342.70312 54.734375 343.51562 54.734375Q344.07812 54.734375 344.46875 54.5Q344.875 54.265625 345.1875 53.875L345.84375 54.390625Q345.04688 55.625 343.45312 55.625ZM343.3125 49.9375Q342.65625 49.9375 342.20312 50.421875Q341.76562 50.890625 341.67188 51.75L344.84375 51.75L344.84375 51.671875Q344.79688 50.84375 344.39062 50.390625Q344.0 49.9375 343.3125 49.9375Z"
     fill-rule="nonzero"
     id="path12" />
  <path
     stroke="#cccccc"
     stroke-width="1.0"
     stroke-linecap="butt"
     d="M315.0 212.0L441.0 212.0"
     fill-rule="nonzero"
     id="path13" />
  <path
     fill="#000000"
     d="M448.04688 212.51562Q448.04688 213.76562 447.625 214.70312Q447.20312 215.625 446.42188 216.125Q445.65625 216.625 444.625 216.625Q443.625 216.625 442.84375 216.125Q442.0625 215.625 441.625 214.71875Q441.20312 213.79688 441.1875 212.57812L441.1875 211.96875Q441.1875 210.73438 441.60938 209.79688Q442.04688 208.85938 442.82812 208.35938Q443.60938 207.84375 444.625 207.84375Q445.64062 207.84375 446.42188 208.34375Q447.20312 208.84375 447.625 209.78125Q448.04688 210.71875 448.04688 211.96875L448.04688 212.51562ZM446.9375 211.95312Q446.9375 210.4375 446.32812 209.625Q445.71875 208.8125 444.625 208.8125Q443.54688 208.8125 442.9375 209.625Q442.32812 210.4375 442.3125 211.875L442.3125 212.51562Q442.3125 213.98438 442.92188 214.82812Q443.54688 215.65625 444.625 215.65625Q445.71875 215.65625 446.3125 214.875Q446.92188 214.07812 446.9375 212.59375L446.9375 211.95312ZM450.34375 210.15625L450.375 210.95312Q451.10938 210.04688 452.28125 210.04688Q454.29688 210.04688 454.3125 212.3125L454.3125 216.5L453.21875 216.5L453.21875 212.29688Q453.21875 211.625 452.90625 211.29688Q452.60938 210.96875 451.95312 210.96875Q451.42188 210.96875 451.01562 211.25Q450.625 211.53125 450.40625 211.98438L450.40625 216.5L449.32812 216.5L449.32812 210.15625L450.34375 210.15625ZM458.95312 216.625Q457.65625 216.625 456.84375 215.78125Q456.04688 214.92188 456.04688 213.5L456.04688 213.3125Q456.04688 212.35938 456.40625 211.625Q456.76562 210.875 457.40625 210.46875Q458.0625 210.04688 458.8125 210.04688Q460.04688 210.04688 460.73438 210.85938Q461.42188 211.67188 461.42188 213.1875L461.42188 213.64062L457.125 213.64062Q457.15625 214.57812 457.67188 215.15625Q458.20312 215.73438 459.01562 215.73438Q459.57812 215.73438 459.96875 215.5Q460.375 215.26562 460.6875 214.875L461.34375 215.39062Q460.54688 216.625 458.95312 216.625ZM458.8125 210.9375Q458.15625 210.9375 457.70312 211.42188Q457.26562 211.89062 457.17188 212.75L460.34375 212.75L460.34375 212.67188Q460.29688 211.84375 459.89062 211.39062Q459.5 210.9375 458.8125 210.9375ZM464.57812 213.3125L461.71875 213.3125L461.71875 212.4375L464.57812 212.4375L464.57812 213.3125ZM471.39062 208.89062L468.64062 208.89062L468.64062 216.5L467.53125 216.5L467.53125 208.89062L464.78125 208.89062L464.78125 207.96875L471.39062 207.96875L471.39062 208.89062ZM472.03125 213.26562Q472.03125 212.34375 472.39062 211.59375Q472.76562 210.84375 473.42188 210.45312Q474.07812 210.04688 474.90625 210.04688Q476.20312 210.04688 477.0 210.9375Q477.8125 211.82812 477.8125 213.32812L477.8125 213.40625Q477.8125 214.32812 477.45312 215.0625Q477.09375 215.79688 476.4375 216.21875Q475.78125 216.625 474.92188 216.625Q473.64062 216.625 472.82812 215.73438Q472.03125 214.82812 472.03125 213.34375L472.03125 213.26562ZM473.125 213.40625Q473.125 214.45312 473.60938 215.09375Q474.10938 215.73438 474.92188 215.73438Q475.75 215.73438 476.23438 215.09375Q476.71875 214.4375 476.71875 213.26562Q476.71875 212.23438 476.21875 211.59375Q475.73438 210.9375 474.90625 210.9375Q474.10938 210.9375 473.60938 211.57812Q473.125 212.20312 473.125 213.40625ZM481.57812 213.3125L478.71875 213.3125L478.71875 212.4375L481.57812 212.4375L481.57812 213.3125ZM483.9375 207.96875L486.73438 214.92188L489.51562 207.96875L490.98438 207.96875L490.98438 216.5L489.85938 216.5L489.85938 213.17188L489.96875 209.59375L487.15625 216.5L486.29688 216.5L483.5 209.60938L483.60938 213.17188L483.60938 216.5L482.48438 216.5L482.48438 207.96875L483.9375 207.96875ZM496.23438 216.5Q496.14062 216.3125 496.07812 215.82812Q495.32812 216.625 494.28125 216.625Q493.34375 216.625 492.73438 216.09375Q492.14062 215.5625 492.14062 214.73438Q492.14062 213.75 492.89062 213.20312Q493.64062 212.65625 495.01562 212.65625L496.0625 212.65625L496.0625 212.15625Q496.0625 211.59375 495.71875 211.26562Q495.39062 210.92188 494.71875 210.92188Q494.14062 210.92188 493.75 211.21875Q493.35938 211.5 493.35938 211.92188L492.26562 211.92188Q492.26562 211.4375 492.59375 211.0Q492.9375 210.5625 493.51562 210.3125Q494.09375 210.04688 494.78125 210.04688Q495.89062 210.04688 496.5 210.59375Q497.125 211.14062 497.15625 212.09375L497.15625 215.01562Q497.15625 215.89062 497.375 216.40625L497.375 216.5L496.23438 216.5ZM494.4375 215.67188Q494.95312 215.67188 495.40625 215.40625Q495.85938 215.14062 496.0625 214.71875L496.0625 213.42188L495.21875 213.42188Q493.21875 213.42188 493.21875 214.59375Q493.21875 215.09375 493.5625 215.39062Q493.90625 215.67188 494.4375 215.67188ZM500.34375 210.15625L500.375 210.95312Q501.10938 210.04688 502.28125 210.04688Q504.29688 210.04688 504.3125 212.3125L504.3125 216.5L503.21875 216.5L503.21875 212.29688Q503.21875 211.625 502.90625 211.29688Q502.60938 210.96875 501.95312 210.96875Q501.42188 210.96875 501.01562 211.25Q500.625 211.53125 500.40625 211.98438L500.40625 216.5L499.32812 216.5L499.32812 210.15625L500.34375 210.15625ZM508.39062 214.90625L509.875 210.15625L511.03125 210.15625L508.48438 217.48438Q507.89062 219.0625 506.60938 219.0625L506.39062 219.04688L506.0 218.96875L506.0 218.09375L506.28125 218.10938Q506.84375 218.10938 507.14062 217.89062Q507.45312 217.67188 507.65625 217.07812L507.89062 216.42188L505.625 210.15625L506.8125 210.15625L508.39062 214.90625Z"
     fill-rule="nonzero"
     id="path14" />
  <path
     stroke="#cccccc"
     stroke-width="1.0"
     stroke-linecap="butt"
     d="M315.0 212.0L315.0 338.0"
     fill-rule="nonzero"
     id="path15" />
  <path
     fill="#000000"
     d="M282.70312 377.5L281.57812 377.5L281.57812 368.96875L282.70312 368.96875L282.70312 377.5ZM285.34375 371.15625L285.375 371.95312Q286.10938 371.04688 287.28125 371.04688Q289.29688 371.04688 289.3125 373.3125L289.3125 377.5L288.21875 377.5L288.21875 373.29688Q288.21875 372.625 287.90625 372.29688Q287.60938 371.96875 286.95312 371.96875Q286.42188 371.96875 286.01562 372.25Q285.625 372.53125 285.40625 372.98438L285.40625 377.5L284.32812 377.5L284.32812 371.15625L285.34375 371.15625ZM292.79688 369.625L292.79688 371.15625L293.96875 371.15625L293.96875 372.0L292.79688 372.0L292.79688 375.92188Q292.79688 376.3125 292.95312 376.5Q293.10938 376.6875 293.48438 376.6875Q293.67188 376.6875 294.0 376.625L294.0 377.5Q293.57812 377.625 293.17188 377.625Q292.45312 377.625 292.07812 377.1875Q291.70312 376.73438 291.70312 375.92188L291.70312 372.0L290.54688 372.0L290.54688 371.15625L291.70312 371.15625L291.70312 369.625L292.79688 369.625ZM297.95312 377.625Q296.65625 377.625 295.84375 376.78125Q295.04688 375.92188 295.04688 374.5L295.04688 374.3125Q295.04688 373.35938 295.40625 372.625Q295.76562 371.875 296.40625 371.46875Q297.0625 371.04688 297.8125 371.04688Q299.04688 371.04688 299.73438 371.85938Q300.42188 372.67188 300.42188 374.1875L300.42188 374.64062L296.125 374.64062Q296.15625 375.57812 296.67188 376.15625Q297.20312 376.73438 298.01562 376.73438Q298.57812 376.73438 298.96875 376.5Q299.375 376.26562 299.6875 375.875L300.34375 376.39062Q299.54688 377.625 297.95312 377.625ZM297.8125 371.9375Q297.15625 371.9375 296.70312 372.42188Q296.26562 372.89062 296.17188 373.75L299.34375 373.75L299.34375 373.67188Q299.29688 372.84375 298.89062 372.39062Q298.5 371.9375 297.8125 371.9375ZM304.39062 372.125Q304.14062 372.09375 303.85938 372.09375Q302.78125 372.09375 302.40625 373.0L302.40625 377.5L301.32812 377.5L301.32812 371.15625L302.375 371.15625L302.39062 371.89062Q302.92188 371.04688 303.90625 371.04688Q304.21875 371.04688 304.39062 371.125L304.39062 372.125ZM310.67188 374.40625Q310.67188 375.84375 310.01562 376.73438Q309.35938 377.625 308.21875 377.625Q307.0625 377.625 306.40625 376.89062L306.40625 379.9375L305.32812 379.9375L305.32812 371.15625L306.3125 371.15625L306.35938 371.85938Q307.03125 371.04688 308.20312 371.04688Q309.34375 371.04688 310.0 371.90625Q310.67188 372.76562 310.67188 374.29688L310.67188 374.40625ZM309.59375 374.28125Q309.59375 373.20312 309.125 372.59375Q308.67188 371.96875 307.875 371.96875Q306.89062 371.96875 306.40625 372.82812L306.40625 375.85938Q306.89062 376.73438 307.89062 376.73438Q308.67188 376.73438 309.125 376.125Q309.59375 375.5 309.59375 374.28125ZM312.03125 374.26562Q312.03125 373.34375 312.39062 372.59375Q312.76562 371.84375 313.42188 371.45312Q314.07812 371.04688 314.90625 371.04688Q316.20312 371.04688 317.0 371.9375Q317.8125 372.82812 317.8125 374.32812L317.8125 374.40625Q317.8125 375.32812 317.45312 376.0625Q317.09375 376.79688 316.4375 377.21875Q315.78125 377.625 314.92188 377.625Q313.64062 377.625 312.82812 376.73438Q312.03125 375.82812 312.03125 374.34375L312.03125 374.26562ZM313.125 374.40625Q313.125 375.45312 313.60938 376.09375Q314.10938 376.73438 314.92188 376.73438Q315.75 376.73438 316.23438 376.09375Q316.71875 375.4375 316.71875 374.26562Q316.71875 373.23438 316.21875 372.59375Q315.73438 371.9375 314.90625 371.9375Q314.10938 371.9375 313.60938 372.57812Q313.125 373.20312 313.125 374.40625ZM320.5 377.5L319.42188 377.5L319.42188 368.5L320.5 368.5L320.5 377.5ZM326.23438 377.5Q326.14062 377.3125 326.07812 376.82812Q325.32812 377.625 324.28125 377.625Q323.34375 377.625 322.73438 377.09375Q322.14062 376.5625 322.14062 375.73438Q322.14062 374.75 322.89062 374.20312Q323.64062 373.65625 325.01562 373.65625L326.0625 373.65625L326.0625 373.15625Q326.0625 372.59375 325.71875 372.26562Q325.39062 371.92188 324.71875 371.92188Q324.14062 371.92188 323.75 372.21875Q323.35938 372.5 323.35938 372.92188L322.26562 372.92188Q322.26562 372.4375 322.59375 372.0Q322.9375 371.5625 323.51562 371.3125Q324.09375 371.04688 324.78125 371.04688Q325.89062 371.04688 326.5 371.59375Q327.125 372.14062 327.15625 373.09375L327.15625 376.01562Q327.15625 376.89062 327.375 377.40625L327.375 377.5L326.23438 377.5ZM324.4375 376.67188Q324.95312 376.67188 325.40625 376.40625Q325.85938 376.14062 326.0625 375.71875L326.0625 374.42188L325.21875 374.42188Q323.21875 374.42188 323.21875 375.59375Q323.21875 376.09375 323.5625 376.39062Q323.90625 376.67188 324.4375 376.67188ZM330.79688 369.625L330.79688 371.15625L331.96875 371.15625L331.96875 372.0L330.79688 372.0L330.79688 375.92188Q330.79688 376.3125 330.95312 376.5Q331.10938 376.6875 331.48438 376.6875Q331.67188 376.6875 332.0 376.625L332.0 377.5Q331.57812 377.625 331.17188 377.625Q330.45312 377.625 330.07812 377.1875Q329.70312 376.73438 329.70312 375.92188L329.70312 372.0L328.54688 372.0L328.54688 371.15625L329.70312 371.15625L329.70312 369.625L330.79688 369.625ZM334.5 377.5L333.42188 377.5L333.42188 371.15625L334.5 371.15625L334.5 377.5ZM333.32812 369.48438Q333.32812 369.21875 333.48438 369.03125Q333.65625 368.84375 333.96875 368.84375Q334.28125 368.84375 334.4375 369.03125Q334.60938 369.21875 334.60938 369.48438Q334.60938 369.73438 334.4375 369.92188Q334.28125 370.09375 333.96875 370.09375Q333.65625 370.09375 333.48438 369.92188Q333.32812 369.73438 333.32812 369.48438ZM336.03125 374.26562Q336.03125 373.34375 336.39062 372.59375Q336.76562 371.84375 337.42188 371.45312Q338.07812 371.04688 338.90625 371.04688Q340.20312 371.04688 341.0 371.9375Q341.8125 372.82812 341.8125 374.32812L341.8125 374.40625Q341.8125 375.32812 341.45312 376.0625Q341.09375 376.79688 340.4375 377.21875Q339.78125 377.625 338.92188 377.625Q337.64062 377.625 336.82812 376.73438Q336.03125 375.82812 336.03125 374.34375L336.03125 374.26562ZM337.125 374.40625Q337.125 375.45312 337.60938 376.09375Q338.10938 376.73438 338.92188 376.73438Q339.75 376.73438 340.23438 376.09375Q340.71875 375.4375 340.71875 374.26562Q340.71875 373.23438 340.21875 372.59375Q339.73438 371.9375 338.90625 371.9375Q338.10938 371.9375 337.60938 372.57812Q337.125 373.20312 337.125 374.40625ZM344.34375 371.15625L344.375 371.95312Q345.10938 371.04688 346.28125 371.04688Q348.29688 371.04688 348.3125 373.3125L348.3125 377.5L347.21875 377.5L347.21875 373.29688Q347.21875 372.625 346.90625 372.29688Q346.60938 371.96875 345.95312 371.96875Q345.42188 371.96875 345.01562 372.25Q344.625 372.53125 344.40625 372.98438L344.40625 377.5L343.32812 377.5L343.32812 371.15625L344.34375 371.15625Z"
     fill-rule="nonzero"
     id="path16" />
  <path
     stroke="#cccccc"
     stroke-width="1.0"
     stroke-linecap="butt"
     d="M315.0 212.0L189.0 212.0"
     fill-rule="nonzero"
     id="path17" />
  <path
     fill="#000000"
     d="M127.546875 216.5L126.421875 216.5L122.125 209.92188L122.125 216.5L120.984375 216.5L120.984375 207.96875L122.125 207.96875L126.421875 214.57812L126.421875 207.96875L127.546875 207.96875L127.546875 216.5ZM129.53125 213.26562Q129.53125 212.34375 129.89062 211.59375Q130.26562 210.84375 130.92188 210.45312Q131.57812 210.04688 132.40625 210.04688Q133.70312 210.04688 134.5 210.9375Q135.3125 211.82812 135.3125 213.32812L135.3125 213.40625Q135.3125 214.32812 134.95312 215.0625Q134.59375 215.79688 133.9375 216.21875Q133.28125 216.625 132.42188 216.625Q131.14062 216.625 130.32812 215.73438Q129.53125 214.82812 129.53125 213.34375L129.53125 213.26562ZM130.625 213.40625Q130.625 214.45312 131.10938 215.09375Q131.60938 215.73438 132.42188 215.73438Q133.25 215.73438 133.73438 215.09375Q134.21875 214.4375 134.21875 213.26562Q134.21875 212.23438 133.71875 211.59375Q133.23438 210.9375 132.40625 210.9375Q131.60938 210.9375 131.10938 211.57812Q130.625 212.20312 130.625 213.40625ZM137.84375 210.15625L137.875 210.95312Q138.60938 210.04688 139.78125 210.04688Q141.79688 210.04688 141.8125 212.3125L141.8125 216.5L140.71875 216.5L140.71875 212.29688Q140.71875 211.625 140.40625 211.29688Q140.10938 210.96875 139.45312 210.96875Q138.92188 210.96875 138.51562 211.25Q138.125 211.53125 137.90625 211.98438L137.90625 216.5L136.82812 216.5L136.82812 210.15625L137.84375 210.15625ZM146.07812 213.3125L143.21875 213.3125L143.21875 212.4375L146.07812 212.4375L146.07812 213.3125ZM148.125 215.57812L152.17188 215.57812L152.17188 216.5L146.98438 216.5L146.98438 207.96875L148.125 207.96875L148.125 215.57812ZM154.0 216.5L152.92188 216.5L152.92188 210.15625L154.0 210.15625L154.0 216.5ZM152.82812 208.48438Q152.82812 208.21875 152.98438 208.03125Q153.15625 207.84375 153.46875 207.84375Q153.78125 207.84375 153.9375 208.03125Q154.10938 208.21875 154.10938 208.48438Q154.10938 208.73438 153.9375 208.92188Q153.78125 209.09375 153.46875 209.09375Q153.15625 209.09375 152.98438 208.92188Q152.82812 208.73438 152.82812 208.48438ZM156.84375 210.15625L156.875 210.95312Q157.60938 210.04688 158.78125 210.04688Q160.79688 210.04688 160.8125 212.3125L160.8125 216.5L159.71875 216.5L159.71875 212.29688Q159.71875 211.625 159.40625 211.29688Q159.10938 210.96875 158.45312 210.96875Q157.92188 210.96875 157.51562 211.25Q157.125 211.53125 156.90625 211.98438L156.90625 216.5L155.82812 216.5L155.82812 210.15625L156.84375 210.15625ZM165.45312 216.625Q164.15625 216.625 163.34375 215.78125Q162.54688 214.92188 162.54688 213.5L162.54688 213.3125Q162.54688 212.35938 162.90625 211.625Q163.26562 210.875 163.90625 210.46875Q164.5625 210.04688 165.3125 210.04688Q166.54688 210.04688 167.23438 210.85938Q167.92188 211.67188 167.92188 213.1875L167.92188 213.64062L163.625 213.64062Q163.65625 214.57812 164.17188 215.15625Q164.70312 215.73438 165.51562 215.73438Q166.07812 215.73438 166.46875 215.5Q166.875 215.26562 167.1875 214.875L167.84375 215.39062Q167.04688 216.625 165.45312 216.625ZM165.3125 210.9375Q164.65625 210.9375 164.20312 211.42188Q163.76562 211.89062 163.67188 212.75L166.84375 212.75L166.84375 212.67188Q166.79688 211.84375 166.39062 211.39062Q166.0 210.9375 165.3125 210.9375ZM165.85938 207.5L167.17188 207.5L165.59375 209.21875L164.71875 209.21875L165.85938 207.5ZM172.73438 216.5Q172.64062 216.3125 172.57812 215.82812Q171.82812 216.625 170.78125 216.625Q169.84375 216.625 169.23438 216.09375Q168.64062 215.5625 168.64062 214.73438Q168.64062 213.75 169.39062 213.20312Q170.14062 212.65625 171.51562 212.65625L172.5625 212.65625L172.5625 212.15625Q172.5625 211.59375 172.21875 211.26562Q171.89062 210.92188 171.21875 210.92188Q170.64062 210.92188 170.25 211.21875Q169.85938 211.5 169.85938 211.92188L168.76562 211.92188Q168.76562 211.4375 169.09375 211.0Q169.4375 210.5625 170.01562 210.3125Q170.59375 210.04688 171.28125 210.04688Q172.39062 210.04688 173.0 210.59375Q173.625 211.14062 173.65625 212.09375L173.65625 215.01562Q173.65625 215.89062 173.875 216.40625L173.875 216.5L172.73438 216.5ZM170.9375 215.67188Q171.45312 215.67188 171.90625 215.40625Q172.35938 215.14062 172.5625 214.71875L172.5625 213.42188L171.71875 213.42188Q169.71875 213.42188 169.71875 214.59375Q169.71875 215.09375 170.0625 215.39062Q170.40625 215.67188 170.9375 215.67188ZM177.0 216.5L175.92188 216.5L175.92188 210.15625L177.0 210.15625L177.0 216.5ZM175.82812 208.48438Q175.82812 208.21875 175.98438 208.03125Q176.15625 207.84375 176.46875 207.84375Q176.78125 207.84375 176.9375 208.03125Q177.10938 208.21875 177.10938 208.48438Q177.10938 208.73438 176.9375 208.92188Q176.78125 209.09375 176.46875 209.09375Q176.15625 209.09375 175.98438 208.92188Q175.82812 208.73438 175.82812 208.48438ZM181.89062 211.125Q181.64062 211.09375 181.35938 211.09375Q180.28125 211.09375 179.90625 212.0L179.90625 216.5L178.82812 216.5L178.82812 210.15625L179.875 210.15625L179.89062 210.89062Q180.42188 210.04688 181.40625 210.04688Q181.71875 210.04688 181.89062 210.125L181.89062 211.125ZM185.45312 216.625Q184.15625 216.625 183.34375 215.78125Q182.54688 214.92188 182.54688 213.5L182.54688 213.3125Q182.54688 212.35938 182.90625 211.625Q183.26562 210.875 183.90625 210.46875Q184.5625 210.04688 185.3125 210.04688Q186.54688 210.04688 187.23438 210.85938Q187.92188 211.67188 187.92188 213.1875L187.92188 213.64062L183.625 213.64062Q183.65625 214.57812 184.17188 215.15625Q184.70312 215.73438 185.51562 215.73438Q186.07812 215.73438 186.46875 215.5Q186.875 215.26562 187.1875 214.875L187.84375 215.39062Q187.04688 216.625 185.45312 216.625ZM185.3125 210.9375Q184.65625 210.9375 184.20312 211.42188Q183.76562 211.89062 183.67188 212.75L186.84375 212.75L186.84375 212.67188Q186.79688 211.84375 186.39062 211.39062Q186.0 210.9375 185.3125 210.9375Z"
     fill-rule="nonzero"
     id="path18" />
  <path
     stroke="#cccccc"
     stroke-width="1.0"
     stroke-linecap="butt"
     d="M315.0 212.0L315.0 86.0"
     fill-rule="nonzero"
     id="path19" />
  <path
     stroke="#4285f4"
     stroke-width="1.0"
     stroke-linecap="butt"
     d="M315.0 112.0L429.0 212.0L315.0 297.0L194.0 212.0Z"
     fill-rule="nonzero"
     id="path20" />
  <path
     stroke="#ea4335"
     stroke-width="1.0"
     stroke-linecap="butt"
     d="M315.0 104.0L389.0 212.0L315.0 334.0L200.0 212.0Z"
     fill-rule="nonzero"
     id="path21" />
  <path
     stroke="#4285f4"
     stroke-width="4.0"
     stroke-linecap="butt"
     d="M258.5 26.45L270.5 26.45"
     fill-rule="nonzero"
     id="path22" />
  <path
     fill="#1a1a1a"
     d="M279.375 30.45L279.375 21.85625L280.51562 21.85625L280.51562 29.434376L284.75 29.434376L284.75 30.45L279.375 30.45ZM286.29688 23.075L286.29688 21.85625L287.35938 21.85625L287.35938 23.075L286.29688 23.075ZM286.29688 30.45L286.29688 24.23125L287.35938 24.23125L287.35938 30.45L286.29688 30.45ZM291.01562 30.45L288.65625 24.23125L289.76562 24.23125L291.10938 27.95Q291.3125 28.559376 291.5 29.2Q291.64062 28.715626 291.89062 28.028126L293.28125 24.23125L294.35938 24.23125L292.0 30.45L291.01562 30.45ZM298.54688 28.45L299.64062 28.575Q299.39062 29.528126 298.6875 30.059376Q297.98438 30.590626 296.90625 30.590626Q295.54688 30.590626 294.73438 29.746876Q293.9375 28.903126 293.9375 27.3875Q293.9375 25.825 294.75 24.965626Q295.5625 24.090626 296.84375 24.090626Q298.09375 24.090626 298.875 24.934376Q299.67188 25.778126 299.67188 27.325Q299.67188 27.41875 299.67188 27.60625L295.03125 27.60625Q295.09375 28.6375 295.60938 29.184376Q296.125 29.715626 296.90625 29.715626Q297.48438 29.715626 297.89062 29.41875Q298.3125 29.10625 298.54688 28.45ZM295.09375 26.746876L298.5625 26.746876Q298.5 25.95 298.17188 25.559376Q297.65625 24.95 296.85938 24.95Q296.125 24.95 295.625 25.434376Q295.14062 25.91875 295.09375 26.746876Z"
     fill-rule="nonzero"
     id="path23" />
  <path
     stroke="#ea4335"
     stroke-width="4.0"
     stroke-linecap="butt"
     d="M316.5 26.45L328.5 26.45"
     fill-rule="nonzero"
     id="path24" />
  <path
     fill="#1a1a1a"
     d="M337.04688 27.684376L338.10938 27.590626Q338.1875 28.246876 338.46875 28.653126Q338.75 29.059376 339.32812 29.325Q339.92188 29.575 340.65625 29.575Q341.29688 29.575 341.79688 29.3875Q342.29688 29.184376 342.53125 28.85625Q342.78125 28.5125 342.78125 28.121876Q342.78125 27.715626 342.54688 27.41875Q342.3125 27.10625 341.78125 26.903126Q341.42188 26.7625 340.23438 26.48125Q339.0625 26.2 338.59375 25.95Q337.96875 25.621876 337.67188 25.153126Q337.375 24.66875 337.375 24.075Q337.375 23.434376 337.73438 22.871876Q338.10938 22.29375 338.8125 22.0125Q339.53125 21.715626 340.39062 21.715626Q341.34375 21.715626 342.07812 22.028126Q342.8125 22.325 343.20312 22.934376Q343.59375 23.528126 343.625 24.278126L342.53125 24.35625Q342.4375 23.54375 341.92188 23.1375Q341.42188 22.715626 340.4375 22.715626Q339.40625 22.715626 338.9375 23.090626Q338.46875 23.465626 338.46875 23.996876Q338.46875 24.465626 338.79688 24.7625Q339.125 25.059376 340.5 25.371876Q341.89062 25.684376 342.40625 25.91875Q343.15625 26.278126 343.51562 26.809376Q343.875 27.325 343.875 28.028126Q343.875 28.715626 343.48438 29.325Q343.09375 29.91875 342.35938 30.2625Q341.625 30.590626 340.70312 30.590626Q339.53125 30.590626 338.73438 30.2625Q337.95312 29.91875 337.5 29.23125Q337.0625 28.54375 337.04688 27.684376ZM347.59375 29.5125L347.75 30.434376Q347.29688 30.528126 346.95312 30.528126Q346.375 30.528126 346.0625 30.35625Q345.75 30.16875 345.60938 29.871876Q345.48438 29.575 345.48438 28.621876L345.48438 25.04375L344.71875 25.04375L344.71875 24.23125L345.48438 24.23125L345.48438 22.684376L346.53125 22.059376L346.53125 24.23125L347.59375 24.23125L347.59375 25.04375L346.53125 25.04375L346.53125 28.684376Q346.53125 29.1375 346.57812 29.2625Q346.64062 29.3875 346.76562 29.465626Q346.89062 29.54375 347.125 29.54375Q347.3125 29.54375 347.59375 29.5125ZM352.375 30.45L352.375 29.528126Q351.64062 30.590626 350.39062 30.590626Q349.84375 30.590626 349.35938 30.3875Q348.89062 30.16875 348.65625 29.85625Q348.42188 29.528126 348.32812 29.059376Q348.26562 28.7625 348.26562 28.075L348.26562 24.23125L349.32812 24.23125L349.32812 27.684376Q349.32812 28.496876 349.39062 28.79375Q349.48438 29.2 349.79688 29.45Q350.125 29.684376 350.60938 29.684376Q351.07812 29.684376 351.48438 29.45Q351.90625 29.2 352.07812 28.778126Q352.26562 28.35625 352.26562 27.559376L352.26562 24.23125L353.3125 24.23125L353.3125 30.45L352.375 30.45ZM359.32812 30.45L359.32812 29.66875Q358.73438 30.590626 357.59375 30.590626Q356.84375 30.590626 356.21875 30.184376Q355.59375 29.7625 355.25 29.028126Q354.90625 28.29375 354.90625 27.340626Q354.90625 26.41875 355.21875 25.653126Q355.53125 24.8875 356.15625 24.496876Q356.78125 24.090626 357.54688 24.090626Q358.10938 24.090626 358.54688 24.325Q358.98438 24.559376 359.26562 24.934376L359.26562 21.85625L360.3125 21.85625L360.3125 30.45L359.32812 30.45ZM356.0 27.340626Q356.0 28.54375 356.5 29.1375Q357.0 29.715626 357.6875 29.715626Q358.375 29.715626 358.85938 29.153126Q359.34375 28.590626 359.34375 27.434376Q359.34375 26.153126 358.84375 25.559376Q358.35938 24.965626 357.64062 24.965626Q356.9375 24.965626 356.46875 25.54375Q356.0 26.10625 356.0 27.340626ZM362.29688 23.075L362.29688 21.85625L363.35938 21.85625L363.35938 23.075L362.29688 23.075ZM362.29688 30.45L362.29688 24.23125L363.35938 24.23125L363.35938 30.45L362.29688 30.45ZM364.90625 27.340626Q364.90625 25.60625 365.85938 24.778126Q366.65625 24.090626 367.8125 24.090626Q369.09375 24.090626 369.90625 24.934376Q370.73438 25.7625 370.73438 27.246876Q370.73438 28.45 370.375 29.1375Q370.01562 29.825 369.3125 30.215626Q368.625 30.590626 367.8125 30.590626Q366.51562 30.590626 365.70312 29.7625Q364.90625 28.91875 364.90625 27.340626ZM365.98438 27.340626Q365.98438 28.528126 366.5 29.121876Q367.03125 29.715626 367.8125 29.715626Q368.60938 29.715626 369.125 29.121876Q369.64062 28.528126 369.64062 27.309376Q369.64062 26.153126 369.10938 25.559376Q368.59375 24.965626 367.8125 24.965626Q367.03125 24.965626 366.5 25.559376Q365.98438 26.1375 365.98438 27.340626Z"
     fill-rule="nonzero"
     id="path25" />
</svg>
