<?xml version="1.0" encoding="UTF-8" standalone="no"?>
<!-- Created with Inkscape (http://www.inkscape.org/) -->

<svg
   width="210mm"
   height="80mm"
   viewBox="0 0 210 80"
   version="1.1"
   id="svg1"
   inkscape:version="1.3 (0e150ed, 2023-07-21)"
   sodipodi:docname="physic model.svg"
   xml:space="preserve"
   xmlns:inkscape="http://www.inkscape.org/namespaces/inkscape"
   xmlns:sodipodi="http://sodipodi.sourceforge.net/DTD/sodipodi-0.dtd"
   xmlns:xlink="http://www.w3.org/1999/xlink"
   xmlns="http://www.w3.org/2000/svg"
   xmlns:svg="http://www.w3.org/2000/svg"><sodipodi:namedview
     id="namedview1"
     pagecolor="#ffffff"
     bordercolor="#000000"
     borderopacity="0.25"
     inkscape:showpageshadow="2"
     inkscape:pageopacity="0.0"
     inkscape:pagecheckerboard="0"
     inkscape:deskcolor="#d1d1d1"
     inkscape:document-units="mm"
     inkscape:zoom="1.7449518"
     inkscape:cx="447.29029"
     inkscape:cy="229.23269"
     inkscape:window-width="1648"
     inkscape:window-height="1057"
     inkscape:window-x="0"
     inkscape:window-y="32"
     inkscape:window-maximized="0"
     inkscape:current-layer="layer1"
     inkscape:export-bgcolor="#ffffffff" /><defs
     id="defs1" /><g
     inkscape:label="Layer 1"
     inkscape:groupmode="layer"
     id="layer1"><path
       style="fill:none;stroke:#000000;stroke-width:1.37962;stroke-linecap:round;stroke-dasharray:none;stroke-opacity:1"
       d="M 66.073302,30.893898 V 61.676709"
       id="path10"
       inkscape:export-filename="masseressort.png"
       inkscape:export-xdpi="300"
       inkscape:export-ydpi="300" /><path
       style="fill:none;stroke:#000000;stroke-width:1.17216;stroke-linecap:round;stroke-dasharray:none;stroke-opacity:1"
       d="m 66.073302,47.57304 h 2.943386 l 3.801841,-3.801863 4.091894,7.087332 4.024614,-6.970842 3.929658,6.806387 4.002644,-6.932772 4.131104,7.155274 3.355301,-3.355321 h 3.691016 v -12.25228 h 20.481 v 22.197979 h -20.35835 v -10.54711"
       id="path11" /><g
       id="path12"><path
         style="color:#000000;fill:#000000;stroke-linecap:round;-inkscape-stroke:none"
         d="m 110.10156,46.496094 a 0.58608001,0.58608001 0 0 0 -0.58593,0.585937 0.58608001,0.58608001 0 0 0 0.58593,0.585938 h 25.01758 a 0.58608001,0.58608001 0 0 0 0.58789,-0.585938 0.58608001,0.58608001 0 0 0 -0.58789,-0.585937 z"
         id="path7" /><g
         id="g6"><path
           style="color:#000000;fill:#000000;stroke-linecap:round;-inkscape-stroke:none"
           d="m 131.48242,43.152344 a 0.58608001,0.58608001 0 0 0 0,0.828125 l 3.10156,3.101562 -3.10156,3.101563 a 0.58608001,0.58608001 0 0 0 0,0.830078 0.58608001,0.58608001 0 0 0 0.82813,0 l 3.93164,-3.931641 -3.93164,-3.929687 a 0.58608001,0.58608001 0 0 0 -0.82813,0 z"
           id="path6" /></g></g><text
       xml:space="preserve"
       style="font-style:italic;font-variant:normal;font-weight:normal;font-stretch:normal;font-size:9.51441px;font-family:'Times New Roman';-inkscape-font-specification:'Times New Roman,  Italic';fill:#000000;fill-opacity:1;stroke:none;stroke-width:1.17216;stroke-linecap:round;stroke-dasharray:none;stroke-opacity:1"
       x="107.03526"
       y="30.782362"
       id="text12"><tspan
         sodipodi:role="line"
         id="tspan12"
         style="font-style:italic;font-variant:normal;font-weight:normal;font-stretch:normal;font-family:'Times New Roman';-inkscape-font-specification:'Times New Roman,  Italic';fill:#000000;fill-opacity:1;stroke:none;stroke-width:1.17216"
         x="107.03526"
         y="30.782362">m</tspan></text><text
       xml:space="preserve"
       style="font-style:italic;font-variant:normal;font-weight:normal;font-stretch:normal;font-size:9.51441px;font-family:'Times New Roman';-inkscape-font-specification:'Times New Roman,  Italic';fill:#000000;fill-opacity:1;stroke:none;stroke-width:1.17216;stroke-linecap:round;stroke-dasharray:none;stroke-opacity:1"
       x="82.280426"
       y="39.836468"
       id="text13"><tspan
         sodipodi:role="line"
         id="tspan13"
         style="stroke-width:1.17216"
         x="82.280426"
         y="39.836468">k</tspan></text><text
       xml:space="preserve"
       style="font-style:italic;font-variant:normal;font-weight:normal;font-stretch:normal;font-size:9.51441px;font-family:'Times New Roman';-inkscape-font-specification:'Times New Roman,  Italic';fill:#000000;fill-opacity:1;stroke:none;stroke-width:1.17216;stroke-linecap:round;stroke-dasharray:none;stroke-opacity:1"
       x="131.42216"
       y="57.450367"
       id="text14"><tspan
         sodipodi:role="line"
         id="tspan14"
         style="stroke-width:1.17216"
         x="131.42216"
         y="57.450367">x</tspan></text><text
       xml:space="preserve"
       style="font-style:italic;font-variant:normal;font-weight:normal;font-stretch:normal;font-size:9.51441px;font-family:'Times New Roman';-inkscape-font-specification:'Times New Roman,  Italic';fill:#000000;fill-opacity:1;stroke:none;stroke-width:1.17216;stroke-linecap:round;stroke-dasharray:none;stroke-opacity:1"
       x="129.35583"
       y="38.865509"
       id="text15"><tspan
         sodipodi:role="line"
         id="tspan15"
         style="font-style:italic;font-variant:normal;font-weight:normal;font-stretch:normal;font-family:'Times New Roman';-inkscape-font-specification:'Times New Roman,  Italic';stroke-width:1.17216"
         x="129.35583"
         y="38.865509">f <tspan
   style="font-style:normal;font-variant:normal;font-weight:normal;font-stretch:normal;font-family:'Times New Roman';-inkscape-font-specification:'Times New Roman, ';stroke-width:1.17216"
   id="tspan16">cos(ω</tspan>t<tspan
   style="font-style:normal;font-variant:normal;font-weight:normal;font-stretch:normal;font-family:'Times New Roman';-inkscape-font-specification:'Times New Roman, ';stroke-width:1.17216"
   id="tspan17">)</tspan></tspan></text><path
       style="fill:none;fill-opacity:1;stroke:#000000;stroke-width:1.37962;stroke-linecap:round;stroke-dasharray:none;stroke-opacity:1"
       d="m 66.073302,30.824938 -7.491985,7.491965"
       id="path17" /><path
       style="fill:none;fill-opacity:1;stroke:#000000;stroke-width:1.37962;stroke-linecap:round;stroke-dasharray:none;stroke-opacity:1"
       d="M 66.046519,35.256965 58.554534,42.74893"
       id="path17-1" /><use
       x="0"
       y="0"
       xlink:href="#path17-1"
       id="use23"
       transform="translate(-9.7059264e-7,4.3912959)" /><use
       x="0"
       y="0"
       xlink:href="#use23"
       id="use25"
       transform="translate(-9.7059264e-7,4.3912959)" /><use
       x="0"
       y="0"
       xlink:href="#use25"
       id="use26"
       transform="translate(-9.7059264e-7,4.3912959)" /><use
       x="0"
       y="0"
       xlink:href="#use26"
       id="use27"
       transform="translate(-9.7059264e-7,4.3912959)" /><use
       x="0"
       y="0"
       xlink:href="#use27"
       id="use28"
       transform="translate(-9.7059264e-7,4.3912959)" /><use
       x="0"
       y="0"
       xlink:href="#use28"
       id="use29"
       transform="translate(-9.7059264e-7,4.3912959)" /><circle
       style="fill:#87c588;fill-opacity:1;stroke:none;stroke-width:0.549772;stroke-opacity:1"
       id="use30"
       cx="15.501237"
       cy="47.741013"
       r="10.879545" /><rect
       style="fill:#d09591;fill-opacity:1;stroke:none;stroke-width:0.549772;stroke-opacity:0.248968"
       id="use35"
       width="21.079121"
       height="21.079121"
       x="184.29919"
       y="32.259312"
       ry="3.3386822" /><g
       id="path35"><path
         style="color:#000000;fill:#000000;stroke-linecap:round;-inkscape-stroke:none"
         d="M 79.578125,7.0332031 C 78.6173,6.9194638 77.626093,6.920025 76.582031,7.0429687 68.229534,8.0265184 56.683622,16.628496 29.214844,36.935547 a 0.378618,0.378618 0 0 0 -0.08008,0.529297 0.378618,0.378618 0 0 0 0.53125,0.08008 C 57.13473,17.237919 68.754706,8.7269794 76.669922,7.7949219 80.62753,7.3288931 83.708236,8.6891743 87.574219,11.46875 c 3.865982,2.779576 8.465881,6.969879 15.316411,12.025391 a 0.378618,0.378618 0 0 0 0.52929,-0.07813 0.378618,0.378618 0 0 0 -0.0801,-0.53125 C 96.519945,17.851855 91.94285,13.679077 88.015625,10.855469 85.070206,8.7377625 82.460601,7.3744212 79.578125,7.0332031 Z"
         id="path13" /><g
         id="g8"><path
           style="color:#000000;fill:#000000;stroke-linecap:round;-inkscape-stroke:none"
           d="m 102.73242,19.751953 a 0.378618,0.378618 0 0 0 -0.31836,0.429688 l 0.42188,2.802734 -2.80274,0.423828 a 0.378618,0.378618 0 0 0 -0.316403,0.429688 0.378618,0.378618 0 0 0 0.429683,0.318359 l 3.55079,-0.535156 -0.53516,-3.550782 a 0.378618,0.378618 0 0 0 -0.42969,-0.318359 z"
           id="path8" /></g></g><g
       id="path42"><path
         style="color:#000000;fill:#000000;stroke-linecap:round;-inkscape-stroke:none"
         d="m 67.941406,16.146484 c -0.617542,-0.08912 -1.267098,-0.0851 -1.960937,0.01367 -2.775356,0.39507 -6.281683,2.238264 -11.947266,5.640625 -5.665583,3.402361 -13.4823,8.379734 -24.78125,15.083985 a 0.39370349,0.39370349 0 0 0 -0.136719,0.539062 0.39370349,0.39370349 0 0 0 0.539063,0.138672 c 11.308971,-6.710197 19.136125,-11.693516 24.785156,-15.085938 5.649032,-3.392421 9.130372,-5.178108 11.652344,-5.537109 1.260986,-0.1795 2.276077,-0.02184 3.277344,0.458984 1.001266,0.480826 1.989827,1.302048 3.113281,2.462891 2.246908,2.321686 5.014836,5.982977 9.574219,10.792969 a 0.39370349,0.39370349 0 0 0 0.55664,0.01563 0.39370349,0.39370349 0 0 0 0.01367,-0.556641 C 78.095524,25.332779 75.35798,21.698502 73.048828,19.3125 71.894252,18.119499 70.843267,17.233217 69.710937,16.689453 69.144773,16.417571 68.558948,16.235601 67.941406,16.146484 Z"
         id="path3" /><g
         id="g2"><path
           style="color:#000000;fill:#000000;stroke-linecap:round;-inkscape-stroke:none"
           d="m 82.576172,26.792969 a 0.39370349,0.39370349 0 0 0 -0.402344,0.382812 l -0.08008,2.945313 -2.945313,-0.07813 a 0.39370349,0.39370349 0 0 0 -0.404296,0.382812 0.39370349,0.39370349 0 0 0 0.382812,0.404297 l 3.732422,0.09961 0.101562,-3.732421 a 0.39370349,0.39370349 0 0 0 -0.384765,-0.404297 z"
           id="path2" /></g></g><g
       id="path43"><path
         style="color:#000000;fill:#000000;stroke-linecap:round;-inkscape-stroke:none"
         d="m 179.07422,45.669922 -39.85938,9.365234 a 0.37861899,0.37861899 0 0 0 -0.28125,0.455078 0.37861899,0.37861899 0 0 0 0.45508,0.283203 l 39.85938,-9.367187 a 0.37861899,0.37861899 0 0 0 0.28125,-0.455078 0.37861899,0.37861899 0 0 0 -0.45508,-0.28125 z"
         id="path5" /><g
         id="g4"><path
           style="color:#000000;fill:#000000;stroke-linecap:round;-inkscape-stroke:none"
           d="m 176.8125,43.980469 a 0.37861899,0.37861899 0 0 0 -0.52148,0.123047 0.37861899,0.37861899 0 0 0 0.12304,0.521484 l 2.41016,1.492187 -1.49219,2.408204 a 0.37861899,0.37861899 0 0 0 0.12109,0.521484 0.37861899,0.37861899 0 0 0 0.52149,-0.121094 l 1.89258,-3.054687 z"
           id="path4" /></g></g></g></svg>
