<?xml version="1.0" encoding="UTF-8" standalone="no"?>
<svg
   version="1.1"
   viewBox="0 0 1200 371"
   fill="none"
   stroke="none"
   stroke-linecap="square"
   stroke-miterlimit="10"
   width="1200"
   height="371"
   id="svg45"
   sodipodi:docname="utilsiatino preset.svg"
   inkscape:version="1.3 (0e150ed, 2023-07-21)"
   xmlns:inkscape="http://www.inkscape.org/namespaces/inkscape"
   xmlns:sodipodi="http://sodipodi.sourceforge.net/DTD/sodipodi-0.dtd"
   xmlns="http://www.w3.org/2000/svg"
   xmlns:svg="http://www.w3.org/2000/svg">
  <defs
     id="defs45">
    <clipPath
       id="id_0-9">
      <path
         d="m 45.55,25.55 h 524.9 v 306.9 H 45.55 Z"
         clip-rule="nonzero"
         id="path7-7" />
    </clipPath>
    <clipPath
       id="clipPath1">
      <path
         d="m 45.55,25.55 h 524.9 v 306.9 H 45.55 Z"
         clip-rule="nonzero"
         id="path1-0" />
    </clipPath>
    <clipPath
       id="clipPath2">
      <path
         d="m 45.55,25.55 h 524.9 v 306.9 H 45.55 Z"
         clip-rule="nonzero"
         id="path2-3" />
    </clipPath>
    <clipPath
       id="clipPath3">
      <path
         d="m 45.55,25.55 h 524.9 v 306.9 H 45.55 Z"
         clip-rule="nonzero"
         id="path3-9" />
    </clipPath>
    <clipPath
       id="clipPath4">
      <path
         d="m 45.55,25.55 h 524.9 v 306.9 H 45.55 Z"
         clip-rule="nonzero"
         id="path4-8" />
    </clipPath>
    <clipPath
       id="clipPath5">
      <path
         d="m 45.55,25.55 h 524.9 v 306.9 H 45.55 Z"
         clip-rule="nonzero"
         id="path5-6" />
    </clipPath>
    <clipPath
       id="clipPath6">
      <path
         d="m 45.55,25.55 h 524.9 v 306.9 H 45.55 Z"
         clip-rule="nonzero"
         id="path6-5" />
    </clipPath>
    <clipPath
       id="clipPath8">
      <path
         d="m 45.55,25.55 h 524.9 v 306.9 H 45.55 Z"
         clip-rule="nonzero"
         id="path8-7" />
    </clipPath>
    <clipPath
       id="clipPath9">
      <path
         d="m 45.55,25.55 h 524.9 v 306.9 H 45.55 Z"
         clip-rule="nonzero"
         id="path9-6" />
    </clipPath>
    <clipPath
       id="clipPath10">
      <path
         d="m 45.55,25.55 h 524.9 v 306.9 H 45.55 Z"
         clip-rule="nonzero"
         id="path10-2" />
    </clipPath>
    <clipPath
       id="clipPath11">
      <path
         d="m 45.55,25.55 h 524.9 v 306.9 H 45.55 Z"
         clip-rule="nonzero"
         id="path11-7" />
    </clipPath>
    <clipPath
       id="clipPath12">
      <path
         d="m 45.55,25.55 h 524.9 v 306.9 H 45.55 Z"
         clip-rule="nonzero"
         id="path12-0" />
    </clipPath>
    <clipPath
       id="clipPath13">
      <path
         d="m 45.55,25.55 h 524.9 v 306.9 H 45.55 Z"
         clip-rule="nonzero"
         id="path13-3" />
    </clipPath>
    <clipPath
       id="clipPath14">
      <path
         d="m 45.55,25.55 h 524.9 v 306.9 H 45.55 Z"
         clip-rule="nonzero"
         id="path14-9" />
    </clipPath>
  </defs>
  <sodipodi:namedview
     id="namedview45"
     pagecolor="#ffffff"
     bordercolor="#000000"
     borderopacity="0.25"
     inkscape:showpageshadow="2"
     inkscape:pageopacity="0.0"
     inkscape:pagecheckerboard="0"
     inkscape:deskcolor="#d1d1d1"
     inkscape:zoom="0.57808351"
     inkscape:cx="934.12109"
     inkscape:cy="221.42129"
     inkscape:window-width="1312"
     inkscape:window-height="757"
     inkscape:window-x="0"
     inkscape:window-y="32"
     inkscape:window-maximized="0"
     inkscape:current-layer="svg45" />
  <path
     fill="#ffffff"
     d="M 0,0 H 600 V 371 H 0 Z"
     fill-rule="nonzero"
     id="path1" />
  <path
     stroke="#333333"
     stroke-width="1"
     stroke-linecap="butt"
     d="m 45.5,332.5 h 536"
     fill-rule="nonzero"
     id="path2" />
  <path
     stroke="#cccccc"
     stroke-width="1"
     stroke-linecap="butt"
     d="m 45.5,230.5 h 536"
     fill-rule="nonzero"
     id="path3" />
  <path
     stroke="#cccccc"
     stroke-width="1"
     stroke-linecap="butt"
     d="m 45.5,127.5 h 536"
     fill-rule="nonzero"
     id="path4" />
  <path
     stroke="#cccccc"
     stroke-width="1"
     stroke-linecap="butt"
     d="m 45.5,25.5 h 536"
     fill-rule="nonzero"
     id="path5" />
  <clipPath
     id="id_0">
    <path
       d="m 45.55,25.55 h 535.9 v 306.9 H 45.55 Z"
       clip-rule="nonzero"
       id="path6" />
  </clipPath>
  <path
     stroke="#000000"
     stroke-width="2"
     stroke-linecap="butt"
     stroke-opacity="0"
     clip-path="url(#id_0)"
     d="M 119,332 H 72 v 0 z"
     fill-rule="nonzero"
     id="path7" />
  <path
     fill="#4285f4"
     clip-path="url(#id_0)"
     d="M 119,332 H 72 v 0 z"
     fill-rule="nonzero"
     id="path8" />
  <path
     stroke="#000000"
     stroke-width="2"
     stroke-linecap="butt"
     stroke-opacity="0"
     clip-path="url(#id_0)"
     d="M 192,332 H 145 V 79 c 0,-1.10457 0.89543,-2 2,-2 h 43 c 1.10457,0 2,0.89543 2,2 z"
     fill-rule="nonzero"
     id="path9" />
  <path
     fill="#4285f4"
     clip-path="url(#id_0)"
     d="M 192,332 H 145 V 79 c 0,-1.10457 0.89543,-2 2,-2 h 43 c 1.10457,0 2,0.89543 2,2 z"
     fill-rule="nonzero"
     id="path10" />
  <path
     stroke="#000000"
     stroke-width="2"
     stroke-linecap="butt"
     stroke-opacity="0"
     clip-path="url(#id_0)"
     d="m 265,332 h -47 v -49 c 0,-1.10458 0.89543,-2 2,-2 h 43 c 1.10458,0 2,0.89542 2,2 z"
     fill-rule="nonzero"
     id="path11" />
  <path
     fill="#4285f4"
     clip-path="url(#id_0)"
     d="m 265,332 h -47 v -49 c 0,-1.10458 0.89543,-2 2,-2 h 43 c 1.10458,0 2,0.89542 2,2 z"
     fill-rule="nonzero"
     id="path12" />
  <path
     stroke="#000000"
     stroke-width="2"
     stroke-linecap="butt"
     stroke-opacity="0"
     clip-path="url(#id_0)"
     d="M 338,332 H 291 V 181 c 0,-1.10457 0.89542,-2 2,-2 h 43 c 1.10458,0 2,0.89543 2,2 z"
     fill-rule="nonzero"
     id="path13" />
  <path
     fill="#4285f4"
     clip-path="url(#id_0)"
     d="M 338,332 H 291 V 181 c 0,-1.10457 0.89542,-2 2,-2 h 43 c 1.10458,0 2,0.89543 2,2 z"
     fill-rule="nonzero"
     id="path14" />
  <path
     stroke="#000000"
     stroke-width="2"
     stroke-linecap="butt"
     stroke-opacity="0"
     clip-path="url(#id_0)"
     d="M 410,332 H 363 V 28 c 0,-1.10457 0.89542,-2 2,-2 h 43 c 1.10458,0 2,0.89543 2,2 z"
     fill-rule="nonzero"
     id="path15" />
  <path
     fill="#4285f4"
     clip-path="url(#id_0)"
     d="M 410,332 H 363 V 28 c 0,-1.10457 0.89542,-2 2,-2 h 43 c 1.10458,0 2,0.89543 2,2 z"
     fill-rule="nonzero"
     id="path16" />
  <path
     stroke="#000000"
     stroke-width="2"
     stroke-linecap="butt"
     stroke-opacity="0"
     clip-path="url(#id_0)"
     d="M 483,332 H 436 V 79 c 0,-1.10457 0.89542,-2 2,-2 h 43 c 1.10458,0 2,0.89543 2,2 z"
     fill-rule="nonzero"
     id="path17" />
  <path
     fill="#4285f4"
     clip-path="url(#id_0)"
     d="M 483,332 H 436 V 79 c 0,-1.10457 0.89542,-2 2,-2 h 43 c 1.10458,0 2,0.89543 2,2 z"
     fill-rule="nonzero"
     id="path18" />
  <path
     stroke="#000000"
     stroke-width="2"
     stroke-linecap="butt"
     stroke-opacity="0"
     clip-path="url(#id_0)"
     d="M 556,332 H 509 V 130 c 0,-1.10457 0.89542,-2 2,-2 h 43 c 1.10455,0 2,0.89543 2,2 z"
     fill-rule="nonzero"
     id="path19" />
  <path
     fill="#4285f4"
     clip-path="url(#id_0)"
     d="M 556,332 H 509 V 130 c 0,-1.10457 0.89542,-2 2,-2 h 43 c 1.10455,0 2,0.89543 2,2 z"
     fill-rule="nonzero"
     id="path20" />
  <path
     stroke="#ffffff"
     stroke-width="3"
     stroke-linejoin="round"
     stroke-linecap="round"
     d="m 97.5625,313.8094 q 0,1.90624 -0.65625,2.84374 -0.640625,0.92186 -2.03125,0.92186 -1.359375,0 -2.015625,-0.90624 -0.65625,-0.90626 -0.6875,-2.71876 v -1.4375 q 0,-1.8906 0.640625,-2.79686 0.65625,-0.92188 2.046875,-0.92188 1.375,0 2.03125,0.89064 0.65625,0.875 0.671875,2.71874 z m -1.09375,-1.4844 q 0,-1.375 -0.390625,-2 -0.375,-0.6406 -1.21875,-0.6406 -0.828125,0 -1.21875,0.6406 -0.375,0.625 -0.375,1.9219 v 1.73436 q 0,1.375 0.390625,2.04688 0.40625,0.65626 1.21875,0.65626 0.796875,0 1.1875,-0.625 0.390625,-0.625 0.40625,-1.95314 z"
     fill-rule="nonzero"
     id="path21" />
  <path
     fill="#4285f4"
     d="m 97.5625,313.8094 q 0,1.90624 -0.65625,2.84374 -0.640625,0.92186 -2.03125,0.92186 -1.359375,0 -2.015625,-0.90624 -0.65625,-0.90626 -0.6875,-2.71876 v -1.4375 q 0,-1.8906 0.640625,-2.79686 0.65625,-0.92188 2.046875,-0.92188 1.375,0 2.03125,0.89064 0.65625,0.875 0.671875,2.71874 z m -1.09375,-1.4844 q 0,-1.375 -0.390625,-2 -0.375,-0.6406 -1.21875,-0.6406 -0.828125,0 -1.21875,0.6406 -0.375,0.625 -0.375,1.9219 v 1.73436 q 0,1.375 0.390625,2.04688 0.40625,0.65626 1.21875,0.65626 0.796875,0 1.1875,-0.625 0.390625,-0.625 0.40625,-1.95314 z"
     fill-rule="nonzero"
     id="path22" />
  <path
     stroke="#4285f4"
     stroke-width="3"
     stroke-linejoin="round"
     stroke-linecap="round"
     d="m 165.70312,89.21875 0.4375,-4.25 h 4.375 v 1 h -3.45312 l -0.26562,2.328125 q 0.64062,-0.375 1.4375,-0.375 1.15624,0 1.84374,0.78125 0.6875,0.765625 0.6875,2.078125 0,1.3125 -0.71874,2.078125 -0.70313,0.765625 -1.98438,0.765625 -1.125,0 -1.84375,-0.625 -0.71875,-0.640625 -0.8125,-1.75 h 1.01563 q 0.10937,0.734375 0.53124,1.109375 0.42188,0.375 1.10938,0.375 0.75,0 1.1875,-0.515625 0.4375,-0.515625 0.4375,-1.421875 0,-0.859375 -0.46875,-1.375 -0.46875,-0.515625 -1.25,-0.515625 -0.70313,0 -1.10937,0.296875 l -0.28126,0.234375 z"
     fill-rule="nonzero"
     id="path23" />
  <path
     fill="#ffffff"
     d="m 165.70312,89.21875 0.4375,-4.25 h 4.375 v 1 h -3.45312 l -0.26562,2.328125 q 0.64062,-0.375 1.4375,-0.375 1.15624,0 1.84374,0.78125 0.6875,0.765625 0.6875,2.078125 0,1.3125 -0.71874,2.078125 -0.70313,0.765625 -1.98438,0.765625 -1.125,0 -1.84375,-0.625 -0.71875,-0.640625 -0.8125,-1.75 h 1.01563 q 0.10937,0.734375 0.53124,1.109375 0.42188,0.375 1.10938,0.375 0.75,0 1.1875,-0.515625 0.4375,-0.515625 0.4375,-1.421875 0,-0.859375 -0.46875,-1.375 -0.46875,-0.515625 -1.25,-0.515625 -0.70313,0 -1.10937,0.296875 l -0.28126,0.234375 z"
     fill-rule="nonzero"
     id="path24" />
  <path
     stroke="#4285f4"
     stroke-width="3"
     stroke-linejoin="round"
     stroke-linecap="round"
     d="m 241.76562,298.1 h -1.07812 v -7.21874 l -2.1875,0.79687 v -0.98437 l 3.10938,-1.17188 h 0.15624 z"
     fill-rule="nonzero"
     id="path25" />
  <path
     fill="#ffffff"
     d="m 241.76562,298.1 h -1.07812 v -7.21874 l -2.1875,0.79687 v -0.98437 l 3.10938,-1.17188 h 0.15624 z"
     fill-rule="nonzero"
     id="path26" />
  <path
     stroke="#4285f4"
     stroke-width="3"
     stroke-linejoin="round"
     stroke-linecap="round"
     d="m 312.78125,191.00313 h 0.8125 q 0.78125,-0.0156 1.21875,-0.40625 0.4375,-0.39063 0.4375,-1.0625 0,-1.5 -1.5,-1.5 -0.70312,0 -1.125,0.40625 -0.40625,0.40625 -0.40625,1.0625 H 311.125 q 0,-1.01563 0.73438,-1.6875 0.75,-0.67188 1.89062,-0.67188 1.20312,0 1.89062,0.64063 0.6875,0.64062 0.6875,1.78125 0,0.5625 -0.35937,1.07812 -0.35937,0.51563 -0.98437,0.78125 0.70312,0.21875 1.07812,0.73438 0.39062,0.51562 0.39062,1.26562 0,1.14063 -0.75,1.82813 -0.75,0.67187 -1.95312,0.67187 -1.1875,0 -1.95312,-0.65625 -0.75,-0.65625 -0.75,-1.71875 h 1.09374 q 0,0.67188 0.4375,1.07813 0.4375,0.40625 1.1875,0.40625 0.78126,0 1.1875,-0.40625 0.42188,-0.42188 0.42188,-1.1875 0,-0.73438 -0.45312,-1.125 -0.45313,-0.40625 -1.32813,-0.42188 h -0.8125 z"
     fill-rule="nonzero"
     id="path27" />
  <path
     fill="#ffffff"
     d="m 312.78125,191.00313 h 0.8125 q 0.78125,-0.0156 1.21875,-0.40625 0.4375,-0.39063 0.4375,-1.0625 0,-1.5 -1.5,-1.5 -0.70312,0 -1.125,0.40625 -0.40625,0.40625 -0.40625,1.0625 H 311.125 q 0,-1.01563 0.73438,-1.6875 0.75,-0.67188 1.89062,-0.67188 1.20312,0 1.89062,0.64063 0.6875,0.64062 0.6875,1.78125 0,0.5625 -0.35937,1.07812 -0.35937,0.51563 -0.98437,0.78125 0.70312,0.21875 1.07812,0.73438 0.39062,0.51562 0.39062,1.26562 0,1.14063 -0.75,1.82813 -0.75,0.67187 -1.95312,0.67187 -1.1875,0 -1.95312,-0.65625 -0.75,-0.65625 -0.75,-1.71875 h 1.09374 q 0,0.67188 0.4375,1.07813 0.4375,0.40625 1.1875,0.40625 0.78126,0 1.1875,-0.40625 0.42188,-0.42188 0.42188,-1.1875 0,-0.73438 -0.45312,-1.125 -0.45313,-0.40625 -1.32813,-0.42188 h -0.8125 z"
     fill-rule="nonzero"
     id="path28" />
  <path
     stroke="#4285f4"
     stroke-width="3"
     stroke-linejoin="round"
     stroke-linecap="round"
     d="M 387.46875,33.81875 V 34.725 h -0.20313 Q 386,34.75625 385.25,35.490623 q -0.75,0.71875 -0.875,2.03125 0.6875,-0.765623 1.84375,-0.765623 1.10937,0 1.78125,0.78125 0.67188,0.78125 0.67188,2.03125 0,1.3125 -0.71876,2.109373 -0.71874,0.796877 -1.9375,0.796877 -1.21874,0 -1.98437,-0.9375 -0.75,-0.953127 -0.75,-2.4375 v -0.40625 q 0,-2.359377 1,-3.609377 1,-1.25 2.98437,-1.265623 z m -1.42187,3.84375 q -0.5625,0 -1.03126,0.328123 -0.46874,0.328127 -0.65624,0.84375 V 39.225 q 0,1.0625 0.46874,1.703123 0.48438,0.640627 1.1875,0.640627 0.73438,0 1.15626,-0.53125 0.42187,-0.546877 0.42187,-1.421877 0,-0.875 -0.42187,-1.40625 Q 386.75,37.6625 386.04688,37.6625 Z"
     fill-rule="nonzero"
     id="path29" />
  <path
     fill="#ffffff"
     d="M 387.46875,33.81875 V 34.725 h -0.20313 Q 386,34.75625 385.25,35.490623 q -0.75,0.71875 -0.875,2.03125 0.6875,-0.765623 1.84375,-0.765623 1.10937,0 1.78125,0.78125 0.67188,0.78125 0.67188,2.03125 0,1.3125 -0.71876,2.109373 -0.71874,0.796877 -1.9375,0.796877 -1.21874,0 -1.98437,-0.9375 -0.75,-0.953127 -0.75,-2.4375 v -0.40625 q 0,-2.359377 1,-3.609377 1,-1.25 2.98437,-1.265623 z m -1.42187,3.84375 q -0.5625,0 -1.03126,0.328123 -0.46874,0.328127 -0.65624,0.84375 V 39.225 q 0,1.0625 0.46874,1.703123 0.48438,0.640627 1.1875,0.640627 0.73438,0 1.15626,-0.53125 0.42187,-0.546877 0.42187,-1.421877 0,-0.875 -0.42187,-1.40625 Q 386.75,37.6625 386.04688,37.6625 Z"
     fill-rule="nonzero"
     id="path30" />
  <path
     stroke="#4285f4"
     stroke-width="3"
     stroke-linejoin="round"
     stroke-linecap="round"
     d="m 456.70312,89.21875 0.4375,-4.25 h 4.375 v 1 h -3.45312 l -0.26562,2.328125 q 0.64062,-0.375 1.4375,-0.375 1.15624,0 1.84374,0.78125 0.6875,0.765625 0.6875,2.078125 0,1.3125 -0.71874,2.078125 -0.70313,0.765625 -1.98438,0.765625 -1.125,0 -1.84375,-0.625 -0.71875,-0.640625 -0.8125,-1.75 h 1.01563 q 0.10937,0.734375 0.53124,1.109375 0.42188,0.375 1.10938,0.375 0.75,0 1.1875,-0.515625 0.4375,-0.515625 0.4375,-1.421875 0,-0.859375 -0.46875,-1.375 -0.46875,-0.515625 -1.25,-0.515625 -0.70313,0 -1.10937,0.296875 l -0.28126,0.234375 z"
     fill-rule="nonzero"
     id="path31" />
  <path
     fill="#ffffff"
     d="m 456.70312,89.21875 0.4375,-4.25 h 4.375 v 1 h -3.45312 l -0.26562,2.328125 q 0.64062,-0.375 1.4375,-0.375 1.15624,0 1.84374,0.78125 0.6875,0.765625 0.6875,2.078125 0,1.3125 -0.71874,2.078125 -0.70313,0.765625 -1.98438,0.765625 -1.125,0 -1.84375,-0.625 -0.71875,-0.640625 -0.8125,-1.75 h 1.01563 q 0.10937,0.734375 0.53124,1.109375 0.42188,0.375 1.10938,0.375 0.75,0 1.1875,-0.515625 0.4375,-0.515625 0.4375,-1.421875 0,-0.859375 -0.46875,-1.375 -0.46875,-0.515625 -1.25,-0.515625 -0.70313,0 -1.10937,0.296875 l -0.28126,0.234375 z"
     fill-rule="nonzero"
     id="path32" />
  <path
     stroke="#4285f4"
     stroke-width="3"
     stroke-linejoin="round"
     stroke-linecap="round"
     d="m 533.78125,141.79062 h 1.1875 v 0.875 h -1.1875 V 144.65 h -1.07815 v -1.98438 h -3.8906 V 142.025 l 3.8125,-5.90626 h 1.15625 z m -3.73435,0 h 2.6562 v -4.1875 l -0.1406,0.23438 z"
     fill-rule="nonzero"
     id="path33" />
  <path
     fill="#ffffff"
     d="m 533.78125,141.79062 h 1.1875 v 0.875 h -1.1875 V 144.65 h -1.07815 v -1.98438 h -3.8906 V 142.025 l 3.8125,-5.90626 h 1.15625 z m -3.73435,0 h 2.6562 v -4.1875 l -0.1406,0.23438 z"
     fill-rule="nonzero"
     id="path34" />
  <path
     fill="#000000"
     d="m 33.05,332.21564 q 0,-1.53124 0.3125,-2.45314 0.3125,-0.9375 0.921874,-1.4375 0.625,-0.5 1.5625,-0.5 0.6875,0 1.203126,0.28126 0.53125,0.28124 0.875,0.8125 0.34375,0.51564 0.53125,1.26564 0.1875,0.75 0.1875,2.03124 0,1.51562 -0.3125,2.4375 -0.296876,0.92186 -0.921876,1.4375 -0.609374,0.5 -1.5625,0.5 -1.234374,0 -1.953124,-0.89064 Q 33.05,334.6375 33.05,332.21564 Z m 1.078124,0 q 0,2.10936 0.5,2.8125 0.5,0.70312 1.21875,0.70312 0.734376,0 1.21875,-0.70312 0.5,-0.70314 0.5,-2.8125 0,-2.125 -0.5,-2.8125 Q 36.58125,328.7 35.83125,328.7 q -0.71875,0 -1.15625,0.6094 -0.546876,0.78124 -0.546876,2.90624 z"
     fill-rule="nonzero"
     id="path35" />
  <path
     fill="#000000"
     d="M 38.596874,233.13437 V 234.15 h -5.6875 q 0,-0.375 0.125,-0.73438 0.21875,-0.57812 0.6875,-1.14062 0.484376,-0.5625 1.390626,-1.29688 1.40625,-1.15625 1.890624,-1.82812 0.5,-0.67188 0.5,-1.26563 0,-0.625 -0.453124,-1.04687 -0.453126,-0.4375 -1.171876,-0.4375 -0.765624,0 -1.21875,0.45312 -0.453124,0.45312 -0.46875,1.26562 L 33.1125,228.00937 q 0.109374,-1.21875 0.828124,-1.84375 0.734376,-0.64062 1.96875,-0.64062 1.234376,0 1.953126,0.6875 0.71875,0.6875 0.71875,1.70312 0,0.51562 -0.21875,1.01562 -0.203126,0.48438 -0.703126,1.04688 -0.484374,0.54688 -1.609374,1.5 -0.953126,0.79688 -1.234376,1.09375 -0.265624,0.28125 -0.4375,0.5625 z"
     fill-rule="nonzero"
     id="path36" />
  <path
     fill="#000000"
     d="m 36.425,131.85 v -2.0625 h -3.71875 v -0.96874 l 3.921874,-5.5625 H 37.4875 v 5.5625 h 1.15625 v 0.96874 H 37.4875 v 2.0625 z m 0,-3.03124 v -3.85938 l -2.6875,3.85938 z"
     fill-rule="nonzero"
     id="path37" />
  <path
     fill="#000000"
     d="m 38.51875,23.065624 -1.046876,0.07813 q -0.140624,-0.625 -0.390624,-0.90625 -0.4375,-0.453126 -1.0625,-0.453126 -0.5,0 -0.890626,0.28125 -0.484374,0.375 -0.78125,1.078126 -0.28125,0.6875 -0.296874,1.96875 0.375,-0.578126 0.921874,-0.859376 0.5625,-0.28125 1.171876,-0.28125 1.046874,0 1.78125,0.78125 0.75,0.78125 0.75,2 0,0.8125 -0.359376,1.515626 -0.34375,0.6875 -0.953124,1.0625 -0.609376,0.359374 -1.375,0.359374 -1.328126,0 -2.15625,-0.96875 -0.828126,-0.96875 -0.828126,-3.1875 0,-2.5 0.921876,-3.625 0.796874,-0.984374 2.15625,-0.984374 1.015624,0 1.65625,0.578124 0.65625,0.5625 0.78125,1.5625 z m -4.296876,3.703126 q 0,0.546874 0.21875,1.046874 0.234376,0.484376 0.640626,0.75 0.421874,0.265626 0.890624,0.265626 0.65625,0 1.140626,-0.53125 0.484374,-0.546876 0.484374,-1.46875 0,-0.890626 -0.484374,-1.40625 -0.46875,-0.515626 -1.1875,-0.515626 -0.71875,0 -1.21875,0.515626 -0.484376,0.515624 -0.484376,1.34375 z"
     fill-rule="nonzero"
     id="path38" />
  <path
     fill="#000000"
     d="M 95.734055,349.45 H 94.68718 v -6.71874 q -0.390625,0.35938 -1.015625,0.73438 -0.609375,0.35936 -1.09375,0.53126 v -1.01564 q 0.875,-0.42186 1.53125,-1 0.671875,-0.59376 0.953125,-1.15626 h 0.671875 z"
     fill-rule="nonzero"
     id="path39" />
  <path
     fill="#000000"
     d="m 170.22374,348.4344 v 1.0156 h -5.6875 q 0,-0.375 0.125,-0.73436 0.21875,-0.57814 0.6875,-1.14064 0.48437,-0.5625 1.39062,-1.29686 1.40625,-1.15624 1.89063,-1.82814 0.5,-0.67186 0.5,-1.2656 0,-0.625 -0.45313,-1.0469 -0.45312,-0.4375 -1.17187,-0.4375 -0.76563,0 -1.21875,0.45314 -0.45313,0.45312 -0.46875,1.26562 l -1.07813,-0.10936 q 0.10938,-1.21876 0.82813,-1.84376 0.73437,-0.64064 1.96875,-0.64064 1.23437,0 1.95312,0.6875 0.71875,0.6875 0.71875,1.70314 0,0.51562 -0.21875,1.01562 -0.20312,0.48438 -0.70312,1.04688 -0.48438,0.54686 -1.60938,1.5 -0.95312,0.79686 -1.23437,1.09376 -0.26563,0.28124 -0.4375,0.5625 z"
     fill-rule="nonzero"
     id="path40" />
  <path
     fill="#000000"
     d="m 237.58844,347.1844 1.0625,-0.14064 q 0.17187,0.89064 0.60937,1.29688 0.4375,0.39062 1.0625,0.39062 0.75,0 1.26563,-0.51562 0.51562,-0.51564 0.51562,-1.28124 0,-0.71876 -0.48437,-1.1875 -0.46875,-0.4844 -1.20313,-0.4844 -0.29687,0 -0.75,0.125 l 0.125,-0.9375 q 0.10938,0.0156 0.17188,0.0156 0.67187,0 1.20312,-0.34374 0.54688,-0.3594 0.54688,-1.09376 0,-0.57814 -0.39063,-0.95314 -0.39062,-0.3906 -1.01562,-0.3906 -0.60938,0 -1.03125,0.3906 -0.40625,0.39064 -0.51563,1.15626 l -1.0625,-0.1875 q 0.1875,-1.04686 0.875,-1.625 0.6875,-0.59376 1.70313,-0.59376 0.70312,0 1.29687,0.3125 0.59375,0.2969 0.90625,0.8125 0.3125,0.51564 0.3125,1.1094 0,0.54686 -0.29687,1.0156 -0.29688,0.45314 -0.875,0.71876 0.75,0.17188 1.17187,0.73438 0.42188,0.54686 0.42188,1.39062 0,1.125 -0.82813,1.90624 -0.8125,0.78126 -2.0625,0.78126 -1.125,0 -1.875,-0.67186 -0.75,-0.6875 -0.85937,-1.75 z"
     fill-rule="nonzero"
     id="path41" />
  <path
     fill="#000000"
     d="m 313.875,349.45 v -2.0625 h -3.71875 v -0.96874 l 3.92187,-5.5625 h 0.85938 v 5.5625 h 1.15625 v 0.96874 h -1.15625 v 2.0625 z m 0,-3.03124 v -3.85936 l -2.6875,3.85936 z"
     fill-rule="nonzero"
     id="path42" />
  <path
     fill="#000000"
     d="m 383.41156,347.2 1.10938,-0.0937 q 0.125,0.8125 0.5625,1.21874 0.45312,0.40626 1.09376,0.40626 0.75,0 1.28124,-0.57812 0.53126,-0.57814 0.53126,-1.51564 0,-0.90624 -0.51564,-1.42186 -0.5,-0.53124 -1.32812,-0.53124 -0.5,0 -0.92188,0.23436 -0.40626,0.23438 -0.64062,0.59374 l -0.98438,-0.125 0.82814,-4.40624 h 4.28124 v 1 h -3.4375 l -0.45314,2.3125 q 0.76564,-0.54686 1.6094,-0.54686 1.125,0 1.8906,0.78124 0.78126,0.78126 0.78126,2.01562 0,1.15624 -0.67186,2.01564 -0.82814,1.03124 -2.25,1.03124 -1.1719,0 -1.9219,-0.65624 -0.73436,-0.65626 -0.84374,-1.7344 z"
     fill-rule="nonzero"
     id="path43" />
  <path
     fill="#000000"
     d="m 461.79187,342.96564 -1.04687,0.0781 q -0.14063,-0.625 -0.39063,-0.90626 -0.4375,-0.4531 -1.0625,-0.4531 -0.5,0 -0.89062,0.28124 -0.48438,0.375 -0.78125,1.07812 -0.28125,0.6875 -0.29688,1.96874 0.375,-0.5781 0.92188,-0.85936 0.5625,-0.28124 1.17187,-0.28124 1.04688,0 1.78125,0.78124 0.75,0.78126 0.75,2 0,0.8125 -0.35937,1.51562 -0.34375,0.6875 -0.95313,1.0625 -0.60937,0.35938 -1.375,0.35938 -1.32812,0 -2.15625,-0.96874 -0.82812,-0.96876 -0.82812,-3.1875 0,-2.5 0.92187,-3.625 0.79688,-0.9844 2.15625,-0.9844 1.01563,0 1.65625,0.57814 0.65625,0.5625 0.78125,1.5625 z m -4.29687,3.70312 q 0,0.54688 0.21875,1.04688 0.23437,0.48436 0.64062,0.75 0.42188,0.26562 0.89063,0.26562 0.65625,0 1.14062,-0.53126 0.48438,-0.54686 0.48438,-1.46874 0,-0.89062 -0.48438,-1.40626 -0.46875,-0.5156 -1.1875,-0.5156 -0.71875,0 -1.21875,0.5156 -0.48437,0.51564 -0.48437,1.34376 z"
     fill-rule="nonzero"
     id="path44" />
  <path
     fill="#000000"
     d="m 529.2972,341.98126 v -1.01562 h 5.5625 v 0.82812 q -0.8125,0.875 -1.625,2.32814 -0.7969,1.4375 -1.2344,2.96874 -0.3281,1.07812 -0.40624,2.35936 h -1.09376 q 0.0156,-1.0156 0.3906,-2.4531 0.39066,-1.4375 1.0938,-2.76564 0.7187,-1.32812 1.5312,-2.25 z"
     fill-rule="nonzero"
     id="path45" />
  <path
     fill="#ffffff"
     d="m 608.48352,0.225 h 588.99998 v 371 H 608.48352 Z"
     fill-rule="nonzero"
     id="path15-9" />
  <path
     stroke="#333333"
     stroke-width="1"
     stroke-linecap="butt"
     d="M 653.98352,332.725 H 1178.9835"
     fill-rule="nonzero"
     id="path16-9" />
  <path
     stroke="#cccccc"
     stroke-width="1"
     stroke-linecap="butt"
     d="M 653.98352,255.725 H 1178.9835"
     fill-rule="nonzero"
     id="path17-1" />
  <path
     stroke="#cccccc"
     stroke-width="1"
     stroke-linecap="butt"
     d="M 653.98352,179.725 H 1178.9835"
     fill-rule="nonzero"
     id="path18-7" />
  <path
     stroke="#cccccc"
     stroke-width="1"
     stroke-linecap="butt"
     d="M 653.98352,102.725 H 1178.9835"
     fill-rule="nonzero"
     id="path19-2" />
  <path
     stroke="#cccccc"
     stroke-width="1"
     stroke-linecap="butt"
     d="M 653.98352,25.725 H 1178.9835"
     fill-rule="nonzero"
     id="path20-3" />
  <path
     stroke="#000000"
     stroke-width="2"
     stroke-linecap="butt"
     stroke-opacity="0"
     clip-path="url(#id_0-9)"
     d="M 117,332 H 71 v 0 z"
     fill-rule="nonzero"
     id="path21-6"
     transform="translate(608.48352,0.225)" />
  <path
     fill="#4285f4"
     clip-path="url(#id_0-9)"
     d="M 117,332 H 71 v 0 z"
     fill-rule="nonzero"
     id="path22-5"
     transform="translate(608.48352,0.225)" />
  <path
     stroke="#000000"
     stroke-width="2"
     stroke-linecap="butt"
     stroke-opacity="0"
     clip-path="url(#id_0-9)"
     d="m 188,332 h -46 v 0 z"
     fill-rule="nonzero"
     id="path23-5"
     transform="translate(608.48352,0.225)" />
  <path
     fill="#4285f4"
     clip-path="url(#id_0-9)"
     d="m 188,332 h -46 v 0 z"
     fill-rule="nonzero"
     id="path24-8"
     transform="translate(608.48352,0.225)" />
  <path
     stroke="#000000"
     stroke-width="2"
     stroke-linecap="butt"
     stroke-opacity="0"
     clip-path="url(#id_0-9)"
     d="m 260,332 h -46 v -36 c 0,-1.10458 0.89543,-2 2,-2 h 42 c 1.10458,0 2,0.89542 2,2 z"
     fill-rule="nonzero"
     id="path25-1"
     transform="translate(608.48352,0.225)" />
  <path
     fill="#4285f4"
     clip-path="url(#id_0-9)"
     d="m 260,332 h -46 v -36 c 0,-1.10458 0.89543,-2 2,-2 h 42 c 1.10458,0 2,0.89542 2,2 z"
     fill-rule="nonzero"
     id="path26-4"
     transform="translate(608.48352,0.225)" />
  <path
     stroke="#000000"
     stroke-width="2"
     stroke-linecap="butt"
     stroke-opacity="0"
     clip-path="url(#id_0-9)"
     d="m 331,332 h -46 v -74 c 0,-1.10458 0.89542,-2 2,-2 h 42 c 1.10458,0 2,0.89542 2,2 z"
     fill-rule="nonzero"
     id="path27-7"
     transform="translate(608.48352,0.225)" />
  <path
     fill="#4285f4"
     clip-path="url(#id_0-9)"
     d="m 331,332 h -46 v -74 c 0,-1.10458 0.89542,-2 2,-2 h 42 c 1.10458,0 2,0.89542 2,2 z"
     fill-rule="nonzero"
     id="path28-1"
     transform="translate(608.48352,0.225)" />
  <path
     stroke="#000000"
     stroke-width="2"
     stroke-linecap="butt"
     stroke-opacity="0"
     clip-path="url(#id_0-9)"
     d="M 402,332 H 356 V 66 c 0,-1.10457 0.89542,-2 2,-2 h 42 c 1.10458,0 2,0.89543 2,2 z"
     fill-rule="nonzero"
     id="path29-3"
     transform="translate(608.48352,0.225)" />
  <path
     fill="#4285f4"
     clip-path="url(#id_0-9)"
     d="M 402,332 H 356 V 66 c 0,-1.10457 0.89542,-2 2,-2 h 42 c 1.10458,0 2,0.89543 2,2 z"
     fill-rule="nonzero"
     id="path30-8"
     transform="translate(608.48352,0.225)" />
  <path
     stroke="#000000"
     stroke-width="2"
     stroke-linecap="butt"
     stroke-opacity="0"
     clip-path="url(#id_0-9)"
     d="M 474,332 H 428 V 143 c 0,-1.10457 0.89542,-2 2,-2 h 42 c 1.10458,0 2,0.89543 2,2 z"
     fill-rule="nonzero"
     id="path31-4"
     transform="translate(608.48352,0.225)" />
  <path
     fill="#4285f4"
     clip-path="url(#id_0-9)"
     d="M 474,332 H 428 V 143 c 0,-1.10457 0.89542,-2 2,-2 h 42 c 1.10458,0 2,0.89543 2,2 z"
     fill-rule="nonzero"
     id="path32-8"
     transform="translate(608.48352,0.225)" />
  <path
     stroke="#000000"
     stroke-width="2"
     stroke-linecap="butt"
     stroke-opacity="0"
     clip-path="url(#id_0-9)"
     d="M 545,332 H 499 V 28 c 0,-1.10457 0.89542,-2 2,-2 h 42 c 1.10455,0 2,0.89543 2,2 z"
     fill-rule="nonzero"
     id="path33-0"
     transform="translate(608.48352,0.225)" />
  <path
     fill="#4285f4"
     clip-path="url(#id_0-9)"
     d="M 545,332 H 499 V 28 c 0,-1.10457 0.89542,-2 2,-2 h 42 c 1.10455,0 2,0.89543 2,2 z"
     fill-rule="nonzero"
     id="path34-4"
     transform="translate(608.48352,0.225)" />
  <path
     stroke="#ffffff"
     stroke-width="3"
     stroke-linejoin="round"
     stroke-linecap="round"
     d="m 705.04602,314.0344 q 0,1.90624 -0.65625,2.84374 -0.64063,0.92186 -2.03125,0.92186 -1.35938,0 -2.01563,-0.90624 -0.65625,-0.90626 -0.6875,-2.71876 v -1.4375 q 0,-1.8906 0.64063,-2.79686 0.65625,-0.92188 2.04687,-0.92188 1.375,0 2.03125,0.89064 0.65625,0.875 0.67188,2.71874 z m -1.09375,-1.4844 q 0,-1.375 -0.39063,-2 -0.375,-0.6406 -1.21875,-0.6406 -0.82812,0 -1.21875,0.6406 -0.375,0.625 -0.375,1.9219 v 1.73436 q 0,1.375 0.39063,2.04688 0.40625,0.65626 1.21875,0.65626 0.79687,0 1.1875,-0.625 0.39062,-0.625 0.40625,-1.95314 z"
     fill-rule="nonzero"
     id="path35-6" />
  <path
     fill="#4285f4"
     d="m 705.04602,314.0344 q 0,1.90624 -0.65625,2.84374 -0.64063,0.92186 -2.03125,0.92186 -1.35938,0 -2.01563,-0.90624 -0.65625,-0.90626 -0.6875,-2.71876 v -1.4375 q 0,-1.8906 0.64063,-2.79686 0.65625,-0.92188 2.04687,-0.92188 1.375,0 2.03125,0.89064 0.65625,0.875 0.67188,2.71874 z m -1.09375,-1.4844 q 0,-1.375 -0.39063,-2 -0.375,-0.6406 -1.21875,-0.6406 -0.82812,0 -1.21875,0.6406 -0.375,0.625 -0.375,1.9219 v 1.73436 q 0,1.375 0.39063,2.04688 0.40625,0.65626 1.21875,0.65626 0.79687,0 1.1875,-0.625 0.39062,-0.625 0.40625,-1.95314 z"
     fill-rule="nonzero"
     id="path36-0" />
  <path
     stroke="#ffffff"
     stroke-width="3"
     stroke-linejoin="round"
     stroke-linecap="round"
     d="m 776.04602,314.0344 q 0,1.90624 -0.65625,2.84374 -0.64063,0.92186 -2.03125,0.92186 -1.35938,0 -2.01562,-0.90624 -0.65626,-0.90626 -0.6875,-2.71876 v -1.4375 q 0,-1.8906 0.64062,-2.79686 0.65625,-0.92188 2.04688,-0.92188 1.375,0 2.03124,0.89064 0.65626,0.875 0.67188,2.71874 z m -1.09375,-1.4844 q 0,-1.375 -0.39063,-2 -0.375,-0.6406 -1.21874,-0.6406 -0.82813,0 -1.21876,0.6406 -0.375,0.625 -0.375,1.9219 v 1.73436 q 0,1.375 0.39063,2.04688 0.40625,0.65626 1.21875,0.65626 0.79688,0 1.1875,-0.625 0.39062,-0.625 0.40625,-1.95314 z"
     fill-rule="nonzero"
     id="path37-3" />
  <path
     fill="#4285f4"
     d="m 776.04602,314.0344 q 0,1.90624 -0.65625,2.84374 -0.64063,0.92186 -2.03125,0.92186 -1.35938,0 -2.01562,-0.90624 -0.65626,-0.90626 -0.6875,-2.71876 v -1.4375 q 0,-1.8906 0.64062,-2.79686 0.65625,-0.92188 2.04688,-0.92188 1.375,0 2.03124,0.89064 0.65626,0.875 0.67188,2.71874 z m -1.09375,-1.4844 q 0,-1.375 -0.39063,-2 -0.375,-0.6406 -1.21874,-0.6406 -0.82813,0 -1.21876,0.6406 -0.375,0.625 -0.375,1.9219 v 1.73436 q 0,1.375 0.39063,2.04688 0.40625,0.65626 1.21875,0.65626 0.79688,0 1.1875,-0.625 0.39062,-0.625 0.40625,-1.95314 z"
     fill-rule="nonzero"
     id="path38-2" />
  <path
     stroke="#4285f4"
     stroke-width="3"
     stroke-linejoin="round"
     stroke-linecap="round"
     d="m 846.24914,311.1125 h -1.07812 v -7.21874 l -2.1875,0.79688 v -0.98438 l 3.10938,-1.17186 h 0.15624 z"
     fill-rule="nonzero"
     id="path39-6" />
  <path
     fill="#ffffff"
     d="m 846.24914,311.1125 h -1.07812 v -7.21874 l -2.1875,0.79688 v -0.98438 l 3.10938,-1.17186 h 0.15624 z"
     fill-rule="nonzero"
     id="path40-9" />
  <path
     stroke="#4285f4"
     stroke-width="3"
     stroke-linejoin="round"
     stroke-linecap="round"
     d="m 919.2804,272.75 h -5.59376 v -0.78126 l 2.95313,-3.28124 q 0.65625,-0.75 0.90625,-1.20313 0.25,-0.46875 0.25,-0.96875 0,-0.67188 -0.40625,-1.09375 -0.39063,-0.4375 -1.07813,-0.4375 -0.79687,0 -1.25,0.46875 -0.45312,0.45312 -0.45312,1.28125 h -1.07812 q 0,-1.1875 0.75,-1.90625 0.76562,-0.73438 2.03124,-0.73438 1.20313,0 1.89063,0.625 0.6875,0.625 0.6875,1.67188 0,1.25 -1.60937,3 l -2.28126,2.46875 h 4.28126 z"
     fill-rule="nonzero"
     id="path41-4" />
  <path
     fill="#ffffff"
     d="m 919.2804,272.75 h -5.59376 v -0.78126 l 2.95313,-3.28124 q 0.65625,-0.75 0.90625,-1.20313 0.25,-0.46875 0.25,-0.96875 0,-0.67188 -0.40625,-1.09375 -0.39063,-0.4375 -1.07813,-0.4375 -0.79687,0 -1.25,0.46875 -0.45312,0.45312 -0.45312,1.28125 h -1.07812 q 0,-1.1875 0.75,-1.90625 0.76562,-0.73438 2.03124,-0.73438 1.20313,0 1.89063,0.625 0.6875,0.625 0.6875,1.67188 0,1.25 -1.60937,3 l -2.28126,2.46875 h 4.28126 z"
     fill-rule="nonzero"
     id="path42-1" />
  <path
     stroke="#4285f4"
     stroke-width="3"
     stroke-linejoin="round"
     stroke-linecap="round"
     d="m 990.20227,73.01563 -3.53125,7.92187 h -1.14062 l 3.51562,-7.64062 h -4.60938 v -0.89063 h 5.76563 z"
     fill-rule="nonzero"
     id="path43-3" />
  <path
     fill="#ffffff"
     d="m 990.20227,73.01563 -3.53125,7.92187 h -1.14062 l 3.51562,-7.64062 h -4.60938 v -0.89063 h 5.76563 z"
     fill-rule="nonzero"
     id="path44-7" />
  <path
     stroke="#4285f4"
     stroke-width="3"
     stroke-linejoin="round"
     stroke-linecap="round"
     d="m 1057.1866,153.38125 0.4375,-4.25 h 4.375 v 1 h -3.4531 l -0.2656,2.32813 q 0.6406,-0.375 1.4375,-0.375 1.1562,0 1.8437,0.78124 0.6875,0.76563 0.6875,2.07813 0,1.3125 -0.7187,2.07813 -0.7031,0.76562 -1.9844,0.76562 -1.125,0 -1.8437,-0.625 -0.7188,-0.64062 -0.8125,-1.75 h 1.0156 q 0.1094,0.73438 0.5312,1.10938 0.4219,0.375 1.1094,0.375 0.75,0 1.1875,-0.51563 0.4375,-0.51563 0.4375,-1.42187 0,-0.85938 -0.4687,-1.375 -0.4688,-0.51563 -1.25,-0.51563 -0.7032,0 -1.1094,0.29687 l -0.2813,0.23438 z"
     fill-rule="nonzero"
     id="path45-8" />
  <path
     fill="#ffffff"
     d="m 1057.1866,153.38125 0.4375,-4.25 h 4.375 v 1 h -3.4531 l -0.2656,2.32813 q 0.6406,-0.375 1.4375,-0.375 1.1562,0 1.8437,0.78124 0.6875,0.76563 0.6875,2.07813 0,1.3125 -0.7187,2.07813 -0.7031,0.76562 -1.9844,0.76562 -1.125,0 -1.8437,-0.625 -0.7188,-0.64062 -0.8125,-1.75 h 1.0156 q 0.1094,0.73438 0.5312,1.10938 0.4219,0.375 1.1094,0.375 0.75,0 1.1875,-0.51563 0.4375,-0.51563 0.4375,-1.42187 0,-0.85938 -0.4687,-1.375 -0.4688,-0.51563 -1.25,-0.51563 -0.7032,0 -1.1094,0.29687 l -0.2813,0.23438 z"
     fill-rule="nonzero"
     id="path46" />
  <path
     stroke="#4285f4"
     stroke-width="3"
     stroke-linejoin="round"
     stroke-linecap="round"
     d="m 1132.8741,36.2625 q 0,0.640623 -0.3437,1.140623 -0.3438,0.5 -0.9063,0.78125 0.6563,0.28125 1.0469,0.84375 0.3906,0.546877 0.3906,1.25 0,1.09375 -0.75,1.765627 -0.7343,0.65625 -1.9531,0.65625 -1.2344,0 -1.9844,-0.65625 -0.7343,-0.671877 -0.7343,-1.765627 0,-0.703123 0.375,-1.25 0.375,-0.5625 1.0468,-0.84375 -0.5625,-0.28125 -0.8906,-0.78125 -0.3281,-0.5 -0.3281,-1.140623 0,-1.078127 0.6875,-1.703127 0.6875,-0.640623 1.8281,-0.640623 1.125,0 1.8125,0.640623 0.7031,0.625 0.7031,1.703127 z m -0.8906,3.984373 q 0,-0.71875 -0.4531,-1.15625 -0.4531,-0.453123 -1.1875,-0.453123 -0.7344,0 -1.1875,0.453123 -0.4375,0.4375 -0.4375,1.171877 0,0.71875 0.4375,1.140623 0.4375,0.40625 1.2031,0.40625 0.75,0 1.1875,-0.421873 0.4375,-0.421877 0.4375,-1.140627 z m -1.625,-5.4375 q -0.6406,0 -1.0469,0.40625 -0.3906,0.390627 -0.3906,1.078127 0,0.640623 0.3906,1.046873 0.3907,0.40625 1.0313,0.40625 0.6562,0 1.0469,-0.40625 0.3906,-0.40625 0.3906,-1.046873 0,-0.65625 -0.4063,-1.0625 -0.4062,-0.421877 -1.0156,-0.421877 z"
     fill-rule="nonzero"
     id="path47" />
  <path
     fill="#ffffff"
     d="m 1132.8741,36.2625 q 0,0.640623 -0.3437,1.140623 -0.3438,0.5 -0.9063,0.78125 0.6563,0.28125 1.0469,0.84375 0.3906,0.546877 0.3906,1.25 0,1.09375 -0.75,1.765627 -0.7343,0.65625 -1.9531,0.65625 -1.2344,0 -1.9844,-0.65625 -0.7343,-0.671877 -0.7343,-1.765627 0,-0.703123 0.375,-1.25 0.375,-0.5625 1.0468,-0.84375 -0.5625,-0.28125 -0.8906,-0.78125 -0.3281,-0.5 -0.3281,-1.140623 0,-1.078127 0.6875,-1.703127 0.6875,-0.640623 1.8281,-0.640623 1.125,0 1.8125,0.640623 0.7031,0.625 0.7031,1.703127 z m -0.8906,3.984373 q 0,-0.71875 -0.4531,-1.15625 -0.4531,-0.453123 -1.1875,-0.453123 -0.7344,0 -1.1875,0.453123 -0.4375,0.4375 -0.4375,1.171877 0,0.71875 0.4375,1.140623 0.4375,0.40625 1.2031,0.40625 0.75,0 1.1875,-0.421873 0.4375,-0.421877 0.4375,-1.140627 z m -1.625,-5.4375 q -0.6406,0 -1.0469,0.40625 -0.3906,0.390627 -0.3906,1.078127 0,0.640623 0.3906,1.046873 0.3907,0.40625 1.0313,0.40625 0.6562,0 1.0469,-0.40625 0.3906,-0.40625 0.3906,-1.046873 0,-0.65625 -0.4063,-1.0625 -0.4062,-0.421877 -1.0156,-0.421877 z"
     fill-rule="nonzero"
     id="path48" />
  <path
     fill="#000000"
     d="m 641.53352,332.44064 q 0,-1.53124 0.3125,-2.45314 0.3125,-0.9375 0.92187,-1.4375 0.625,-0.5 1.5625,-0.5 0.6875,0 1.20313,0.28126 0.53125,0.28124 0.875,0.8125 0.34375,0.51564 0.53125,1.26564 0.1875,0.75 0.1875,2.03124 0,1.51562 -0.3125,2.4375 -0.29688,0.92186 -0.92188,1.4375 -0.60937,0.5 -1.5625,0.5 -1.23437,0 -1.95312,-0.89064 -0.84375,-1.0625 -0.84375,-3.48436 z m 1.07812,0 q 0,2.10936 0.5,2.8125 0.5,0.70312 1.21875,0.70312 0.73438,0 1.21875,-0.70312 0.5,-0.70314 0.5,-2.8125 0,-2.125 -0.5,-2.8125 -0.48437,-0.70314 -1.23437,-0.70314 -0.71875,0 -1.15625,0.6094 -0.54688,0.78124 -0.54688,2.90624 z"
     fill-rule="nonzero"
     id="path49" />
  <path
     fill="#000000"
     d="M 647.08039,258.93438 V 259.95 h -5.6875 q 0,-0.375 0.125,-0.73437 0.21875,-0.57813 0.6875,-1.14063 0.48438,-0.5625 1.39063,-1.29687 1.40625,-1.15625 1.89062,-1.82813 0.5,-0.67187 0.5,-1.26562 0,-0.625 -0.45312,-1.04688 -0.45313,-0.4375 -1.17188,-0.4375 -0.76562,0 -1.21875,0.45313 -0.45312,0.45313 -0.46875,1.26563 l -1.07812,-0.10938 q 0.10937,-1.21875 0.82812,-1.84375 0.73438,-0.64063 1.96875,-0.64063 1.23438,0 1.95313,0.6875 0.71875,0.6875 0.71875,1.70313 0,0.51563 -0.21875,1.01563 -0.20313,0.48437 -0.70313,1.04687 -0.48437,0.54687 -1.60937,1.5 -0.95313,0.79687 -1.23438,1.09375 -0.26562,0.28125 -0.4375,0.5625 z"
     fill-rule="nonzero"
     id="path50" />
  <path
     fill="#000000"
     d="m 644.90852,183.225 v -2.0625 h -3.71875 v -0.96875 l 3.92187,-5.5625 h 0.85938 v 5.5625 h 1.15625 v 0.96875 h -1.15625 v 2.0625 z m 0,-3.03125 v -3.85937 l -2.6875,3.85937 z"
     fill-rule="nonzero"
     id="path51" />
  <path
     fill="#000000"
     d="m 647.00227,100.01563 -1.04688,0.0781 q -0.14062,-0.625 -0.39062,-0.90625 -0.4375,-0.45312 -1.0625,-0.45312 -0.5,0 -0.89063,0.28125 -0.48437,0.375 -0.78125,1.07812 -0.28125,0.6875 -0.29687,1.96875 0.375,-0.57812 0.92187,-0.85937 0.5625,-0.28125 1.17188,-0.28125 1.04687,0 1.78125,0.78125 0.75,0.78125 0.75,2 0,0.8125 -0.35938,1.51562 -0.34375,0.6875 -0.95312,1.0625 -0.60938,0.35938 -1.375,0.35938 -1.32813,0 -2.15625,-0.96875 -0.82813,-0.96875 -0.82813,-3.1875 0,-2.5 0.92188,-3.625 0.79687,-0.98438 2.15625,-0.98438 1.01562,0 1.65625,0.57813 0.65625,0.5625 0.78125,1.5625 z m -4.29688,3.70312 q 0,0.54688 0.21875,1.04688 0.23438,0.48437 0.64063,0.75 0.42187,0.26562 0.89062,0.26562 0.65625,0 1.14063,-0.53125 0.48437,-0.54687 0.48437,-1.46875 0,-0.89062 -0.48437,-1.40625 -0.46875,-0.51562 -1.1875,-0.51562 -0.71875,0 -1.21875,0.51562 -0.48438,0.51563 -0.48438,1.34375 z"
     fill-rule="nonzero"
     id="path52" />
  <path
     fill="#000000"
     d="m 643.15852,25.11875 q -0.65625,-0.25 -0.98438,-0.6875 -0.3125,-0.453126 -0.3125,-1.0625 0,-0.9375 0.67188,-1.578126 0.6875,-0.640624 1.79687,-0.640624 1.125,0 1.8125,0.65625 0.6875,0.65625 0.6875,1.59375 0,0.59375 -0.3125,1.03125 -0.3125,0.4375 -0.95312,0.6875 0.79687,0.25 1.20312,0.828124 0.40625,0.578126 0.40625,1.375 0,1.09375 -0.78125,1.84375 -0.76562,0.75 -2.04687,0.75 -1.26563,0 -2.04688,-0.75 -0.78125,-0.75 -0.78125,-1.875 0,-0.84375 0.42188,-1.40625 0.4375,-0.5625 1.21875,-0.765624 z m -0.21875,-1.796876 q 0,0.609376 0.39062,1 0.40625,0.390626 1.03125,0.390626 0.60938,0 1,-0.375 0.39063,-0.390626 0.39063,-0.953126 0,-0.578124 -0.40625,-0.96875 -0.40625,-0.40625 -1,-0.40625 -0.60938,0 -1.01563,0.390626 -0.39062,0.390624 -0.39062,0.921874 z m -0.32813,3.96875 q 0,0.453126 0.20313,0.875 0.21875,0.421876 0.64062,0.65625 0.42188,0.234376 0.90625,0.234376 0.75,0 1.23438,-0.484376 0.5,-0.484374 0.5,-1.234374 0,-0.765626 -0.5,-1.265626 -0.5,-0.5 -1.26563,-0.5 -0.75,0 -1.23437,0.5 -0.48438,0.484376 -0.48438,1.21875 z"
     fill-rule="nonzero"
     id="path53" />
  <path
     fill="#000000"
     d="m 703.20737,349.675 h -1.04687 v -6.71874 q -0.39063,0.35938 -1.01563,0.73438 -0.60937,0.35936 -1.09375,0.53126 v -1.01564 q 0.875,-0.42186 1.53125,-1 0.67188,-0.59376 0.95313,-1.15626 h 0.67187 z"
     fill-rule="nonzero"
     id="path54" />
  <path
     fill="#000000"
     d="m 776.20047,348.6594 v 1.0156 h -5.6875 q 0,-0.375 0.125,-0.73436 0.21875,-0.57814 0.6875,-1.14064 0.48437,-0.5625 1.39062,-1.29686 1.40625,-1.15624 1.89063,-1.82814 0.5,-0.67186 0.5,-1.2656 0,-0.625 -0.45313,-1.0469 -0.45312,-0.4375 -1.17187,-0.4375 -0.76563,0 -1.21875,0.45314 -0.45313,0.45312 -0.46875,1.26562 l -1.07813,-0.10936 q 0.10938,-1.21876 0.82813,-1.84376 0.73437,-0.64064 1.96875,-0.64064 1.23437,0 1.95312,0.6875 0.71875,0.6875 0.71875,1.70314 0,0.51562 -0.21875,1.01562 -0.20312,0.48438 -0.70312,1.04688 -0.48438,0.54686 -1.60938,1.5 -0.95312,0.79686 -1.23437,1.09376 -0.26563,0.28124 -0.4375,0.5625 z"
     fill-rule="nonzero"
     id="path55" />
  <path
     fill="#000000"
     d="m 842.06856,347.4094 1.0625,-0.14064 q 0.17187,0.89064 0.60937,1.29688 0.4375,0.39062 1.0625,0.39062 0.75,0 1.26563,-0.51562 0.51562,-0.51564 0.51562,-1.28124 0,-0.71876 -0.48437,-1.1875 -0.46875,-0.4844 -1.20313,-0.4844 -0.29687,0 -0.75,0.125 l 0.125,-0.9375 q 0.10938,0.0156 0.17188,0.0156 0.67187,0 1.20312,-0.34374 0.54688,-0.3594 0.54688,-1.09376 0,-0.57814 -0.39063,-0.95314 -0.39062,-0.3906 -1.01562,-0.3906 -0.60938,0 -1.03125,0.3906 -0.40625,0.39064 -0.51563,1.15626 l -1.0625,-0.1875 q 0.1875,-1.04686 0.875,-1.625 0.6875,-0.59376 1.70313,-0.59376 0.70312,0 1.29687,0.3125 0.59375,0.2969 0.90625,0.8125 0.3125,0.51564 0.3125,1.1094 0,0.54686 -0.29687,1.0156 -0.29688,0.45314 -0.875,0.71876 0.75,0.17188 1.17187,0.73438 0.42188,0.54686 0.42188,1.39062 0,1.125 -0.82813,1.90624 -0.8125,0.78126 -2.0625,0.78126 -1.125,0 -1.875,-0.67186 -0.75,-0.6875 -0.85937,-1.75 z"
     fill-rule="nonzero"
     id="path56" />
  <path
     fill="#000000"
     d="m 916.85852,349.675 v -2.0625 h -3.71875 v -0.96874 l 3.92187,-5.5625 h 0.85938 v 5.5625 h 1.15625 v 0.96874 h -1.15625 v 2.0625 z m 0,-3.03124 v -3.85936 l -2.6875,3.85936 z"
     fill-rule="nonzero"
     id="path57" />
  <path
     fill="#000000"
     d="m 984.8985,347.425 1.10937,-0.0937 q 0.125,0.8125 0.5625,1.21874 0.45313,0.40626 1.09375,0.40626 0.75,0 1.28125,-0.57812 0.53125,-0.57814 0.53125,-1.51564 0,-0.90624 -0.51562,-1.42186 -0.5,-0.53124 -1.32813,-0.53124 -0.5,0 -0.92187,0.23436 -0.40625,0.23438 -0.64063,0.59374 l -0.98437,-0.125 0.82812,-4.40624 h 4.28125 v 1 h -3.4375 l -0.45312,2.3125 q 0.76562,-0.54686 1.60937,-0.54686 1.125,0 1.89063,0.78124 0.78125,0.78126 0.78125,2.01562 0,1.15624 -0.67188,2.01564 -0.82812,1.03124 -2.25,1.03124 -1.17187,0 -1.92187,-0.65624 -0.73438,-0.65626 -0.84375,-1.7344 z"
     fill-rule="nonzero"
     id="path58" />
  <path
     fill="#000000"
     d="m 1061.7822,343.19064 -1.0469,0.0781 q -0.1406,-0.625 -0.3906,-0.90626 -0.4375,-0.4531 -1.0625,-0.4531 -0.5,0 -0.8906,0.28124 -0.4844,0.375 -0.7813,1.07812 -0.2812,0.6875 -0.2969,1.96874 0.375,-0.5781 0.9219,-0.85936 0.5625,-0.28124 1.1719,-0.28124 1.0469,0 1.7812,0.78124 0.75,0.78126 0.75,2 0,0.8125 -0.3593,1.51562 -0.3438,0.6875 -0.9532,1.0625 -0.6093,0.35938 -1.375,0.35938 -1.3281,0 -2.1562,-0.96874 -0.8281,-0.96876 -0.8281,-3.1875 0,-2.5 0.9218,-3.625 0.7969,-0.9844 2.1563,-0.9844 1.0156,0 1.6562,0.57814 0.6563,0.5625 0.7813,1.5625 z m -4.2969,3.70312 q 0,0.54688 0.2188,1.04688 0.2343,0.48436 0.6406,0.75 0.4219,0.26562 0.8906,0.26562 0.6563,0 1.1406,-0.53126 0.4844,-0.54686 0.4844,-1.46874 0,-0.89062 -0.4844,-1.40626 -0.4687,-0.5156 -1.1875,-0.5156 -0.7187,0 -1.2187,0.5156 -0.4844,0.51564 -0.4844,1.34376 z"
     fill-rule="nonzero"
     id="path59" />
  <path
     fill="#000000"
     d="m 1127.7909,342.20626 v -1.01562 h 5.5625 v 0.82812 q -0.8125,0.875 -1.625,2.32814 -0.7969,1.4375 -1.2344,2.96874 -0.3281,1.07812 -0.4062,2.35936 h -1.0938 q 0.016,-1.0156 0.3906,-2.4531 0.3907,-1.4375 1.0938,-2.76564 0.7187,-1.32812 1.5312,-2.25 z"
     fill-rule="nonzero"
     id="path60" />
  <text
     xml:space="preserve"
     style="font-style:normal;font-variant:normal;font-weight:normal;font-stretch:normal;font-size:14.6667px;font-family:Arial;-inkscape-font-specification:Arial;text-align:center;text-anchor:middle;fill:#000000;fill-opacity:1;stroke-width:1.32332;stroke-linecap:round;stroke-opacity:0.626316"
     x="97.588242"
     y="362.76913"
     id="text51-5"><tspan
       sodipodi:role="line"
       id="tspan51-55"
       x="97.588242"
       y="362.76913"
       style="font-size:14.6667px;stroke-width:1.32332">Jamais</tspan></text>
  <text
     xml:space="preserve"
     style="font-style:normal;font-variant:normal;font-weight:normal;font-stretch:normal;font-size:14.6667px;font-family:Arial;-inkscape-font-specification:Arial;text-align:center;text-anchor:middle;fill:#000000;fill-opacity:1;stroke-width:1.32332;stroke-linecap:round;stroke-opacity:0.626316"
     x="534.0871"
     y="363.64047"
     id="text51-9-8"><tspan
       sodipodi:role="line"
       id="tspan51-5-2"
       x="534.0871"
       y="363.64047"
       style="font-size:14.6667px;stroke-width:1.32332">Toujours</tspan></text>
  <text
     xml:space="preserve"
     style="font-style:normal;font-variant:normal;font-weight:normal;font-stretch:normal;font-size:14.6667px;font-family:Arial;-inkscape-font-specification:Arial;text-align:center;text-anchor:middle;fill:#000000;fill-opacity:1;stroke-width:1.32332;stroke-linecap:round;stroke-opacity:0.626316"
     x="696.08191"
     y="362.99414"
     id="text51-5-8"><tspan
       sodipodi:role="line"
       id="tspan51-55-3"
       x="696.08191"
       y="362.99414"
       style="font-size:14.6667px;stroke-width:1.32332">Jamais</tspan></text>
  <text
     xml:space="preserve"
     style="font-style:normal;font-variant:normal;font-weight:normal;font-stretch:normal;font-size:14.6667px;font-family:Arial;-inkscape-font-specification:Arial;text-align:center;text-anchor:middle;fill:#000000;fill-opacity:1;stroke-width:1.32332;stroke-linecap:round;stroke-opacity:0.626316"
     x="1132.5808"
     y="363.86548"
     id="text51-9-8-8"><tspan
       sodipodi:role="line"
       id="tspan51-5-2-1"
       x="1132.5808"
       y="363.86548"
       style="font-size:14.6667px;stroke-width:1.32332">Toujours</tspan></text>
</svg>
