<?xml version="1.0" encoding="UTF-8" standalone="no"?>
<!-- Created with Inkscape (http://www.inkscape.org/) -->

<svg
   width="400mm"
   height="190mm"
   viewBox="0 0 400 190"
   version="1.1"
   id="svg1"
   xml:space="preserve"
   inkscape:version="1.3 (0e150ed, 2023-07-21)"
   sodipodi:docname="dsp&amp;mapping.svg"
   xmlns:inkscape="http://www.inkscape.org/namespaces/inkscape"
   xmlns:sodipodi="http://sodipodi.sourceforge.net/DTD/sodipodi-0.dtd"
   xmlns="http://www.w3.org/2000/svg"
   xmlns:svg="http://www.w3.org/2000/svg"><sodipodi:namedview
     id="namedview1"
     pagecolor="#ffffff"
     bordercolor="#000000"
     borderopacity="0.25"
     inkscape:showpageshadow="2"
     inkscape:pageopacity="0.0"
     inkscape:pagecheckerboard="0"
     inkscape:deskcolor="#d1d1d1"
     inkscape:document-units="mm"
     inkscape:zoom="0.54406786"
     inkscape:cx="753.58247"
     inkscape:cy="463.17752"
     inkscape:window-width="1728"
     inkscape:window-height="1057"
     inkscape:window-x="22"
     inkscape:window-y="215"
     inkscape:window-maximized="0"
     inkscape:current-layer="layer1" /><defs
     id="defs1" /><g
     inkscape:label="Layer 1"
     inkscape:groupmode="layer"
     id="layer1"><path
       style="fill:none;stroke:#ec9797;stroke-width:1.8;stroke-linecap:round;stroke-dasharray:none"
       d="M 89.175281,33.652073 C 121.16221,46.971279 54.972647,91.065611 77.605658,107.22474 103.77789,124.54795 117.31998,95.456347 172.36639,62.300656 c 31.28969,-14.779704 39.20533,62.337814 3.85654,114.043234 -12.55608,14.58129 -30.14816,-6.08943 -45.72757,-12.6715 -20.24628,-6.54091 -38.183509,23.51804 -62.255589,22.67005 C 31.838019,182.89452 29.391701,149.12924 30.225287,112.43548 2.0253806,107.00991 2.9784911,95.259767 40.307553,74.972074 3.7069675,59.758311 54.681597,19.888659 89.175281,33.652073 Z"
       id="path2"
       sodipodi:nodetypes="ccccccccc" /><path
       style="fill:none;stroke:#ec9797;stroke-width:1.8;stroke-linecap:round;stroke-dasharray:none"
       d="m 134.95172,122.28718 c 10.47506,-9.58123 20.95013,-6.91135 31.42519,-0.75724 9.73735,6.84096 5.13022,14.07988 -0.37862,20.06669 -14.36588,14.35655 -24.3431,4.6103 -31.80381,-1.51447 -7.24831,-7.43561 -3.88748,-13.29119 0.75724,-17.79498 z"
       id="path3"
       sodipodi:nodetypes="ccccc" /><path
       style="fill:none;stroke:#ec9797;stroke-width:1.8;stroke-linecap:round;stroke-dasharray:none"
       d="m 119.80564,31.458741 c 15.57078,-6.254943 21.49171,-1.341539 24.63992,2.95614 6.73708,8.137577 0.91574,16.133475 -10.24275,25.27727 -9.01412,5.980524 -18.20533,6.189144 -23.55901,-5.048354 -3.38686,-8.573538 -4.26963,-16.653437 9.16184,-23.185056 z"
       id="path4"
       sodipodi:nodetypes="ccccc" /><text
       xml:space="preserve"
       style="font-style:italic;font-variant:normal;font-weight:500;font-stretch:normal;font-size:22.5778px;font-family:Futura;-inkscape-font-specification:'Futura Medium Italic';text-align:center;text-anchor:middle;fill:#ec9797;fill-opacity:1;stroke:none;stroke-width:1.8;stroke-linecap:round;stroke-dasharray:none"
       x="104.44328"
       y="21.439758"
       id="text4"><tspan
         sodipodi:role="line"
         id="tspan4"
         style="font-style:italic;font-variant:normal;font-weight:500;font-stretch:normal;font-size:22.5778px;font-family:Futura;-inkscape-font-specification:'Futura Medium Italic';fill:#ec9797;fill-opacity:1;stroke:none;stroke-width:1.8"
         x="104.44328"
         y="21.439758">DSP</tspan></text><path
       style="fill:none;stroke:#ec9797;stroke-width:1.8;stroke-miterlimit:3.6;stroke-dasharray:none;stroke-opacity:1"
       d="m 55.343617,51.408073 6.272276,6.272276"
       id="path1" /><path
       style="fill:none;stroke:#ec9797;stroke-width:1.8;stroke-miterlimit:3.6;stroke-dasharray:none;stroke-opacity:1"
       d="m 61.615893,51.408073 -6.272276,6.272276"
       id="path5" /><text
       xml:space="preserve"
       style="font-style:italic;font-weight:500;font-size:7.76111px;font-family:Futura;-inkscape-font-specification:'Futura Medium Italic';text-align:center;text-anchor:middle;fill:#ec9797;fill-opacity:1;stroke:none;stroke-width:1.8;stroke-miterlimit:3.6;stroke-dasharray:none;stroke-opacity:1"
       x="59.158096"
       y="65.230316"
       id="text5"><tspan
         sodipodi:role="line"
         id="tspan5"
         style="font-size:7.76111px;fill:#ec9797;fill-opacity:1;stroke:none;stroke-width:1.8"
         x="59.158096"
         y="65.230316">preset 1</tspan></text><path
       style="fill:none;stroke:#ec9797;stroke-width:1.8;stroke-miterlimit:3.6;stroke-dasharray:none;stroke-opacity:1"
       d="m 110.74377,138.51671 -6.27228,6.27228"
       id="path5-6" /><text
       xml:space="preserve"
       style="font-style:italic;font-weight:500;font-size:7.76111px;font-family:Futura;-inkscape-font-specification:'Futura Medium Italic';text-align:center;text-anchor:middle;fill:#ec9797;fill-opacity:1;stroke:none;stroke-width:1.8;stroke-miterlimit:3.6;stroke-dasharray:none;stroke-opacity:1"
       x="108.28597"
       y="152.33896"
       id="text5-0"><tspan
         sodipodi:role="line"
         id="tspan5-3"
         style="font-size:7.76111px;fill:#ec9797;fill-opacity:1;stroke:none;stroke-width:1.8"
         x="108.28597"
         y="152.33896">preset 2</tspan></text><path
       style="fill:none;stroke:#ec9797;stroke-width:1.8;stroke-miterlimit:3.6;stroke-dasharray:none;stroke-opacity:1"
       d="m 104.47149,138.51671 6.27228,6.27228"
       id="path6" /><text
       xml:space="preserve"
       style="font-style:italic;font-variant:normal;font-weight:500;font-stretch:normal;font-size:22.5778px;font-family:Futura;-inkscape-font-specification:'Futura Medium Italic';text-align:center;text-anchor:middle;fill:#8fd4a6;fill-opacity:1;stroke:none;stroke-width:2.07085;stroke-linecap:round;stroke-dasharray:none;stroke-opacity:1"
       x="303.33099"
       y="22.730621"
       id="text1"><tspan
         sodipodi:role="line"
         id="tspan1"
         style="font-size:22.5778px;fill:#8fd4a6;fill-opacity:1;stroke:none;stroke-width:2.07085"
         x="303.33099"
         y="22.730621">Mapping</tspan></text><g
       id="path1-5"
       transform="matrix(1.2808857,0,0,1.2808857,170.88404,-22.208957)"><path
         style="color:#000000;fill:#8fd4a6;stroke-linecap:round;stroke-miterlimit:3.6;-inkscape-stroke:none"
         d="M 33.284606,48.433602 72.511468,81.275576"
         id="path9" /><path
         style="color:#000000;fill:#8fd4a6;stroke-linecap:round;stroke-miterlimit:3.6;-inkscape-stroke:none"
         d="m 33.197266,47.4375 a 1,1 0 0 0 -0.679688,0.353516 1,1 0 0 0 0.125,1.410156 l 39.226563,32.841797 a 1,1 0 0 0 1.408203,-0.125 1,1 0 0 0 -0.123047,-1.408203 L 33.925781,47.666016 A 1,1 0 0 0 33.197266,47.4375 Z"
         id="path10" /><g
         id="g7"><path
           d="m 75.974597,76.678692 4.008063,9.218877 a 1.4,1.4 0 0 1 -1.607689,1.920244 l -9.77994,-2.324876 a 1.7304952,1.7304952 0 0 1 -0.926637,-2.794465 l 5.392353,-6.440694 a 1.7304952,1.7304952 0 0 1 2.91385,0.420914 z"
           style="color:#000000;fill:#8fd4a6;fill-rule:evenodd;-inkscape-stroke:none"
           id="path7" /></g></g><path
       style="fill:#8fd4a6;fill-opacity:1;stroke:#8fd4a6;stroke-width:2.56177;stroke-linecap:round;stroke-miterlimit:3.6;stroke-dasharray:none;stroke-opacity:1"
       id="path2-7"
       sodipodi:type="arc"
       sodipodi:cx="287.78888"
       sodipodi:cy="78.936623"
       sodipodi:rx="2.4565709"
       sodipodi:ry="2.6135411"
       sodipodi:start="1.8830885"
       sodipodi:end="1.8441794"
       sodipodi:open="true"
       sodipodi:arc-type="arc"
       d="m 287.03412,81.423752 a 2.4565709,2.6135411 0 0 1 -1.59022,-3.265885 2.4565709,2.6135411 0 0 1 3.05412,-1.723523 2.4565709,2.6135411 0 0 1 1.64964,3.232354 2.4565709,2.6135411 0 0 1 -3.02203,1.786407" /><path
       style="fill:#8fd4a6;fill-opacity:1;stroke:#8fd4a6;stroke-width:2.56177;stroke-linecap:round;stroke-miterlimit:3.6;stroke-dasharray:none;stroke-opacity:1"
       id="path3-6"
       sodipodi:type="arc"
       sodipodi:cx="379.97601"
       sodipodi:cy="40.985973"
       sodipodi:rx="2.4565709"
       sodipodi:ry="2.6135411"
       sodipodi:start="1.8830885"
       sodipodi:end="1.8441794"
       sodipodi:open="true"
       sodipodi:arc-type="arc"
       d="m 379.22125,43.473102 a 2.4565709,2.6135411 0 0 1 -1.59022,-3.265884 2.4565709,2.6135411 0 0 1 3.05412,-1.723524 2.4565709,2.6135411 0 0 1 1.64964,3.232355 2.4565709,2.6135411 0 0 1 -3.02203,1.786406" /><g
       id="path4-2"
       transform="matrix(1.2808857,0,0,1.2808857,156.08097,-18.198534)"><path
         style="color:#000000;fill:#8fd4a6;stroke-miterlimit:3.6;stroke-dasharray:2.4, 1.2;-inkscape-stroke:none"
         d="M 107.54071,73.969786 168.34514,48.668589"
         id="path14" /><path
         style="color:#000000;fill:#8fd4a6;stroke-miterlimit:3.6;stroke-dasharray:2.4, 1.2;-inkscape-stroke:none"
         d="m 168.11523,48.115234 -0.97851,0.40625 0.46094,1.107422 0.97851,-0.40625 z m -2.08593,0.867188 -2.21485,0.921875 0.46094,1.107422 2.21484,-0.921875 z m -3.32422,1.382812 -2.21485,0.921875 0.46094,1.107422 2.21485,-0.921875 z m -3.32227,1.382813 -2.21679,0.921875 0.46093,1.107422 2.2168,-0.921875 z m -3.32422,1.382812 -2.21679,0.921875 0.46093,1.109375 2.2168,-0.921875 z m -3.32422,1.382813 -2.21484,0.921875 0.46094,1.109375 2.21484,-0.921875 z m -3.32421,1.382812 -2.21485,0.923828 0.46094,1.107422 2.21484,-0.921875 z m -3.32227,1.384766 -2.2168,0.921875 0.46094,1.107422 2.2168,-0.921875 z m -3.32422,1.382812 -2.2168,0.921875 0.46094,1.107422 2.2168,-0.921875 z m -3.32422,1.382813 -2.21484,0.921875 0.46094,1.107422 2.21484,-0.921875 z m -3.32422,1.382812 -2.21484,0.921875 0.46094,1.107422 2.21484,-0.921875 z m -3.32226,1.382813 -2.2168,0.921875 0.46094,1.107422 2.2168,-0.921875 z m -3.32422,1.382812 -2.2168,0.921875 0.46094,1.107422 2.2168,-0.921875 z m -3.32422,1.382813 -2.21484,0.921875 0.46094,1.109375 2.21484,-0.921875 z m -3.32422,1.382812 -2.21484,0.921875 0.46094,1.109375 2.21484,-0.921875 z m -3.32226,1.382813 -2.2168,0.923828 0.46094,1.107422 2.21679,-0.921875 z m -3.32422,1.384766 -2.2168,0.921875 0.46094,1.107421 2.2168,-0.921875 z m -3.32422,1.382812 -2.21484,0.921875 0.46093,1.107422 2.21485,-0.921875 z m -3.32422,1.382813 -2.21484,0.921875 0.46093,1.107421 2.21485,-0.921875 z"
         id="path15" /><g
         id="g11"><g
           id="path11"><path
             style="color:#000000;fill:#8fd4a6;fill-rule:evenodd;-inkscape-stroke:none"
             d="m 169.9433,48.003581 -1.81959,2.381826 -1.15253,-2.76978 z"
             id="path12" /><path
             style="color:#000000;fill:#8fd4a6;fill-rule:evenodd;-inkscape-stroke:none"
             d="m 166.6543,47.373047 1.41797,3.410156 2.24023,-2.933594 -0.34375,-0.04492 z m 0.63476,0.486328 2.28711,0.296875 -1.40039,1.832031 z"
             id="path13" /></g></g></g><g
       id="path5-7"
       transform="matrix(1.2808857,0,0,1.2808857,147.58167,-10.325356)"><path
         style="color:#000000;fill:#8fd4a6;stroke-miterlimit:3.6;-inkscape-stroke:none"
         d="m 152.81836,81.003906 -0.80859,0.886719 c 3.95916,3.608595 9.81912,9.006048 13.01953,14.998047 1.6002,2.995999 2.53169,6.122318 2.28711,9.251958 -0.24459,3.12963 -1.64851,6.29374 -4.86133,9.42968 l -0.0234,0.0215 -0.0195,0.0254 c -2.43992,2.93562 -4.97677,4.48265 -7.62305,5.0625 -2.64628,0.57985 -5.43607,0.18824 -8.36719,-0.89453 -5.86223,-2.16556 -12.21576,-7.10568 -18.68164,-12.10938 -6.46587,-5.00369 -13.04878,-10.070133 -19.57031,-12.443358 -6.52152,-2.373225 -13.082259,-1.943346 -18.990233,4.019531 l -0.0098,0.0098 -0.0098,0.01172 c -5.582682,6.230957 -6.87993,13.944377 -7.18164,21.822267 -0.301711,7.87789 0.366381,15.96872 -1.140625,23.09961 l 1.173828,0.25 c 1.559291,-7.37829 0.868173,-15.52779 1.166015,-23.30468 0.297625,-7.7712 1.558782,-15.12138 6.865235,-21.05274 5.620283,-5.666051 11.47361,-6.000455 17.7168,-3.728519 6.24681,2.273255 12.78309,7.264159 19.24609,12.265629 6.463,5.00147 12.84936,10.01306 19,12.28516 3.07532,1.13604 6.10976,1.58522 9.03906,0.94336 2.9293,-0.64187 5.71883,-2.37829 8.28906,-5.47071 3.34602,-3.2839 4.91116,-6.73738 5.17774,-10.14843 0.26783,-3.42707 -0.75343,-6.779082 -2.42578,-9.910165 -3.34471,-6.262167 -9.30565,-11.709195 -13.26758,-15.320313 z"
         id="path19" /><g
         id="g16"><g
           id="path16"><path
             style="color:#000000;fill:#8fd4a6;fill-rule:evenodd;-inkscape-stroke:none"
             d="m 149.85527,79.116055 5.85666,1.278919 -4.04177,4.434423 z"
             id="path17" /><path
             style="color:#000000;fill:#8fd4a6;fill-rule:evenodd;-inkscape-stroke:none"
             d="m 149.26367,78.578125 0.21094,0.658203 2.02344,6.375 4.97656,-5.458984 z m 1.18164,1.078125 4.50391,0.980469 -3.10742,3.412109 z"
             id="path18" /></g></g></g></g></svg>
